<svg width="20" height="20" viewBox="0 0 20 20" fill="none" xmlns="http://www.w3.org/2000/svg">
<path d="M5.296 15.784C5.152 15.928 4.972 16 4.756 16C4.552 16 4.372 15.928 4.216 15.784C4.072 15.628 4 15.448 4 15.244C4 15.004 4.072 14.824 4.216 14.704L15.016 4.03C15.172 3.874 15.352 3.796 15.556 3.796C15.76 3.796 15.94 3.874 16.096 4.03C16.252 4.186 16.33 4.366 16.33 4.57C16.33 4.798 16.252 4.978 16.096 5.11L5.296 15.784ZM16.096 14.704C16.252 14.836 16.33 15.016 16.33 15.244C16.33 15.448 16.252 15.628 16.096 15.784C15.94 15.928 15.76 16 15.556 16C15.34 16 15.16 15.928 15.016 15.784L4.216 5.11C4.072 4.978 4 4.798 4 4.57C4 4.366 4.072 4.186 4.216 4.03C4.372 3.874 4.552 3.796 4.756 3.796C4.96 3.796 5.14 3.874 5.296 4.03L16.096 14.704Z" fill="currentColor"/>
</svg>
