<svg width="20" height="20" viewBox="0 0 20 20" fill="none" xmlns="http://www.w3.org/2000/svg">
<path d="M2 9.99956C2 5.58181 5.582 2 10 2C14.418 2 18 5.58181 18 9.99956C18 14.4173 14.418 17.9991 10 17.9991C5.582 17.9991 2 14.4173 2 9.99956Z" fill="rgba(0,0,0,0.3)"/>
<path d="M10.712 6.26638C10.712 5.87373 10.3936 5.55544 10.0009 5.55545C9.60813 5.55545 9.28976 5.87376 9.28977 6.2664L9.28914 12.0164L7.65926 10.3869C7.38155 10.1093 6.9313 10.1093 6.65359 10.3869C6.37589 10.6646 6.37589 11.1147 6.65359 11.3923L9.49804 14.2361C9.77574 14.5137 10.226 14.5137 10.5037 14.2361L13.3481 11.3923C13.6259 11.1147 13.6259 10.6646 13.3481 10.3869C13.0704 10.1093 12.6202 10.1093 12.3425 10.3869L10.7114 12.0176L10.712 6.26638Z" fill="white"/>
</svg>
