<svg width="20" height="20" viewBox="0 0 20 20" fill="none" xmlns="http://www.w3.org/2000/svg">
<path fill-rule="evenodd" clip-rule="evenodd" d="M10 1.99902C5.582 1.99902 2 5.58102 2 9.99902C2 14.417 5.582 17.999 10 17.999C14.418 17.999 18 14.417 18 9.99902C18 5.58102 14.418 1.99902 10 1.99902ZM6.64559 6.64345C6.91262 6.37643 7.34555 6.37644 7.61257 6.64347L10.0022 9.03318L12.3917 6.64364C12.6587 6.37661 13.0916 6.3766 13.3587 6.64362C13.6257 6.91064 13.6257 7.34357 13.3587 7.6106L10.9692 10.0002L13.3572 12.3883C13.6242 12.6553 13.6242 13.0883 13.3572 13.3553C13.0902 13.6223 12.6572 13.6223 12.3902 13.3553L10.0022 10.9672L7.61402 13.3555C7.347 13.6225 6.91407 13.6225 6.64704 13.3555C6.38001 13.0884 6.38 12.6555 6.64702 12.3885L9.03524 10.0002L6.64557 7.61044C6.37855 7.34341 6.37856 6.91047 6.64559 6.64345Z" fill="#E53232"/>
<path fill-rule="evenodd" clip-rule="evenodd" d="M7.61257 6.64364C7.34555 6.37661 6.91262 6.3766 6.64559 6.64362C6.37856 6.91064 6.37855 7.34357 6.64557 7.6106L9.03524 10.0004L6.64702 12.3887C6.38 12.6557 6.38001 13.0886 6.64704 13.3556C6.91407 13.6227 7.347 13.6226 7.61402 13.3556L10.0022 10.9674L12.3902 13.3555C12.6572 13.6225 13.0902 13.6225 13.3572 13.3555C13.6242 13.0884 13.6242 12.6555 13.3572 12.3885L10.9692 10.0004L13.3587 7.61077C13.6257 7.34374 13.6257 6.91081 13.3587 6.64379C13.0916 6.37677 12.6587 6.37677 12.3917 6.6438L10.0022 9.03335L7.61257 6.64364Z" fill="white"/>
</svg>
