<svg width="20" height="20" viewBox="0 0 20 20" fill="none" xmlns="http://www.w3.org/2000/svg">
<path d="M2 10C2 5.582 5.58162 2 9.99916 2C14.4167 2 17.9983 5.582 17.9983 10C17.9983 14.418 14.4167 18 9.99916 18C5.58162 18 2 14.418 2 10Z" fill="rgba(0,0,0,0.3)"/>
<path d="M9.99824 5.55566C9.50734 5.55566 9.10939 5.95389 9.10939 6.44512C9.10939 6.93636 9.50734 7.33458 9.99824 7.33458C10.4891 7.33458 10.8871 6.93636 10.8871 6.44512C10.8871 5.95389 10.4891 5.55566 9.99824 5.55566Z" fill="white"/>
<path d="M9.10938 9.11178C9.10938 8.62054 9.50734 8.22232 9.99824 8.22233C10.4891 8.22234 10.8871 8.62057 10.8871 9.1118V13.5557C10.8871 14.0469 10.4891 14.4451 9.99821 14.4451C9.50731 14.4451 9.10937 14.0469 9.10938 13.5557L9.10938 9.11178Z" fill="white"/>
</svg>
