<svg width="20" height="20" viewBox="0 0 20 20" fill="none" xmlns="http://www.w3.org/2000/svg">
<path d="M2 10C2 5.582 5.582 2 10 2C14.418 2 18 5.582 18 10C18 14.418 14.418 18 10 18C5.582 18 2 14.418 2 10Z" fill="#2F9952"/>
<path fill-rule="evenodd" clip-rule="evenodd" d="M13.2531 7.05389C13.559 7.24956 13.6484 7.65616 13.4527 7.96207L9.89095 13.5306C9.78525 13.6958 9.61129 13.8053 9.41657 13.829C9.22185 13.8527 9.02671 13.7883 8.88443 13.6532L6.6502 11.5328C6.3868 11.2828 6.37593 10.8666 6.62591 10.6032C6.87588 10.3399 7.29205 10.329 7.55545 10.579L9.21217 12.1513L12.3449 7.2535C12.5406 6.94759 12.9472 6.85822 13.2531 7.05389Z" fill="white"/>
</svg>
