<svg width="20" height="20" viewBox="0 0 20 20" fill="none" xmlns="http://www.w3.org/2000/svg">
<path d="M2 9.99945C2 5.58175 5.58162 2 9.99916 2C14.4167 2 17.9983 5.58175 17.9983 9.99945C17.9983 14.4171 14.4167 17.9989 9.99916 17.9989C5.58162 17.9989 2 14.4171 2 9.99945Z" fill="#676E74"/>
<path d="M10.712 13.7336C10.712 14.1263 10.3936 14.4446 10.0009 14.4446C9.60813 14.4445 9.28976 14.1262 9.28977 13.7336L9.28914 7.98358L7.65926 9.61308C7.38155 9.89072 6.9313 9.89072 6.65359 9.61308C6.37589 9.33544 6.37589 8.88529 6.65359 8.60766L9.49804 5.76389C9.77574 5.48625 10.226 5.48625 10.5037 5.76389L13.3481 8.60766C13.6259 8.88529 13.6259 9.33544 13.3481 9.61308C13.0704 9.89072 12.6202 9.89072 12.3425 9.61308L10.7114 7.98235L10.712 13.7336Z" fill="white"/>
</svg>
