<svg width="20" height="20" viewBox="0 0 20 20" fill="none" xmlns="http://www.w3.org/2000/svg">
<path d="M2 10.001C2 5.58298 5.58162 2.00098 9.99916 2.00098C14.4167 2.00098 17.9983 5.58298 17.9983 10.001C17.9983 14.419 14.4167 18.001 9.99916 18.001C5.58162 18.001 2 14.419 2 10.001Z" fill="#F27B13"/>
<path d="M9.99824 14.4463C9.50734 14.4463 9.10939 14.0481 9.10939 13.5568C9.10939 13.0656 9.50734 12.6674 9.99824 12.6674C10.4891 12.6674 10.8871 13.0656 10.8871 13.5568C10.8871 14.0481 10.4891 14.4463 9.99824 14.4463Z" fill="white"/>
<path d="M9.10938 10.8902C9.10938 11.3814 9.50734 11.7796 9.99824 11.7796C10.4891 11.7796 10.8871 11.3814 10.8871 10.8902V6.44626C10.8871 5.95503 10.4891 5.55681 9.99821 5.55682C9.50731 5.55682 9.10937 5.95505 9.10938 6.44629L9.10938 10.8902Z" fill="white"/>
</svg>
