<svg width="24" height="24" viewBox="0 0 24 24" fill="none" xmlns="http://www.w3.org/2000/svg">
<path d="M15.4939 17.5988C15.9034 18.255 16.7778 18.463 17.3526 17.9455C18.1268 17.2485 18.7609 16.4039 19.2148 15.4564C19.8714 14.0858 20.1241 12.5564 19.9431 11.0474C19.7621 9.53844 19.1551 8.11221 18.193 6.9357C17.2309 5.75918 15.9535 4.88106 14.5105 4.40413C13.0675 3.92719 11.5184 3.87117 10.0447 4.24262C8.57102 4.61408 7.2336 5.39763 6.18903 6.50158C5.14446 7.60552 4.43597 8.98417 4.14647 10.4762C3.94634 11.5076 3.95218 12.5637 4.15853 13.5847C4.31173 14.3428 5.13792 14.6969 5.85776 14.414V14.414C6.57759 14.1311 6.91069 13.3146 6.82954 12.5455C6.77576 12.0356 6.79741 11.518 6.89605 11.0097C7.08419 10.04 7.54463 9.14406 8.22349 8.42661C8.90235 7.70917 9.77153 7.19994 10.7293 6.95853C11.687 6.71713 12.6937 6.75353 13.6316 7.06349C14.5694 7.37345 15.3995 7.94413 16.0248 8.70874C16.65 9.47335 17.0446 10.4002 17.1622 11.3809C17.2798 12.3616 17.1156 13.3555 16.6889 14.2463C16.4651 14.7133 16.1741 15.1418 15.827 15.5192C15.3035 16.0885 15.0845 16.9427 15.4939 17.5988V17.5988Z" fill="currentColor"/>
</svg>
