<svg width="20" height="20" viewBox="0 0 20 20" fill="none" xmlns="http://www.w3.org/2000/svg">
<path d="M4.01144 13.0882C3.86729 13.2324 3.70348 13.3045 3.52002 13.3045C3.31034 13.3045 3.13998 13.2193 3.00893 13.0489C2.89099 12.9048 2.83202 12.7475 2.83202 12.5772C2.83202 12.3937 2.89755 12.2364 3.02859 12.1054L8.67016 6.42452C9.0633 6.03138 9.49575 5.83481 9.96752 5.83481C10.4131 5.83481 10.839 6.02483 11.2452 6.40486L16.9064 12.0661C17.0637 12.2233 17.1423 12.4003 17.1423 12.5968C17.1423 12.7934 17.0768 12.9572 16.9458 13.0882C16.8147 13.2193 16.6509 13.2848 16.4543 13.2848C16.2578 13.2848 16.0874 13.2127 15.9433 13.0686L10.4196 7.50565C10.2886 7.37461 10.1379 7.30908 9.96752 7.30908C9.79716 7.30908 9.64646 7.37461 9.51541 7.50565L4.01144 13.0882Z" fill="currentColor"/>
</svg>
