<svg xmlns="http://www.w3.org/2000/svg" width="20" height="20" viewBox="0 0 20 20" fill="none">
<path d="M9.51542 12.5181C9.67267 12.6491 9.82338 12.7146 9.96753 12.7146C10.1117 12.7146 10.2624 12.6491 10.4196 12.5181L15.9433 6.95512C16.1005 6.79787 16.2709 6.71924 16.4543 6.71924C16.6378 6.71924 16.8016 6.79131 16.9458 6.93546C17.0768 7.06651 17.1423 7.23032 17.1423 7.42689C17.1423 7.62346 17.0637 7.80037 16.9065 7.95763L11.2452 13.6189C10.839 13.9989 10.4131 14.1889 9.96753 14.1889C9.49576 14.1889 9.06331 13.9923 8.67017 13.5992L3.0286 7.91832C2.89755 7.78727 2.83203 7.63001 2.83203 7.44655C2.83203 7.26308 2.891 7.10583 3.00894 6.97478C3.13999 6.80442 3.31035 6.71924 3.52003 6.71924C3.70349 6.71924 3.8673 6.79131 4.01145 6.93546L9.51542 12.5181Z" fill="currentColor"/>
</svg>
