<svg xmlns="http://www.w3.org/2000/svg" width="20" height="20" fill="none" viewBox="0 0 20 20"><path fill="currentColor" d="M14.832 10.04q-.345 0-.623-.147a1.06 1.06 0 0 1-.424-.418 1.3 1.3 0 0 1-.154-.644V6.238q0-.374.154-.645.153-.27.425-.417.277-.147.622-.147.351 0 .623.147.27.146.424.417.154.27.154.645V8.83q0 .373-.154.644-.154.27-.424.418-.272.146-.623.146m-.007-.755q.146 0 .227-.088a.38.38 0 0 0 .08-.257V6.135q0-.176-.08-.263a.28.28 0 0 0-.227-.096.27.27 0 0 0-.22.096q-.08.087-.08.263V8.94q0 .162.08.257a.28.28 0 0 0 .22.088m.571 6.372h-.85l3.384-10.57h.85zm3.113.058q-.352 0-.63-.146a1.06 1.06 0 0 1-.425-.418 1.3 1.3 0 0 1-.154-.644v-2.593q0-.374.154-.644.154-.271.425-.418.277-.147.63-.146.344 0 .615.146.27.147.425.418.154.27.154.644v2.593q0 .374-.154.644-.154.271-.425.418-.27.146-.615.146m-.008-.747q.14 0 .22-.088a.4.4 0 0 0 .08-.263V11.81q0-.168-.08-.263a.27.27 0 0 0-.22-.095.28.28 0 0 0-.227.095.4.4 0 0 0-.08.264v2.805q0 .168.08.263.081.088.227.088m-7.881.778q-.557 0-.996-.242a1.73 1.73 0 0 1-.689-.725q-.242-.477-.242-1.165V7.131q0-.689.242-1.164.25-.477.689-.718Q10.062 5 10.62 5q.564 0 .988.249.432.241.674.718.25.476.25 1.164v6.482q0 .689-.25 1.165-.241.476-.674.725a1.96 1.96 0 0 1-.988.242m-.015-1.055a.64.64 0 0 0 .38-.11.7.7 0 0 0 .235-.337q.088-.227.088-.542V7.043q0-.315-.088-.534a.7.7 0 0 0-.234-.337.6.6 0 0 0-.381-.117.6.6 0 0 0-.374.117.7.7 0 0 0-.241.337 1.6 1.6 0 0 0-.08.534v6.658q0 .315.08.542a.77.77 0 0 0 .241.337q.155.11.374.11m-4.921 1.055q-.556 0-.996-.242A1.73 1.73 0 0 1 4 14.778q-.242-.477-.242-1.165V7.131q0-.689.242-1.164.249-.477.688-.718Q5.128 5 5.684 5q.564 0 .989.249.432.241.674.718.249.476.249 1.164v6.482q0 .689-.25 1.165-.24.476-.673.725a1.96 1.96 0 0 1-.989.242M5.67 14.69a.64.64 0 0 0 .381-.11.7.7 0 0 0 .235-.337q.088-.227.088-.542V7.043q0-.315-.088-.534a.7.7 0 0 0-.235-.337.6.6 0 0 0-.38-.117.6.6 0 0 0-.374.117.7.7 0 0 0-.242.337 1.6 1.6 0 0 0-.08.534v6.658q0 .315.08.542a.77.77 0 0 0 .242.337q.154.11.373.11m-4.322.967V6.399h-.03L0 7.483V6.216l1.34-1.128h1.194v10.569z"/></svg>