<svg width="20" height="20" viewBox="0 0 20 20" fill="none" xmlns="http://www.w3.org/2000/svg">
<path d="M15.3773 15.3988C14.3907 16.3854 13.2432 17.0505 11.935 17.394C10.6414 17.7375 9.34417 17.7411 8.04327 17.4049C6.74236 17.0541 5.59859 16.3854 4.61194 15.3988C3.61799 14.4048 2.94927 13.261 2.60577 11.9674C2.26227 10.6592 2.26227 9.35831 2.60577 8.06472C2.94927 6.7565 3.61434 5.60907 4.60098 4.62243C5.59493 3.62848 6.74601 2.95975 8.05423 2.61625C9.35514 2.26545 10.656 2.26545 11.957 2.61625C13.2579 2.95244 14.4053 3.61751 15.3992 4.61147C16.3859 5.59811 17.051 6.74554 17.3945 8.05375C17.7379 9.34735 17.7343 10.6446 17.3835 11.9455C17.04 13.2537 16.3713 14.4048 15.3773 15.3988ZM14.4126 14.434C15.2238 13.6228 15.7683 12.6837 16.046 11.6166C16.3238 10.5496 16.3201 9.48621 16.0351 8.42649C15.75 7.35214 15.2056 6.413 14.4016 5.60907C13.5904 4.79783 12.6513 4.25335 11.5842 3.97563C10.5172 3.68329 9.45015 3.67598 8.38311 3.9537C7.31608 4.23142 6.37694 4.77591 5.5657 5.58714C4.76177 6.39108 4.22094 7.32656 3.94322 8.3936C3.6655 9.46063 3.6728 10.5277 3.96514 11.5947C4.25017 12.6544 4.79831 13.5899 5.60955 14.4012C6.41348 15.2051 7.34896 15.7532 8.416 16.0456C9.47573 16.3306 10.5391 16.3342 11.6061 16.0565C12.6732 15.7788 13.6087 15.238 14.4126 14.434ZM10.6634 10.6629L13.9412 10.6738C14.1605 10.6738 14.3322 10.6117 14.4564 10.4875C14.588 10.3559 14.6465 10.1878 14.6319 9.98319C14.6392 9.80048 14.5843 9.65065 14.4674 9.53372C14.3285 9.39486 14.1568 9.33274 13.9522 9.34735L10.6414 9.36928L10.6853 6.03662C10.6853 5.83198 10.6232 5.66754 10.4989 5.5433C10.3747 5.41905 10.2029 5.35693 9.98367 5.35693C9.80826 5.35693 9.65844 5.41905 9.53419 5.54329C9.40264 5.67485 9.33687 5.85025 9.33687 6.0695L9.38072 9.38024L6.08094 9.34735C5.86169 9.34735 5.68629 9.41313 5.55473 9.54468C5.44511 9.65431 5.38664 9.78586 5.37933 9.93934C5.35741 10.1805 5.41953 10.3742 5.5657 10.5204C5.68263 10.6373 5.84342 10.6958 6.04806 10.6958L9.35879 10.6519L9.3259 13.9955C9.3259 14.1856 9.38803 14.3427 9.51227 14.4669C9.64382 14.5985 9.80461 14.6643 9.99463 14.6643C10.1993 14.6643 10.3601 14.6058 10.477 14.4889C10.6085 14.3573 10.6743 14.1819 10.6743 13.9626L10.6634 10.6629Z" fill="currentColor"/>
</svg>
