<svg width="20" height="20" viewBox="0 0 20 20" fill="none" xmlns="http://www.w3.org/2000/svg">
<path d="M16.474 9.07822C16.6575 9.07822 16.8147 9.15029 16.9458 9.29444C17.0899 9.42549 17.162 9.58275 17.162 9.76621C17.162 9.94968 17.0899 10.1135 16.9458 10.2576C16.8147 10.3887 16.6575 10.4542 16.474 10.4542H3.50035C3.31689 10.4542 3.15963 10.3887 3.02859 10.2576C2.89754 10.1135 2.83202 9.94968 2.83202 9.76621C2.83202 9.58275 2.89754 9.42549 3.02859 9.29444C3.15963 9.15029 3.31689 9.07822 3.50035 9.07822H16.474ZM10.6948 16.4496C10.6948 16.6331 10.6227 16.7903 10.4786 16.9214C10.3344 17.0524 10.1706 17.1179 9.98717 17.1179C9.80371 17.1179 9.64645 17.0524 9.5154 16.9214C9.38436 16.7903 9.31883 16.6331 9.31883 16.4496V3.43665C9.31883 3.25319 9.38436 3.09593 9.5154 2.96488C9.64645 2.82073 9.80371 2.74866 9.98717 2.74866C10.1706 2.74866 10.3344 2.82073 10.4786 2.96488C10.6227 3.09593 10.6948 3.25319 10.6948 3.43665V16.4496Z" fill="currentColor"/>
</svg>
