<svg width="20" height="20" viewBox="0 0 20 20" fill="none" xmlns="http://www.w3.org/2000/svg">
<path d="M6.58652 5.61859H3.65763C3.46106 5.61859 3.29725 5.55962 3.1662 5.44167C3.04826 5.31063 2.98929 5.14682 2.98929 4.95025C2.98929 4.75368 3.04826 4.58987 3.1662 4.45882C3.29725 4.32778 3.46106 4.26225 3.65763 4.26225H6.58652V5.61859ZM7.9232 5.9331C8.2115 5.9331 8.44739 5.84137 8.63085 5.6579C8.81432 5.47444 8.90605 5.23855 8.90605 4.95025C8.90605 4.66194 8.81432 4.42606 8.63085 4.24259C8.44739 4.05913 8.2115 3.9674 7.9232 3.9674C7.6349 3.9674 7.39901 4.05913 7.21555 4.24259C7.03208 4.42606 6.94035 4.66194 6.94035 4.95025C6.94035 5.23855 7.03208 5.47444 7.21555 5.6579C7.39901 5.84137 7.6349 5.9331 7.9232 5.9331ZM7.9232 7.09286C7.29418 7.09286 6.77654 6.89629 6.3703 6.50315C5.97716 6.09691 5.78059 5.57927 5.78059 4.95025C5.78059 4.33433 5.97716 3.8298 6.3703 3.43666C6.77654 3.03041 7.29418 2.82074 7.9232 2.80763C8.55222 2.82074 9.06331 3.03041 9.45645 3.43666C9.86269 3.8298 10.0658 4.33433 10.0658 4.95025C10.0658 5.57927 9.86269 6.09691 9.45645 6.50315C9.06331 6.89629 8.55222 7.09286 7.9232 7.09286ZM16.3167 4.26225C16.5133 4.26225 16.6771 4.32778 16.8082 4.45882C16.9392 4.58987 17.0047 4.75368 17.0047 4.95025C17.0047 5.14682 16.9392 5.31063 16.8082 5.44167C16.6771 5.55962 16.5133 5.61859 16.3167 5.61859H9.33851V4.26225H16.3167ZM11.4025 10.5918H3.65763C3.46106 10.5918 3.29725 10.5328 3.1662 10.4149C3.04826 10.2839 2.98929 10.12 2.98929 9.92347C2.98929 9.7138 3.04826 9.54344 3.1662 9.41239C3.29725 9.28134 3.46106 9.21582 3.65763 9.21582H11.4025V10.5918ZM12.7588 10.9063C13.0471 10.9063 13.283 10.8146 13.4665 10.6311C13.6499 10.4477 13.7417 10.2118 13.7417 9.92347C13.7417 9.63517 13.6499 9.39929 13.4665 9.21582C13.283 9.03236 13.0471 8.94062 12.7588 8.94062C12.4705 8.94062 12.2346 9.03236 12.0512 9.21582C11.8677 9.39929 11.776 9.63517 11.776 9.92347C11.776 10.2118 11.8677 10.4477 12.0512 10.6311C12.2346 10.8146 12.4705 10.9063 12.7588 10.9063ZM12.7588 12.0464C12.1298 12.0464 11.6122 11.8499 11.2059 11.4567C10.8128 11.0505 10.6162 10.5394 10.6162 9.92347C10.6162 9.30755 10.8128 8.80302 11.2059 8.40988C11.6122 8.00364 12.1298 7.79396 12.7588 7.78086C13.3879 7.79396 13.8989 8.00364 14.2921 8.40988C14.6852 8.80302 14.8818 9.30755 14.8818 9.92347C14.8818 10.5394 14.6852 11.0505 14.2921 11.4567C13.8989 11.8499 13.3879 12.0464 12.7588 12.0464ZM16.3167 9.21582C16.5133 9.21582 16.6771 9.28134 16.8082 9.41239C16.9392 9.54344 17.0047 9.7138 17.0047 9.92347C17.0047 10.12 16.9392 10.2839 16.8082 10.4149C16.6771 10.5328 16.5133 10.5918 16.3167 10.5918H14.1545V9.21582H16.3167ZM6.58652 15.565H3.65763C3.46106 15.565 3.29725 15.5061 3.1662 15.3881C3.04826 15.2571 2.98929 15.0933 2.98929 14.8967C2.98929 14.7001 3.04826 14.5363 3.1662 14.4053C3.29725 14.2742 3.46106 14.2087 3.65763 14.2087H6.58652V15.565ZM7.9232 15.8796C8.22461 15.8796 8.46049 15.7878 8.63085 15.6044C8.81432 15.4209 8.90605 15.185 8.90605 14.8967C8.90605 14.6084 8.81432 14.3725 8.63085 14.189C8.44739 14.0056 8.2115 13.9138 7.9232 13.9138C7.6349 13.9138 7.39901 14.0056 7.21555 14.189C7.03208 14.3725 6.94035 14.6084 6.94035 14.8967C6.94035 15.185 7.03208 15.4209 7.21555 15.6044C7.39901 15.7878 7.6349 15.8796 7.9232 15.8796ZM7.9232 17.0393C7.29418 17.0393 6.77654 16.8427 6.3703 16.4496C5.97716 16.0434 5.78059 15.5257 5.78059 14.8967C5.78059 14.2808 5.97716 13.7762 6.3703 13.3831C6.77654 12.9769 7.29418 12.7672 7.9232 12.7541C8.55222 12.7672 9.06331 12.9769 9.45645 13.3831C9.86269 13.7762 10.0658 14.2808 10.0658 14.8967C10.0658 15.5257 9.86269 16.0434 9.45645 16.4496C9.06331 16.8427 8.55222 17.0393 7.9232 17.0393ZM16.3167 14.2087C16.5133 14.2087 16.6771 14.2742 16.8082 14.4053C16.9392 14.5363 17.0047 14.7001 17.0047 14.8967C17.0047 15.0933 16.9392 15.2571 16.8082 15.3881C16.6771 15.5061 16.5133 15.565 16.3167 15.565H9.33851V14.2087H16.3167Z" fill="currentColor"/>
</svg>
