<svg width="20" height="20" viewBox="0 0 20 20" fill="none" xmlns="http://www.w3.org/2000/svg">
<path d="M8.29741 7.85365C8.38311 7.63634 8.69065 7.63634 8.77635 7.85365L9.38395 9.39424C9.40489 9.44731 9.4469 9.48933 9.49997 9.51026L11.0406 10.1179C11.2579 10.2036 11.2579 10.5111 11.0406 10.5968L9.49997 11.2044C9.4469 11.2253 9.40489 11.2674 9.38395 11.3204L8.77635 12.861C8.69065 13.0783 8.38311 13.0783 8.29741 12.861L7.6898 11.3204C7.66887 11.2674 7.62686 11.2253 7.57378 11.2044L6.03319 10.5968C5.81589 10.5111 5.81589 10.2036 6.03319 10.1179L7.57378 9.51026C7.62686 9.48933 7.66887 9.44731 7.6898 9.39424L8.29741 7.85365Z" fill="currentColor"/>
<path fill-rule="evenodd" clip-rule="evenodd" d="M13.3043 7.14731H3.50042C3.06726 7.14731 2.71611 7.49846 2.71611 7.93162V12.6375C2.71611 13.0706 3.06726 13.4218 3.50042 13.4218H13.3043C13.7375 13.4218 14.0887 13.0706 14.0887 12.6375V7.93162C14.0887 7.49846 13.7375 7.14731 13.3043 7.14731ZM3.50042 5.97085C2.41751 5.97085 1.53964 6.84871 1.53964 7.93162V12.6375C1.53964 13.7204 2.41751 14.5983 3.50042 14.5983H13.3043C14.3873 14.5983 15.2651 13.7204 15.2651 12.6375V7.93162C15.2651 6.84872 14.3873 5.97085 13.3043 5.97085H3.50042Z" fill="currentColor"/>
<path fill-rule="evenodd" clip-rule="evenodd" d="M17.422 3.42183C14.4308 3.42183 13.295 5.29621 13.0907 6.11351C13.0119 6.42868 12.6925 6.6203 12.3774 6.54151C12.0622 6.46271 11.8706 6.14334 11.9494 5.82817C12.2679 4.55397 13.825 2.24536 17.422 2.24536C17.7469 2.24536 18.0102 2.50872 18.0102 2.8336C18.0102 3.15847 17.7469 3.42183 17.422 3.42183Z" fill="currentColor"/>
<path fill-rule="evenodd" clip-rule="evenodd" d="M17.422 17.1473C14.4308 17.1473 13.295 15.2729 13.0907 14.4556C13.0119 14.1404 12.6925 13.9488 12.3774 14.0276C12.0622 14.1064 11.8706 14.4258 11.9494 14.7409C12.2679 16.0151 13.825 18.3237 17.422 18.3237C17.7469 18.3237 18.0102 18.0604 18.0102 17.7355C18.0102 17.4106 17.7469 17.1473 17.422 17.1473Z" fill="currentColor"/>
<path fill-rule="evenodd" clip-rule="evenodd" d="M14.2847 10.2846C14.2847 9.95969 14.5481 9.69633 14.873 9.69633H17.6181C17.943 9.69633 18.2063 9.95969 18.2063 10.2846C18.2063 10.6094 17.943 10.8728 17.6181 10.8728H14.873C14.5481 10.8728 14.2847 10.6094 14.2847 10.2846Z" fill="currentColor"/>
</svg>
