<svg xmlns="http://www.w3.org/2000/svg" width="20" height="20" viewBox="0 0 20 20" fill="none">
<path d="M2.71689 3.90015C2.53207 3.90015 2.37001 3.96977 2.2445 4.10331C2.11311 4.23526 2.04369 4.39969 2.04369 4.58437C2.04369 4.7696 2.11352 4.93446 2.24568 5.06661C2.3728 5.19373 2.53138 5.2539 2.71689 5.2539H4.12417C5.00276 5.2539 5.67784 5.48391 6.16905 5.93281C6.64863 6.38109 6.89386 6.98839 6.89386 7.77372V9.16184H2.57359C2.38933 9.16184 2.22769 9.23105 2.10235 9.36379C1.96986 9.48884 1.90039 9.64676 1.90039 9.83504C1.90039 10.0239 1.97028 10.1822 2.10356 10.3074C2.23048 10.4338 2.38865 10.4935 2.57359 10.4935H6.9012V11.9625C6.9012 12.7635 6.65543 13.3732 6.1778 13.8021C5.69836 14.2254 5.01964 14.4419 4.13152 14.4419H2.71689C2.5354 14.4419 2.37302 14.5018 2.24568 14.6292C2.11234 14.7625 2.04369 14.9316 2.04369 15.1261C2.04369 15.3104 2.1129 15.472 2.24564 15.5974C2.3707 15.7299 2.52862 15.7993 2.71689 15.7993H4.12417C4.94156 15.7993 5.66658 15.6426 6.29646 15.3221C6.92247 15.0127 7.41123 14.5696 7.75946 13.9943C8.10822 13.4105 8.277 12.7307 8.277 11.9625V10.4935H10.7078V11.9625C10.7078 12.7311 10.881 13.4114 11.2257 13.9947C11.5329 14.503 11.9573 14.9003 12.4812 15.2018L12.7556 15.3597L12.6217 15.0728C12.564 14.9491 12.5265 14.8172 12.5143 14.6787H12.5172V14.5787C12.5172 14.3154 12.6083 14.0689 12.7638 13.8728L12.8199 13.8022L12.7553 13.7391C12.3193 13.3136 12.0947 12.728 12.0947 11.9625V10.4935H16.4223C16.6032 10.4935 16.7652 10.434 16.8923 10.3074C17.0256 10.1822 17.0955 10.0239 17.0955 9.83504C17.0955 9.64677 17.026 9.48885 16.8935 9.3638C16.7685 9.23131 16.6106 9.16184 16.4223 9.16184H12.0947V7.77372C12.0947 6.992 12.3399 6.38107 12.8194 5.93283C13.3106 5.48395 13.9894 5.2539 14.8644 5.2539H16.2716C16.4531 5.2539 16.6155 5.19396 16.7429 5.06661C16.875 4.93446 16.9448 4.7696 16.9448 4.58437C16.9448 4.39969 16.8754 4.23526 16.744 4.10331C16.6188 3.97004 16.4605 3.90015 16.2716 3.90015H14.8644C14.0535 3.90015 13.3276 4.06124 12.6905 4.38924C12.0646 4.71726 11.5767 5.17832 11.2289 5.7679C10.8805 6.35131 10.7115 7.02351 10.7115 7.77372V9.16184H8.28068V7.77372C8.28068 7.02286 8.10778 6.3547 7.76352 5.76833C7.41574 5.17485 6.92741 4.71339 6.30108 4.3889C5.66392 4.0609 4.93866 3.90015 4.12785 3.90015H2.71689Z" fill="currentcolor"/>
<path d="M15.9221 11.9663C16.0103 11.7385 16.3337 11.7385 16.4219 11.9663L17.0575 13.572C17.0796 13.6271 17.1237 13.6712 17.1788 13.6932L18.7845 14.3289C19.0123 14.4171 19.0123 14.7404 18.7845 14.8286L17.1788 15.4643C17.1237 15.4863 17.0796 15.5304 17.0575 15.5855L16.4219 17.1912C16.3337 17.419 16.0103 17.419 15.9221 17.1912L15.2865 15.5855C15.2644 15.5304 15.2203 15.4863 15.1652 15.4643L13.5595 14.8286C13.3317 14.7404 13.3317 14.4171 13.5595 14.3289L15.1652 13.6932C15.2203 13.6712 15.2644 13.6271 15.2865 13.572L15.9221 11.9663Z" fill="currentcolor"/>
</svg>
