<svg width="24" height="24" viewBox="0 0 24 24" fill="none" xmlns="http://www.w3.org/2000/svg">
<path d="M21.6014 15.5442V6.0911C21.6008 5.11213 21.2117 4.1734 20.5193 3.48125C19.827 2.7891 18.8882 2.40016 17.9092 2.3999L6.09159 2.3999C5.11278 2.40041 4.1742 2.78947 3.48208 3.48159C2.78996 4.17372 2.4009 5.11229 2.40039 6.0911V17.9087C2.40065 18.8876 2.78962 19.8263 3.4818 20.5185C4.17398 21.2107 5.1127 21.5996 6.09159 21.5999H17.9092C18.7751 21.5993 19.6133 21.2947 20.2775 20.7392C20.9418 20.1837 21.3899 19.4127 21.5438 18.5605C20.5646 18.1362 16.3214 16.3045 14.1105 15.2485C12.4286 17.2866 10.666 18.5097 8.01063 18.5097C5.35527 18.5097 3.58215 16.8738 3.79527 14.8713C3.93543 13.558 4.83687 11.4105 8.75079 11.7781C10.8148 11.9721 11.7585 12.357 13.4414 12.9129C13.8762 12.1141 14.2382 11.2357 14.5127 10.3017H7.05159V9.56246H10.7438V8.23382H6.24039V7.4207H10.7428V5.5055C10.7428 5.5055 10.7831 5.20598 11.1143 5.20598H12.9604V7.4207H17.7604V8.23478H12.9604V9.5615H16.8762C16.5385 10.9597 16.0028 12.3025 15.2855 13.5493C16.4231 13.9621 21.6004 15.5442 21.6004 15.5442H21.6014ZM7.71687 17.2425C4.91079 17.2425 4.46727 15.4713 4.61607 14.7311C4.76295 13.9938 5.57607 13.0319 7.13607 13.0319C8.92839 13.0319 10.5345 13.4908 12.4622 14.4297C11.1086 16.1922 9.44487 17.2425 7.71687 17.2425Z" fill="#009FE8"/>
</svg>
