<svg xmlns="http://www.w3.org/2000/svg" width="20" height="20" viewBox="0 0 20 20" fill="none">
  <path d="M5.01418 4.36128C4.80451 4.36128 4.63415 4.4268 4.5031 4.55785C4.38516 4.6889 4.32619 4.8527 4.32619 5.04927L4.30653 7.03463C4.30653 7.2312 4.37205 7.39501 4.5031 7.52606C4.63415 7.644 4.80451 7.70297 5.01418 7.70297H7.07817C7.27474 7.70297 7.43855 7.644 7.56959 7.52606C7.70064 7.39501 7.76616 7.2312 7.76616 7.03463V5.04927C7.76616 4.8527 7.70064 4.6889 7.56959 4.55785C7.43855 4.4268 7.27474 4.36128 7.07817 4.36128H5.01418ZM2.9502 4.67579C2.9502 4.17781 3.1009 3.77812 3.40231 3.47671C3.71682 3.1622 4.12306 3.00494 4.62104 3.00494H7.432C7.92997 3.00494 8.33622 3.1622 8.65073 3.47671C8.96524 3.77812 9.1225 4.17781 9.1225 4.67579V7.38846C9.1225 7.89954 8.96524 8.31234 8.65073 8.62685C8.34932 8.92826 7.94963 9.07896 7.45165 9.07896H4.6407C4.14272 9.07896 3.73648 8.92826 3.42196 8.62685C3.12056 8.31234 2.96985 7.90609 2.96985 7.40812L2.9502 4.67579ZM5.01418 12.1455C4.80451 12.1455 4.63415 12.211 4.5031 12.342C4.38516 12.46 4.32619 12.6172 4.32619 12.8138L4.30653 14.8385C4.30653 15.0481 4.37205 15.2185 4.5031 15.3496C4.63415 15.4675 4.80451 15.5265 5.01418 15.5265H7.07817C7.27474 15.5265 7.43855 15.4675 7.56959 15.3496C7.70064 15.2185 7.76616 15.0481 7.76616 14.8385V12.8138C7.76616 12.6172 7.70064 12.46 7.56959 12.342C7.43855 12.211 7.27474 12.1455 7.07817 12.1455H5.01418ZM2.9502 12.46C2.9502 11.962 3.1009 11.5557 3.40231 11.2412C3.71682 10.9267 4.12306 10.7695 4.62104 10.7695H7.432C7.92997 10.7695 8.33622 10.9267 8.65073 11.2412C8.96524 11.5426 9.1225 11.9423 9.1225 12.4403V15.212C9.1225 15.7099 8.96524 16.1162 8.65073 16.4307C8.34932 16.7321 7.94963 16.8828 7.45165 16.8828H4.6407C4.14272 16.8828 3.73648 16.7321 3.42196 16.4307C3.12056 16.1293 2.96985 15.7296 2.96985 15.2316L2.9502 12.46ZM12.9556 12.1455C12.7459 12.1455 12.5756 12.211 12.4445 12.342C12.3266 12.46 12.2676 12.6172 12.2676 12.8138L12.248 14.8385C12.248 15.0481 12.3135 15.2185 12.4445 15.3496C12.5756 15.4675 12.7459 15.5265 12.9556 15.5265H15.0196C15.2162 15.5265 15.3734 15.4675 15.4914 15.3496C15.6224 15.2185 15.6879 15.0481 15.6879 14.8385V12.8138C15.6879 12.6172 15.6224 12.46 15.4914 12.342C15.3734 12.211 15.2162 12.1455 15.0196 12.1455H12.9556ZM10.9113 12.46C10.9113 11.962 11.062 11.5557 11.3634 11.2412C11.6779 10.9267 12.0776 10.7695 12.5625 10.7695H15.3734C15.8714 10.7695 16.2777 10.9267 16.5922 11.2412C16.9067 11.5426 17.0574 11.9423 17.0443 12.4403V15.212C17.0443 15.7099 16.8936 16.1162 16.5922 16.4307C16.2908 16.7321 15.8911 16.8828 15.3931 16.8828H12.5821C12.0711 16.8828 11.6648 16.7321 11.3634 16.4307C11.062 16.1293 10.9113 15.7296 10.9113 15.2316V12.46Z" fill="currentcolor"/>
  <path fill-rule="evenodd" clip-rule="evenodd" d="M12.8751 3.06468C13.2095 2.73024 13.5882 2.56291 14.0106 2.56283C14.4243 2.55403 14.7943 2.72144 15.1199 3.06468L16.9423 4.88706C17.2856 5.23038 17.4616 5.60887 17.4704 6.02261C17.4704 6.42754 17.3031 6.79741 16.9686 7.13192L15.0806 9.01991C14.7373 9.36322 14.3631 9.53487 13.9582 9.53487C13.5444 9.52607 13.1702 9.35443 12.8357 9.01991L11.0002 7.1844C10.6658 6.84992 10.4984 6.47998 10.4984 6.07509C10.4897 5.66147 10.6527 5.2871 10.9871 4.95266L12.8751 3.06468ZM12.162 5.60014C12.0214 5.74086 11.9509 5.89923 11.9508 6.07509C11.9596 6.24235 12.0306 6.39241 12.1627 6.52446L13.4832 7.87124C13.6152 8.00313 13.7691 8.06935 13.945 8.06935C14.1122 8.06053 14.2661 7.98568 14.4069 7.845L15.7937 6.4582C15.9256 6.3262 15.9918 6.18101 15.9918 6.02261C15.9918 5.84666 15.9256 5.69278 15.7937 5.56078L14.46 4.22712C14.328 4.09507 14.1736 4.02835 13.9975 4.02835C13.8304 4.01962 13.6808 4.08143 13.5488 4.21334L12.162 5.60014Z" fill="currentcolor"/>
</svg>