<svg width="20" height="20" viewBox="0 0 20 20" fill="none" xmlns="http://www.w3.org/2000/svg">
<path d="M12.5009 4.31762C12.8071 3.9647 13.0406 3.55478 13.188 3.11139C13.3353 2.668 13.3936 2.19987 13.3595 1.73389C12.4194 1.80977 11.5468 2.25189 10.9297 2.965C10.6341 3.30678 10.4101 3.70439 10.271 4.13428C10.1319 4.56417 10.0804 5.01761 10.1197 5.46774C10.5783 5.47156 11.0315 5.36981 11.4445 5.17037C11.8574 4.97094 12.2189 4.67915 12.5009 4.31762ZM14.542 10.3436C14.5474 9.72298 14.7109 9.11397 15.017 8.57405C15.3231 8.03412 15.7617 7.5811 16.2915 7.25772C15.9572 6.776 15.5152 6.37879 15.0006 6.09761C14.4861 5.81643 13.9131 5.65901 13.3271 5.63783C12.0636 5.50824 10.8973 6.37488 10.225 6.37488C9.55274 6.37488 8.60511 5.65403 7.55218 5.67023C6.86383 5.6929 6.1931 5.89359 5.60543 6.25273C5.01775 6.61186 4.53319 7.11718 4.199 7.71939C2.77349 10.1978 3.83452 13.8831 5.26003 15.8836C5.90799 16.8637 6.71793 17.9733 7.78706 17.9328C8.85619 17.8923 9.20447 17.2687 10.4437 17.2687C11.6829 17.2687 12.0636 17.9328 13.1165 17.9085C14.1694 17.8842 14.9146 16.9042 15.5949 15.9241C16.0769 15.2126 16.4534 14.4351 16.7127 13.6158C16.0708 13.342 15.5231 12.8863 15.1374 12.3047C14.7516 11.7232 14.5446 11.0414 14.542 10.3436Z" fill="currentColor"/>
</svg>
