<svg width="20" height="20" viewBox="0 0 20 20" fill="none" xmlns="http://www.w3.org/2000/svg">
<path d="M3.64868 7.99288C3.51763 8.15014 3.35381 8.22877 3.15725 8.22877C2.97379 8.22877 2.80997 8.15014 2.66583 7.99288C2.561 7.87494 2.50857 7.73079 2.50857 7.56043C2.50857 7.36386 2.70514 7.069 2.70514 7.069C2.70514 7.069 4.86589 3.95009 5.20659 3.57005C5.5473 3.19002 5.95358 3 6.42532 3C6.89707 3 7.31645 3.19002 7.68337 3.57005C8.05028 3.95009 10.2339 7.10832 10.2339 7.10832C10.2339 7.10832 10.4536 7.3901 10.4501 7.59974C10.4472 7.78219 10.3912 7.88805 10.2732 8.0322C10.1422 8.16324 9.98492 8.22877 9.80147 8.22877C9.60491 8.22877 9.43453 8.16324 9.29039 8.0322C9.14624 7.90115 6.50395 4.23839 6.50395 4.23839C6.50395 4.23839 3.77972 7.83563 3.64868 7.99288ZM7.19194 16.5462C7.19194 16.7428 7.12641 16.9066 6.99537 17.0376C6.87744 17.1556 6.72017 17.2145 6.52361 17.2145C6.32705 17.2145 6.16322 17.1556 6.03218 17.0376C5.91425 16.9066 5.85527 16.7428 5.85527 16.5462V7.01003L5.9339 3.90422H7.11332L7.19194 7.01003V16.5462Z" fill="currentColor"/>
<path d="M10.6985 12.2217C10.5675 12.0644 10.4037 11.9858 10.2071 11.9858C10.0237 11.9858 9.85985 12.0644 9.7157 12.2217C9.61087 12.3396 9.55844 12.4837 9.55844 12.6541C9.55844 12.8507 9.75501 13.1455 9.75501 13.1455C9.75501 13.1455 11.9158 16.2644 12.2565 16.6445C12.5972 17.0245 13.0034 17.2145 13.4752 17.2145C13.9469 17.2145 14.3663 17.0245 14.7332 16.6445C15.1002 16.2644 17.2838 13.1062 17.2838 13.1062C17.2838 13.1062 17.5034 12.8244 17.5 12.6148C17.497 12.4324 17.441 12.3265 17.3231 12.1823C17.1921 12.0513 17.0348 11.9858 16.8513 11.9858C16.6548 11.9858 16.4844 12.0513 16.3403 12.1823C16.1961 12.3134 13.5538 15.9761 13.5538 15.9761C13.5538 15.9761 10.8296 12.3789 10.6985 12.2217ZM14.2418 3.66834C14.2418 3.47177 14.1763 3.30796 14.0452 3.17691C13.9273 3.05897 13.77 3 13.5735 3C13.3769 3 13.2131 3.05897 13.0821 3.17691C12.9641 3.30796 12.9051 3.47177 12.9051 3.66834V13.2045L12.9838 16.3103H14.1632L14.2418 13.2045V3.66834Z" fill="currentColor"/>
</svg>
