<svg width="20" height="20" viewBox="0 0 20 20" fill="none" xmlns="http://www.w3.org/2000/svg">
<path d="M9.96752 15.8599L14.1938 11.4174C14.3379 11.2864 14.5017 11.2208 14.6852 11.2208C14.8687 11.2208 15.0325 11.2929 15.1766 11.4371C15.3077 11.5681 15.3732 11.7188 15.3732 11.8892C15.3732 12.0595 15.3011 12.2168 15.157 12.3609L11.1273 16.5086C10.7472 16.8886 10.3279 17.0786 9.86923 17.0786C9.41057 17.0786 9.00432 16.8886 8.6505 16.5086L4.79772 12.3609C4.66667 12.2299 4.60115 12.0726 4.60115 11.8892C4.60115 11.7188 4.66012 11.5681 4.77806 11.4371C4.92222 11.2798 5.08602 11.2012 5.26949 11.2012C5.43985 11.2012 5.59711 11.2732 5.74126 11.4174L9.96752 15.8599ZM10.6359 13.0882L10.5572 16.1941H9.37781L9.29918 13.0882V3.45631C9.29918 3.24663 9.35815 3.08282 9.47609 2.96488C9.60714 2.83383 9.77095 2.76831 9.96752 2.76831C10.1641 2.76831 10.3213 2.83383 10.4393 2.96488C10.5703 3.08282 10.6359 3.24663 10.6359 3.45631V13.0882Z" fill="currentColor"/>
</svg>
