<svg width="20" height="20" viewBox="0 0 20 20" fill="none" xmlns="http://www.w3.org/2000/svg">
<path d="M7.86421 6.09036C7.65454 6.09036 7.48418 6.03139 7.35313 5.91345C7.23519 5.7824 7.17622 5.62514 7.17622 5.44168C7.17622 5.24511 7.24174 5.08785 7.37279 4.96991C7.50383 4.83886 7.66109 4.77334 7.84455 4.77334L13.5254 4.53746C14.0496 4.52435 14.4755 4.68816 14.8031 5.02888C15.1308 5.3565 15.288 5.7824 15.2749 6.30659L15.157 12.0858C15.157 12.2823 15.098 12.4461 14.9801 12.5772C14.8621 12.6951 14.7049 12.7541 14.5083 12.7541C14.3248 12.7541 14.1676 12.6886 14.0365 12.5575C13.9186 12.4265 13.8531 12.2627 13.8399 12.0661L13.9775 5.9331L7.86421 6.09036ZM5.68228 15.1916C5.55124 15.3226 5.39398 15.3881 5.21051 15.3881C5.02705 15.3881 4.86979 15.3226 4.73875 15.1916C4.6077 15.0605 4.54218 14.9033 4.54218 14.7198C4.54218 14.5363 4.6077 14.3791 4.73875 14.248L11.5401 7.44669L13.8006 5.30408L14.6262 6.12967L12.4836 8.37057L5.68228 15.1916Z" fill="currentColor"/>
</svg>
