<svg width="20" height="20" viewBox="0 0 20 20" fill="none" xmlns="http://www.w3.org/2000/svg">
<path d="M5.78058 8.52783C5.64953 8.68509 5.48572 8.76371 5.28915 8.76371C5.10568 8.76371 4.94188 8.68509 4.79772 8.52783C4.69289 8.40989 4.64047 8.26574 4.64047 8.09538C4.64047 7.8988 4.70599 7.735 4.83704 7.60395L8.68981 3.43666C9.03054 3.05663 9.43678 2.86661 9.90855 2.86661C10.3803 2.86661 10.7997 3.05663 11.1666 3.43666L15.1766 7.60395C15.3208 7.7481 15.3929 7.91191 15.3929 8.09538C15.3929 8.23953 15.3339 8.38368 15.2159 8.52783C15.0849 8.65888 14.9276 8.7244 14.7442 8.7244C14.5476 8.7244 14.3772 8.65888 14.2331 8.52783L9.98718 4.105L5.78058 8.52783ZM10.6752 16.5086C10.6752 16.7052 10.6096 16.869 10.4786 17C10.3607 17.1179 10.2034 17.1769 10.0068 17.1769C9.81026 17.1769 9.64646 17.1179 9.51541 17C9.39747 16.869 9.3385 16.7052 9.3385 16.5086V6.87664L9.41712 3.77083H10.5965L10.6752 6.87664V16.5086Z" fill="currentColor"/>
</svg>
