<svg width="20" height="20" viewBox="0 0 20 20" fill="none" xmlns="http://www.w3.org/2000/svg">
<path d="M3.83453 9.90381L8.27701 14.1301C8.40806 14.3004 8.47358 14.4708 8.47358 14.6412C8.47358 14.8115 8.40151 14.9688 8.25736 15.1129C8.12631 15.244 7.97561 15.3095 7.80524 15.3095C7.63488 15.3095 7.47763 15.2374 7.33348 15.0933L3.16619 11.0636C2.79926 10.6966 2.61579 10.2773 2.61579 9.80553C2.61579 9.34686 2.79926 8.94062 3.16619 8.58679L7.33348 4.73401C7.46452 4.60297 7.62178 4.53745 7.80524 4.53745C7.97561 4.53745 8.12631 4.59642 8.25736 4.71436C8.41461 4.8454 8.49324 5.00921 8.49324 5.20578C8.49324 5.37614 8.42116 5.5334 8.27701 5.67755L3.83453 9.90381ZM6.31131 10.5721L3.50036 10.4935V9.3141L6.31131 9.25513L16.2381 9.23547C16.4478 9.23547 16.6116 9.301 16.7295 9.43204C16.8475 9.54998 16.9064 9.71379 16.9064 9.92347C16.9064 10.1069 16.8475 10.2642 16.7295 10.3952C16.6116 10.5132 16.4478 10.5721 16.2381 10.5721H6.31131Z" fill="currentColor"/>
</svg>
