<svg width="20" height="20" viewBox="0 0 20 20" fill="none" xmlns="http://www.w3.org/2000/svg">
<path d="M11.5597 6.54246C11.6777 6.42452 11.8218 6.36555 11.9922 6.36555C12.1757 6.36555 12.3329 6.43107 12.464 6.56212C12.6081 6.68006 12.6802 6.83076 12.6802 7.01423C12.6802 7.17148 12.6147 7.31564 12.4836 7.44668L8.1001 11.7712C7.90353 11.9678 7.80525 12.184 7.80525 12.4199C7.80525 12.6296 7.88388 12.8131 8.04113 12.9703C8.19839 13.1276 8.38841 13.2062 8.61119 13.2062C8.86018 13.2062 9.08296 13.1079 9.27953 12.9113L14.3707 7.82017C14.8949 7.30908 15.157 6.73903 15.157 6.11001C15.157 5.5334 14.9342 5.02887 14.4886 4.59642C13.9644 4.07223 13.3747 3.81014 12.7195 3.81014C12.4181 3.81014 12.1232 3.87566 11.8349 4.00671C11.5466 4.12465 11.278 4.30811 11.029 4.5571L6.1344 9.39273C5.24328 10.2838 4.79773 11.2798 4.79773 12.3806C4.79773 13.3634 5.16466 14.2218 5.89852 14.9557C6.27855 15.3488 6.6979 15.6502 7.15657 15.8599C7.61523 16.0565 8.087 16.1547 8.57187 16.1547C9.10916 16.1547 9.6399 16.0368 10.1641 15.8009C10.6883 15.565 11.1797 15.2112 11.6384 14.7394L15.4125 10.9063C15.5698 10.736 15.7336 10.6508 15.9039 10.6508C16.1005 10.6508 16.2643 10.7294 16.3954 10.8867C16.5264 11.0046 16.5919 11.1553 16.5919 11.3388C16.5919 11.5222 16.5264 11.686 16.3954 11.8302L12.6212 15.683C12.0315 16.2858 11.3894 16.7445 10.6948 17.059C10.0003 17.3735 9.29918 17.5307 8.59153 17.5307C7.92319 17.5307 7.27451 17.3866 6.64549 17.0983C6.01646 16.8231 5.44641 16.4168 4.93532 15.8795C4.42424 15.3685 4.03765 14.8115 3.77556 14.2087C3.52657 13.5928 3.40208 12.9638 3.40208 12.3216C3.40208 11.6402 3.54623 10.9718 3.83453 10.3166C4.13594 9.64827 4.56839 9.03235 5.13189 8.46885L10.0265 3.63322C10.4196 3.24008 10.8521 2.94523 11.3239 2.74866C11.7956 2.53898 12.2739 2.43414 12.7588 2.43414C13.7679 2.43414 14.6524 2.82728 15.4125 3.61356C15.7794 3.96739 16.0546 4.35398 16.2381 4.77333C16.4216 5.19268 16.5133 5.62513 16.5133 6.07069C16.5133 6.55556 16.4085 7.03389 16.1988 7.50565C15.9891 7.96432 15.6812 8.39022 15.2749 8.78336L10.2231 13.7762C9.7775 14.2218 9.26642 14.4446 8.68981 14.4446C8.11321 14.4446 7.58247 14.2153 7.0976 13.7566C6.73067 13.3503 6.5472 12.8917 6.5472 12.3806C6.5472 11.8171 6.76998 11.3126 7.21554 10.867L11.5597 6.54246Z" fill="currentColor"/>
</svg>
