<svg width="20" height="20" viewBox="0 0 20 20" fill="none" xmlns="http://www.w3.org/2000/svg">
<path d="M9.98718 11.2995C10.5507 11.2995 11.0093 11.116 11.3632 10.7491C11.7301 10.3821 11.9136 9.91037 11.9136 9.33377V5.69722C11.9136 5.12061 11.7301 4.64884 11.3632 4.28191C11.0093 3.91498 10.5507 3.73152 9.98718 3.73152C9.42368 3.73152 8.95846 3.91498 8.59153 4.28191C8.23771 4.64884 8.06079 5.12061 8.06079 5.69722V9.33377C8.06079 9.91037 8.23771 10.3821 8.59153 10.7491C8.95846 11.116 9.42368 11.2995 9.98718 11.2995ZM9.98718 12.6361C9.35816 12.6361 8.7881 12.4985 8.27702 12.2233C7.77904 11.935 7.3859 11.5419 7.0976 11.0439C6.8224 10.5328 6.6848 9.96279 6.6848 9.33377V5.69722C6.6848 5.06819 6.8224 4.50469 7.0976 4.00672C7.3859 3.49563 7.77904 3.09594 8.27702 2.80764C8.7881 2.51933 9.35816 2.37518 9.98718 2.37518C10.6162 2.37518 11.1797 2.51933 11.6777 2.80764C12.1757 3.09594 12.5623 3.49563 12.8374 4.00672C13.1258 4.50469 13.2699 5.06819 13.2699 5.69722V9.33377C13.2699 9.96279 13.1258 10.5328 12.8374 11.0439C12.5623 11.5419 12.1757 11.935 11.6777 12.2233C11.1797 12.4985 10.6162 12.6361 9.98718 12.6361ZM14.6262 8.92097C14.6262 8.7113 14.6852 8.54749 14.8032 8.42954C14.9342 8.2985 15.098 8.23297 15.2946 8.23297C15.4911 8.23297 15.655 8.2985 15.786 8.42954C15.917 8.54749 15.9826 8.7113 15.9826 8.92097V9.29445C15.9826 10.4477 15.727 11.4829 15.216 12.4003C14.7049 13.3176 13.9972 14.0318 13.093 14.5429C12.1888 15.054 11.1601 15.3095 10.0068 15.3095C8.85363 15.3095 7.81836 15.054 6.90103 14.5429C5.9837 14.0318 5.2695 13.3176 4.75841 12.4003C4.24733 11.4829 3.99179 10.4477 3.99179 9.29445V8.92097C3.99179 8.7113 4.05076 8.54749 4.1687 8.42954C4.29975 8.2985 4.46356 8.23297 4.66013 8.23297C4.8698 8.23297 5.03361 8.2985 5.15155 8.42954C5.2826 8.54749 5.34812 8.7113 5.34812 8.92097V9.29445C5.34812 10.1987 5.5447 11.0112 5.93784 11.7319C6.33098 12.4527 6.88137 13.0162 7.58903 13.4224C8.29668 13.8156 9.10262 14.0121 10.0068 14.0121C10.898 14.0121 11.6908 13.8156 12.3853 13.4224C13.093 13.0162 13.6434 12.4527 14.0365 11.7319C14.4297 11.0112 14.6262 10.1987 14.6262 9.29445V8.92097ZM10.6752 15.1326V16.5676C10.6752 16.7641 10.6097 16.9214 10.4786 17.0393C10.3607 17.1704 10.1969 17.2359 9.98718 17.2359C9.79061 17.2359 9.6268 17.1704 9.49576 17.0393C9.37781 16.9214 9.31884 16.7641 9.31884 16.5676V15.1326H10.6752Z" fill="currentColor"/>
</svg>
