<svg width="20" height="20" viewBox="0 0 20 20" fill="none" xmlns="http://www.w3.org/2000/svg">
<path d="M15.9941 4.67249C16.183 4.67249 16.3388 4.73387 16.4616 4.85665C16.5938 4.97943 16.6599 5.13054 16.6599 5.30999C16.6599 5.48943 16.5938 5.64526 16.4616 5.77749C16.3294 5.90026 16.1735 5.96165 15.9941 5.96165H3.99493C3.81548 5.96165 3.65965 5.90026 3.52743 5.77749C3.40465 5.65471 3.34326 5.5036 3.34326 5.32415C3.34326 5.14471 3.40465 4.9936 3.52743 4.87082C3.65965 4.7386 3.81548 4.67249 3.99493 4.67249H15.9941Z" fill="currentcolor"/>
<path d="M16.4473 10.1746C16.3555 9.94179 16.0259 9.94179 15.9341 10.1746L15.283 11.8254C15.2606 11.8823 15.2156 11.9273 15.1587 11.9497L13.508 12.6008C13.2751 12.6926 13.2751 13.0221 13.508 13.114L15.1587 13.765C15.2156 13.7874 15.2606 13.8324 15.283 13.8893L15.9341 15.5401C16.0259 15.7729 16.3555 15.7729 16.4473 15.5401L17.0983 13.8893C17.1208 13.8324 17.1658 13.7874 17.2227 13.765L18.8734 13.114C19.1063 13.0221 19.1063 12.6926 18.8734 12.6008L17.2227 11.9497C17.1658 11.9273 17.1208 11.8823 17.0983 11.8254L16.4473 10.1746Z" fill="currentcolor"/>
<path d="M14.711 10.5501L3.99493 10.5375C3.81548 10.5375 3.65965 10.4761 3.52743 10.3533C3.40465 10.2211 3.34326 10.0653 3.34326 9.88582C3.34326 9.70637 3.40465 9.55526 3.52743 9.43249C3.65965 9.30026 3.81548 9.23415 3.99493 9.23415L15.4101 9.26111C15.2383 9.3932 15.0955 9.57541 15.0038 9.80774L14.711 10.5501Z" fill="currentcolor"/>
<path d="M10.9941 13.8242C11.1735 13.8242 11.3294 13.8903 11.4616 14.0225C11.5938 14.1453 11.6599 14.2964 11.6599 14.4758C11.6599 14.6553 11.5938 14.8064 11.4616 14.9292C11.3388 15.0519 11.183 15.1133 10.9941 15.1133H3.99493C3.81548 15.1133 3.65965 15.0519 3.52743 14.9292C3.40465 14.8064 3.34326 14.6553 3.34326 14.4758C3.34326 14.2964 3.40465 14.1453 3.52743 14.0225C3.65965 13.8903 3.81548 13.8242 3.99493 13.8242H10.9941Z" fill="currentcolor"/>
</svg>
