<svg width="14" height="14" viewBox="0 0 14 14" fill="none" xmlns="http://www.w3.org/2000/svg">
<path d="M9.139 1.86621C9.37511 1.86635 9.56689 2.05801 9.56693 2.29414V7.80869C9.56692 8.08838 9.49642 8.36362 9.36253 8.60918L7.41156 12.1864C7.27259 12.4412 7.00517 12.5999 6.71497 12.6C5.69512 12.5999 4.98558 11.5863 5.33412 10.6278L6.0013 8.7917C6.08424 8.56351 5.91526 8.32219 5.67249 8.32207H3.39955C2.2714 8.32207 1.46686 7.22777 1.80335 6.15098L2.77542 3.03994C2.9936 2.34186 3.64023 1.86621 4.37162 1.86621H9.139Z" fill="currentColor" fill-opacity="0.7"/>
<path d="M11.1611 1.86621C11.569 1.86629 11.8999 2.19723 11.9 2.60518V7.58311C11.9 7.99106 11.569 8.32199 11.1611 8.32207H10.85C10.442 8.32205 10.1112 7.9911 10.1111 7.58311V2.60518C10.1112 2.19719 10.442 1.86623 10.85 1.86621H11.1611Z" fill="currentColor" fill-opacity="0.7"/>
</svg>