<svg width="14" height="14" viewBox="0 0 14 14" fill="none" xmlns="http://www.w3.org/2000/svg">
<path fill-rule="evenodd" clip-rule="evenodd" d="M6.81548 12.25C5.63914 12.2499 4.82072 11.0804 5.22274 9.97486L5.81439 8.34818H3.79143C2.52319 8.34818 1.61893 7.11798 1.99709 5.90746L2.88387 3.06977C3.12913 2.28493 3.85594 1.75 4.67821 1.75H9.77164V1.77702C9.85163 1.75975 9.93451 1.75 10.0197 1.75H10.7291C11.3756 1.75 11.8999 2.27435 11.8999 2.92082V7.17736C11.8999 7.82383 11.3756 8.34818 10.7291 8.34818H10.0197C9.87726 8.34818 9.74131 8.32132 9.61506 8.27474C9.59283 8.32579 9.56841 8.37598 9.54163 8.42508L7.76253 11.6881C7.57358 12.0345 7.21 12.25 6.81548 12.25ZM10.7291 7.42538C10.8662 7.42538 10.9771 7.31449 10.9771 7.17736V2.92082C10.9771 2.78369 10.8662 2.6728 10.7291 2.6728H10.0197C9.88253 2.6728 9.77164 2.78369 9.77164 2.92082V7.17736C9.77164 7.31449 9.88253 7.42538 10.0197 7.42538H10.7291ZM6.81548 11.3272C6.87254 11.3272 6.92533 11.2962 6.95265 11.2461L8.73244 7.98377C8.80915 7.84314 8.84881 7.68533 8.84883 7.52514V2.6728H4.67821C4.25932 2.6728 3.88866 2.94499 3.76372 3.34481L2.87694 6.1825C2.68442 6.79913 3.1454 7.42538 3.79143 7.42538H5.86497C6.48029 7.42546 6.90869 8.0373 6.6984 8.6156L6.08943 10.2901C5.90613 10.7942 6.27914 11.3271 6.81548 11.3272Z" fill="currentcolor"/>
</svg>