<svg width="20" height="20" viewBox="0 0 20 20" fill="none" xmlns="http://www.w3.org/2000/svg">
<path d="M10.1084 3.0083C10.9092 3.0083 11.6228 3.16743 12.249 3.4857C12.8856 3.7937 13.3784 4.23003 13.7274 4.7947C14.0868 5.3491 14.2664 5.9805 14.2664 6.6889C14.2664 7.47943 14.0303 8.15703 13.558 8.7217C13.096 9.2761 12.5006 9.59437 11.7716 9.6765V9.8305C12.3979 9.87157 12.9574 10.041 13.4502 10.3387C13.943 10.6364 14.328 11.0266 14.6052 11.5091C14.8927 11.9916 15.0364 12.5255 15.0364 13.1107C15.0364 13.8602 14.8414 14.5275 14.4512 15.1127C14.0714 15.6979 13.5324 16.1548 12.8342 16.4833C12.1464 16.8221 11.3661 16.9915 10.4934 16.9915H7.22864C6.56131 16.9915 6.01718 16.7759 5.59624 16.3447C5.17531 15.9238 4.96484 15.3745 4.96484 14.6969V5.3029C4.96484 4.6253 5.17018 4.07603 5.58084 3.6551C6.00178 3.2239 6.55104 3.0083 7.22864 3.0083H10.1084ZM7.18244 14.4043C7.18244 14.5583 7.22864 14.6866 7.32104 14.7893C7.42371 14.8817 7.55204 14.9279 7.70604 14.9279H10.4472C11.1351 14.9279 11.6998 14.738 12.1412 14.3581C12.593 13.9782 12.8188 13.4906 12.8188 12.8951C12.8188 12.2688 12.5981 11.7555 12.1566 11.3551C11.7152 10.9444 11.1454 10.7391 10.4472 10.7391H7.65984C7.51611 10.7391 7.39804 10.7853 7.30564 10.8777C7.22351 10.9701 7.18244 11.0882 7.18244 11.2319V14.4043ZM7.18244 8.3213C7.18244 8.45477 7.22864 8.5677 7.32104 8.6601C7.41344 8.7525 7.52638 8.7987 7.65984 8.7987H9.87744C10.5037 8.7987 11.017 8.6293 11.4174 8.2905C11.8178 7.94143 12.018 7.49483 12.018 6.9507C12.018 6.40657 11.8178 5.95997 11.4174 5.6109C11.0273 5.26183 10.5242 5.0873 9.90824 5.0873H7.70604C7.55204 5.0873 7.42371 5.1335 7.32104 5.2259C7.22864 5.3183 7.18244 5.4415 7.18244 5.5955V8.3213Z" fill="currentColor"/>
</svg>
