<svg width="20" height="20" viewBox="0 0 20 20" fill="none" xmlns="http://www.w3.org/2000/svg">
<path d="M2.2546 7.481V5.999C2.2546 5.315 2.4636 4.75767 2.8816 4.327C3.31227 3.89633 3.8696 3.681 4.5536 3.681H6.4726V5.011H4.6676C4.35094 5.011 4.08494 5.11233 3.8696 5.315C3.66694 5.51767 3.5656 5.78367 3.5656 6.113V7.481H2.2546ZM2.2356 11.718V8.621H3.5466V11.718H2.2356ZM6.4726 16.639H4.5726C3.87594 16.639 3.31227 16.43 2.8816 16.012C2.4636 15.5813 2.2546 15.024 2.2546 14.34V12.877H3.5656V14.226C3.5656 14.5427 3.66694 14.8087 3.8696 15.024C4.08494 15.2267 4.35094 15.328 4.6676 15.328H6.4726V16.639ZM16.4286 7.481V6.113C16.4286 5.78367 16.3273 5.51767 16.1246 5.315C15.9219 5.11233 15.6559 5.011 15.3266 5.011H13.5786V3.681H15.4406C16.1246 3.681 16.6819 3.89633 17.1126 4.327C17.5433 4.745 17.7523 5.296 17.7396 5.98V7.481H16.4286ZM16.4476 11.699V8.621H17.7586V11.699H16.4476ZM13.5786 15.328H15.3266C15.6559 15.328 15.9219 15.2267 16.1246 15.024C16.3273 14.8087 16.4286 14.5427 16.4286 14.226V12.877H17.7396V14.321C17.7396 15.0177 17.5306 15.5813 17.1126 16.012C16.6946 16.43 16.1436 16.639 15.4596 16.639H13.5786V15.328ZM7.6506 3.681H12.3816V5.011H7.6506V3.681ZM7.6506 15.328H12.3816V16.639H7.6506V15.328Z" fill="currentColor"/>
</svg>
