<svg width="20" height="20" viewBox="0 0 20 20" fill="none" xmlns="http://www.w3.org/2000/svg">
<path d="M4.393 8.43898C4.29033 8.43898 4.20633 8.47165 4.141 8.53698C4.085 8.59298 4.057 8.66764 4.057 8.76098V11.197C4.057 11.2996 4.085 11.3836 4.141 11.449C4.20633 11.505 4.29033 11.533 4.393 11.533H9.503C9.60566 11.533 9.685 11.505 9.741 11.449C9.797 11.3836 9.825 11.2996 9.825 11.197V8.76098C9.825 8.65831 9.797 8.57898 9.741 8.52298C9.685 8.46698 9.60566 8.43898 9.503 8.43898H4.393ZM2.797 8.67698C2.797 8.22898 2.93233 7.86965 3.203 7.59898C3.483 7.31898 3.84233 7.17898 4.281 7.17898H9.587C10.035 7.17898 10.3943 7.31431 10.665 7.58498C10.945 7.85565 11.085 8.21031 11.085 8.64898V11.295C11.085 11.7336 10.9497 12.093 10.679 12.373C10.4083 12.653 10.0537 12.793 9.615 12.793H4.295C3.85633 12.793 3.497 12.6576 3.217 12.387C2.937 12.107 2.797 11.7476 2.797 11.309V8.67698ZM17.203 4.12698C17.203 4.30431 17.1377 4.44898 17.007 4.56098C16.8857 4.66365 16.7317 4.71498 16.545 4.71498C16.041 4.71498 15.6303 4.84565 15.313 5.10698C15.005 5.36831 14.851 5.70431 14.851 6.11498V7.94898C14.851 8.43431 14.7157 8.86365 14.445 9.23698C14.1743 9.60098 13.8337 9.82964 13.423 9.92298V10.021C13.843 10.105 14.1837 10.3336 14.445 10.707C14.7157 11.071 14.851 11.505 14.851 12.009V13.969C14.851 14.3516 15.005 14.6643 15.313 14.907C15.6303 15.1496 16.041 15.271 16.545 15.271C16.7317 15.271 16.8857 15.3223 17.007 15.425C17.1377 15.537 17.203 15.6816 17.203 15.859C17.203 16.0363 17.1283 16.1763 16.979 16.279C16.839 16.391 16.6617 16.447 16.447 16.447C15.8963 16.447 15.4017 16.3443 14.963 16.139C14.5243 15.9336 14.1837 15.649 13.941 15.285C13.6983 14.921 13.577 14.5103 13.577 14.053V12.149C13.577 11.897 13.5023 11.659 13.353 11.435C13.213 11.2016 13.0263 11.0383 12.793 10.945C12.6063 10.8516 12.4523 10.7163 12.331 10.539C12.2097 10.3523 12.149 10.161 12.149 9.96498C12.149 9.75031 12.2097 9.55431 12.331 9.37698C12.4523 9.19031 12.6063 9.06431 12.793 8.99898C13.0263 8.92431 13.213 8.77965 13.353 8.56498C13.5023 8.35031 13.577 8.11231 13.577 7.85098V6.03098C13.577 5.55498 13.6983 5.13031 13.941 4.75698C14.1837 4.37431 14.5243 4.08031 14.963 3.87498C15.4017 3.66031 15.8963 3.55298 16.447 3.55298C16.6617 3.55298 16.839 3.60898 16.979 3.72098C17.1283 3.82365 17.203 3.95898 17.203 4.12698Z" fill="currentcolor"/>
</svg>
