<svg width="20" height="20" viewBox="0 0 20 20" fill="none" xmlns="http://www.w3.org/2000/svg">
<path fill-rule="evenodd" clip-rule="evenodd" d="M7.1202 5.84951C8.08776 5.15286 9.22931 4.92701 9.99999 4.92701C10.7707 4.92701 11.9122 5.15286 12.8798 5.84951C13.8805 6.57002 14.65 7.76516 14.65 9.57701C14.65 10.4308 14.4074 11.2547 14.133 11.9682C13.9948 12.3276 13.8439 12.67 13.7053 12.9803C13.6863 13.0229 13.6676 13.0647 13.6492 13.1057C13.5309 13.37 13.4262 13.6039 13.3403 13.8184C13.0137 14.6349 12.838 15.2074 12.7784 15.6644C12.7126 16.1689 12.2911 16.65 11.6842 16.65H8.31578C7.70891 16.65 7.28744 16.1689 7.2216 15.6644C7.16197 15.2074 6.98626 14.6349 6.65964 13.8184C6.57383 13.6039 6.46913 13.37 6.3508 13.1057C6.33242 13.0647 6.31371 13.0229 6.2947 12.9803C6.15605 12.67 6.00523 12.3276 5.867 11.9682C5.59256 11.2547 5.34999 10.4308 5.34999 9.57701C5.34999 7.76516 6.11949 6.57002 7.1202 5.84951ZM7.87979 6.9045C7.21383 7.38399 6.64999 8.18885 6.64999 9.57701C6.64999 10.1969 6.82848 10.8467 7.08035 11.5016C7.20528 11.8264 7.34394 12.1419 7.48161 12.45C7.49974 12.4906 7.51795 12.5312 7.53614 12.5719C7.65331 12.8335 7.77025 13.0946 7.86666 13.3356C8.17695 14.1113 8.39357 14.7636 8.48918 15.35H11.5108C11.6064 14.7636 11.823 14.1113 12.1333 13.3356C12.2297 13.0946 12.3467 12.8334 12.4639 12.5718C12.482 12.5312 12.5003 12.4906 12.5184 12.45C12.6561 12.1419 12.7947 11.8264 12.9196 11.5016C13.1715 10.8467 13.35 10.1969 13.35 9.57701C13.35 8.18885 12.7862 7.38399 12.1202 6.9045C11.4211 6.40115 10.5626 6.22701 9.99999 6.22701C9.43734 6.22701 8.5789 6.40115 7.87979 6.9045Z" fill="currentcolor"/>
<path fill-rule="evenodd" clip-rule="evenodd" d="M7.77596 17.3725C7.70918 17.3725 7.66119 17.4367 7.68258 17.5C8.05397 18.5981 8.95163 19.3725 10 19.3725C11.0484 19.3725 11.946 18.5981 12.3174 17.5C12.3388 17.4367 12.2908 17.3725 12.224 17.3725H7.77596Z" fill="currentcolor"/>
<path d="M3.18133 11.0011C3.55146 11.0011 3.87432 10.694 3.87432 10.3317C3.87432 9.9537 3.55146 9.6466 3.18133 9.6466H1.66936C1.30712 9.6466 1 9.96156 1 10.3317C1 10.6861 1.30712 11.0011 1.66936 11.0011H3.18133ZM4.56336 5.76429C4.82323 6.02416 5.25635 6.03203 5.51622 5.76429C5.78396 5.49655 5.77609 5.0713 5.51622 4.81143L4.45312 3.74045C4.20112 3.47271 3.76012 3.47271 3.49238 3.74045C3.23251 4.00819 3.23251 4.42557 3.49238 4.69331L4.56336 5.76429ZM9.40642 3.19708C9.40642 3.5672 9.71352 3.8822 10.0837 3.8822C10.4616 3.8822 10.7687 3.5672 10.7687 3.19708V1.68511C10.7687 1.31499 10.4538 1 10.0837 1C9.71352 1 9.40642 1.31499 9.40642 1.68511V3.19708ZM14.6432 4.81143C14.3833 5.0713 14.3754 5.49655 14.6432 5.76429C14.9188 6.03203 15.3362 6.02416 15.596 5.76429L16.6749 4.69331C16.9348 4.42557 16.9348 4.00819 16.6749 3.74045C16.3993 3.47271 15.9819 3.47271 15.722 3.74045L14.6432 4.81143ZM18.3149 11.0011C18.685 11.0011 19 10.6861 19 10.3317C19 9.96156 18.685 9.6466 18.3149 9.6466H16.8029C16.4407 9.6466 16.1256 9.9537 16.1256 10.3317C16.1256 10.694 16.4407 11.0011 16.8029 11.0011H18.3149Z" fill="currentcolor"/>
</svg>
