<svg width="20" height="20" viewBox="0 0 20 20" fill="none" xmlns="http://www.w3.org/2000/svg">
<path d="M5.4464 9.07822C5.39398 9.13064 5.36777 9.19616 5.36777 9.27479C5.36777 9.34032 5.39398 9.39929 5.4464 9.45171L7.2745 11.2995C7.43176 11.4567 7.51039 11.6271 7.51039 11.8105C7.51039 11.9285 7.47762 12.0464 7.4121 12.1644C7.34658 12.2692 7.24829 12.3544 7.11725 12.4199C6.52754 12.7475 5.97714 13.0817 5.46606 13.4224C4.96808 13.7631 4.63391 14.0187 4.46355 14.189C4.24077 14.438 4.12938 14.7198 4.12938 15.0343C4.12938 15.4012 4.26698 15.7157 4.54218 15.9778C4.81737 16.253 5.13844 16.3906 5.50537 16.3906C5.81988 16.3906 6.10163 16.2792 6.35062 16.0565C6.54719 15.873 6.80273 15.5257 7.11725 15.0146C7.43176 14.5036 7.73317 13.9532 8.02147 13.3635C8.13941 13.062 8.32943 12.9113 8.59152 12.9113C8.76188 12.9113 8.94535 12.9965 9.14192 13.1669L10.8128 14.8377C10.8914 14.8901 10.9569 14.9164 11.0093 14.9164C11.0749 14.9164 11.1338 14.8901 11.1862 14.8377L11.8939 14.1104C11.9594 14.0449 11.9922 13.9794 11.9922 13.9138C11.9922 13.8352 11.9594 13.7762 11.8939 13.7369L6.48822 8.37057C6.4358 8.31815 6.37028 8.29194 6.29165 8.29194C6.22613 8.29194 6.16716 8.31815 6.11474 8.37057L5.4464 9.07822ZM4.6208 10.3756C4.29319 10.048 4.12938 9.68104 4.12938 9.27479C4.12938 8.85544 4.29319 8.48851 4.6208 8.174L5.21051 7.58429C5.55124 7.24357 5.91817 7.07321 6.31131 7.07321C6.73066 7.07321 7.09759 7.24357 7.4121 7.58429L12.6605 12.8327C13.0012 13.1734 13.1716 13.5469 13.1716 13.9532C13.1716 14.3332 13.0078 14.7001 12.6802 15.054L12.0905 15.624C11.7629 15.9516 11.3959 16.1154 10.9897 16.1154C10.5834 16.1154 10.2165 15.9516 9.88889 15.624L8.78809 14.4839C8.57842 14.995 8.31632 15.5061 8.00181 16.0171C7.7004 16.5151 7.43176 16.8755 7.19587 17.0983C6.77652 17.5045 6.24578 17.7077 5.60366 17.7077C5.24983 17.7077 4.896 17.6356 4.54218 17.4914C4.20145 17.3473 3.88694 17.1376 3.59864 16.8624C3.32344 16.5872 3.11377 16.2858 2.96961 15.9582C2.82546 15.6306 2.75339 15.2964 2.75339 14.9557C2.75339 14.2742 3.00893 13.7107 3.52001 13.2652C3.70348 13.0948 4.02454 12.8589 4.48321 12.5575C4.95497 12.243 5.43329 11.9481 5.91817 11.6729L4.6208 10.3756ZM16.7099 7.72189C17.0637 8.07571 17.2406 8.47541 17.2406 8.92097C17.2406 9.34032 17.0637 9.7269 16.7099 10.0807L13.6434 13.1079C13.2895 13.4617 12.8899 13.6387 12.4443 13.6387C11.9987 13.6387 11.6056 13.4683 11.2649 13.1276L7.17622 9.05857C6.80929 8.69163 6.62582 8.27228 6.62582 7.80052C6.62582 7.36806 6.77652 6.98147 7.07793 6.64075C7.48418 6.10346 7.8249 5.55962 8.1001 5.00922C8.3884 4.44572 8.56531 3.95429 8.63084 3.53494C8.69636 3.19422 8.84706 2.88626 9.08295 2.61106C9.33194 2.32276 9.60058 2.1524 9.88889 2.09998C9.95441 2.08688 10.0527 2.08032 10.1837 2.08032C10.4589 2.08032 10.7341 2.13929 11.0093 2.25724C11.2976 2.36207 11.5335 2.50622 11.717 2.68969L16.7099 7.72189ZM10.6752 3.59391C10.5703 3.48908 10.4458 3.43666 10.3017 3.43666C10.2493 3.43666 10.1968 3.44976 10.1444 3.47597C10.092 3.50218 10.033 3.56115 9.96751 3.65288C9.91509 3.73151 9.88233 3.81669 9.86923 3.90843C9.75129 4.51124 9.54161 5.12716 9.2402 5.75619C8.9519 6.37211 8.63084 6.88974 8.27701 7.30909C8.11975 7.47945 8.04113 7.66947 8.04113 7.87914C8.04113 8.08882 8.11975 8.27228 8.27701 8.42954L11.776 11.9285C11.9463 12.0989 12.1363 12.184 12.346 12.184C12.5688 12.184 12.7588 12.0989 12.9161 11.9285L15.4125 9.45171C15.5829 9.25514 15.668 9.06512 15.668 8.88165C15.668 8.68508 15.5763 8.49506 15.3928 8.3116L10.6752 3.59391ZM15.5501 7.46635C15.1308 7.8857 14.6262 8.34436 14.0365 8.84234C13.4599 9.34032 12.9554 9.74656 12.5229 10.0611C12.4705 10.1004 12.4115 10.12 12.346 10.12C12.2805 10.12 12.2215 10.0938 12.1691 10.0414C12.1167 9.989 12.0905 9.91692 12.0905 9.82519C12.0905 9.75967 12.1101 9.70725 12.1494 9.66793C12.6212 9.10443 13.0406 8.46885 13.4075 7.7612C13.7875 7.05355 14.0169 6.47039 14.0955 6.01173L15.5501 7.46635Z" fill="currentColor"/>
</svg>
