<svg width="20" height="20" viewBox="0 0 20 20" fill="none" xmlns="http://www.w3.org/2000/svg">
<path d="M5.24219 16.3623C4.50391 16.3623 3.94564 16.1732 3.56738 15.7949C3.18913 15.4212 3 14.8698 3 14.1406V5.82129C3 5.08757 3.18913 4.53385 3.56738 4.16016C3.94564 3.78646 4.50391 3.59961 5.24219 3.59961H14.6484C15.3913 3.59961 15.9495 3.78646 16.3232 4.16016C16.7015 4.53385 16.8906 5.08757 16.8906 5.82129V14.1406C16.8906 14.8698 16.7015 15.4212 16.3232 15.7949C15.9495 16.1732 15.3913 16.3623 14.6484 16.3623H5.24219ZM5.22852 15.0156H14.6553C14.9424 15.0156 15.1611 14.9427 15.3115 14.7969C15.4665 14.6465 15.5439 14.4232 15.5439 14.127V7.81055C15.5439 7.51432 15.4665 7.29102 15.3115 7.14062C15.1611 6.99023 14.9424 6.91504 14.6553 6.91504H5.22852C4.94141 6.91504 4.72266 6.99023 4.57227 7.14062C4.42188 7.29102 4.34668 7.51432 4.34668 7.81055V14.127C4.34668 14.4232 4.42188 14.6465 4.57227 14.7969C4.72266 14.9427 4.94141 15.0156 5.22852 15.0156ZM8.63281 9.29395C8.50977 9.29395 8.42318 9.27116 8.37305 9.22559C8.32747 9.17546 8.30469 9.09115 8.30469 8.97266V8.56934C8.30469 8.44629 8.32747 8.36426 8.37305 8.32324C8.42318 8.27767 8.50977 8.25488 8.63281 8.25488H9.03613C9.15462 8.25488 9.23893 8.27767 9.28906 8.32324C9.33919 8.36426 9.36426 8.44629 9.36426 8.56934V8.97266C9.36426 9.09115 9.33919 9.17546 9.28906 9.22559C9.23893 9.27116 9.15462 9.29395 9.03613 9.29395H8.63281ZM10.8613 9.29395C10.7428 9.29395 10.6585 9.27116 10.6084 9.22559C10.5628 9.17546 10.54 9.09115 10.54 8.97266V8.56934C10.54 8.44629 10.5628 8.36426 10.6084 8.32324C10.6585 8.27767 10.7428 8.25488 10.8613 8.25488H11.2646C11.3923 8.25488 11.4788 8.27767 11.5244 8.32324C11.57 8.36426 11.5928 8.44629 11.5928 8.56934V8.97266C11.5928 9.09115 11.57 9.17546 11.5244 9.22559C11.4788 9.27116 11.3923 9.29395 11.2646 9.29395H10.8613ZM13.1035 9.29395C12.9805 9.29395 12.8939 9.27116 12.8438 9.22559C12.7982 9.17546 12.7754 9.09115 12.7754 8.97266V8.56934C12.7754 8.44629 12.7982 8.36426 12.8438 8.32324C12.8939 8.27767 12.9805 8.25488 13.1035 8.25488H13.5C13.6276 8.25488 13.7142 8.27767 13.7598 8.32324C13.8053 8.36426 13.8281 8.44629 13.8281 8.56934V8.97266C13.8281 9.09115 13.8053 9.17546 13.7598 9.22559C13.7142 9.27116 13.6276 9.29395 13.5 9.29395H13.1035ZM6.39746 11.4883C6.27441 11.4883 6.18783 11.4655 6.1377 11.4199C6.09212 11.3743 6.06934 11.2923 6.06934 11.1738V10.7705C6.06934 10.6475 6.09212 10.5632 6.1377 10.5176C6.18783 10.472 6.27441 10.4492 6.39746 10.4492H6.80078C6.91927 10.4492 7.0013 10.472 7.04688 10.5176C7.09701 10.5632 7.12207 10.6475 7.12207 10.7705V11.1738C7.12207 11.2923 7.09701 11.3743 7.04688 11.4199C7.0013 11.4655 6.91927 11.4883 6.80078 11.4883H6.39746ZM8.63281 11.4883C8.50977 11.4883 8.42318 11.4655 8.37305 11.4199C8.32747 11.3743 8.30469 11.2923 8.30469 11.1738V10.7705C8.30469 10.6475 8.32747 10.5632 8.37305 10.5176C8.42318 10.472 8.50977 10.4492 8.63281 10.4492H9.03613C9.15462 10.4492 9.23893 10.472 9.28906 10.5176C9.33919 10.5632 9.36426 10.6475 9.36426 10.7705V11.1738C9.36426 11.2923 9.33919 11.3743 9.28906 11.4199C9.23893 11.4655 9.15462 11.4883 9.03613 11.4883H8.63281ZM10.8613 11.4883C10.7428 11.4883 10.6585 11.4655 10.6084 11.4199C10.5628 11.3743 10.54 11.2923 10.54 11.1738V10.7705C10.54 10.6475 10.5628 10.5632 10.6084 10.5176C10.6585 10.472 10.7428 10.4492 10.8613 10.4492H11.2646C11.3923 10.4492 11.4788 10.472 11.5244 10.5176C11.57 10.5632 11.5928 10.6475 11.5928 10.7705V11.1738C11.5928 11.2923 11.57 11.3743 11.5244 11.4199C11.4788 11.4655 11.3923 11.4883 11.2646 11.4883H10.8613ZM13.1035 11.4883C12.9805 11.4883 12.8939 11.4655 12.8438 11.4199C12.7982 11.3743 12.7754 11.2923 12.7754 11.1738V10.7705C12.7754 10.6475 12.7982 10.5632 12.8438 10.5176C12.8939 10.472 12.9805 10.4492 13.1035 10.4492H13.5C13.6276 10.4492 13.7142 10.472 13.7598 10.5176C13.8053 10.5632 13.8281 10.6475 13.8281 10.7705V11.1738C13.8281 11.2923 13.8053 11.3743 13.7598 11.4199C13.7142 11.4655 13.6276 11.4883 13.5 11.4883H13.1035ZM6.39746 13.6895C6.27441 13.6895 6.18783 13.6689 6.1377 13.6279C6.09212 13.5824 6.06934 13.4958 6.06934 13.3682V12.9717C6.06934 12.8486 6.09212 12.7643 6.1377 12.7188C6.18783 12.6732 6.27441 12.6504 6.39746 12.6504H6.80078C6.91927 12.6504 7.0013 12.6732 7.04688 12.7188C7.09701 12.7643 7.12207 12.8486 7.12207 12.9717V13.3682C7.12207 13.4958 7.09701 13.5824 7.04688 13.6279C7.0013 13.6689 6.91927 13.6895 6.80078 13.6895H6.39746ZM8.63281 13.6895C8.50977 13.6895 8.42318 13.6689 8.37305 13.6279C8.32747 13.5824 8.30469 13.4958 8.30469 13.3682V12.9717C8.30469 12.8486 8.32747 12.7643 8.37305 12.7188C8.42318 12.6732 8.50977 12.6504 8.63281 12.6504H9.03613C9.15462 12.6504 9.23893 12.6732 9.28906 12.7188C9.33919 12.7643 9.36426 12.8486 9.36426 12.9717V13.3682C9.36426 13.4958 9.33919 13.5824 9.28906 13.6279C9.23893 13.6689 9.15462 13.6895 9.03613 13.6895H8.63281ZM10.8613 13.6895C10.7428 13.6895 10.6585 13.6689 10.6084 13.6279C10.5628 13.5824 10.54 13.4958 10.54 13.3682V12.9717C10.54 12.8486 10.5628 12.7643 10.6084 12.7188C10.6585 12.6732 10.7428 12.6504 10.8613 12.6504H11.2646C11.3923 12.6504 11.4788 12.6732 11.5244 12.7188C11.57 12.7643 11.5928 12.8486 11.5928 12.9717V13.3682C11.5928 13.4958 11.57 13.5824 11.5244 13.6279C11.4788 13.6689 11.3923 13.6895 11.2646 13.6895H10.8613Z" fill="currentColor"/>
</svg>
