<svg width="20" height="20" viewBox="0 0 20 20" fill="none" xmlns="http://www.w3.org/2000/svg">
<path d="M4.22508 4.20963C3.97868 4.20963 3.77335 4.28663 3.60908 4.44063C3.45508 4.59463 3.37808 4.79483 3.37808 5.04123V12.3254C3.37808 12.5718 3.45508 12.7772 3.60908 12.9414C3.77335 13.0954 3.97868 13.1724 4.22508 13.1724H6.19628C6.46322 13.1724 6.67882 13.2597 6.84308 13.4342C7.01762 13.5985 7.10488 13.8141 7.10488 14.081V15.3438C7.10488 15.3952 7.12028 15.4311 7.15108 15.4516C7.18188 15.4722 7.22295 15.4619 7.27428 15.4208L9.64588 13.6652C9.86148 13.5215 10.1181 13.4034 10.4159 13.311C10.7136 13.2186 10.9908 13.1724 11.2475 13.1724H15.7905C16.0369 13.1724 16.2371 13.0954 16.3911 12.9414C16.5451 12.7772 16.6221 12.5718 16.6221 12.3254V5.05663C16.6221 4.81023 16.5451 4.61003 16.3911 4.45603C16.2371 4.29176 16.0369 4.20963 15.7905 4.20963H4.22508ZM1.97668 4.96423C1.97668 4.32769 2.17175 3.80923 2.56188 3.40883C2.96228 3.00843 3.47562 2.80823 4.10188 2.80823H15.8983C16.5246 2.80823 17.0328 3.00843 17.4229 3.40883C17.8233 3.79896 18.0235 4.31229 18.0235 4.94883V12.4178C18.0235 13.0544 17.8284 13.5728 17.4383 13.9732C17.0482 14.3736 16.54 14.5738 15.9137 14.5738H10.7393L7.65928 16.7914C7.28968 17.0584 6.95088 17.1918 6.64288 17.1918C6.36568 17.1918 6.15008 17.0738 5.99608 16.8376C5.85235 16.6118 5.78048 16.2832 5.78048 15.852V14.5738H4.13268C3.49615 14.5738 2.97768 14.3788 2.57728 13.9886C2.17688 13.5882 1.97668 13.0749 1.97668 12.4486V4.96423Z" fill="currentColor"/>
</svg>
