<svg width="20" height="20" viewBox="0 0 20 20" fill="none" xmlns="http://www.w3.org/2000/svg">
<path d="M18.2824 14.2284C18.2824 14.9491 18.0662 15.5323 17.6338 15.9778C17.2013 16.4234 16.6312 16.6396 15.9236 16.6265H4.24733C3.52657 16.6265 2.94341 16.4103 2.49785 15.9778C2.0654 15.5454 1.84917 14.9753 1.84917 14.2677V7.3091C1.84917 6.58835 2.0654 6.01174 2.49785 5.57929C2.94341 5.13373 3.52002 4.91095 4.22767 4.91095H5.83955L7.25485 3.22044C7.399 3.05008 7.57592 2.91248 7.78559 2.80765C8.00837 2.70281 8.2246 2.65039 8.43427 2.65039H11.4025C11.6122 2.65039 11.8218 2.70281 12.0315 2.80765C12.2543 2.91248 12.4378 3.04353 12.5819 3.20079L13.9972 4.91095H15.9039C16.6116 4.91095 17.1882 5.13373 17.6338 5.57929C18.0793 6.01174 18.2955 6.58179 18.2824 7.28945V14.2284ZM15.786 15.2702C16.1267 15.2702 16.4019 15.1654 16.6116 14.9557C16.8213 14.7329 16.9261 14.4577 16.9261 14.1301V7.40739C16.9261 7.06667 16.8213 6.79147 16.6116 6.58179C16.4019 6.37212 16.1267 6.26728 15.786 6.26728H13.663C13.5582 6.26728 13.4403 6.24107 13.3092 6.18865C13.1913 6.13624 13.0995 6.06416 13.034 5.97243L11.717 4.28192C11.6646 4.20329 11.5859 4.14432 11.4811 4.10501C11.3763 4.05259 11.2714 4.02638 11.1666 4.02638H8.67016C8.56532 4.02638 8.46048 4.05259 8.35564 4.10501C8.25081 4.14432 8.17218 4.20329 8.11976 4.28192L6.8224 5.95277C6.74377 6.0445 6.64548 6.12313 6.52754 6.18865C6.4096 6.24107 6.29166 6.26728 6.17372 6.26728H4.34561C4.01799 6.26728 3.74935 6.37212 3.53967 6.58179C3.33 6.79147 3.22516 7.06667 3.22516 7.40739V14.1301C3.22516 14.4708 3.33 14.746 3.53967 14.9557C3.74935 15.1654 4.01799 15.2702 4.34561 15.2702H15.786ZM9.98718 12.302C10.5638 12.3151 11.0487 12.1251 11.4418 11.7319C11.848 11.3388 12.0512 10.8539 12.0512 10.2773C12.0512 9.72692 11.848 9.2617 11.4418 8.88167C11.0356 8.48852 10.5376 8.29195 9.94786 8.29195C9.39747 8.29195 8.93225 8.48852 8.55221 8.88167C8.17218 9.2617 7.98216 9.72692 7.98216 10.2773C7.98216 10.8539 8.17218 11.3388 8.55221 11.7319C8.94535 12.1251 9.42368 12.3151 9.98718 12.302ZM9.98718 13.5797C9.38436 13.5797 8.82741 13.4355 8.31633 13.1472C7.81835 12.8589 7.41866 12.4592 7.11725 11.9482C6.82895 11.4371 6.6848 10.8801 6.6848 10.2773C6.6848 9.6745 6.82895 9.1241 7.11725 8.62612C7.41866 8.12815 7.81835 7.73501 8.31633 7.4467C8.82741 7.1584 9.38436 7.01425 9.98718 7.01425C10.6031 7.01425 11.1666 7.1584 11.6777 7.4467C12.1888 7.73501 12.5885 8.12815 12.8768 8.62612C13.1782 9.1241 13.3289 9.6745 13.3289 10.2773C13.3289 10.8801 13.1782 11.4371 12.8768 11.9482C12.5885 12.4592 12.1888 12.8589 11.6777 13.1472C11.1666 13.4355 10.6031 13.5797 9.98718 13.5797Z" fill="currentColor"/>
</svg>
