<svg width="20" height="20" viewBox="0 0 20 20" fill="none" xmlns="http://www.w3.org/2000/svg">
<path d="M9.96752 17.4718C8.60463 17.4718 7.34003 17.1376 6.17371 16.4693C5.0205 15.7878 4.10318 14.8705 3.42173 13.7173C2.74029 12.5641 2.39957 11.306 2.39957 9.94314C2.39957 8.56715 2.74029 7.30255 3.42173 6.14933C4.10318 4.98302 5.0205 4.05914 6.17371 3.3777C7.34003 2.69625 8.60463 2.35553 9.96752 2.35553C11.3435 2.35553 12.6147 2.69625 13.781 3.3777C14.9473 4.05914 15.8712 4.98302 16.5526 6.14933C17.2472 7.30255 17.5944 8.56715 17.5944 9.94314C17.5944 11.306 17.2472 12.5641 16.5526 13.7173C15.8712 14.8705 14.9473 15.7878 13.781 16.4693C12.6147 17.1376 11.3435 17.4718 9.96752 17.4718ZM9.35815 12.4003C9.34505 12.4396 9.31884 12.4592 9.27952 12.4592C9.24021 12.4592 9.20745 12.4461 9.18124 12.4199L7.19588 10.1004C7.06483 9.98245 6.91413 9.92348 6.74377 9.92348C6.52099 9.92348 6.33752 10.0152 6.19337 10.1987C6.10164 10.3035 6.05577 10.4346 6.05577 10.5918C6.05577 10.7884 6.1213 10.9522 6.25234 11.0832L8.57187 13.5797C8.84707 13.8811 9.14192 14.0318 9.45644 14.0318C9.82337 14.0318 10.1313 13.809 10.3803 13.3635L13.84 7.11253C13.8924 7.0208 13.9186 6.91596 13.9186 6.79802C13.9186 6.56213 13.8334 6.37867 13.663 6.24762C13.532 6.15589 13.3878 6.11002 13.2306 6.11002C12.9685 6.11002 12.7785 6.22141 12.6605 6.44419L9.35815 12.4003Z" fill="currentColor"/>
</svg>
