<svg width="20" height="20" viewBox="0 0 20 20" fill="none" xmlns="http://www.w3.org/2000/svg">
<path d="M9.96752 17.4718C8.57842 17.4718 7.30727 17.1376 6.15406 16.4693C5.00085 15.8009 4.08352 14.8967 3.40207 13.7566C2.73374 12.6034 2.39957 11.3322 2.39957 9.94314C2.39957 8.54094 2.73374 7.26323 3.40207 6.11002C4.08352 4.9437 5.00085 4.02638 6.15406 3.35804C7.30727 2.6897 8.57842 2.35553 9.96752 2.35553C11.3697 2.35553 12.654 2.6897 13.8203 3.35804C14.9866 4.02638 15.9039 4.9437 16.5723 6.11002C17.2537 7.26323 17.5944 8.54094 17.5944 9.94314C17.5944 11.3322 17.2537 12.6034 16.5723 13.7566C15.9039 14.8967 14.9866 15.8009 13.8203 16.4693C12.654 17.1376 11.3697 17.4718 9.96752 17.4718ZM9.96752 16.1154C11.1207 16.1154 12.1757 15.8468 13.1323 15.3095C14.0889 14.7591 14.8425 14.0121 15.3929 13.0686C15.9564 12.1251 16.2381 11.0832 16.2381 9.94314C16.2381 8.80303 15.9564 7.75466 15.3929 6.79802C14.8425 5.84138 14.0889 5.08786 13.1323 4.53746C12.1757 3.98706 11.1207 3.71186 9.96752 3.71186C8.82741 3.71186 7.78559 3.98706 6.84205 4.53746C5.89852 5.08786 5.15155 5.84138 4.60115 6.79802C4.05076 7.75466 3.77556 8.80303 3.77556 9.94314C3.77556 11.0832 4.05076 12.1251 4.60115 13.0686C5.15155 14.0121 5.89852 14.7591 6.84205 15.3095C7.78559 15.8468 8.82741 16.1154 9.96752 16.1154ZM11.8939 6.64076C12.0381 6.40488 12.2215 6.28693 12.4443 6.28693C12.6016 6.28693 12.7523 6.33935 12.8964 6.44419C13.093 6.56213 13.1913 6.73905 13.1913 6.97493C13.1913 7.06666 13.1585 7.17805 13.093 7.3091L10.0068 13.0096C9.88889 13.2324 9.74474 13.4028 9.57438 13.5207C9.41712 13.6387 9.24676 13.6976 9.0633 13.6976C8.76189 13.6976 8.47359 13.5535 8.19839 13.2652L6.19337 11.2405C6.04922 11.0964 5.97714 10.926 5.97714 10.7294C5.97714 10.5722 6.02301 10.4411 6.11474 10.3363C6.272 10.1397 6.44891 10.0414 6.64548 10.0414C6.81584 10.0414 6.9731 10.1135 7.11725 10.2577L8.82741 12.0661C8.89293 12.1447 8.94535 12.1382 8.98467 12.0464L11.8939 6.64076Z" fill="currentColor"/>
</svg>
