<svg width="20" height="20" viewBox="0 0 20 20" fill="none" xmlns="http://www.w3.org/2000/svg">
<path d="M9.87411 15.3117C10.0347 15.4722 10.1149 15.6469 10.1149 15.8358C10.1149 16.0058 10.0441 16.1522 9.90244 16.275C9.75133 16.4261 9.58133 16.5017 9.39244 16.5017C9.21299 16.5017 9.04772 16.4261 8.89661 16.275L3.76827 11.1325C3.39049 10.7547 3.20161 10.3439 3.20161 9.9C3.20161 9.45611 3.38105 9.05472 3.73994 8.69583L8.93911 3.51083C9.09966 3.35028 9.26966 3.27 9.44911 3.27C9.62855 3.27 9.79383 3.34556 9.94494 3.49667C10.0772 3.62889 10.1433 3.78472 10.1433 3.96417C10.1433 4.1625 10.0677 4.3325 9.91661 4.47417L4.88744 9.475C4.75522 9.59778 4.68911 9.74417 4.68911 9.91417C4.68911 10.0747 4.75049 10.2164 4.87327 10.3392L9.87411 15.3117ZM16.5183 15.3117C16.6788 15.4722 16.7591 15.6469 16.7591 15.8358C16.7591 16.0058 16.6883 16.1522 16.5466 16.275C16.3955 16.4261 16.2255 16.5017 16.0366 16.5017C15.8666 16.5017 15.6966 16.4261 15.5266 16.275L10.4124 11.1325C10.0347 10.7547 9.84577 10.3439 9.84577 9.9C9.84577 9.45611 10.0252 9.05472 10.3841 8.69583L15.5691 3.51083C15.7297 3.35028 15.8997 3.27 16.0791 3.27C16.268 3.27 16.438 3.34556 16.5891 3.49667C16.7213 3.64778 16.7874 3.80361 16.7874 3.96417C16.7874 4.15306 16.7119 4.32306 16.5608 4.47417L11.5174 9.475C11.3852 9.60722 11.3191 9.74889 11.3191 9.9C11.3191 10.0417 11.3852 10.1881 11.5174 10.3392L16.5183 15.3117Z" fill="currentColor"/>
</svg>
