<svg width="20" height="20" viewBox="0 0 20 20" fill="none" xmlns="http://www.w3.org/2000/svg">
<path d="M12.464 10.3756C12.6081 10.2314 12.6802 10.0807 12.6802 9.92347C12.6802 9.76622 12.6081 9.61551 12.464 9.47136L6.92068 3.92808C6.76343 3.78393 6.6848 3.61357 6.6848 3.417C6.6848 3.24664 6.75688 3.08938 6.90103 2.94523C7.04518 2.80108 7.20243 2.729 7.3728 2.729C7.56937 2.729 7.75283 2.81418 7.92319 2.98454L13.5844 8.64577C13.9513 9.0127 14.1348 9.43205 14.1348 9.90382C14.1348 10.3887 13.9382 10.8277 13.5451 11.2208L7.88388 16.8427C7.73973 16.9869 7.57592 17.059 7.39245 17.059C7.2352 17.059 7.08449 17 6.94034 16.8821C6.76998 16.751 6.6848 16.5807 6.6848 16.371C6.6848 16.1875 6.75688 16.0237 6.90103 15.8795L12.464 10.3756Z" fill="currentColor"/>
</svg>
