<svg width="20" height="20" viewBox="0 0 20 20" fill="none" xmlns="http://www.w3.org/2000/svg">
<path d="M13.093 15.8795C13.2371 16.0237 13.3092 16.1875 13.3092 16.371C13.3092 16.5807 13.224 16.751 13.0537 16.8821C12.9226 17 12.7719 17.059 12.6016 17.059C12.4181 17.059 12.2543 16.9869 12.1101 16.8427L6.44892 11.2208C6.05578 10.8277 5.85921 10.3887 5.85921 9.90382C5.85921 9.43205 6.04267 9.0127 6.4096 8.64577L12.0708 2.98454C12.2412 2.81418 12.4181 2.729 12.6016 2.729C12.785 2.729 12.9488 2.80108 13.093 2.94523C13.2371 3.08938 13.3092 3.24664 13.3092 3.417C13.3092 3.61357 13.2306 3.78393 13.0733 3.92808L7.5104 9.47136C7.37935 9.62862 7.31383 9.77932 7.31383 9.92347C7.31383 10.0676 7.37935 10.2183 7.5104 10.3756L13.093 15.8795Z" fill="currentColor"/>
</svg>
