<svg width="20" height="20" viewBox="0 0 20 20" fill="none" xmlns="http://www.w3.org/2000/svg">
<path d="M15.1299 10.3392C15.2527 10.2164 15.3141 10.0747 15.3141 9.91417C15.3141 9.74417 15.248 9.59778 15.1158 9.475L10.0866 4.47417C9.93549 4.32306 9.85994 4.15306 9.85994 3.96417C9.85994 3.78472 9.92605 3.62889 10.0583 3.49667C10.2094 3.34556 10.3747 3.27 10.5541 3.27C10.7336 3.27 10.9036 3.35028 11.0641 3.51083L16.2491 8.69583C16.608 9.05472 16.7874 9.45611 16.7874 9.9C16.7874 10.3628 16.6033 10.7736 16.2349 11.1325L11.1066 16.275C10.9555 16.4261 10.7902 16.5017 10.6108 16.5017C10.4408 16.5017 10.2708 16.4261 10.1008 16.275C9.95911 16.1522 9.88827 16.0058 9.88827 15.8358C9.88827 15.6469 9.96855 15.4722 10.1291 15.3117L15.1299 10.3392ZM8.48577 10.3392C8.61799 10.2069 8.68411 10.0606 8.68411 9.9C8.68411 9.73944 8.61799 9.59778 8.48577 9.475L3.44244 4.47417C3.29133 4.32306 3.21577 4.15306 3.21577 3.96417C3.21577 3.80361 3.28188 3.64778 3.41411 3.49667C3.56522 3.34556 3.73522 3.27 3.92411 3.27C4.10355 3.27 4.27355 3.35028 4.43411 3.51083L9.61911 8.69583C9.96855 9.04528 10.1433 9.44667 10.1433 9.9C10.1433 10.3628 9.95911 10.7736 9.59077 11.1325L4.47661 16.275C4.32549 16.4261 4.15549 16.5017 3.96661 16.5017C3.79661 16.5017 3.62661 16.4261 3.45661 16.275C3.31494 16.1522 3.24411 16.0058 3.24411 15.8358C3.24411 15.6469 3.32438 15.4722 3.48494 15.3117L8.48577 10.3392Z" fill="currentColor"/>
</svg>
