<svg width="20" height="20" viewBox="0 0 20 20" fill="none" xmlns="http://www.w3.org/2000/svg">
<path d="M13.6827 15.1129C14.4034 15.1129 15.039 14.9753 15.5894 14.7001C16.1529 14.4118 16.5919 14.0121 16.9064 13.501C17.221 12.99 17.3782 12.4134 17.3782 11.7712C17.3782 10.8408 17.1358 10.0873 16.6509 9.51067C16.166 8.92096 15.5042 8.59989 14.6655 8.54748H14.6262C14.5083 8.54748 14.41 8.50816 14.3314 8.42953C14.2658 8.3378 14.2396 8.23296 14.2527 8.11502C14.2527 7.47289 14.0693 6.96836 13.7023 6.60143C13.3485 6.22139 12.8636 6.03138 12.2477 6.03138C12.0774 6.03138 11.8808 6.05103 11.658 6.09035C11.6318 6.10345 11.5859 6.11 11.5204 6.11C11.2845 6.11 11.1207 6.00517 11.029 5.79549C10.7538 5.34993 10.3672 5.00266 9.86923 4.75367C9.38435 4.50468 8.86017 4.38019 8.29666 4.38019C7.34002 4.38019 6.57995 4.70125 6.01645 5.34338C5.46605 5.97241 5.19086 6.81766 5.19086 7.87914C5.19086 8.14123 5.21051 8.40988 5.24983 8.68507V8.72439C5.24983 8.84233 5.21706 8.94717 5.15154 9.0389C5.08602 9.11753 4.99429 9.1634 4.87634 9.1765C4.16869 9.33376 3.59864 9.68103 3.16618 10.2183C2.73373 10.7425 2.5175 11.3781 2.5175 12.1251C2.5175 13.0031 2.81236 13.7238 3.40207 14.2873C4.00488 14.8377 4.77806 15.1129 5.7216 15.1129H13.6827ZM5.7216 16.4693C4.83048 16.4693 4.03764 16.2858 3.3431 15.9189C2.64855 15.5519 2.1047 15.0408 1.71156 14.3856C1.33153 13.7173 1.14151 12.9638 1.14151 12.1251C1.14151 11.1553 1.3905 10.2969 1.88848 9.54998C2.38645 8.78991 3.02858 8.29849 3.81486 8.07571C3.77555 7.09286 3.93936 6.22139 4.30629 5.46132C4.67322 4.68815 5.20396 4.08533 5.89851 3.65288C6.59306 3.22042 7.39244 3.0042 8.29666 3.0042C8.99121 3.0042 9.67266 3.17456 10.341 3.51528C11.0224 3.8429 11.5335 4.26225 11.8742 4.77333C12.1363 4.74712 12.3329 4.73401 12.464 4.73401C13.2502 4.73401 13.9186 4.9699 14.469 5.44167C15.0194 5.90033 15.347 6.51625 15.4518 7.28943C16.094 7.38116 16.664 7.6367 17.162 8.05605C17.66 8.46229 18.0465 8.99303 18.3217 9.64827C18.6101 10.2904 18.7542 10.9981 18.7542 11.7712C18.7542 12.6754 18.538 13.4879 18.1055 14.2087C17.6731 14.9163 17.0702 15.4733 16.2971 15.8795C15.537 16.2727 14.6655 16.4693 13.6827 16.4693H5.7216ZM11.717 8.09536C11.8349 7.97742 11.9725 7.91845 12.1298 7.91845C12.3001 7.91845 12.4443 7.97742 12.5622 8.09536C12.6933 8.21331 12.7588 8.35746 12.7588 8.52782C12.7588 8.67197 12.6933 8.82267 12.5622 8.97993L7.88387 13.3831C7.76592 13.501 7.62833 13.56 7.47107 13.56C7.30071 13.56 7.15656 13.501 7.03862 13.3831C6.92067 13.2652 6.8617 13.121 6.8617 12.9506C6.8617 12.8065 6.92067 12.6623 7.03862 12.5182L11.717 8.09536ZM7.1369 8.97993C7.03206 8.84888 6.97964 8.69818 6.97964 8.52782C6.97964 8.35746 7.03206 8.21331 7.1369 8.09536C7.25484 7.97742 7.39899 7.91845 7.56936 7.91845C7.73972 7.91845 7.88387 7.97742 8.00181 8.09536L12.6605 12.5182C12.7916 12.6492 12.8571 12.7934 12.8571 12.9506C12.8571 13.121 12.7981 13.2652 12.6802 13.3831C12.5622 13.501 12.4115 13.56 12.2281 13.56C12.0708 13.56 11.9332 13.501 11.8153 13.3831L7.1369 8.97993Z" fill="currentColor"/>
</svg>
