<svg width="20" height="20" viewBox="0 0 20 20" fill="none" xmlns="http://www.w3.org/2000/svg">
<path d="M13.6827 15.1129C14.4035 15.1129 15.039 14.9753 15.5894 14.7001C16.1529 14.4118 16.5919 14.0121 16.9065 13.5011C17.221 12.99 17.3782 12.4134 17.3782 11.7712C17.3782 10.8408 17.1358 10.0873 16.6509 9.51068C16.1791 8.92097 15.5305 8.59991 14.7049 8.54749C14.5607 8.54749 14.4428 8.50817 14.351 8.42955C14.2724 8.33781 14.2397 8.21987 14.2528 8.07572C14.2397 7.44669 14.0562 6.94872 13.7024 6.58178C13.3485 6.21485 12.8768 6.03139 12.2871 6.03139C12.0905 6.03139 11.8939 6.05105 11.6973 6.09036C11.5532 6.11657 11.4156 6.10346 11.2845 6.05105C11.1666 5.99863 11.0749 5.90689 11.0093 5.77585C10.7342 5.34339 10.3476 5.00267 9.84958 4.75368C9.36471 4.50469 8.84708 4.3802 8.29668 4.3802C7.34004 4.3802 6.57997 4.70126 6.01647 5.34339C5.46607 5.98552 5.19087 6.84388 5.19087 7.91846C5.19087 8.06261 5.20398 8.30505 5.23019 8.64577C5.25639 8.77682 5.23019 8.89476 5.15156 8.9996C5.08603 9.10444 4.9812 9.16996 4.83704 9.19617C4.1425 9.35343 3.579 9.7007 3.14654 10.238C2.72719 10.7622 2.51096 11.3912 2.49786 12.1251C2.51096 13.0031 2.81237 13.7238 3.40208 14.2873C4.0049 14.8377 4.77807 15.1129 5.72161 15.1129H13.6827ZM5.72161 16.4693C4.83049 16.4693 4.03766 16.2858 3.34311 15.9189C2.64856 15.5519 2.10472 15.0409 1.71158 14.3856C1.33154 13.7173 1.14153 12.9638 1.14153 12.1251C1.14153 11.1553 1.39051 10.297 1.88849 9.55C2.38647 8.78992 3.0286 8.2985 3.81488 8.07572C3.77557 7.10597 3.93937 6.24106 4.30631 5.48099C4.67324 4.70782 5.19742 4.105 5.87887 3.67255C6.57342 3.24009 7.36625 3.02386 8.25737 3.02386C8.96502 3.02386 9.65957 3.18767 10.341 3.51529C11.0225 3.84291 11.5335 4.26226 11.8743 4.77334C12.1364 4.74713 12.3329 4.73403 12.464 4.73403C13.2502 4.73403 13.9186 4.96991 14.469 5.44168C15.0194 5.90034 15.347 6.51626 15.4518 7.28944C16.094 7.38117 16.664 7.63671 17.162 8.05606C17.66 8.46231 18.0466 8.99305 18.3218 9.64828C18.597 10.2904 18.7346 10.9981 18.7346 11.7712C18.7346 12.6755 18.5183 13.488 18.0859 14.2087C17.6665 14.9164 17.0703 15.4733 16.2971 15.8796C15.537 16.2727 14.6656 16.4693 13.6827 16.4693H5.72161Z" fill="currentColor"/>
</svg>
