<svg width="20" height="20" viewBox="0 0 20 20" fill="none" xmlns="http://www.w3.org/2000/svg">
<path d="M14.1741 14.2677C15.1439 14.2677 15.9236 13.9925 16.5133 13.4421C17.1161 12.8786 17.4175 12.1447 17.4175 11.2405C17.4175 10.4411 17.1555 9.79897 16.6313 9.3141C16.1202 8.82923 15.4322 8.57368 14.5673 8.54748H14.528C14.3969 8.54748 14.2986 8.50816 14.2331 8.42953C14.1676 8.35091 14.1414 8.24607 14.1545 8.11502C14.1545 7.486 13.9972 7.00112 13.6827 6.6604C13.3813 6.31968 12.9554 6.14932 12.405 6.14932C12.156 6.14932 11.9201 6.17553 11.6974 6.22795C11.6711 6.24105 11.6253 6.2476 11.5598 6.2476C11.3501 6.2476 11.1863 6.14932 11.0683 5.95275C10.7931 5.48098 10.4065 5.10094 9.90856 4.81264C9.41059 4.52434 8.8864 4.38019 8.336 4.38019C7.37936 4.38019 6.62584 4.67504 6.07544 5.26475C5.52505 5.84136 5.24985 6.62109 5.24985 7.60394C5.24985 7.90535 5.26295 8.13468 5.28916 8.29193V8.37056C5.28916 8.4754 5.2564 8.56713 5.19088 8.64576C5.12536 8.72439 5.03362 8.77026 4.91568 8.78336C4.19492 8.92751 3.61832 9.24858 3.18586 9.74655C2.76651 10.2445 2.55684 10.8408 2.55684 11.5353C2.55684 12.3478 2.81238 13.0096 3.32346 13.5207C3.84765 14.0187 4.52909 14.2677 5.36779 14.2677H8.29669V15.624H5.36779C4.5553 15.624 3.82799 15.4536 3.18586 15.1129C2.55684 14.7591 2.06541 14.2742 1.71159 13.6583C1.35776 13.0424 1.18085 12.3347 1.18085 11.5353C1.18085 10.618 1.42984 9.80552 1.92781 9.09787C2.42579 8.37711 3.06792 7.90535 3.8542 7.68257C3.81489 6.76524 3.9787 5.95275 4.34563 5.2451C4.71256 4.53744 5.2433 3.98705 5.93785 3.59391C6.63239 3.20077 7.43178 3.0042 8.336 3.0042C9.05676 3.0042 9.74475 3.168 10.4 3.49562C11.0683 3.82324 11.5729 4.24914 11.9136 4.77333C12.0446 4.74712 12.2412 4.73401 12.5033 4.73401C13.3027 4.73401 13.971 4.96335 14.5083 5.42201C15.0587 5.88067 15.3863 6.50315 15.4912 7.28943C16.474 7.43358 17.2668 7.87258 17.8697 8.60645C18.4856 9.3272 18.7935 10.2052 18.7935 11.2405C18.7935 12.0923 18.597 12.8524 18.2038 13.5207C17.8238 14.189 17.2799 14.7067 16.5723 15.0736C15.8777 15.4405 15.0784 15.624 14.1741 15.624H11.8743V14.2677H14.1741ZM13.5451 11.3977C13.6893 11.5419 13.7613 11.6926 13.7613 11.8499C13.7613 12.0202 13.6958 12.1709 13.5648 12.302C13.3944 12.4985 13.2044 12.5968 12.9947 12.5968C12.8375 12.5968 12.6868 12.5182 12.5426 12.3609L10.0658 9.5893L7.64801 12.3609C7.51696 12.5182 7.3597 12.5968 7.17624 12.5968C7.00588 12.5968 6.82241 12.5116 6.62584 12.3413C6.48169 12.1971 6.40961 12.0399 6.40961 11.8695C6.40961 11.6992 6.47514 11.5484 6.60618 11.4174L9.10263 8.82267C9.40403 8.56058 9.7251 8.42953 10.0658 8.42953C10.4065 8.42953 10.7211 8.56058 11.0094 8.82267L13.5451 11.3977ZM10.7735 17.5897C10.7735 17.7863 10.7079 17.9435 10.5769 18.0615C10.4459 18.1925 10.2755 18.258 10.0658 18.258C9.86925 18.258 9.70544 18.1925 9.57439 18.0615C9.45645 17.9435 9.39748 17.7863 9.39748 17.5897V12.3216L9.55474 9.23547H10.5966L10.7735 12.3216V17.5897Z" fill="currentColor"/>
</svg>
