<svg width="20" height="20" viewBox="0 0 20 20" fill="none" xmlns="http://www.w3.org/2000/svg">
<path d="M13.6827 15.1129C14.4035 15.1129 15.039 14.9753 15.5894 14.7001C16.1529 14.4118 16.5919 14.0121 16.9065 13.501C17.221 12.99 17.3782 12.4134 17.3782 11.7712C17.3782 10.8408 17.1358 10.0873 16.6509 9.51067C16.166 8.92096 15.5043 8.59989 14.6656 8.54748H14.6262C14.5083 8.54748 14.41 8.50816 14.3314 8.42953C14.2659 8.3378 14.2397 8.23296 14.2528 8.11502C14.2528 7.47289 14.0693 6.96836 13.7024 6.60143C13.3485 6.22139 12.8637 6.03138 12.2477 6.03138C12.0774 6.03138 11.8808 6.05103 11.658 6.09035C11.6318 6.10345 11.586 6.11 11.5204 6.11C11.2845 6.11 11.1207 6.00517 11.029 5.79549C10.7538 5.34993 10.3672 5.00266 9.86924 4.75367C9.38437 4.50468 8.86018 4.38019 8.29668 4.38019C7.34004 4.38019 6.57997 4.70125 6.01647 5.34338C5.46607 5.97241 5.19087 6.81766 5.19087 7.87914C5.19087 8.14123 5.21053 8.40988 5.24984 8.68507V8.72439C5.24984 8.84233 5.21708 8.94717 5.15156 9.0389C5.08603 9.11753 4.9943 9.1634 4.87636 9.1765C4.16871 9.33376 3.59865 9.68103 3.1662 10.2183C2.73374 10.7425 2.51752 11.3781 2.51752 12.1251C2.51752 13.0031 2.81237 13.7238 3.40208 14.2873C4.0049 14.8377 4.77807 15.1129 5.72161 15.1129H13.6827ZM5.72161 16.4693C4.83049 16.4693 4.03766 16.2858 3.34311 15.9189C2.64856 15.5519 2.10472 15.0408 1.71158 14.3856C1.33154 13.7173 1.14153 12.9638 1.14153 12.1251C1.14153 11.1553 1.39051 10.2969 1.88849 9.54998C2.38647 8.78991 3.0286 8.29849 3.81488 8.07571C3.77557 7.09286 3.93937 6.22139 4.30631 5.46132C4.67324 4.68815 5.20398 4.08533 5.89852 3.65288C6.59307 3.22042 7.39246 3.0042 8.29668 3.0042C8.99123 3.0042 9.67267 3.17456 10.341 3.51528C11.0225 3.8429 11.5335 4.26225 11.8743 4.77333C12.1364 4.74712 12.3329 4.73401 12.464 4.73401C13.2502 4.73401 13.9186 4.9699 14.469 5.44167C15.0194 5.90033 15.347 6.51625 15.4518 7.28943C16.094 7.38116 16.664 7.6367 17.162 8.05605C17.66 8.46229 18.0466 8.99303 18.3218 9.64827C18.6101 10.2904 18.7542 10.9981 18.7542 11.7712C18.7542 12.6754 18.538 13.4879 18.1055 14.2087C17.6731 14.9163 17.0703 15.4733 16.2971 15.8795C15.537 16.2727 14.6656 16.4693 13.6827 16.4693H5.72161ZM9.98718 12.184C10.2493 12.184 10.459 12.2692 10.6162 12.4396C10.7866 12.5968 10.8717 12.8065 10.8717 13.0686C10.8717 13.3176 10.7866 13.5273 10.6162 13.6976C10.459 13.868 10.2493 13.9532 9.98718 13.9532C9.73819 13.9532 9.52852 13.868 9.35816 13.6976C9.2009 13.5273 9.12228 13.3176 9.12228 13.0686C9.12228 12.8196 9.2009 12.6099 9.35816 12.4396C9.52852 12.2692 9.73819 12.184 9.98718 12.184ZM10.6359 10.7294C10.6359 10.9129 10.5703 11.0701 10.4393 11.2012C10.3214 11.3191 10.1706 11.3781 9.98718 11.3781C9.80372 11.3781 9.65301 11.3191 9.53507 11.2012C9.41713 11.0701 9.35816 10.9129 9.35816 10.7294V7.68257C9.35816 7.4991 9.41713 7.3484 9.53507 7.23046C9.66612 7.09941 9.81682 7.03389 9.98718 7.03389C10.1706 7.03389 10.3214 7.09941 10.4393 7.23046C10.5703 7.3484 10.6359 7.4991 10.6359 7.68257V10.7294Z" fill="currentColor"/>
</svg>
