<svg width="20" height="20" viewBox="0 0 20 20" fill="none" xmlns="http://www.w3.org/2000/svg">
<path d="M7.43176 16.7838C7.31382 17.0458 7.1238 17.1769 6.86171 17.1769C6.71756 17.1769 6.57341 17.1245 6.42925 17.0196C6.23268 16.9017 6.1344 16.7313 6.1344 16.5086C6.1344 16.3906 6.16061 16.2858 6.21303 16.194L12.4443 3.20075C12.5622 2.95176 12.7523 2.82727 13.0144 2.82727C13.1716 2.82727 13.3158 2.86658 13.4468 2.94521C13.6565 3.07626 13.7613 3.25317 13.7613 3.47595C13.7613 3.59389 13.7351 3.69873 13.6827 3.79046L7.43176 16.7838ZM5.80023 12.9899C5.95749 13.1472 6.03611 13.3241 6.03611 13.5207C6.03611 13.6779 5.97714 13.8155 5.8592 13.9335C5.70194 14.1038 5.53158 14.189 5.34812 14.189C5.16465 14.189 5.00084 14.1104 4.85669 13.9531L1.86883 10.926C1.58052 10.6377 1.43637 10.3035 1.43637 9.92345C1.43637 9.53031 1.58707 9.18959 1.88848 8.90129L4.81738 6.01171C4.96153 5.86756 5.13844 5.79548 5.34812 5.79548C5.53158 5.79548 5.68884 5.861 5.81989 5.99205C5.96404 6.1362 6.03611 6.29346 6.03611 6.46382C6.03611 6.62107 5.96404 6.78488 5.81989 6.95524L3.0679 9.66791C2.98928 9.74654 2.94996 9.83172 2.94996 9.92345C2.94996 10.0283 2.98928 10.12 3.0679 10.1987L5.80023 12.9899ZM15.1177 13.9728C14.9866 14.1038 14.8294 14.1694 14.6459 14.1694C14.4493 14.1694 14.279 14.0973 14.1348 13.9531C14.0038 13.7959 13.9382 13.6386 13.9382 13.4814C13.9382 13.311 14.0103 13.1538 14.1545 13.0096L16.9261 10.1987C17.0047 10.12 17.044 10.0348 17.044 9.94311C17.044 9.83827 17.0047 9.74654 16.9261 9.66791L14.1545 6.93559C14.0365 6.81764 13.9775 6.67349 13.9775 6.50313C13.9775 6.33277 14.03 6.17552 14.1348 6.03136C14.2921 5.861 14.4624 5.77582 14.6459 5.77582C14.8294 5.77582 14.9866 5.8479 15.1177 5.99205L18.0859 8.90129C18.4004 9.18959 18.5576 9.53031 18.5576 9.92345C18.5576 10.2904 18.4135 10.618 18.1252 10.9063L15.1177 13.9728Z" fill="currentColor"/>
</svg>
