<svg xmlns="http://www.w3.org/2000/svg" width="20" height="20" fill="none" viewBox="0 0 20 20"><path fill="currentColor" fill-rule="evenodd" d="M1.5 8.325A4.825 4.825 0 0 1 6.325 3.5h7.5a4.825 4.825 0 0 1 4.825 4.825v3.333a4.825 4.825 0 0 1-4.825 4.825H2.992A1.49 1.49 0 0 1 1.5 14.992zm4.825-3.508a3.51 3.51 0 0 0-3.508 3.508v6.667c0 .096.078.175.175.175h10.833a3.51 3.51 0 0 0 3.508-3.509V8.325a3.51 3.51 0 0 0-3.508-3.508z" clip-rule="evenodd"/><path fill="currentColor" d="M6.662 10.07a.66.66 0 0 1 .658-.66h5.5a.658.658 0 1 1 0 1.318h-5.5a.66.66 0 0 1-.658-.659"/><path fill="currentColor" d="M10.074 13.5a.66.66 0 0 1-.658-.658v-5.5a.658.658 0 1 1 1.317 0v5.5a.66.66 0 0 1-.659.658"/></svg>