<svg width="20" height="20" viewBox="0 0 20 20" fill="none" xmlns="http://www.w3.org/2000/svg">
<path d="M5.66666 7.49167C5.66666 7.12808 5.96141 6.83333 6.32499 6.83333H13.825C14.1886 6.83333 14.4833 7.12808 14.4833 7.49167C14.4833 7.85525 14.1886 8.15 13.825 8.15H6.32499C5.96141 8.15 5.66666 7.85525 5.66666 7.49167Z" fill="currentColor"/>
<path d="M5.66666 9.99167C5.66666 9.62808 5.96141 9.33333 6.32499 9.33333H13.825C14.1886 9.33333 14.4833 9.62808 14.4833 9.99167C14.4833 10.3553 14.1886 10.65 13.825 10.65H6.32499C5.96141 10.65 5.66666 10.3553 5.66666 9.99167Z" fill="currentColor"/>
<path d="M5.66666 12.4917C5.66666 12.1281 5.96141 11.8333 6.32499 11.8333H10.4917C10.8552 11.8333 11.15 12.1281 11.15 12.4917C11.15 12.8553 10.8552 13.15 10.4917 13.15H6.32499C5.96141 13.15 5.66666 12.8553 5.66666 12.4917Z" fill="currentColor"/>
<path fill-rule="evenodd" clip-rule="evenodd" d="M1.49999 8.325C1.49999 5.66023 3.66022 3.5 6.32499 3.5H13.825C16.4898 3.5 18.65 5.66023 18.65 8.325V11.6583C18.65 14.3231 16.4898 16.4833 13.825 16.4833H2.99166C2.16783 16.4833 1.49999 15.8155 1.49999 14.9917V8.325ZM6.32499 4.81667C4.38739 4.81667 2.81666 6.3874 2.81666 8.325V14.9917C2.81666 15.0883 2.89501 15.1667 2.99166 15.1667H13.825C15.7626 15.1667 17.3333 13.5959 17.3333 11.6583V8.325C17.3333 6.3874 15.7626 4.81667 13.825 4.81667H6.32499Z" fill="currentColor"/>
</svg>
