<svg width="20" height="20" viewBox="0 0 20 20" fill="none" xmlns="http://www.w3.org/2000/svg">
<path d="M16.4993 9.2002C16.4993 8.75844 16.1412 8.39952 15.6995 8.39941H9.39966C8.95783 8.39941 8.59888 8.75837 8.59888 9.2002V15.5C8.59899 15.9417 8.9579 16.2998 9.39966 16.2998H15.6995C16.1411 16.2997 16.4992 15.9417 16.4993 15.5V9.2002ZM17.6995 15.5C17.6994 16.6044 16.8039 17.4999 15.6995 17.5H9.39966C8.29516 17.5 7.39977 16.6045 7.39966 15.5V9.2002C7.39966 8.09563 8.29509 7.2002 9.39966 7.2002H15.6995C16.8039 7.20031 17.6995 8.0957 17.6995 9.2002V15.5Z" fill="currentColor"/>
<path d="M11.5996 4.99939V4.30017C11.5996 4.088 11.5153 3.88379 11.3652 3.73376C11.2153 3.5839 11.0118 3.49944 10.7998 3.49939H4.5C4.28783 3.49939 4.08362 3.58374 3.93359 3.73376C3.78357 3.88379 3.69922 4.088 3.69922 4.30017V10.6C3.69927 10.812 3.78373 11.0154 3.93359 11.1654C4.08362 11.3154 4.28783 11.3998 4.5 11.3998H5.19922C5.53046 11.3998 5.7996 11.6682 5.7998 11.9994C5.7998 12.3308 5.53059 12.6 5.19922 12.6H4.5C3.96957 12.6 3.46003 12.3891 3.08496 12.014C2.71006 11.639 2.50005 11.1302 2.5 10.6V4.30017C2.5 3.76974 2.70989 3.2602 3.08496 2.88513C3.46003 2.51006 3.96957 2.30017 4.5 2.30017H10.7998C11.3301 2.30023 11.8389 2.51023 12.2139 2.88513C12.5889 3.2602 12.7998 3.76974 12.7998 4.30017V4.99939C12.7998 5.33076 12.5306 5.59998 12.1992 5.59998C11.868 5.59977 11.5996 5.33063 11.5996 4.99939Z" fill="currentColor"/>
</svg>
