<svg width="20" height="20" viewBox="0 0 20 20" fill="none" xmlns="http://www.w3.org/2000/svg">
<path d="M4.24733 15.742C4.24733 15.9254 4.3063 16.0761 4.42425 16.1941C4.54219 16.312 4.69289 16.371 4.87636 16.371H11.4811C11.8087 16.371 12.0774 16.2661 12.2871 16.0565C12.4967 15.8468 12.6016 15.5716 12.6016 15.2309L12.6212 10.0807L8.76845 6.12967H5.38744C5.05982 6.12967 4.78462 6.23451 4.56184 6.44418C4.35217 6.65386 4.24733 6.92905 4.24733 7.26978V15.742ZM4.97464 17.6683C4.37183 17.6683 3.8804 17.4783 3.50037 17.0983C3.13343 16.7314 2.95652 16.253 2.96963 15.6633V7.2108C2.95652 6.50315 3.17275 5.9331 3.61831 5.50064C4.06387 5.05509 4.64703 4.83231 5.36778 4.83231H8.57188C8.76845 4.83231 8.97157 4.87817 9.18124 4.9699C9.39092 5.04853 9.56783 5.15992 9.71198 5.30407L13.4665 9.19616C13.5975 9.35342 13.7024 9.53689 13.781 9.74656C13.8727 9.94313 13.9186 10.1397 13.9186 10.3363V15.2702C13.9186 15.9909 13.6958 16.5675 13.2502 17C12.8178 17.4456 12.2477 17.6683 11.5401 17.6683H4.97464ZM13.2306 10.4935H9.73164C9.3254 10.4935 8.99123 10.369 8.72913 10.12C8.48014 9.85795 8.35565 9.52378 8.35565 9.11754V5.7955H9.41713V9.03891C9.41713 9.15685 9.44989 9.25514 9.51541 9.33376C9.59404 9.39929 9.69233 9.43205 9.81027 9.43205H13.2306V10.4935ZM6.52755 5.32373V4.06568C6.52755 3.50218 6.69791 3.04352 7.03863 2.68969C7.39246 2.33586 7.85112 2.15895 8.41462 2.15895H12.7195C12.9161 2.15895 13.1192 2.20482 13.3289 2.29655C13.5386 2.37518 13.7089 2.48002 13.84 2.61106L16.5526 5.32373C16.6968 5.45478 16.8082 5.62514 16.8868 5.83481C16.9785 6.04449 17.0244 6.24761 17.0244 6.44418V12.6951C17.0375 13.4028 16.8213 13.9728 16.3757 14.4053C15.9302 14.8377 15.3535 15.054 14.6459 15.054H13.3682V13.7762H14.6066C14.9473 13.7762 15.2225 13.6714 15.4322 13.4617C15.6419 13.239 15.7467 12.9638 15.7467 12.6361V6.14933L13.0537 3.43666H8.70948C8.44738 3.43666 8.23116 3.52184 8.06079 3.6922C7.89043 3.86256 7.80525 4.07879 7.80525 4.34088V5.32373H6.52755ZM16.3757 7.05355H13.663C13.1913 7.05355 12.8112 6.9094 12.5229 6.6211C12.2346 6.33279 12.0905 5.95276 12.0905 5.48099V2.8666H13.2306V5.44167C13.2306 5.57272 13.2699 5.68411 13.3485 5.77584C13.4403 5.85447 13.5517 5.89379 13.6827 5.89379H16.3757V7.05355Z" fill="currentColor"/>
</svg>
