<svg width="20" height="20" viewBox="0 0 20 20" fill="none" xmlns="http://www.w3.org/2000/svg">
<path d="M4.48428 11.2956C4.48428 11.1199 4.54666 10.9738 4.65104 10.8717C4.7555 10.7695 4.90718 10.7063 5.0946 10.7063H6.80998C6.99353 10.7063 7.14346 10.7693 7.2472 10.8715C7.35089 10.9737 7.4133 11.1199 7.4133 11.2956V12.5909C7.4133 12.7704 7.35071 12.9164 7.24742 13.0174C7.14398 13.1186 6.99412 13.1802 6.80998 13.1802H5.0946C4.9066 13.1802 4.75498 13.1184 4.65082 13.0172C4.54685 12.9162 4.48428 12.7704 4.48428 12.5909V11.2956Z" fill="currentColor"/>
<path fill-rule="evenodd" clip-rule="evenodd" d="M1.84469 6.06547C1.84469 5.33004 2.03699 4.78568 2.40129 4.42469C2.76573 4.06357 3.31554 3.8728 4.05837 3.8728H16.031C16.7738 3.8728 17.3237 4.06357 17.6881 4.42469C18.0524 4.78568 18.2447 5.33004 18.2447 6.06547V13.6341C18.2447 14.366 18.0524 14.9104 17.688 15.2724C17.3235 15.6344 16.7737 15.8268 16.031 15.8268H4.05837C3.31554 15.8268 2.76573 15.636 2.40129 15.2749C2.03699 14.9139 1.84469 14.3696 1.84469 13.6341V6.06547ZM4.14239 5.07945C3.80296 5.07945 3.52665 5.16902 3.33553 5.36014C3.1444 5.55127 3.05134 5.83109 3.05134 6.1845V6.77844H17.038V6.1845C17.038 5.83067 16.943 5.55094 16.7511 5.35999C16.5592 5.16913 16.2831 5.07945 15.947 5.07945H4.14239ZM17.038 8.24414H3.05134V13.5151C3.05134 13.8685 3.1444 14.1483 3.33553 14.3395C3.52665 14.5306 3.80296 14.6202 4.14239 14.6202H15.947C16.2831 14.6202 16.5592 14.5305 16.7511 14.3396C16.943 14.1487 17.038 13.8689 17.038 13.5151V8.24414Z" fill="currentColor"/>
</svg>
