<svg width="20" height="20" viewBox="0 0 20 20" fill="none" xmlns="http://www.w3.org/2000/svg">
<path d="M10.151 12.6332C10.151 12.4102 10.242 12.2281 10.4468 12.0096L13.8384 8.41775C14.0023 8.24476 14.1752 8.18558 14.3255 8.18558C14.4803 8.18558 14.6487 8.24021 14.8171 8.41775L18.1768 12.0096C18.4044 12.2508 18.5 12.4011 18.5 12.6241C18.5 12.9428 18.2496 13.1704 17.9446 13.1704H16.2238V13.3024C16.2238 16.5756 14.1252 18.0005 10.761 18.0005C10.3695 18.0005 10.151 17.7774 10.151 17.5316C10.151 17.3404 10.1965 17.131 10.4878 16.9717C11.9764 16.1795 12.4226 15.0642 12.4226 13.3024V13.1704H10.6836C10.3786 13.1704 10.151 12.9428 10.151 12.6332Z" fill="currentColor"/>
<path fill-rule="evenodd" clip-rule="evenodd" d="M8.61133 2.50684C10.2509 2.50684 11.763 2.7277 12.8877 3.10254C13.4466 3.28883 13.9467 3.52493 14.3203 3.81934C14.6865 4.1079 15.0234 4.52999 15.0234 5.08301L15.0225 7.34766C14.7991 7.23991 14.5634 7.18652 14.3252 7.18652C14.1142 7.18656 13.9048 7.22844 13.7061 7.3125V6.72949C13.4559 6.85531 13.1797 6.96614 12.8877 7.06348C11.763 7.43833 10.251 7.65918 8.61133 7.65918C6.97189 7.65914 5.46048 7.43828 4.33594 7.06348C4.04393 6.96614 3.76775 6.8553 3.51758 6.72949V9.875C3.52003 9.88754 3.54302 9.96796 3.71875 10.1064C3.92739 10.2708 4.26993 10.4477 4.75195 10.6084C5.70937 10.9275 7.09187 11.0642 8.61133 11.1367C9.01175 11.1558 9.45405 11.153 9.88965 11.1416L9.71973 11.3232L9.71777 11.3262C9.44824 11.6137 9.21017 11.9743 9.16113 12.4521C8.85777 12.4523 8.64121 12.4531 8.61133 12.4531C6.972 12.4531 5.46046 12.2332 4.33594 11.8584C4.0439 11.7611 3.76777 11.6493 3.51758 11.5234V14.6689C3.51979 14.6807 3.54194 14.7611 3.71875 14.9004C3.92736 15.0648 4.26987 15.2416 4.75195 15.4023C5.70937 15.7215 7.09398 15.8228 8.61133 15.9307C9.10326 15.9656 9.6687 15.9779 10.2002 15.9844C10.1425 16.019 10.0826 16.0548 10.0186 16.0889L10.0078 16.0947C9.71054 16.2573 9.46648 16.4891 9.31445 16.7949C9.23391 16.957 9.19373 17.1142 9.17285 17.251C8.90662 17.249 8.70524 17.248 8.61133 17.248C6.97196 17.248 5.46047 17.0271 4.33594 16.6523C3.77716 16.4661 3.2769 16.2299 2.90332 15.9355C2.53723 15.647 2.20036 15.2247 2.2002 14.6719V5.08301C2.20022 4.52999 2.53716 4.1079 2.90332 3.81934C3.27691 3.52493 3.77708 3.28882 4.33594 3.10254C5.46048 2.72774 6.97191 2.50688 8.61133 2.50684ZM8.61133 3.82422C7.07395 3.82426 5.70937 4.03243 4.75195 4.35156C4.27001 4.51221 3.92742 4.68917 3.71875 4.85352C3.55124 4.98553 3.52201 5.06502 3.51758 5.08301C3.52201 5.10099 3.55124 5.18048 3.71875 5.3125C3.92741 5.47686 4.26998 5.65379 4.75195 5.81445C5.70937 6.13359 7.07395 6.34175 8.61133 6.3418C10.1489 6.3418 11.5142 6.13362 12.4717 5.81445C12.9537 5.65379 13.2962 5.47686 13.5049 5.3125C13.6724 5.18048 13.7016 5.10099 13.7061 5.08301C13.7016 5.06503 13.6724 4.98553 13.5049 4.85352C13.2962 4.68916 12.9536 4.51221 12.4717 4.35156C11.5142 4.03239 10.1489 3.82422 8.61133 3.82422Z" fill="currentColor"/>
</svg>
