<svg width="20" height="20" viewBox="0 0 20 20" fill="none" xmlns="http://www.w3.org/2000/svg">
<path fill-rule="evenodd" clip-rule="evenodd" d="M14.0396 10.5264C12.2804 10.5264 10.8543 11.9525 10.8543 13.7118C10.8543 15.471 12.2804 16.8971 14.0396 16.8971C15.7989 16.8971 17.225 15.471 17.225 13.7118C17.225 11.9525 15.7989 10.5264 14.0396 10.5264ZM9.55427 13.7118C9.55427 11.2346 11.5624 9.2264 14.0396 9.2264C16.5168 9.2264 18.525 11.2346 18.525 13.7118C18.525 16.189 16.5168 18.1971 14.0396 18.1971C11.5624 18.1971 9.55427 16.189 9.55427 13.7118Z" fill="currentColor"/>
<path fill-rule="evenodd" clip-rule="evenodd" d="M3.39328 5.31143C3.22576 5.17941 3.19707 5.1002 3.19264 5.08222C3.19707 5.06424 3.22576 4.98503 3.39328 4.85301C3.60192 4.68859 3.94463 4.51171 4.42683 4.35098C5.38434 4.03181 6.74901 3.8231 8.28658 3.8231C9.82416 3.8231 11.1888 4.03181 12.1463 4.35098C12.6285 4.51171 12.9713 4.68859 13.1799 4.85301C13.3474 4.98503 13.3761 5.06424 13.3805 5.08222C13.3761 5.1002 13.3474 5.17941 13.1799 5.31143C12.9713 5.47585 12.6285 5.65273 12.1463 5.81346C11.1888 6.13263 9.82416 6.34134 8.28658 6.34134C6.74901 6.34134 5.38434 6.13263 4.42683 5.81346C3.94463 5.65273 3.60192 5.47585 3.39328 5.31143ZM8.28658 2.50598C6.64684 2.50598 5.135 2.72656 4.01032 3.10145C3.45142 3.28775 2.95162 3.5241 2.57802 3.81853C2.21184 4.10711 1.87499 4.52917 1.87498 5.08221V14.6706C1.87498 15.2237 2.21184 15.6457 2.57802 15.9343C2.95162 16.2287 3.45142 16.4651 4.01032 16.6514C5.135 17.0263 6.64684 17.2469 8.28658 17.2469C8.77136 17.2469 9.24495 17.2276 9.70066 17.1907C9.39105 16.8051 9.13179 16.3773 8.93287 15.9173C8.7214 15.9255 8.50575 15.9297 8.28658 15.9297C6.74901 15.9297 5.38434 15.721 4.42683 15.4019C3.94463 15.2411 3.60192 15.0642 3.39328 14.8998C3.21647 14.7605 3.19432 14.68 3.1921 14.6682V11.5229C3.44232 11.6488 3.71825 11.7598 4.01032 11.8572C5.135 12.2321 6.64684 12.4526 8.28658 12.4526C8.3991 12.4526 8.511 12.4516 8.62223 12.4495C8.73145 11.9789 8.90044 11.5311 9.12075 11.1147C8.8496 11.1284 8.57105 11.1355 8.28658 11.1355C6.74901 11.1355 5.38434 10.9268 4.42683 10.6076C3.94463 10.4469 3.60192 10.27 3.39328 10.1056C3.21647 9.96626 3.19432 9.88575 3.1921 9.87397V6.72877C3.44232 6.85461 3.71825 6.96563 4.01032 7.06299C5.135 7.43788 6.64684 7.65846 8.28658 7.65846C9.92633 7.65846 11.4382 7.43788 12.5629 7.06299C12.8549 6.96563 13.1308 6.85461 13.3811 6.72877V8.18907C13.597 8.16359 13.8168 8.15049 14.0396 8.15049C14.2625 8.15049 14.4822 8.16359 14.6982 8.18907L14.6982 5.08617L14.6982 5.08222C14.6982 4.52917 14.3613 4.10711 13.9952 3.81853C13.6216 3.5241 13.1218 3.28775 12.5629 3.10145C11.4382 2.72656 9.92633 2.50598 8.28658 2.50598Z" fill="currentColor"/>
</svg>
