<svg width="20" height="20" viewBox="0 0 20 20" fill="none" xmlns="http://www.w3.org/2000/svg">
<path fill-rule="evenodd" clip-rule="evenodd" d="M1.43638 6.11001C1.05634 6.49004 0.866322 6.97492 0.866322 7.56463C0.866322 8.07571 1.00392 8.51472 1.27912 8.88165C1.55432 9.24858 1.92125 9.47791 2.37991 9.56964L2.94679 11.8765C3.23728 12.0135 3.66415 12.1796 4.28665 12.3609C5.95095 12.8458 7.84457 13.0883 9.96753 13.0883C12.0905 13.0883 13.9055 12.8458 15.5698 12.3609C16.2801 12.154 16.7356 11.9669 17.0246 11.8204L17.5355 9.60896C18.0072 9.50412 18.3873 9.26824 18.6756 8.90131C18.977 8.52127 19.1277 8.07571 19.1277 7.56463C19.1277 6.97492 18.9311 6.49004 18.538 6.11001C18.1579 5.71687 17.6665 5.5203 17.0637 5.5203C16.4609 5.5203 15.9629 5.71687 15.5698 6.11001C15.1766 6.49004 14.9801 6.97492 14.9801 7.56463C14.9801 7.66947 14.9932 7.82672 15.0194 8.0364L13.093 9.25513L11.5794 5.77584C11.9201 5.3958 12.0905 4.91748 12.0905 4.34088C12.0905 3.72496 11.8939 3.22698 11.5008 2.84694C11.1076 2.4538 10.6031 2.25723 9.98718 2.25723C9.37126 2.25723 8.86673 2.4538 8.47359 2.84694C8.08045 3.22698 7.88388 3.72496 7.88388 4.34088C7.88388 4.89127 8.04769 5.36304 8.3753 5.75618L6.88137 9.25513L4.95498 8.0364C4.98119 7.85293 4.9943 7.69568 4.9943 7.56463C4.9943 6.97492 4.79773 6.49004 4.40458 6.11001C4.02455 5.71687 3.53312 5.5203 2.93031 5.5203C2.32749 5.5203 1.82952 5.71687 1.43638 6.11001ZM16.7092 13.1855L15.2356 13.678C15.2356 13.678 13.0938 14.4053 9.92822 14.4053C6.76268 14.4053 4.62082 13.678 4.62082 13.678L3.27928 13.2296L3.79522 15.3292C3.90005 15.7485 4.10973 16.122 4.42424 16.4496C4.73875 16.7641 5.10569 16.9738 5.52503 17.0786C6.92724 17.38 8.41462 17.5307 9.98718 17.5307C11.5597 17.5307 13.0668 17.38 14.5083 17.0786C14.9276 16.9738 15.2946 16.7576 15.6091 16.4299C15.9236 16.1023 16.1267 15.7288 16.2185 15.3095L16.7092 13.1855Z" fill="currentcolor"/>
</svg>
