<svg width="20" height="20" viewBox="0 0 20 20" fill="none" xmlns="http://www.w3.org/2000/svg">
<path d="M7.9625 10.0611C7.77904 10.5197 7.49073 10.7491 7.09759 10.7491C6.90102 10.7491 6.69135 10.677 6.46857 10.5328L4.34561 9.11753C4.12283 9.301 3.88039 9.4386 3.6183 9.53033L4.40458 12.4003C6.01646 12.8589 7.84456 13.0883 9.88889 13.0883C12.0118 13.0883 13.9055 12.8458 15.5698 12.3609L16.3167 9.53033C16.0415 9.42549 15.8057 9.28789 15.6091 9.11753L13.5844 10.4935C13.3485 10.6508 13.1257 10.7294 12.9161 10.7294C12.536 10.7294 12.2477 10.5066 12.0512 10.0611L10.4786 6.40486C10.2689 6.43107 10.1051 6.44418 9.98717 6.44418C9.7906 6.44418 9.61369 6.42452 9.45644 6.38521L7.9625 10.0611ZM9.98717 5.20579C10.2493 5.20579 10.4655 5.12716 10.6359 4.9699C10.8062 4.79954 10.8914 4.58987 10.8914 4.34088C10.8914 4.09189 10.8062 3.88877 10.6359 3.73151C10.4655 3.56115 10.2493 3.47597 9.98717 3.47597C9.72508 3.47597 9.50885 3.56115 9.33849 3.73151C9.16813 3.88877 9.08295 4.09189 9.08295 4.34088C9.08295 4.58987 9.16813 4.79954 9.33849 4.9699C9.50885 5.12716 9.72508 5.20579 9.98717 5.20579ZM2.9303 8.40988C3.16619 8.40988 3.36276 8.33125 3.52002 8.174C3.67727 8.01674 3.7559 7.81362 3.7559 7.56463C3.7559 7.32874 3.67727 7.13217 3.52002 6.97492C3.36276 6.81766 3.16619 6.73903 2.9303 6.73903C2.68132 6.73903 2.47819 6.81766 2.32094 6.97492C2.16368 7.13217 2.08505 7.32874 2.08505 7.56463C2.08505 7.81362 2.16368 8.01674 2.32094 8.174C2.47819 8.33125 2.68132 8.40988 2.9303 8.40988ZM16.9851 8.40988C17.2603 8.40988 17.4831 8.3378 17.6534 8.19365C17.8238 8.0364 17.909 7.82672 17.909 7.56463C17.909 7.32874 17.8303 7.13873 17.6731 6.99458C17.5158 6.83732 17.3127 6.75214 17.0637 6.73903C16.8147 6.73903 16.6116 6.81766 16.4543 6.97492C16.2971 7.13217 16.2185 7.32874 16.2185 7.56463C16.2185 7.81362 16.2905 8.01674 16.4347 8.174C16.5788 8.33125 16.7623 8.40988 16.9851 8.40988ZM0.866318 7.56463C0.866318 6.97492 1.05634 6.49004 1.43637 6.11001C1.82951 5.71687 2.32749 5.5203 2.9303 5.5203C3.53312 5.5203 4.02455 5.71687 4.40458 6.11001C4.79772 6.49004 4.99429 6.97492 4.99429 7.56463C4.99429 7.69568 4.98119 7.85293 4.95498 8.0364L6.88137 9.25513L8.3753 5.75618C8.04768 5.36304 7.88387 4.89127 7.88387 4.34088C7.88387 3.72496 8.08044 3.22698 8.47358 2.84694C8.86672 2.4538 9.37125 2.25723 9.98717 2.25723C10.6031 2.25723 11.1076 2.4538 11.5008 2.84694C11.8939 3.22698 12.0905 3.72496 12.0905 4.34088C12.0905 4.91748 11.9201 5.3958 11.5794 5.77584L13.093 9.25513L15.0194 8.0364C14.9932 7.82672 14.9801 7.66947 14.9801 7.56463C14.9801 6.97492 15.1766 6.49004 15.5698 6.11001C15.9629 5.71687 16.4609 5.5203 17.0637 5.5203C17.6665 5.5203 18.1579 5.71687 18.538 6.11001C18.9311 6.49004 19.1277 6.97492 19.1277 7.56463C19.1277 8.07571 18.977 8.52127 18.6756 8.90131C18.3873 9.26824 18.0072 9.50412 17.5355 9.60896L16.2185 15.3095C16.1267 15.7288 15.9236 16.1023 15.6091 16.4299C15.2946 16.7576 14.9276 16.9738 14.5083 17.0786C13.0668 17.38 11.5597 17.5307 9.98717 17.5307C8.41461 17.5307 6.92723 17.38 5.52503 17.0786C5.10568 16.9738 4.73875 16.7641 4.42424 16.4496C4.10973 16.122 3.90005 15.7485 3.79521 15.3292L2.37991 9.56964C1.92124 9.47791 1.55431 9.24858 1.27912 8.88165C1.00392 8.51472 0.866318 8.07571 0.866318 7.56463ZM5.05326 14.8181C5.10568 15.0015 5.21052 15.1719 5.36778 15.3292C5.52503 15.4864 5.69539 15.5978 5.87886 15.6633C7.16312 16.004 8.53911 16.1744 10.0068 16.1744C11.4615 16.1744 12.8309 16.004 14.1151 15.6633C14.3117 15.6109 14.4821 15.5061 14.6262 15.3488C14.7835 15.1784 14.8883 15.0015 14.9407 14.8181L15.2356 13.678C13.5975 14.1628 11.8284 14.4053 9.9282 14.4053C8.04113 14.4053 6.31131 14.1694 4.73875 13.6976L5.05326 14.8181Z" fill="currentcolor"/>
</svg>
