<svg width="20" height="20" viewBox="0 0 20 20" fill="none" xmlns="http://www.w3.org/2000/svg">
<path d="M14.9774 7.26936C15.0693 7.03652 15.3988 7.03652 15.4906 7.26936L16.1417 8.92012C16.1641 8.97699 16.2091 9.022 16.266 9.04443L17.9167 9.69548C18.1496 9.78731 18.1496 10.1168 17.9167 10.2087L16.266 10.8597C16.2091 10.8822 16.1641 10.9272 16.1417 10.984L15.4906 12.6348C15.3988 12.8676 15.0693 12.8676 14.9774 12.6348L14.3264 10.984C14.3039 10.9272 14.2589 10.8822 14.2021 10.8597L12.5513 10.2087C12.3185 10.1168 12.3185 9.78731 12.5513 9.69548L14.2021 9.04443C14.2589 9.022 14.3039 8.97699 14.3264 8.92012L14.9774 7.26936Z" fill="currentcolor"/>
<path d="M11.008 2.53302C10.5661 2.53302 10.208 2.89119 10.208 3.33302C10.208 3.77485 10.5661 4.13302 11.008 4.13302H11.458V9.38035C11.458 9.4036 11.474 9.42379 11.4967 9.42905C11.5193 9.43431 11.5426 9.42326 11.5529 9.40238C11.6771 9.14923 11.8933 8.9336 12.2026 8.81158L13.0263 8.48672C13.0454 8.47919 13.058 8.46074 13.058 8.44021V4.13302H13.508C13.9498 4.13302 14.308 3.77485 14.308 3.33302C14.308 2.89119 13.9498 2.53302 13.508 2.53302H11.008Z" fill="currentcolor"/>
<path d="M11.5529 10.5015C11.5426 10.4806 11.5193 10.4695 11.4967 10.4748C11.474 10.4801 11.458 10.5003 11.458 10.5235V15.8666H11.008C10.5661 15.8666 10.208 16.2247 10.208 16.6666C10.208 17.1084 10.5661 17.4666 11.008 17.4666H13.508C13.9498 17.4666 14.308 17.1084 14.308 16.6666C14.308 16.2247 13.9498 15.8666 13.508 15.8666H13.058V11.4636C13.058 11.4431 13.0454 11.4247 13.0263 11.4171L12.2026 11.0923C11.8933 10.9703 11.6771 10.7546 11.5529 10.5015Z" fill="currentcolor"/>
<path d="M4.80927 7.58347C4.48711 7.58347 4.22594 7.84463 4.22594 8.1668V9.1563L3.36907 8.66159C3.09007 8.5005 2.7333 8.5961 2.57222 8.8751C2.41114 9.1541 2.50673 9.51087 2.78574 9.67195L3.64285 10.1668L2.78569 10.6617C2.50669 10.8228 2.41109 11.1795 2.57218 11.4585C2.73326 11.7375 3.09002 11.8331 3.36902 11.672L4.22594 11.1773V12.1668C4.22594 12.489 4.48711 12.7501 4.80927 12.7501C5.13144 12.7501 5.39261 12.489 5.39261 12.1668V11.177L6.24984 11.6719C6.52884 11.833 6.8856 11.7374 7.04669 11.4584C7.20777 11.1794 7.11217 10.8227 6.83317 10.6616L5.97618 10.1668L6.83313 9.67204C7.11213 9.51096 7.20772 9.1542 7.04664 8.8752C6.88556 8.59619 6.5288 8.5006 6.24979 8.66168L5.39261 9.15658V8.1668C5.39261 7.84463 5.13144 7.58347 4.80927 7.58347Z" fill="currentcolor"/>
<path d="M10.1427 7.58347C9.82056 7.58347 9.55939 7.84463 9.55939 8.1668V9.15642L8.70232 8.66159C8.42332 8.5005 8.06656 8.5961 7.90547 8.8751C7.74439 9.1541 7.83998 9.51087 8.11899 9.67195L8.9761 10.1668L8.11894 10.6617C7.83994 10.8228 7.74435 11.1795 7.90543 11.4585C8.06651 11.7375 8.42327 11.8331 8.70228 11.672L9.55939 11.1772V12.1668C9.55939 12.489 9.82056 12.7501 10.1427 12.7501C10.4504 12.7501 10.7026 12.5119 10.7246 12.2098L10.7248 8.12745L10.7245 8.12381C10.7025 7.82169 10.4504 7.58347 10.1427 7.58347Z" fill="currentcolor"/>
</svg>
