<svg width="16" height="16" viewBox="0 0 16 16" fill="none" xmlns="http://www.w3.org/2000/svg">
<g id="deepseek-r1">
<path id="Vector" d="M7.31863 7.20144C7.11524 7.40483 7.00098 7.68069 7.00098 7.96833C7.00098 8.25596 7.11524 8.53182 7.31863 8.73521C7.52202 8.9386 7.79787 9.05286 8.08551 9.05286C8.37315 9.05286 8.649 8.9386 8.85239 8.73521C8.9531 8.6345 9.03299 8.51494 9.08749 8.38336C9.14199 8.25178 9.17005 8.11075 9.17005 7.96833C9.17005 7.8259 9.14199 7.68487 9.08749 7.55329C9.03299 7.42171 8.9531 7.30215 8.85239 7.20144C8.75168 7.10073 8.63213 7.02085 8.50054 6.96634C8.36896 6.91184 8.22793 6.88379 8.08551 6.88379C7.94309 6.88379 7.80206 6.91184 7.67048 6.96634C7.5389 7.02085 7.41934 7.10073 7.31863 7.20144Z" fill="currentColor"/>
<path id="Vector_2" d="M11.9196 14.1882C10.2154 14.1882 7.74436 12.91 5.44372 10.6094C2.29098 7.45662 1.01285 3.96303 2.4614 2.51448C3.22828 1.74759 4.50642 1.66238 6.04018 2.34406C7.48874 2.94052 9.10771 4.04824 10.5563 5.4968C13.709 8.64955 14.9871 12.1431 13.5386 13.5917C13.1125 14.0177 12.6013 14.1882 11.9196 14.1882ZM4.08037 2.94052C3.65433 2.85531 3.31349 3.02573 3.14307 3.19615C2.71703 3.6222 2.80224 4.5595 3.22828 5.66722C3.73954 7.03057 4.76205 8.56434 6.12539 9.92768C8.93729 12.7396 11.9196 13.8473 12.8569 12.91C13.709 12.0579 12.7717 9.07559 9.87459 6.17848C8.51124 4.81513 7.06269 3.87783 5.78455 3.28136C5.01767 3.02573 4.50642 2.85531 4.08037 2.94052Z" fill="currentcolor"/>
<path id="Vector_3" d="M4.08037 14.1887C3.3987 14.1887 2.88745 14.0183 2.4614 13.5923C1.01285 12.1437 2.29098 8.65012 5.44372 5.49737C8.51124 2.25942 12.0048 0.981278 13.5386 2.51505C14.9871 3.9636 13.709 7.45718 10.5563 10.6099C8.25562 12.9106 5.78455 14.1887 4.08037 14.1887ZM11.8344 2.85588C10.5563 2.94109 8.34083 3.9636 6.12539 6.17905C3.31349 8.99095 2.20577 11.9733 3.14307 12.9106C3.99516 13.7627 6.97748 12.8254 9.87459 9.92825C12.6865 7.11635 13.7942 4.13402 12.8569 3.19672C12.6013 2.94109 12.2604 2.94109 11.8344 2.85588Z" fill="currentColor"/>
</g>
</svg>
