<svg width="20" height="20" viewBox="0 0 20 20" fill="none" xmlns="http://www.w3.org/2000/svg">
<path d="M4.93556 15.1522C4.93556 15.4798 5.0404 15.755 5.25007 15.9778C5.47285 16.1875 5.74805 16.2923 6.07567 16.2923H13.8795C14.2202 16.2923 14.4954 16.1875 14.7051 15.9778C14.9148 15.755 15.0196 15.4798 15.0196 15.1522L15.0393 8.70472H11.6386C11.1406 8.70472 10.7344 8.55402 10.4199 8.25261C10.1185 7.9381 9.96776 7.53185 9.96776 7.03387V3.53492H6.07567C5.74805 3.53492 5.47285 3.63976 5.25007 3.84944C5.0404 4.05911 4.93556 4.33431 4.93556 4.67503V15.1522ZM5.93807 17.6487C5.23042 17.6487 4.65381 17.4324 4.20825 17C3.7758 16.5544 3.55957 15.9713 3.55957 15.2505V4.57674C3.55957 3.85599 3.7758 3.27938 4.20825 2.84693C4.65381 2.40137 5.23042 2.17859 5.93807 2.17859H10.6558C10.8785 2.17859 11.1013 2.22446 11.3241 2.31619C11.5469 2.40792 11.7303 2.53242 11.8745 2.68967L15.9042 6.77833C16.0483 6.93559 16.1663 7.13216 16.258 7.36804C16.3497 7.59082 16.3956 7.80705 16.3956 8.01672V15.2505C16.3956 15.9713 16.1794 16.5544 15.7469 17C15.3145 17.4324 14.7444 17.6487 14.0368 17.6487H5.93807ZM11.2651 6.81765C11.2651 6.98801 11.3175 7.13216 11.4224 7.2501C11.5403 7.35494 11.6845 7.40736 11.8548 7.40736H14.7051L11.2651 3.96738V6.81765Z" fill="currentcolor"/>
<path d="M12.8027 10.8234C12.6939 10.7146 12.5603 10.6602 12.4021 10.6602H7.38723C7.22897 10.6602 7.09049 10.7146 6.9718 10.8234C6.863 10.9322 6.80859 11.0657 6.80859 11.224C6.80859 11.3822 6.863 11.5157 6.9718 11.6245C7.09049 11.7334 7.22897 11.7878 7.38723 11.7878H12.4021C12.5603 11.7878 12.6939 11.7334 12.8027 11.6245C12.9115 11.5157 12.9659 11.3822 12.9659 11.224C12.9659 11.0657 12.9115 10.9322 12.8027 10.8234Z" fill="currentcolor"/>
<path d="M11.0964 13.3308C10.9876 13.222 10.8541 13.1676 10.6958 13.1676H7.40207C7.2537 13.1676 7.12511 13.222 7.01631 13.3308C6.90751 13.4396 6.8531 13.5682 6.8531 13.7165C6.8531 13.8748 6.90751 14.0083 7.01631 14.1171C7.12511 14.2259 7.2537 14.2803 7.40207 14.2803H10.6958C10.8541 14.2803 10.9876 14.2259 11.0964 14.1171C11.2052 14.0083 11.2596 13.8748 11.2596 13.7165C11.2596 13.5682 11.2052 13.4396 11.0964 13.3308Z" fill="currentcolor"/>
</svg>
