<svg width="20" height="20" viewBox="0 0 20 20" fill="none" xmlns="http://www.w3.org/2000/svg">
<path d="M7.23519 7.13217C7.09104 7.27632 6.92723 7.34839 6.74377 7.34839C6.5603 7.34839 6.39649 7.26977 6.25234 7.11251C6.12129 6.95525 6.05577 6.798 6.05577 6.64074C6.05577 6.47038 6.12785 6.31312 6.272 6.16897L8.82741 3.49562C9.18124 3.12869 9.57438 2.94522 10.0068 2.94522C10.4393 2.94522 10.8193 3.12213 11.1469 3.47596L13.722 6.16897C13.8531 6.31312 13.9186 6.47693 13.9186 6.6604C13.9186 6.84386 13.8465 7.00112 13.7024 7.13217C13.5451 7.26321 13.3813 7.32874 13.2109 7.32874C13.0537 7.32874 12.8964 7.26321 12.7392 7.13217L10.2231 4.45881C10.1575 4.39329 10.0855 4.36053 10.0068 4.36053C9.94131 4.36053 9.86268 4.39329 9.77095 4.45881L7.23519 7.13217ZM12.7392 12.7148C12.8702 12.5837 13.0275 12.5182 13.2109 12.5182C13.3944 12.5182 13.5516 12.5772 13.6827 12.6951C13.84 12.8261 13.9186 12.99 13.9186 13.1865C13.9186 13.37 13.8531 13.5338 13.722 13.678L11.1666 16.3317C10.8128 16.6986 10.4196 16.882 9.98717 16.882C9.56782 16.882 9.18779 16.7051 8.84707 16.3513L6.272 13.678C6.14095 13.5469 6.07543 13.3897 6.07543 13.2062C6.07543 13.0096 6.1475 12.8458 6.29166 12.7148C6.46202 12.5706 6.62582 12.4985 6.78308 12.4985C6.96655 12.4985 7.11725 12.5706 7.23519 12.7148L9.77095 15.3685C9.83647 15.4209 9.9151 15.4471 10.0068 15.4471C10.0986 15.4471 10.1706 15.4209 10.2231 15.3685L12.7392 12.7148Z" fill="currentColor"/>
</svg>
