<svg width="20" height="20" viewBox="0 0 20 20" fill="none" xmlns="http://www.w3.org/2000/svg">
<path d="M6.9816 7.22234C6.79843 7.40551 6.60954 7.4971 6.41492 7.4971C6.2203 7.4971 6.03141 7.40551 5.84824 7.22234C5.69941 7.08496 5.625 6.91324 5.625 6.70718C5.625 6.48966 5.70514 6.30077 5.86541 6.1405L8.75033 3.13537C9.13957 2.71179 9.58604 2.5 10.0898 2.5C10.582 2.5 11.0228 2.70607 11.412 3.1182L14.3141 6.15767C14.4629 6.31794 14.5373 6.50111 14.5373 6.70718C14.5373 6.91324 14.4572 7.09069 14.2969 7.23951C14.1367 7.38834 13.942 7.46275 13.7131 7.46275C13.507 7.46275 13.3296 7.38834 13.1807 7.23951L10.3817 4.26873C10.3015 4.17715 10.2042 4.13135 10.0898 4.13135C9.97528 4.13135 9.87797 4.17715 9.79783 4.26873L6.9816 7.22234ZM13.1807 12.7948C13.341 12.6231 13.5242 12.5372 13.7303 12.5372C13.9363 12.5372 14.1138 12.6059 14.2626 12.7433C14.4458 12.915 14.5373 13.1097 14.5373 13.3272C14.5373 13.5332 14.4572 13.7164 14.2969 13.8767L11.4292 16.8646C11.04 17.2882 10.5935 17.5 10.0898 17.5C9.60894 17.5 9.16819 17.2939 8.7675 16.8818L5.86541 13.8767C5.70514 13.6935 5.625 13.5046 5.625 13.31C5.625 13.1039 5.71658 12.915 5.89975 12.7433C6.06003 12.6059 6.23175 12.5372 6.41492 12.5372C6.63243 12.5372 6.82705 12.6231 6.99877 12.7948L9.79783 15.7313C9.88942 15.8229 9.98673 15.8686 10.0898 15.8686C10.1928 15.8686 10.2901 15.8229 10.3817 15.7313L13.1807 12.7948Z" fill="currentColor"/>
</svg>
