<svg width="20" height="20" viewBox="0 0 20 20" fill="none" xmlns="http://www.w3.org/2000/svg">
<path d="M9.99654 9.16666C9.67426 9.16666 9.3898 9.44384 9.3898 9.7953L9.38972 12.2259L9.42872 13.1376L9.03843 12.7038L8.47941 12.0905C8.37319 11.9591 8.21195 11.8898 8.05829 11.8898C7.7335 11.8898 7.5 12.1395 7.5 12.4734C7.5 12.6703 7.57301 12.8108 7.69758 12.9292L9.5516 14.781C9.69978 14.9334 9.82999 15 9.99654 15C10.162 15 10.2992 14.9344 10.4484 14.781L12.3024 12.9292C12.427 12.8108 12.5 12.6703 12.5 12.4734C12.5 12.1388 12.2588 11.8898 11.9417 11.8898C11.7794 11.8898 11.6262 11.9603 11.5144 12.0896L10.5713 13.1376L10.6102 12.2293V9.7953C10.6102 9.44316 10.3251 9.16666 9.99654 9.16666Z" fill="currentColor"/>
<path d="M4.93532 15.1523C4.93532 15.4799 5.04016 15.7551 5.24983 15.9778C5.47261 16.1875 5.74781 16.2924 6.07542 16.2924H13.8793C14.22 16.2924 14.4952 16.1875 14.7049 15.9778C14.9145 15.7551 15.0194 15.4799 15.0194 15.1523L15.039 8.70475H11.6384C11.1404 8.70475 10.7341 8.55405 10.4196 8.25264C10.1182 7.93813 9.96751 7.53188 9.96751 7.0339V3.53495H6.07542C5.74781 3.53495 5.47261 3.63979 5.24983 3.84947C5.04016 4.05914 4.93532 4.33434 4.93532 4.67506V15.1523ZM5.93783 17.6487C5.23017 17.6487 4.65357 17.4325 4.20801 17C3.77555 16.5545 3.55933 15.9713 3.55933 15.2505V4.57678C3.55933 3.85602 3.77555 3.27941 4.20801 2.84696C4.65357 2.4014 5.23017 2.17862 5.93783 2.17862H10.6555C10.8783 2.17862 11.1011 2.22449 11.3238 2.31622C11.5466 2.40795 11.7301 2.53245 11.8742 2.6897L15.9039 6.77836C16.0481 6.93562 16.166 7.13219 16.2578 7.36807C16.3495 7.59085 16.3954 7.80708 16.3954 8.01675V15.2505C16.3954 15.9713 16.1791 16.5545 15.7467 17C15.3142 17.4325 14.7442 17.6487 14.0365 17.6487H5.93783ZM11.2649 6.81768C11.2649 6.98804 11.3173 7.13219 11.4221 7.25013C11.5401 7.35497 11.6842 7.40739 11.8546 7.40739H14.7049L11.2649 3.96741V6.81768Z" fill="currentColor"/>
</svg>
