<svg width="20" height="20" viewBox="0 0 20 20" fill="none" xmlns="http://www.w3.org/2000/svg">
<g clip-path="url(#clip0_10016_1455)">
<path d="M10.8804 13.3796C10.5988 13.6288 10.2954 13.7534 9.97044 13.7534C9.64543 13.7534 9.36377 13.6342 9.12543 13.3959L6.52543 10.9096C6.39543 10.7796 6.33043 10.6334 6.33043 10.4709C6.33043 10.3084 6.39543 10.1621 6.52543 10.0321C6.65543 9.90211 6.8071 9.83711 6.98043 9.83711C7.15377 9.83711 7.31085 9.90753 7.45168 10.0484L9.98669 12.5996L12.6192 10.0484C12.7492 9.90753 12.9063 9.83711 13.0904 9.83711C13.2529 9.83711 13.4046 9.90211 13.5454 10.0321C13.6646 10.1513 13.7242 10.2867 13.7242 10.4384C13.7242 10.6117 13.6538 10.7796 13.5129 10.9421L10.8804 13.3796ZM10.6692 10.1134L10.5067 12.9084H9.51543L9.35293 10.1296V2.81711C9.35293 2.61128 9.41252 2.44336 9.53168 2.31336C9.66168 2.17253 9.81877 2.10211 10.0029 2.10211C10.1979 2.10211 10.355 2.17253 10.4742 2.31336C10.6042 2.44336 10.6692 2.61128 10.6692 2.81711V10.1134ZM8.21543 7.30211H5.27418C4.86252 7.31294 4.5321 7.44294 4.28293 7.69211C4.03377 7.94128 3.90918 8.26628 3.90918 8.66711V14.6796C3.90918 15.0804 4.03377 15.4109 4.28293 15.6709C4.54293 15.92 4.87335 16.0446 5.27418 16.0446H14.7317C15.1434 16.0446 15.4738 15.92 15.7229 15.6709C15.9721 15.4109 16.0967 15.0804 16.0967 14.6796V8.66711C16.0967 8.26628 15.9721 7.94128 15.7229 7.69211C15.4738 7.44294 15.1434 7.31294 14.7317 7.30211H11.8067V6.00211H14.8942C15.62 6.00211 16.2159 6.24586 16.6817 6.73336C17.1584 7.21003 17.3967 7.8167 17.3967 8.55336V14.8096C17.3967 15.5571 17.1584 16.1692 16.6817 16.6459C16.2159 17.1225 15.6146 17.3554 14.8779 17.3446H5.11168C4.38585 17.3554 3.7846 17.1171 3.30793 16.6296C2.8421 16.1529 2.60918 15.5463 2.60918 14.8096V8.55336C2.60918 7.8167 2.8421 7.21003 3.30793 6.73336C3.7846 6.24586 4.38585 6.00211 5.11168 6.00211H8.21543V7.30211Z" fill="currentColor"/>
</g>
<defs>
<clipPath id="clip0_10016_1455">
<rect width="20" height="20" fill="white"/>
</clipPath>
</defs>
</svg>
