<svg xmlns="http://www.w3.org/2000/svg" width="20" height="20" viewBox="0 0 20 20" fill="none">
  <path fill-rule="evenodd" clip-rule="evenodd" d="M11.1041 15.6732C11.2709 16.3219 11.5999 16.8917 12.091 17.3829C12.5728 17.8647 13.1334 18.1844 13.7728 18.3419C14.4122 18.518 15.047 18.5226 15.6771 18.3558C16.3165 18.1798 16.8817 17.8462 17.3728 17.3551C17.8547 16.8732 18.179 16.3172 18.3458 15.6871C18.5219 15.0477 18.5219 14.4083 18.3458 13.769C18.179 13.1388 17.8547 12.5829 17.3728 12.101C16.8817 11.6099 16.3165 11.2763 15.6771 11.1002C15.047 10.9334 14.4122 10.9381 13.7728 11.1141C13.1427 11.2809 12.5867 11.6053 12.1049 12.0871C11.6138 12.5782 11.2802 13.1435 11.1041 13.7829C10.9373 14.413 10.9373 15.0431 11.1041 15.6732ZM14.4096 15.835L14.3631 15.0397L14.3632 12.7067C14.3632 12.5747 14.402 12.4584 14.4862 12.3666C14.5746 12.2708 14.6861 12.2198 14.8149 12.2198C14.9465 12.2198 15.0591 12.2684 15.1435 12.3664C15.2329 12.4573 15.2753 12.5737 15.2753 12.7067V15.0367L15.2292 15.8266L16.1588 14.9258C16.2468 14.8314 16.3574 14.7815 16.4852 14.7815C16.6027 14.7815 16.708 14.8294 16.7992 14.9135L16.8021 14.9162C16.8831 14.9971 16.9281 15.0951 16.9281 15.2067C16.9281 15.33 16.8774 15.4432 16.7893 15.5448L16.7821 15.5531L15.3559 16.8729C15.1883 17.0211 15.0013 17.1002 14.7973 17.1002C14.5942 17.1002 14.417 17.0247 14.2703 16.8783L12.8628 15.5324C12.7764 15.446 12.7281 15.3423 12.7281 15.2243C12.7281 15.1063 12.7764 15.0027 12.8628 14.9163C12.9507 14.8284 13.0577 14.7815 13.1797 14.7815C13.304 14.7815 13.4135 14.8331 13.5054 14.925L14.4096 15.835Z" fill="currentcolor"/>
  <path fill-rule="evenodd" clip-rule="evenodd" d="M5.99574 1.9502C5.21914 1.9502 4.62579 2.14818 4.22698 2.55181C3.82828 2.95532 3.63232 3.55598 3.63232 4.34348V14.6569C3.63232 15.4444 3.82828 16.0451 4.22698 16.4486C4.62579 16.8522 5.21914 17.0502 5.99574 17.0502H10.5888C10.3909 16.6999 10.2394 16.3247 10.1365 15.9257C10.121 15.8668 10.1066 15.8077 10.0933 15.7487H6.05546C5.67606 15.7487 5.39771 15.6467 5.21403 15.4621C5.0303 15.2775 4.93382 15.0028 4.93382 14.642V4.35839C4.93382 4.0014 5.03024 3.7266 5.21411 3.54098C5.3979 3.35545 5.67629 3.25169 6.05546 3.25169H13.8614C14.2254 3.25169 14.5042 3.35347 14.692 3.53859C14.8796 3.72362 14.9831 3.99851 14.9831 4.35839V9.98437C15.3006 10.0005 15.6176 10.0501 15.933 10.1336L15.9426 10.1361L15.9426 10.1362C16.0586 10.1681 16.1726 10.2042 16.2845 10.2442V4.34348C16.2845 3.55243 16.0905 2.95168 15.6927 2.54901C15.2947 2.14622 14.7013 1.9502 13.9211 1.9502H5.99574ZM7.13009 5.27854C6.83491 5.27854 6.61741 5.49388 6.61741 5.77631C6.61741 6.06353 6.83225 6.29647 7.13009 6.29647H12.7943C13.0852 6.29647 13.2995 6.06298 13.2995 5.77631C13.2995 5.49441 13.0825 5.27854 12.7943 5.27854H7.13009ZM6.61741 8.38079C6.61741 8.09943 6.83382 7.87557 7.13009 7.87557H12.7943C13.0836 7.87557 13.2995 8.09997 13.2995 8.38079C13.2995 8.66853 13.0841 8.89346 12.7943 8.89346H7.13009C6.83329 8.89346 6.61741 8.66907 6.61741 8.38079Z" fill="currentcolor"/>
</svg>
