<svg xmlns="http://www.w3.org/2000/svg" width="20" height="20" viewBox="0 0 20 20" fill="none">
  <path d="M15.1508 3.5C15.3397 3.5 15.4956 3.56139 15.6183 3.68417C15.7506 3.80694 15.8167 3.95806 15.8167 4.1375C15.8167 4.31694 15.7506 4.47278 15.6183 4.605C15.4861 4.72778 15.3303 4.78917 15.1508 4.78917H5.15168C4.97224 4.78917 4.8164 4.72778 4.68418 4.605C4.5614 4.48222 4.50001 4.33111 4.50001 4.15167C4.50001 3.97222 4.5614 3.82111 4.68418 3.69833C4.8164 3.56611 4.97224 3.5 5.15168 3.5H15.1508Z" fill="currentcolor" />
  <path d="M15.6183 7.77413C15.4861 7.64191 15.3303 7.58052 15.1508 7.58996L5.15168 7.56163C4.97223 7.56163 4.8164 7.62774 4.68418 7.75996C4.5614 7.88274 4.50001 8.03385 4.50001 8.2133C4.50001 8.39274 4.5614 8.54857 4.68418 8.6808C4.8164 8.80357 4.97223 8.86496 5.15168 8.86496L15.1508 8.87913C15.3397 8.87913 15.4956 8.81774 15.6183 8.69496C15.7506 8.56274 15.8167 8.40691 15.8167 8.22746C15.8167 8.04802 15.7506 7.89691 15.6183 7.77413Z" fill="currentcolor" />
  <path d="M15.6183 11.6599C15.4861 11.5277 15.3303 11.4616 15.1508 11.4616H5.15167C4.97223 11.4616 4.81639 11.5277 4.68417 11.6599C4.56139 11.7827 4.5 11.9338 4.5 12.1133C4.5 12.2927 4.56139 12.4438 4.68417 12.5666C4.81639 12.6894 4.97223 12.7508 5.15167 12.7508H15.1508C15.3397 12.7508 15.4956 12.6894 15.6183 12.5666C15.7506 12.4438 15.8167 12.2927 15.8167 12.1133C15.8167 11.9338 15.7506 11.7827 15.6183 11.6599Z" fill="currentcolor" />
  <path d="M15.6183 15.9092C15.4861 15.7769 15.3303 15.7108 15.1508 15.7108H5.15167C4.97222 15.7108 4.81639 15.7769 4.68417 15.9092C4.56139 16.0319 4.5 16.1831 4.5 16.3625C4.5 16.5419 4.56139 16.6931 4.68417 16.8158C4.81639 16.9386 4.97222 17 5.15167 17H15.1508C15.3397 17 15.4956 16.9386 15.6183 16.8158C15.7506 16.6931 15.8167 16.5419 15.8167 16.3625C15.8167 16.1831 15.7506 16.0319 15.6183 15.9092Z" fill="currentcolor" />
</svg>