<svg width="20" height="20" viewBox="0 0 20 20" fill="none" xmlns="http://www.w3.org/2000/svg">
<path d="M7.47681 9.24379C7.47681 9.06726 7.52631 8.93021 7.61934 8.82444C7.72703 8.71774 7.85633 8.66487 8.0133 8.66487C8.18771 8.66487 8.32398 8.71994 8.43057 8.82653C8.53715 8.93311 8.59222 9.06938 8.59222 9.24379V11.3594H10.5168C10.6912 11.3594 10.8275 11.4144 10.9341 11.521C11.0422 11.6291 11.0958 11.7591 11.0958 11.9171C11.0958 12.074 11.0429 12.2033 10.9362 12.311C10.8304 12.404 10.6934 12.4536 10.5168 12.4536H8.59222V14.463C8.59222 14.6175 8.53428 14.7463 8.41307 14.8554L8.40935 14.8591C8.30125 14.9672 8.17129 15.0207 8.0133 15.0207C7.85632 15.0207 7.72702 14.9679 7.61933 14.8612C7.52508 14.7541 7.47681 14.6234 7.47681 14.463V12.4536H5.44611C5.28571 12.4536 5.15505 12.4053 5.04799 12.311C4.94128 12.2033 4.88841 12.074 4.88841 11.9171C4.88841 11.7591 4.94196 11.6291 5.05006 11.521C5.15816 11.4129 5.28812 11.3594 5.44611 11.3594H7.47681V9.24379Z" fill="currentColor"/>
<path fill-rule="evenodd" clip-rule="evenodd" d="M7.13032 3.22433C7.57555 2.7656 8.16351 2.53333 8.90439 2.53333H15.0784C15.834 2.53333 16.4287 2.76601 16.8736 3.22436L16.8758 3.22644C17.3345 3.67168 17.5668 4.25963 17.5668 5.00051V11.0048C17.5668 11.7456 17.3345 12.3413 16.8747 12.8011L16.8736 12.8022C16.4284 13.2609 15.8405 13.4932 15.0996 13.4932H13.5569V14.8449C13.5569 15.6005 13.3242 16.2031 12.8648 16.6625C12.4198 17.1075 11.8315 17.3333 11.0897 17.3333H4.89449C4.15277 17.3333 3.55669 17.1075 3.09709 16.6614C2.63891 16.2167 2.41359 15.6296 2.4273 14.8892V8.90433C2.4273 8.16261 2.65312 7.56653 3.0992 7.10693C3.54444 6.6482 4.13239 6.41593 4.87327 6.41593H6.45842V5.02173C6.45842 4.26522 6.68459 3.67009 7.12928 3.2254L7.13032 3.22433ZM9.0529 3.79726C8.6758 3.79726 8.35367 3.91882 8.09328 4.1639L8.0911 4.16601C7.84321 4.4139 7.72235 4.73782 7.72235 5.12781V6.41593H11.0685C11.8241 6.41593 12.4188 6.64861 12.8637 7.10696L12.8659 7.10904C13.3246 7.55428 13.5569 8.14224 13.5569 8.88311V12.208H14.9723C15.3623 12.208 15.6862 12.0872 15.9341 11.8393L15.9362 11.8371C16.1813 11.5767 16.3028 11.2546 16.3028 10.8775V5.12781C16.3028 4.73782 16.182 4.4139 15.9341 4.16601C15.6862 3.91812 15.3623 3.79726 14.9723 3.79726H9.0529ZM5.02179 7.70108C4.64469 7.70108 4.32256 7.82264 4.06216 8.06772L4.05999 8.06983C3.81287 8.31694 3.69123 8.63334 3.69123 9.01041V14.7388C3.69123 15.1159 3.81266 15.4382 4.05774 15.6986L4.06216 15.7028C4.32256 15.9478 4.64469 16.0694 5.02179 16.0694H10.9624C11.3524 16.0694 11.6763 15.9486 11.9242 15.7007L11.9263 15.6985C12.1714 15.4381 12.2929 15.1159 12.2929 14.7388V9.01041C12.2929 8.63195 12.1632 8.31527 11.9019 8.06876C11.6549 7.82236 11.3389 7.70108 10.9624 7.70108H5.02179Z" fill="currentColor"/>
</svg>
