<svg width="20" height="20" viewBox="0 0 20 20" fill="none" xmlns="http://www.w3.org/2000/svg">
<path d="M14.9211 9.14866C14.9211 8.95209 14.9866 8.79484 15.1177 8.67689C15.2487 8.55895 15.4191 8.49998 15.6288 8.49998C15.8122 8.49998 15.9629 8.55895 16.0809 8.67689C16.2119 8.79484 16.2774 8.95209 16.2774 9.14866V14.4839C16.2774 15.2047 16.0547 15.7878 15.6091 16.2334C15.1766 16.6658 14.6066 16.8821 13.8989 16.8821H5.34813C4.64048 16.8821 4.07042 16.6658 3.63797 16.2334C3.20552 15.7878 2.98929 15.2047 2.98929 14.4839V6.14933C2.98929 5.42857 3.20552 4.85196 3.63797 4.41951C4.07042 3.97395 4.64048 3.75117 5.34813 3.75117H11.8034C12 3.75117 12.1573 3.81669 12.2752 3.94774C12.4062 4.06568 12.4718 4.22294 12.4718 4.41951C12.4718 4.62918 12.4062 4.79955 12.2752 4.93059C12.1573 5.04853 12 5.10751 11.8034 5.10751H5.48573C5.15811 5.10751 4.88291 5.21234 4.66014 5.42202C4.45046 5.63169 4.34562 5.90689 4.34562 6.24761V14.3856C4.34562 14.7132 4.45046 14.9819 4.66014 15.1916C4.86981 15.4012 5.14501 15.5061 5.48573 15.5061H13.781C14.1217 15.5061 14.3969 15.4012 14.6066 15.1916C14.8163 14.9819 14.9211 14.7132 14.9211 14.3856V9.14866Z" fill="currentColor"/>
<path d="M8.47637 11.8086C8.41986 11.9193 8.43048 11.9805 8.50823 11.9923L8.58891 11.9846L10.0376 11.6072L17.5772 4.07919C17.7471 3.91933 17.8458 3.7487 17.8732 3.5673C17.8987 3.39885 17.8564 3.24005 17.7464 3.09088C17.5866 2.92093 17.4224 2.82322 17.254 2.79775C17.0726 2.77033 16.9044 2.83104 16.7493 2.9799L9.2292 10.5109L8.47637 11.8086Z" fill="currentColor"/>
</svg>
