<svg width="20" height="20" viewBox="0 0 20 20" fill="none" xmlns="http://www.w3.org/2000/svg">
<path fill-rule="evenodd" clip-rule="evenodd" d="M3.5471 4.44357C3.5471 4.04394 3.65941 3.72668 3.85883 3.50982C4.05778 3.29347 4.34848 3.17151 4.71697 3.17151H12.777C13.1456 3.17151 13.4379 3.29349 13.6385 3.50996C13.8395 3.72688 13.9533 4.04412 13.9533 4.44357V6.3585H17.6948C18.0633 6.3585 18.354 6.48046 18.553 6.6968C18.7524 6.91367 18.8647 7.23093 18.8647 7.63055V15.5565C18.8647 15.9561 18.7524 16.2734 18.553 16.4903C18.354 16.7066 18.0633 16.8286 17.6948 16.8286H14.0421C14.2458 16.4582 14.2767 16.0794 14.2767 15.8898C14.2767 15.8227 14.2742 15.7559 14.2693 15.6895H17.3436C17.4627 15.6895 17.5609 15.6606 17.6288 15.5927C17.6968 15.5247 17.7257 15.4265 17.7257 15.3074V7.87964C17.7257 7.76053 17.6968 7.66235 17.6288 7.5944C17.5609 7.52645 17.4627 7.49752 17.3436 7.49752H13.9533V14.5779C13.699 14.0767 13.3059 13.6239 12.8143 13.2479V4.69265C12.8143 4.57281 12.7834 4.47462 12.7137 4.40691C12.6443 4.33945 12.5449 4.31054 12.4258 4.31054H5.06824C4.94913 4.31054 4.85096 4.33946 4.78301 4.40741C4.71506 4.47536 4.68613 4.57354 4.68613 4.69265V8.05165C4.49144 8.00545 4.28882 7.98104 4.08083 7.98104C3.9004 7.98104 3.72169 7.99961 3.5471 8.03602V4.44357ZM6.45946 5.67621C6.45946 5.61002 6.47998 5.55944 6.51251 5.5257C6.54484 5.49218 6.59338 5.47074 6.65854 5.47074H7.87841C7.94358 5.47074 7.99212 5.49218 8.02444 5.5257C8.05697 5.55944 8.0775 5.61002 8.0775 5.67621V6.86414C8.0775 6.93033 8.05697 6.98092 8.02444 7.01465C7.99212 7.04817 7.94358 7.06961 7.87841 7.06961H6.65854C6.59338 7.06961 6.54484 7.04817 6.51251 7.01465C6.47998 6.98092 6.45946 6.93033 6.45946 6.86414V5.67621ZM9.42291 5.67621C9.42291 5.61001 9.44345 5.55921 9.47549 5.52536C9.50727 5.49179 9.55423 5.47074 9.61561 5.47074H10.8355C10.9008 5.47074 10.9513 5.49228 10.9853 5.52635C11.0194 5.56042 11.0409 5.61093 11.0409 5.67621V6.86414C11.0409 6.92942 11.0194 6.97993 10.9853 7.014C10.9513 7.04807 10.9008 7.06961 10.8355 7.06961H9.61561C9.55423 7.06961 9.50727 7.04857 9.47549 7.01499C9.44345 6.98114 9.42291 6.93035 9.42291 6.86414V5.67621ZM7.35922 10.4608C7.35488 9.29342 8.26155 8.33043 9.35682 8.33043C10.4565 8.33043 11.3589 9.29342 11.3589 10.4566C11.3589 11.6647 10.4736 12.6182 9.35682 12.6182C8.24466 12.6182 7.36356 11.6649 7.35922 10.4608ZM15.1774 8.76101C15.1774 8.70707 15.1934 8.66778 15.2178 8.64229C15.2419 8.61708 15.279 8.60024 15.3317 8.60024H16.3472C16.3962 8.60024 16.4338 8.61675 16.4592 8.64269C16.4846 8.6687 16.5016 8.70816 16.5016 8.76101V9.74457C16.5016 9.79742 16.4846 9.83687 16.4592 9.86288C16.4338 9.88882 16.3962 9.90533 16.3472 9.90533H15.3317C15.279 9.90533 15.2419 9.88849 15.2178 9.86329C15.1934 9.8378 15.1774 9.7985 15.1774 9.74457V8.76101ZM2.33328 10.8109C2.32895 9.78981 3.12924 8.93762 4.09155 8.93762C5.04497 8.93762 5.8454 9.78537 5.8454 10.8067C5.8454 11.8687 5.06639 12.7068 4.09155 12.7068C3.11653 12.7068 2.33762 11.8773 2.33328 10.8109ZM9.35682 9.43595C8.88058 9.43595 8.46466 9.89844 8.46916 10.4523C8.46925 11.0569 8.86538 11.5126 9.35682 11.5126C9.85717 11.5126 10.2489 11.0523 10.2489 10.4566C10.2489 9.89904 9.84247 9.43595 9.35682 9.43595ZM4.09155 10.0254C3.72993 10.0254 3.41201 10.3867 3.42107 10.8117C3.42131 11.2688 3.71907 11.6234 4.09155 11.6234C4.46899 11.6234 4.76204 11.2681 4.76204 10.8067C4.76204 10.3874 4.44939 10.0254 4.09155 10.0254ZM15.1774 11.1177C15.1774 11.0675 15.1931 11.0278 15.2182 11.001C15.2428 10.9747 15.2801 10.957 15.3317 10.957H16.3472C16.4389 10.957 16.5016 11.0219 16.5016 11.1177V12.1013C16.5016 12.1542 16.4845 12.1957 16.4585 12.2236C16.4326 12.2511 16.3951 12.2684 16.3472 12.2684H15.3317C15.2802 12.2684 15.2431 12.2508 15.2185 12.224C15.1935 12.1967 15.1774 12.1553 15.1774 12.1013V11.1177ZM5.40026 15.8814C5.40026 15.1774 5.82486 14.4795 6.53558 13.9555C7.24558 13.432 8.23668 13.086 9.35682 13.086C10.4792 13.086 11.4714 13.432 12.182 13.9555C12.8932 14.4795 13.3178 15.1774 13.3178 15.8814C13.3178 16.2035 13.2098 16.4352 13.0014 16.5885C12.79 16.7438 12.468 16.8242 12.0293 16.8242H6.68873C6.25011 16.8242 5.92808 16.7438 5.71671 16.5885C5.50824 16.4352 5.40026 16.2035 5.40026 15.8814ZM0.631378 15.8193C0.631378 14.3851 2.16723 13.0904 4.09155 13.0904C4.57365 13.0904 5.26877 13.2309 5.77243 13.4341C5.3992 13.6697 5.14314 13.9578 4.97311 14.2981C4.75642 14.2444 4.31741 14.1694 4.09155 14.1694C3.468 14.1694 2.91729 14.3561 2.52133 14.6297C2.12712 14.9021 1.87872 15.2667 1.87872 15.6243C1.87872 15.6428 1.88093 15.6729 1.90014 15.6989C1.92165 15.728 1.95562 15.7408 1.9952 15.7408H4.50246C4.49013 15.938 4.52384 16.1611 4.60159 16.3656C4.6682 16.5409 4.76829 16.7054 4.90254 16.8286H1.7603C1.37317 16.8286 1.09248 16.735 0.908815 16.5664C0.725873 16.3985 0.631378 16.1488 0.631378 15.8193ZM15.1774 13.4808C15.1774 13.4269 15.1934 13.3876 15.2178 13.3621C15.2419 13.3369 15.279 13.3201 15.3317 13.3201H16.3472C16.3962 13.3201 16.4338 13.3366 16.4592 13.3625C16.4846 13.3885 16.5016 13.428 16.5016 13.4808V14.4644C16.5016 14.5172 16.4846 14.5567 16.4592 14.5827C16.4338 14.6086 16.3962 14.6251 16.3472 14.6251H15.3317C15.279 14.6251 15.2419 14.6083 15.2178 14.5831C15.1934 14.5576 15.1774 14.5183 15.1774 14.4644V13.4808ZM9.35682 14.1915C8.53874 14.1915 7.88235 14.4179 7.4293 14.7045C7.2029 14.8478 7.02644 15.0066 6.90605 15.1606C6.78661 15.3134 6.71851 15.4665 6.71851 15.5977C6.71851 15.6203 6.72247 15.6514 6.74316 15.6775C6.76564 15.7059 6.79983 15.7186 6.83942 15.7186H11.8787C11.9182 15.7186 11.9524 15.7059 11.9749 15.6775C11.9956 15.6514 11.9996 15.6203 11.9996 15.5977C11.9996 15.4665 11.9315 15.3134 11.8119 15.1606C11.6915 15.0065 11.5149 14.8477 11.2882 14.7045C10.8346 14.4179 10.1771 14.1915 9.35682 14.1915Z" fill="currentColor"/>
</svg>
