<svg width="20" height="20" viewBox="0 0 20 20" fill="none" xmlns="http://www.w3.org/2000/svg">
<path d="M16.8871 5.22058C16.8871 4.44738 16.2603 3.82058 15.4871 3.82058H12.2809H11.7187C11.3496 3.82058 11.0504 4.11981 11.0504 4.48892C11.0504 4.85804 11.3496 5.15726 11.7187 5.15726L14.9504 5.15726C15.2818 5.15726 15.5504 5.42589 15.5504 5.75726L15.5504 9.65037C15.5504 9.98127 15.2825 10.2497 14.9516 10.2504L6.95525 10.2662L5.11989 10.3047L8.92095 6.68865C9.06511 6.5445 9.13718 6.38724 9.13718 6.21688C9.13718 6.02031 9.05855 5.85651 8.9013 5.72546C8.77025 5.60752 8.61955 5.54855 8.44919 5.54855C8.26572 5.54855 8.10846 5.61407 7.97742 5.74512L3.81013 9.59789C3.4432 9.95172 3.25973 10.358 3.25973 10.8166C3.25973 11.2884 3.4432 11.7077 3.81013 12.0747L7.97742 16.1044C8.12157 16.2485 8.27882 16.3206 8.44919 16.3206C8.61955 16.3206 8.77025 16.2551 8.9013 16.124C9.04545 15.9799 9.11752 15.8226 9.11752 15.6523C9.11752 15.4819 9.052 15.3115 8.92095 15.1412L5.12722 11.5321L6.95525 11.5832H15.4871C16.2603 11.5832 16.8871 10.9564 16.8871 10.1832V5.22058Z" fill="currentColor"/>
</svg>
