<svg width="20" height="20" viewBox="0 0 20 20" fill="none" xmlns="http://www.w3.org/2000/svg">
<path d="M16.6626 3.453C16.8399 3.453 16.9856 3.51634 17.0996 3.643C17.2136 3.757 17.2706 3.909 17.2706 4.099C17.2706 4.30167 17.2136 4.46634 17.0996 4.593C16.9856 4.707 16.8399 4.764 16.6626 4.764H8.7016C8.30893 4.764 7.97327 4.89067 7.6946 5.144C7.41593 5.38467 7.24493 5.68867 7.1816 6.056L5.6806 16.126C5.6426 16.3793 5.51593 16.5883 5.3006 16.753C5.09793 16.9177 4.85093 17 4.5596 17C4.31893 17 4.0846 16.943 3.8566 16.829C3.64127 16.7023 3.47027 16.544 3.3436 16.354L1.1776 13.105C1.1016 12.9657 1.0636 12.8327 1.0636 12.706C1.0636 12.478 1.1586 12.307 1.3486 12.193C1.48793 12.117 1.62093 12.079 1.7476 12.079C2.00093 12.079 2.1846 12.193 2.2986 12.421L4.3126 15.48H4.4456L5.9086 5.752C6.00993 5.05534 6.30127 4.498 6.7826 4.08C7.26393 3.662 7.8466 3.453 8.5306 3.453H16.6626ZM16.7956 15.898C16.9223 16.0373 16.9856 16.1957 16.9856 16.373C16.9856 16.5503 16.9096 16.7087 16.7576 16.848C16.6183 16.9493 16.4726 17 16.3206 17C16.0799 17 15.8836 16.8923 15.7316 16.677L12.9006 13.295L9.9746 16.677C9.7846 16.8923 9.58193 17 9.3666 17C9.20193 17 9.04993 16.943 8.9106 16.829C8.74593 16.7023 8.6636 16.544 8.6636 16.354C8.6636 16.1767 8.72693 16.0247 8.8536 15.898L11.8936 12.516L9.0816 9.191C8.94227 9.02634 8.8726 8.86167 8.8726 8.697C8.8726 8.51967 8.9486 8.36767 9.1006 8.241C9.22727 8.13967 9.36027 8.089 9.4996 8.089C9.74027 8.089 9.9556 8.203 10.1456 8.431L12.9006 11.718L15.6746 8.298C15.8266 8.108 16.0166 8.013 16.2446 8.013C16.3966 8.013 16.5423 8.06367 16.6816 8.165C16.8336 8.29167 16.9096 8.45 16.9096 8.64C16.9096 8.792 16.8526 8.944 16.7386 9.096L13.9266 12.516L16.7956 15.898Z" fill="currentColor"/>
</svg>
