<svg width="20" height="20" viewBox="0 0 20 20" fill="none" xmlns="http://www.w3.org/2000/svg">
<path fill-rule="evenodd" clip-rule="evenodd" d="M7.6539 2.85001C8.03077 2.85001 8.33628 3.15552 8.33628 3.53239V7.65323L7.6539 7.65391L7.65389 8.33629H3.53238C3.15551 8.33629 2.85 8.03078 2.85 7.65391C2.85 7.27704 3.15551 6.97153 3.53238 6.97153H6.97152V3.53239C6.97152 3.15552 7.27703 2.85001 7.6539 2.85001ZM7.6539 7.65391L7.65389 8.33629C7.83487 8.33629 8.00845 8.2644 8.13642 8.13643C8.26439 8.00845 8.33628 7.83421 8.33628 7.65323L7.6539 7.65391ZM12.3461 2.85001C12.723 2.85001 13.0285 3.15552 13.0285 3.53239V6.97153H16.4676C16.8445 6.97153 17.15 7.27704 17.15 7.65391C17.15 8.03078 16.8445 8.33629 16.4676 8.33629H12.3468C11.9699 8.33629 11.6637 8.03078 11.6637 7.65389V3.53239C11.6637 3.15552 11.9692 2.85001 12.3461 2.85001ZM2.85 12.3461C2.85 11.9692 3.15551 11.6637 3.53238 11.6637H7.65323C8.03011 11.6637 8.33628 11.9692 8.33628 12.3461V16.4676C8.33628 16.8445 8.03077 17.15 7.6539 17.15C7.27703 17.15 6.97152 16.8445 6.97152 16.4676V13.0285H3.53238C3.15551 13.0285 2.85 12.723 2.85 12.3461ZM12.3461 11.6637V12.3461H11.6637C11.6637 11.9692 11.9692 11.6637 12.3461 11.6637ZM13.0285 13.0285V16.4676C13.0285 16.8445 12.723 17.15 12.3461 17.15C11.9692 17.15 11.6637 16.8445 11.6637 16.4676V12.3461H12.3461V11.6637H16.4676C16.8445 11.6637 17.15 11.9692 17.15 12.3461C17.15 12.723 16.8445 13.0285 16.4676 13.0285H13.0285Z" fill="currentColor"/>
</svg>
