<svg width="20" height="20" viewBox="0 0 20 20" fill="none" xmlns="http://www.w3.org/2000/svg">
<path d="M6.01133 4.91633C5.9643 4.89191 5.92739 4.85122 5.90776 4.80146L5.25671 3.15071C5.16488 2.91786 4.83535 2.91786 4.74352 3.15071L4.09247 4.80146C4.07004 4.85833 4.02502 4.90335 3.96815 4.92578L2.31739 5.57683C2.08455 5.66866 2.08455 5.99819 2.31739 6.09003L3.96815 6.74107C4.02502 6.7635 4.07004 6.80852 4.09247 6.86539L4.74351 8.51615C4.74944 8.53118 4.75636 8.54524 4.76414 8.55833C4.86183 8.72267 5.09549 8.73408 5.21206 8.59255C5.23004 8.57072 5.24523 8.54525 5.25671 8.51615L5.90776 6.86539C5.93019 6.80852 5.97521 6.7635 6.03208 6.74107L7.68284 6.09003C7.91568 5.99819 7.91568 5.66866 7.68284 5.57683L6.03208 4.92578C6.03208 4.92578 6.03208 4.92578 6.03208 4.92578C6.02497 4.92298 6.01804 4.91982 6.01133 4.91633Z" fill="currentcolor"/>
<path d="M5.95749 10.6901C5.75703 10.3409 5.60604 9.9742 5.50449 9.58993C5.02216 9.79256 4.42969 9.68985 4.05902 9.2818C4.16938 10.027 4.41562 10.7257 4.79772 11.3781C5.33502 12.2954 6.06233 13.0227 6.97965 13.56C7.89698 14.0842 8.89949 14.3463 9.98718 14.3463C11.0427 14.3463 12.0138 14.1053 12.9006 13.6234L15.8646 17.1376C15.9957 17.308 16.1726 17.3932 16.3954 17.3932C16.5657 17.3932 16.7164 17.3342 16.8475 17.2162C17.0047 17.0852 17.0834 16.9148 17.0834 16.7052C17.0834 16.561 17.0309 16.4169 16.9261 16.2727L14.0256 12.8338C14.4943 12.418 14.891 11.9328 15.2159 11.3781C15.7532 10.4608 16.0219 9.45171 16.0219 8.35092C16.0219 7.25013 15.7532 6.24107 15.2159 5.32374C14.6787 4.40641 13.9448 3.68566 13.0144 3.16147C12.097 2.62418 11.088 2.35553 9.98718 2.35553C8.89949 2.35553 7.89698 2.62418 6.97965 3.16147C6.80106 3.26352 6.62967 3.37303 6.46548 3.48998L6.71384 4.1197L7.48324 4.42315C7.53726 4.38828 7.59218 4.35431 7.64799 4.32123C8.35564 3.90188 9.13537 3.69221 9.98718 3.69221C10.839 3.69221 11.6187 3.90188 12.3264 4.32123C13.0471 4.74058 13.6172 5.30408 14.0365 6.01174C14.4559 6.71939 14.6655 7.49912 14.6655 8.35092C14.6655 9.20273 14.4559 9.98245 14.0365 10.6901C13.6172 11.3978 13.0471 11.9547 12.3264 12.361C11.6187 12.7672 10.839 12.9703 9.98718 12.9703C9.13537 12.9703 8.35564 12.7672 7.64799 12.361C6.94034 11.9547 6.37684 11.3978 5.95749 10.6901Z" fill="currentcolor"/>
</svg>
