<svg width="20" height="20" viewBox="0 0 20 20" fill="none" xmlns="http://www.w3.org/2000/svg">
<g clip-path="url(#clip0_2338_12197)">
<path fill-rule="evenodd" clip-rule="evenodd" d="M16.0167 14.9167C16.0167 15.2401 15.9069 15.533 15.7366 15.7341C15.5691 15.932 15.3674 16.0167 15.1852 16.0167L4.81481 16.0167C4.63255 16.0167 4.43086 15.932 4.26335 15.7341C4.09307 15.533 3.98333 15.2401 3.98333 14.9167L3.98333 10.6667C3.98333 10.1972 4.36389 9.81665 4.83333 9.81665L6.66667 9.81665C7.02565 9.81665 7.31667 9.52564 7.31667 9.16665C7.31667 8.80767 7.02565 8.51665 6.66667 8.51665L4.83333 8.51665C3.64592 8.51665 2.68333 9.47924 2.68333 10.6667L2.68333 14.9167C2.68333 15.5214 2.88576 16.1188 3.27115 16.5741C3.6593 17.0326 4.21125 17.3167 4.81481 17.3167L15.1852 17.3167C15.7887 17.3167 16.3407 17.0326 16.7289 16.5741C17.1142 16.1188 17.3167 15.5214 17.3167 14.9167L17.3167 10.6667C17.3167 9.47924 16.3541 8.51665 15.1667 8.51665L13.3333 8.51665C12.9743 8.51665 12.6833 8.80767 12.6833 9.16665C12.6833 9.52564 12.9743 9.81665 13.3333 9.81665L15.1667 9.81665C15.6361 9.81665 16.0167 10.1972 16.0167 10.6667L16.0167 14.9167Z" fill="currentColor"/>
<path fill-rule="evenodd" clip-rule="evenodd" d="M13.7929 6.29299C14.0468 6.03915 14.0468 5.62759 13.7929 5.37375L10.4596 2.04041C10.3377 1.91851 10.1724 1.85003 9.99999 1.85003C9.8276 1.85003 9.66227 1.91851 9.54037 2.04041L6.20704 5.37375C5.9532 5.62759 5.9532 6.03915 6.20704 6.29299C6.46088 6.54683 6.87243 6.54683 7.12628 6.29299L9.99999 3.41927L12.8737 6.29299C13.1275 6.54683 13.5391 6.54683 13.7929 6.29299Z" fill="currentColor"/>
<path fill-rule="evenodd" clip-rule="evenodd" d="M10.0001 11.15C10.3591 11.15 10.6501 10.859 10.6501 10.5L10.6501 2.50002C10.6501 2.14103 10.3591 1.85002 10.0001 1.85002C9.6411 1.85002 9.35009 2.14103 9.35009 2.50002L9.35009 10.5C9.35009 10.859 9.6411 11.15 10.0001 11.15Z" fill="currentColor"/>
</g>
<defs>
<clipPath id="clip0_2338_12197">
<rect width="20" height="20" fill="white"/>
</clipPath>
</defs>
</svg>
