<svg width="24" height="24" viewBox="0 0 24 24" fill="none" xmlns="http://www.w3.org/2000/svg">
<g id="icon-facebook">
<path id="Vector" d="M12.0404 1.5C6.22016 1.5 1.50183 6.21833 1.50183 12.0386C1.50183 16.9807 4.90453 21.1279 9.49471 22.2669V15.2592H7.32165V12.0386H9.49471V10.6509C9.49471 7.06394 11.1181 5.40138 14.6396 5.40138C15.3074 5.40138 16.4594 5.53248 16.9307 5.66316V8.58234C16.682 8.55621 16.2499 8.54314 15.7133 8.54314C13.9854 8.54314 13.3177 9.19779 13.3177 10.8996V12.0386H16.76L16.1686 15.2592H13.3177V22.5C18.536 21.8698 22.5794 17.4267 22.5794 12.0386C22.579 6.21833 17.8606 1.5 12.0404 1.5Z" fill="currentColor"/>
</g>
</svg>
