<svg width="20" height="20" viewBox="0 0 20 20" fill="none" xmlns="http://www.w3.org/2000/svg">
<path d="M10.2332 6.39244C10.8873 6.36883 11.4634 6.50155 11.8826 6.79428C12.3031 7.088 12.5622 7.54053 12.5841 8.14714C12.608 8.81167 12.1292 9.20632 11.6793 9.57352L11.6577 9.59117C11.4273 9.77935 11.2063 9.96131 11.0538 10.1716C10.9366 10.3331 10.8082 10.5092 10.6607 10.6479C10.5133 10.7864 10.3521 10.8826 10.1704 10.8921C10.0124 10.9004 9.86001 10.8463 9.75836 10.7544C9.65795 10.6636 9.60768 10.5374 9.64597 10.3933C9.75525 9.98217 10.061 9.67483 10.3727 9.40644C10.4387 9.34967 10.504 9.29533 10.5678 9.2422L10.5693 9.24094C10.7218 9.11405 10.8668 8.99335 10.9857 8.86729C11.1527 8.69025 11.2567 8.51335 11.2495 8.3118C11.24 8.05026 11.1306 7.8533 10.9404 7.72344C10.7486 7.59248 10.4709 7.52727 10.1223 7.53986C9.77349 7.55244 9.46785 7.66833 9.18025 7.87995C8.93028 8.06388 8.59208 8.093 8.36592 7.90075C8.13624 7.70551 8.10662 7.36552 8.3224 7.17198C8.8317 6.71515 9.47447 6.41982 10.2332 6.39244Z" fill="currentColor"/>
<path d="M10.2815 11.704C10.7497 11.6871 11.1197 12.013 11.1373 12.5002C11.1549 12.9868 10.8102 13.348 10.3415 13.3649C9.85487 13.3825 9.49395 13.0467 9.47639 12.5601C9.4588 12.0727 9.80471 11.7212 10.2815 11.704Z" fill="currentColor"/>
<path fill-rule="evenodd" clip-rule="evenodd" d="M9.60622 2.04985C13.8686 1.70403 17.6043 4.87906 17.9501 9.14147C18.0946 10.9222 17.6239 12.6124 16.7165 14.0005L16.7029 14.0213L17.7214 16.9003C17.8056 17.1385 17.7461 17.404 17.5682 17.5834C17.3903 17.7629 17.1254 17.8247 16.8864 17.7425L13.7547 16.6653L13.7359 16.6749C12.8633 17.1178 11.8922 17.4015 10.8585 17.4854C6.59612 17.8312 2.86041 14.6562 2.5146 10.3938C2.16879 6.13136 5.34381 2.39566 9.60622 2.04985ZM16.6375 9.24796C16.3505 5.7105 13.2502 3.07547 9.71272 3.36247C6.17525 3.64947 3.54022 6.74981 3.82722 10.2873C4.11422 13.8247 7.21456 16.4598 10.752 16.1728C11.7063 16.0954 12.5932 15.8138 13.3749 15.375C13.5386 15.2831 13.7338 15.2655 13.9114 15.3265L16.0249 16.0535L15.3492 14.1434C15.277 13.9392 15.3098 13.7126 15.4369 13.5373C16.3056 12.3393 16.7666 10.8386 16.6375 9.24796Z" fill="currentColor"/>
</svg>
