<svg width="20" height="20" viewBox="0 0 20 20" fill="none" xmlns="http://www.w3.org/2000/svg">
<path d="M3.91316 12.4396C3.91316 12.7672 4.018 13.0424 4.22767 13.2652C4.45045 13.4749 4.72565 13.5797 5.05327 13.5797H6.35063C6.61272 13.5797 6.82895 13.6583 6.99931 13.8156C7.16967 13.9597 7.2483 14.1432 7.23519 14.366L7.21554 16.1154C7.21554 16.2465 7.26796 16.2727 7.37279 16.1941L9.98718 13.9139C10.092 13.8221 10.2296 13.7435 10.4 13.678C10.5703 13.6125 10.7276 13.5797 10.8717 13.5797H14.9604C15.288 13.5797 15.5567 13.4749 15.7663 13.2652C15.976 13.0555 16.0809 12.7803 16.0809 12.4396V4.87163C16.0809 4.71438 15.976 4.58988 15.7663 4.49815C15.5567 4.39331 15.288 4.34089 14.9604 4.34089H5.05327C4.71254 4.34089 4.43735 4.44573 4.22767 4.65541C4.018 4.86508 3.91316 5.13373 3.91316 5.46134V12.4396ZM4.91567 14.936C4.20801 14.936 3.63796 14.7198 3.20551 14.2873C2.77305 13.8418 2.55682 13.2586 2.55682 12.5379V5.3434C2.55682 4.63575 2.77305 4.0657 3.20551 3.63324C3.65106 3.20079 4.23422 2.98456 4.95498 2.98456H15.0587C15.7663 2.98456 16.3429 3.20079 16.7885 3.63324C17.2341 4.0657 17.4503 4.63575 17.4372 5.3434V12.5772C17.4503 13.2848 17.2341 13.8549 16.7885 14.2873C16.3429 14.7198 15.7663 14.936 15.0587 14.936H11.4418C11.2976 14.936 11.1404 14.9688 10.97 15.0343C10.7997 15.0998 10.6555 15.1785 10.5376 15.2702L8.00182 17.4128C7.71352 17.6487 7.35969 17.7666 6.94034 17.7666C6.87482 17.7666 6.77653 17.7535 6.64548 17.7273C6.43581 17.6749 6.2589 17.5373 6.11474 17.3145C5.9837 17.0917 5.92473 16.8428 5.93783 16.5676L5.97715 14.936H4.91567ZM13.2896 6.50317C13.4861 6.50317 13.6499 6.56869 13.781 6.69973C13.9251 6.81768 13.9972 6.96838 13.9972 7.15185C13.9972 7.33531 13.9251 7.49257 13.781 7.62362C13.6499 7.74156 13.4861 7.80053 13.2896 7.80053H6.58651C6.38994 7.80053 6.21958 7.74156 6.07543 7.62362C5.94438 7.49257 5.87886 7.33531 5.87886 7.15185C5.87886 6.96838 5.94438 6.81768 6.07543 6.69973C6.21958 6.56869 6.38994 6.50317 6.58651 6.50317H13.2896ZM10.6752 9.76623C10.8848 9.76623 11.0552 9.83175 11.1863 9.9628C11.3304 10.0807 11.4025 10.2314 11.4025 10.4149C11.4025 10.5984 11.3304 10.7491 11.1863 10.867C11.0552 10.985 10.8848 11.0439 10.6752 11.0439H6.58651C6.38994 11.0439 6.21958 10.985 6.07543 10.867C5.94438 10.736 5.87886 10.5853 5.87886 10.4149C5.87886 10.2314 5.94438 10.0807 6.07543 9.9628C6.21958 9.83175 6.38994 9.76623 6.58651 9.76623H10.6752Z" fill="currentColor"/>
</svg>
