<svg xmlns="http://www.w3.org/2000/svg" width="20" height="20" viewBox="0 0 20 20" fill="none">
  <path d="M4.93556 15.1523C4.93556 15.48 5.0404 15.7552 5.25007 15.9779C5.47285 16.1876 5.74805 16.2924 6.07567 16.2924H13.8795C14.2202 16.2924 14.4954 16.1876 14.7051 15.9779C14.9148 15.7552 15.0196 15.48 15.0196 15.1523L15.0393 8.70484H11.6386C11.1406 8.70484 10.7344 8.55414 10.4199 8.25273C10.1185 7.93822 9.96776 7.53197 9.96776 7.03399V3.53504H6.07567C5.74805 3.53504 5.47285 3.63988 5.25007 3.84956C5.0404 4.05923 4.93556 4.33443 4.93556 4.67515V15.1523ZM5.93807 17.6488C5.23042 17.6488 4.65381 17.4326 4.20825 17.0001C3.7758 16.5545 3.55957 15.9714 3.55957 15.2506V4.57687C3.55957 3.85611 3.7758 3.2795 4.20825 2.84705C4.65381 2.40149 5.23042 2.17871 5.93807 2.17871H10.6558C10.8785 2.17871 11.1013 2.22458 11.3241 2.31631C11.5469 2.40804 11.7303 2.53254 11.8745 2.68979L15.9042 6.77845C16.0483 6.93571 16.1663 7.13228 16.258 7.36816C16.3497 7.59094 16.3956 7.80717 16.3956 8.01684V15.2506C16.3956 15.9714 16.1794 16.5545 15.7469 17.0001C15.3145 17.4326 14.7444 17.6488 14.0368 17.6488H5.93807ZM11.2651 6.81777C11.2651 6.98813 11.3175 7.13228 11.4224 7.25022C11.5403 7.35506 11.6845 7.40748 11.8548 7.40748H14.7051L11.2651 3.9675V6.81777Z" fill="currentcolor"/>
</svg>
