<svg width="20" height="20" viewBox="0 0 20 20" fill="none" xmlns="http://www.w3.org/2000/svg">
<g clip-path="url(#clip0_10394_1186)">
<path d="M17.29 7.19C17.2 6.95 17.08 6.76 16.94 6.6L12.91 2.51C12.77 2.35 12.58 2.23 12.36 2.14C12.14 2.05 11.91 2 11.69 2H6.97C6.26 2 5.69 2.22 5.24 2.67C4.81 3.1 4.59 3.68 4.59 4.4V10.59C4.75 10.57 4.91 10.54 5.08 10.54C5.56 10.54 6.01 10.64 6.43 10.83C6.43 10.81 6.43 10.79 6.43 10.77C6.43 10.01 6.7 9.33 7.23 8.79C7.76 8.26 8.45 7.97 9.21 7.97C9.97 7.97 10.66 8.25 11.19 8.79C11.72 9.32 12.01 10.01 12.01 10.77C12.01 11.53 11.73 12.2 11.19 12.73C10.78 13.14 10.28 13.4 9.73 13.5L10.99 14.44C11.05 14.49 11.15 14.58 11.21 14.64C11.62 15.05 11.87 15.54 11.97 16.09V16.11C11.99 16.19 12 16.32 12 16.48C12 16.53 12.01 16.58 12.01 16.63C12.01 16.93 11.96 17.21 11.89 17.48H15.07C15.78 17.48 16.35 17.26 16.78 16.83C17.21 16.38 17.43 15.8 17.43 15.08V7.85C17.43 7.64 17.38 7.42 17.29 7.2V7.19ZM12.89 7.23C12.72 7.23 12.58 7.18 12.46 7.07C12.36 6.95 12.3 6.81 12.3 6.64V3.79L15.74 7.23H12.89Z" fill="currentcolor"/>
<path d="M9.21 14.925C8.78 14.925 8.4 15.07 8.09 15.36L6.99 14.59C7.11 14.33 7.17 14.04 7.17 13.73C7.17 13.42 7.11 13.13 6.99 12.88L8.21 12.09C8.5 12.31 8.83 12.42 9.21 12.42C9.68 12.42 10.08 12.26 10.41 11.93C10.74 11.6 10.9 11.21 10.9 10.75C10.9 10.29 10.74 9.88 10.41 9.55C10.08 9.22 9.68 9.06 9.21 9.06C8.74 9.06 8.34 9.22 8.01 9.55C7.7 9.88 7.54 10.28 7.54 10.75C7.54 10.97 7.58 11.18 7.66 11.36L6.48 12.15C6.07 11.81 5.61 11.64 5.08 11.64C4.5 11.64 4.01 11.84 3.61 12.25C3.21 12.66 3 13.15 3 13.72C3 14.29 3.2 14.79 3.61 15.19C4.02 15.6 4.51 15.8 5.08 15.8C5.62 15.8 6.07 15.64 6.44 15.31L7.6 16.08C7.55 16.32 7.52 16.49 7.52 16.61C7.53 17.09 7.7 17.49 8.01 17.81C8.34 18.14 8.74 18.3 9.21 18.3C9.68 18.3 10.1 18.14 10.43 17.81C10.76 17.5 10.91 17.1 10.9 16.61C10.91 16.14 10.76 15.74 10.43 15.41C10.1 15.08 9.7 14.925 9.21 14.925ZM8.72 10.28C8.86 10.14 9.03 10.06 9.21 10.06C9.39 10.06 9.55 10.13 9.68 10.28C9.81 10.43 9.88 10.59 9.88 10.77C9.88 10.95 9.81 11.11 9.68 11.24C9.55 11.37 9.39 11.44 9.21 11.44C9.03 11.44 8.86 11.37 8.72 11.24C8.59 11.11 8.52 10.95 8.52 10.77C8.52 10.59 8.59 10.42 8.72 10.28ZM5.77 14.42C5.59 14.6 5.36 14.7 5.08 14.7C4.8 14.7 4.6 14.61 4.41 14.42C4.23 14.22 4.13 13.99 4.13 13.71C4.13 13.43 4.22 13.23 4.41 13.04C4.59 12.84 4.82 12.75 5.08 12.75C5.36 12.75 5.58 12.85 5.77 13.04C5.97 13.22 6.06 13.45 6.06 13.71C6.06 13.99 5.96 14.22 5.77 14.42ZM9.66 17.1C9.54 17.23 9.39 17.3 9.21 17.3C9.03 17.3 8.87 17.23 8.74 17.1C8.61 16.97 8.54 16.81 8.54 16.63C8.54 16.43 8.61 16.28 8.74 16.16C8.87 16.03 9.03 15.96 9.21 15.96C9.39 15.96 9.54 16.03 9.66 16.16C9.79 16.28 9.86 16.44 9.86 16.63C9.86 16.81 9.79 16.97 9.66 17.1Z" fill="currentcolor"/>
</g>
<defs>
<clipPath id="clip0_10394_1186">
<rect width="14.43" height="16.32" fill="white" transform="translate(3 2)"/>
</clipPath>
</defs>
</svg>
