<svg width="20" height="20" viewBox="0 0 20 20" fill="none" xmlns="http://www.w3.org/2000/svg">
<path d="M5.394 14.725C5.394 15.0516 5.492 15.313 5.688 15.509C5.884 15.705 6.14533 15.803 6.472 15.803H13.514C13.8407 15.803 14.102 15.705 14.298 15.509C14.494 15.313 14.592 15.0516 14.592 14.725L14.606 8.92897H11.498C11.022 8.92897 10.6393 8.78897 10.35 8.50897C10.0607 8.21964 9.916 7.84164 9.916 7.37497V4.19697H6.486C6.15933 4.19697 5.89333 4.29497 5.688 4.49097C5.492 4.68697 5.394 4.94831 5.394 5.27497V14.725ZM6.346 17.077C5.68333 17.077 5.14666 16.8716 4.736 16.461C4.32533 16.0503 4.12 15.5043 4.12 14.823V5.17697C4.12 4.49564 4.32533 3.94964 4.736 3.53897C5.14666 3.12831 5.68333 2.92297 6.346 2.92297H10.616C10.812 2.92297 11.0127 2.96497 11.218 3.04897C11.4327 3.13297 11.61 3.24497 11.75 3.38497L15.404 7.10897C15.544 7.24897 15.656 7.42631 15.74 7.64097C15.8333 7.84631 15.88 8.05164 15.88 8.25697V14.823C15.88 15.5043 15.6747 16.0503 15.264 16.461C14.8627 16.8716 14.326 17.077 13.654 17.077H6.346ZM12.268 10.623C12.4173 10.623 12.5433 10.6743 12.646 10.777C12.7487 10.8796 12.8 11.0056 12.8 11.155C12.8 11.3043 12.7487 11.4303 12.646 11.533C12.5433 11.6356 12.4173 11.687 12.268 11.687H7.536C7.38666 11.687 7.256 11.6356 7.144 11.533C7.04133 11.4303 6.99 11.3043 6.99 11.155C6.99 11.0056 7.04133 10.8796 7.144 10.777C7.256 10.6743 7.38666 10.623 7.536 10.623H12.268ZM10.658 12.989C10.8073 12.989 10.9333 13.0403 11.036 13.143C11.1387 13.2456 11.19 13.367 11.19 13.507C11.19 13.6563 11.1387 13.7823 11.036 13.885C10.9333 13.9876 10.8073 14.039 10.658 14.039H7.55C7.41 14.039 7.28866 13.9876 7.186 13.885C7.08333 13.7823 7.032 13.6563 7.032 13.507C7.032 13.367 7.08333 13.2456 7.186 13.143C7.28866 13.0403 7.41 12.989 7.55 12.989H10.658ZM11.134 7.15097C11.134 7.32831 11.1853 7.46831 11.288 7.57097C11.3907 7.67364 11.5307 7.72497 11.708 7.72497H14.354L11.134 4.50497V7.15097Z" fill="currentColor" />
</svg>
