<svg width="24" height="24" viewBox="0 0 24 24" fill="none" xmlns="http://www.w3.org/2000/svg">
<path fill-rule="evenodd" clip-rule="evenodd" d="M13.0623 4.18424C12.5784 3.38715 11.4216 3.38716 10.9377 4.18424L2.58243 17.9459C2.07958 18.7741 2.67583 19.8336 3.64476 19.8336H20.3553C21.3242 19.8336 21.9205 18.7741 21.4176 17.9459L13.0623 4.18424Z" stroke="currentcolor" fill="none" stroke-width="1.6"/>
<path d="M11.1877 9.39753C11.1877 8.94889 11.5514 8.58521 12 8.58521C12.4486 8.58521 12.8123 8.94889 12.8123 9.39753V13.1884C12.8123 13.637 12.4486 14.0007 12 14.0007C11.5514 14.0007 11.1877 13.637 11.1877 13.1884V9.39753Z" fill="currentcolor"/>
<path d="M12.9747 16.0586C12.9747 16.5969 12.5383 17.0333 11.9999 17.0333C11.4616 17.0333 11.0251 16.5969 11.0251 16.0586C11.0251 15.5202 11.4616 15.0838 11.9999 15.0838C12.5383 15.0838 12.9747 15.5202 12.9747 16.0586Z" fill="currentcolor"/>
</svg>
