<svg xmlns="http://www.w3.org/2000/svg" width="16" height="16" viewBox="0 0 16 16" fill="none">
  <path d="M3.05339 4.88399C3.05339 4.61552 3.13393 4.40074 3.29501 4.23966C3.45609 4.07858 3.67087 3.99804 3.93934 3.99804L9.24356 3.99804L9.24356 6.41427C9.24356 6.80548 9.35862 7.11997 9.58874 7.35776C9.82652 7.59555 10.1372 7.71444 10.5207 7.71444L12.9715 7.71444L12.9715 10.8671C12.9715 11.1355 12.8909 11.3503 12.7298 11.5114C12.5688 11.6725 12.354 11.753 12.0855 11.753L3.93934 11.753C3.67087 11.753 3.45609 11.6725 3.29501 11.5114C3.13393 11.3503 3.05338 11.1355 3.05338 10.8671L3.05339 4.88399ZM3.8588 2.951C3.30652 2.951 2.85779 3.11975 2.51261 3.45726C2.1751 3.78709 2.00635 4.22432 2.00635 4.76893L2.00635 10.9706C2.00635 11.5229 2.1751 11.964 2.51261 12.2938C2.85778 12.6313 3.30651 12.8 3.8588 12.8L12.1661 12.8C12.726 12.8 13.1747 12.6313 13.5122 12.2938C13.8498 11.964 14.0185 11.5229 14.0185 10.9706L14.0185 7.10463C14.0185 6.92821 13.9802 6.74411 13.9034 6.55235C13.8267 6.36825 13.727 6.21484 13.6043 6.09211L10.8544 3.36521C10.7317 3.24248 10.5782 3.14276 10.3941 3.06606C10.2101 2.98935 10.0298 2.951 9.85337 2.951L3.8588 2.951ZM12.7644 6.71343L10.6703 6.71343C10.5399 6.71343 10.4363 6.67507 10.3596 6.59837C10.2829 6.52166 10.2446 6.41811 10.2446 6.28771L10.2446 4.19364L12.7644 6.71343Z" fill="currentColor"/>
</svg>
