<svg width="20" height="20" viewBox="0 0 20 20" fill="none" xmlns="http://www.w3.org/2000/svg">
<path d="M8.78809 12.6165C8.40805 12.6165 8.07388 12.5051 7.78558 12.2823L6.56684 13.0686C6.68479 13.3176 6.74376 13.5993 6.74376 13.9139C6.74376 14.2284 6.68479 14.5167 6.56684 14.7788L7.66764 15.5454C7.98215 15.2571 8.35563 15.1129 8.78809 15.1129C9.27296 15.1129 9.67921 15.2767 10.0068 15.6044C10.3344 15.932 10.4917 16.3317 10.4786 16.8034C10.4917 17.2883 10.3344 17.688 10.0068 18.0025C9.67921 18.3301 9.27296 18.4939 8.78809 18.4939C8.31632 18.4939 7.91663 18.3301 7.58901 18.0025C7.2745 17.688 7.11069 17.2883 7.09758 16.8034C7.09758 16.6855 7.12379 16.5086 7.17621 16.2727L6.01645 15.5061C5.64952 15.8337 5.19741 15.9975 4.66011 15.9975C4.08351 15.9975 3.59208 15.7944 3.18584 15.3881C2.77959 14.9819 2.57647 14.4905 2.57647 13.9139C2.57647 13.3373 2.77959 12.8458 3.18584 12.4396C3.59208 12.0333 4.08351 11.8302 4.66011 11.8302C5.1843 11.8302 5.64952 12.0006 6.05576 12.3413L7.23518 11.555C7.15656 11.3716 7.11724 11.1684 7.11724 10.9456C7.11724 10.4739 7.2745 10.0742 7.58901 9.74657C7.91663 9.41895 8.31632 9.25515 8.78809 9.25515C9.25986 9.25515 9.65955 9.41895 9.98717 9.74657C10.3148 10.0742 10.4786 10.4739 10.4786 10.9456C10.4786 11.4043 10.3148 11.7975 9.98717 12.1251C9.65955 12.4527 9.25986 12.6165 8.78809 12.6165ZM8.78809 11.614C8.97155 11.614 9.12881 11.5485 9.25986 11.4174C9.3909 11.2864 9.45643 11.1291 9.45643 10.9456C9.45643 10.7622 9.3909 10.5984 9.25986 10.4542C9.12881 10.3101 8.97155 10.238 8.78809 10.238C8.60462 10.238 8.44081 10.3101 8.29666 10.4542C8.16562 10.5984 8.10009 10.7622 8.10009 10.9456C8.10009 11.1291 8.16562 11.2864 8.29666 11.4174C8.44081 11.5485 8.60462 11.614 8.78809 11.614ZM8.78809 17.4718C8.97155 17.4718 9.12226 17.4063 9.2402 17.2752C9.37125 17.1442 9.43677 16.9869 9.43677 16.8034C9.43677 16.6069 9.37125 16.4496 9.2402 16.3317C9.12226 16.2006 8.97155 16.1351 8.78809 16.1351C8.60462 16.1351 8.44737 16.2006 8.31632 16.3317C8.18527 16.4496 8.11975 16.6069 8.11975 16.8034C8.11975 16.9869 8.18527 17.1442 8.31632 17.2752C8.44737 17.4063 8.60462 17.4718 8.78809 17.4718ZM4.66011 14.8771C4.93531 14.8771 5.16464 14.7853 5.34811 14.6019C5.54468 14.4053 5.64297 14.1694 5.64297 13.8942C5.64297 13.6321 5.54468 13.4093 5.34811 13.2259C5.16464 13.0293 4.93531 12.931 4.66011 12.931C4.39802 12.931 4.17524 13.0293 3.99178 13.2259C3.80831 13.4093 3.71658 13.6321 3.71658 13.8942C3.71658 14.1694 3.80831 14.4053 3.99178 14.6019C4.17524 14.7853 4.39802 14.8771 4.66011 14.8771ZM11.4614 17.6487C11.5401 17.4521 11.5794 17.1573 11.5794 16.7641C11.5794 16.5545 11.5728 16.3972 11.5597 16.2924H14.4886C14.8293 16.2924 15.1045 16.1875 15.3142 15.9778C15.5239 15.7551 15.6287 15.4799 15.6287 15.1523L15.6484 8.70475H12.2477C11.7497 8.70475 11.3435 8.55405 11.029 8.25264C10.7276 7.93813 10.5769 7.53188 10.5769 7.0339V3.53495H6.68479C6.35717 3.53495 6.08197 3.63979 5.85919 3.84947C5.64952 4.05914 5.54468 4.33434 5.54468 4.67506V10.867C5.3088 10.7884 5.00084 10.7491 4.6208 10.7491C4.41113 10.7491 4.26042 10.7556 4.16869 10.7687V4.57678C4.16869 3.85602 4.38492 3.27941 4.81737 2.84696C5.26293 2.4014 5.83954 2.17862 6.54719 2.17862H11.2649C11.4877 2.17862 11.7104 2.22449 11.9332 2.31622C12.156 2.40795 12.3395 2.53245 12.4836 2.6897L16.5133 6.77836C16.6574 6.93562 16.7754 7.13219 16.8671 7.36807C16.9589 7.59085 17.0047 7.80708 17.0047 8.01675V15.2505C17.0047 15.9713 16.7885 16.5545 16.356 17C15.9236 17.4325 15.3535 17.6487 14.6459 17.6487H11.4614ZM11.8742 6.81768C11.8742 6.98804 11.9267 7.13219 12.0315 7.25013C12.1494 7.35497 12.2936 7.40739 12.4639 7.40739H15.3142L11.8742 3.96741V6.81768Z" fill="currentColor"/>
</svg>
