<svg width="20" height="20" viewBox="0 0 20 20" fill="none" xmlns="http://www.w3.org/2000/svg">
<path d="M8.1296 5.86331C8.47547 6.44581 8.6484 7.11479 8.6484 7.87022V9.3993H11.3516V7.87022C11.3516 7.11479 11.5245 6.44581 11.8704 5.86331C12.2163 5.2717 12.7032 4.81207 13.3312 4.48441C13.9683 4.15675 14.6965 3.99292 15.5156 3.99292H16.9628C17.1266 3.99292 17.2631 4.05208 17.3723 4.1704C17.4907 4.28872 17.5498 4.4298 17.5498 4.59363C17.5498 4.75746 17.4907 4.89853 17.3723 5.01686C17.2631 5.12608 17.1266 5.18069 16.9628 5.18069H15.5156C14.5963 5.18069 13.8728 5.42188 13.3449 5.90427C12.8261 6.38665 12.5667 7.04197 12.5667 7.87022V9.3993H17.1129C17.2768 9.3993 17.4133 9.45846 17.5225 9.57678C17.6408 9.686 17.7 9.82253 17.7 9.98636C17.7 10.1502 17.6408 10.2867 17.5225 10.3959C17.4133 10.5051 17.2768 10.5598 17.1129 10.5598H12.5667V12.1708C12.5667 13.0172 12.8261 13.6725 13.3449 14.1367C13.8636 14.5918 14.5872 14.8193 15.5156 14.8193H16.9628C17.1266 14.8193 17.2631 14.8739 17.3723 14.9832C17.4907 15.1015 17.5498 15.2471 17.5498 15.42C17.5498 15.5839 17.4907 15.7204 17.3723 15.8296C17.2631 15.9479 17.1266 16.0071 16.9628 16.0071H15.5156C14.6873 16.0071 13.9592 15.8478 13.3312 15.5293C12.7032 15.2198 12.2163 14.7784 11.8704 14.205C11.5245 13.6225 11.3516 12.9444 11.3516 12.1708V10.5598H8.6484V12.1708C8.6484 12.9444 8.47547 13.6225 8.1296 14.205C7.78374 14.7784 7.2968 15.2198 6.66879 15.5293C6.04077 15.8478 5.31264 16.0071 4.48439 16.0071H3.03723C2.8734 16.0071 2.73688 15.9479 2.62766 15.8296C2.50933 15.7204 2.45017 15.5839 2.45017 15.42C2.45017 15.2471 2.50933 15.1015 2.62766 14.9832C2.73688 14.8739 2.8734 14.8193 3.03723 14.8193H4.48439C5.41276 14.8193 6.13634 14.5918 6.65514 14.1367C7.17393 13.6725 7.43333 13.0172 7.43333 12.1708V10.5598H2.88705C2.72322 10.5598 2.5867 10.5051 2.47748 10.3959C2.35916 10.2867 2.3 10.1502 2.3 9.98636C2.3 9.82253 2.35916 9.686 2.47748 9.57678C2.5867 9.45846 2.72322 9.3993 2.88705 9.3993H7.43333V7.87022C7.43333 7.04197 7.17393 6.38665 6.65514 5.90427C6.12724 5.42188 5.40366 5.18069 4.48439 5.18069H3.03723C2.8734 5.18069 2.73688 5.12608 2.62766 5.01686C2.50933 4.89853 2.45017 4.75746 2.45017 4.59363C2.45017 4.4298 2.50933 4.28872 2.62766 4.1704C2.73688 4.05208 2.8734 3.99292 3.03723 3.99292H4.48439C5.30354 3.99292 6.03167 4.15675 6.66879 4.48441C7.2968 4.81207 7.78374 5.2717 8.1296 5.86331Z" fill="currentcolor"/>
</svg>
