<svg width="20" height="20" viewBox="0 0 20 20" fill="none" xmlns="http://www.w3.org/2000/svg">
<path d="M9.96752 17.4718C8.57842 17.4718 7.30727 17.1376 6.15406 16.4693C5.00085 15.8009 4.08352 14.8967 3.40207 13.7566C2.73374 12.6034 2.39957 11.3322 2.39957 9.94314C2.39957 8.54094 2.73374 7.26323 3.40207 6.11002C4.08352 4.9437 5.00085 4.02638 6.15406 3.35804C7.30727 2.6897 8.57842 2.35553 9.96752 2.35553C11.3697 2.35553 12.654 2.6897 13.8203 3.35804C14.9866 4.02638 15.9039 4.9437 16.5723 6.11002C17.2537 7.26323 17.5944 8.54094 17.5944 9.94314C17.5944 11.3322 17.2537 12.6034 16.5723 13.7566C15.9039 14.8967 14.9866 15.8009 13.8203 16.4693C12.654 17.1376 11.3697 17.4718 9.96752 17.4718ZM9.96752 16.1154C11.1207 16.1154 12.1757 15.8468 13.1323 15.3095C14.0889 14.7591 14.8425 14.0121 15.3929 13.0686C15.9564 12.1251 16.2381 11.0832 16.2381 9.94314C16.2381 8.80303 15.9564 7.75466 15.3929 6.79802C14.8425 5.84138 14.0889 5.08786 13.1323 4.53746C12.1757 3.98706 11.1207 3.71186 9.96752 3.71186C8.82741 3.71186 7.78559 3.98706 6.84205 4.53746C5.89852 5.08786 5.15155 5.84138 4.60115 6.79802C4.05076 7.75466 3.77556 8.80303 3.77556 9.94314C3.77556 11.0832 4.05076 12.1251 4.60115 13.0686C5.15155 14.0121 5.89852 14.7591 6.84205 15.3095C7.78559 15.8468 8.82741 16.1154 9.96752 16.1154ZM14.1741 7.25013C14.3183 7.25013 14.4428 7.30255 14.5476 7.40738C14.6524 7.51222 14.7049 7.63672 14.7049 7.78087C14.7049 7.92502 14.6524 8.04951 14.5476 8.15435C14.4428 8.25919 14.3183 8.31161 14.1741 8.31161H5.83954C5.69539 8.31161 5.5709 8.25919 5.46606 8.15435C5.36122 8.04951 5.30881 7.92502 5.30881 7.78087C5.30881 7.63672 5.36122 7.51222 5.46606 7.40738C5.5709 7.30255 5.69539 7.25013 5.83954 7.25013H14.1741ZM13.2502 10.0218C13.3944 10.0218 13.5189 10.0742 13.6237 10.179C13.7286 10.2839 13.781 10.4084 13.781 10.5525C13.781 10.6967 13.7286 10.8212 13.6237 10.926C13.5189 11.0308 13.3944 11.0832 13.2502 11.0832H6.78308C6.63893 11.0832 6.51444 11.0308 6.4096 10.926C6.30476 10.8212 6.25234 10.6967 6.25234 10.5525C6.25234 10.4084 6.30476 10.2839 6.4096 10.179C6.51444 10.0742 6.63893 10.0218 6.78308 10.0218H13.2502ZM11.9332 12.7738C12.0774 12.7738 12.2019 12.8262 12.3067 12.931C12.4115 13.0358 12.464 13.1603 12.464 13.3045C12.464 13.4486 12.4115 13.5731 12.3067 13.678C12.2019 13.7828 12.0774 13.8352 11.9332 13.8352H8.1001C7.95595 13.8352 7.83146 13.7828 7.72662 13.678C7.62178 13.5731 7.56936 13.4486 7.56936 13.3045C7.56936 13.1603 7.62178 13.0358 7.72662 12.931C7.83146 12.8262 7.95595 12.7738 8.1001 12.7738H11.9332Z" fill="currentColor"/>
</svg>
