<svg width="20" height="20" viewBox="0 0 20 20" fill="none" xmlns="http://www.w3.org/2000/svg">
<path d="M16.7166 3.53915C16.896 3.53915 17.0472 3.60054 17.1699 3.72332C17.2927 3.8461 17.3541 3.99721 17.3541 4.17665C17.3541 4.3561 17.2927 4.50721 17.1699 4.62999C17.0472 4.75276 16.896 4.81415 16.7166 4.81415H3.22994C3.05049 4.81415 2.89938 4.75276 2.7766 4.62999C2.65383 4.50721 2.59244 4.3561 2.59244 4.17665C2.59244 3.99721 2.65383 3.8461 2.7766 3.72332C2.89938 3.60054 3.05049 3.53915 3.22994 3.53915H16.7166ZM14.9741 7.34999C15.1535 7.34999 15.3047 7.4161 15.4274 7.54832C15.5502 7.6711 15.6116 7.81749 15.6116 7.98749C15.6116 8.16693 15.5502 8.32276 15.4274 8.45499C15.3047 8.57776 15.1535 8.63915 14.9741 8.63915H4.97244C4.79299 8.63915 4.64188 8.57776 4.5191 8.45499C4.39633 8.32276 4.33494 8.16693 4.33494 7.98749C4.33494 7.81749 4.39633 7.6711 4.5191 7.54832C4.64188 7.4161 4.79299 7.34999 4.97244 7.34999H14.9741ZM13.0758 11.175C13.2552 11.175 13.4063 11.2364 13.5291 11.3592C13.6519 11.4819 13.7133 11.633 13.7133 11.8125C13.7133 11.9919 13.6519 12.143 13.5291 12.2658C13.4063 12.3886 13.2552 12.45 13.0758 12.45H6.87077C6.69133 12.45 6.54022 12.3886 6.41744 12.2658C6.29466 12.143 6.23327 11.9919 6.23327 11.8125C6.23327 11.633 6.29466 11.4819 6.41744 11.3592C6.54022 11.2364 6.69133 11.175 6.87077 11.175H13.0758ZM11.3899 14.9858C11.5694 14.9858 11.7205 15.0472 11.8433 15.17C11.966 15.2928 12.0274 15.4439 12.0274 15.6233C12.0274 15.8028 11.966 15.9539 11.8433 16.0767C11.7205 16.1994 11.5694 16.2608 11.3899 16.2608H8.5566C8.3866 16.2608 8.23549 16.1994 8.10327 16.0767C7.98049 15.9539 7.9191 15.8028 7.9191 15.6233C7.9191 15.4439 7.98049 15.2928 8.10327 15.17C8.23549 15.0472 8.3866 14.9858 8.5566 14.9858H11.3899Z" fill="currentColor"/>
</svg>
