<svg width="20" height="20" viewBox="0 0 20 20" fill="none" xmlns="http://www.w3.org/2000/svg">
<path fill-rule="evenodd" clip-rule="evenodd" d="M17.8574 11.6064C18.5473 11.6067 19.107 12.1666 19.1074 12.8564V15.7139C19.1074 16.4041 18.5476 16.9636 17.8574 16.9639H15C14.3098 16.9636 13.75 16.4041 13.75 15.7139V12.8564C13.7504 12.1666 14.3101 11.6067 15 11.6064H17.8574ZM15 12.6787C14.9018 12.6789 14.8227 12.7583 14.8223 12.8564V15.7139C14.8223 15.8124 14.9016 15.8924 15 15.8926H17.8574C17.9558 15.8923 18.0361 15.8123 18.0361 15.7139V12.8564C18.0357 12.7583 17.9556 12.6789 17.8574 12.6787H15Z" fill="currentColor"/>
<path d="M5.96191 3.21387C6.41648 3.21387 6.78588 3.5826 6.78613 4.03711V5.05566H7.78613C8.78069 5.05588 9.58657 5.86192 9.58691 6.85645V13.1426C9.58699 13.4098 9.80405 13.6268 10.0713 13.627H10.9209V12.6133C10.9212 12.3838 11.1879 12.2568 11.3662 12.4014L13.4238 14.0742C13.5582 14.1835 13.5582 14.3888 13.4238 14.498L11.3662 16.1699C11.1879 16.3146 10.921 16.1877 10.9209 15.958V14.9443H10.0713C9.07651 14.9442 8.27058 14.1374 8.27051 13.1426V6.85645C8.27016 6.58947 8.05314 6.37229 7.78613 6.37207H6.78613V7.39062C6.78613 7.84534 6.41663 8.21387 5.96191 8.21387H2.60938C2.15466 8.21387 1.78613 7.84534 1.78613 7.39062V4.03711C1.78638 3.58261 2.15481 3.21387 2.60938 3.21387H5.96191Z" fill="currentColor"/>
</svg>
