<svg width="20" height="20" viewBox="0 0 20 20" fill="none" xmlns="http://www.w3.org/2000/svg">
<path d="M1.52979 9.13901C1.52979 8.66301 1.66979 8.28034 1.94979 7.99101C2.23912 7.70167 2.61712 7.55701 3.08379 7.55701H7.26979C7.74579 7.55701 8.12845 7.70167 8.41779 7.99101C8.70712 8.27101 8.85179 8.64434 8.85179 9.11101V9.75501H10.2938L12.3938 6.10101C12.5058 5.90501 12.6691 5.80701 12.8838 5.80701C12.9958 5.80701 13.1171 5.84434 13.2478 5.91901C13.4158 6.01234 13.4998 6.16167 13.4998 6.36701C13.4998 6.48834 13.4671 6.60034 13.4018 6.70301L11.6378 9.75501H14.6898L15.7258 8.07501C15.8565 7.87901 16.0245 7.78101 16.2298 7.78101C16.3418 7.78101 16.4585 7.81834 16.5798 7.89301C16.6638 7.93967 16.7291 8.00501 16.7758 8.08901C16.8225 8.17301 16.8458 8.26167 16.8458 8.35501C16.8458 8.46701 16.8085 8.58367 16.7338 8.70501L16.0898 9.75501H17.8958C18.0638 9.75501 18.1991 9.81101 18.3018 9.92301C18.4138 10.0257 18.4698 10.1657 18.4698 10.343C18.4698 10.511 18.4138 10.651 18.3018 10.763C18.1991 10.875 18.0638 10.931 17.8958 10.931H13.8918L15.4318 13.297C15.4971 13.3903 15.5298 13.4977 15.5298 13.619C15.5298 13.7963 15.4505 13.9503 15.2918 14.081C15.1611 14.1557 15.0351 14.193 14.9138 14.193C14.8111 14.193 14.7178 14.1697 14.6338 14.123C14.5498 14.0763 14.4845 14.011 14.4378 13.927L12.5058 10.931H8.85179V11.463C8.85179 11.9297 8.70712 12.3077 8.41779 12.597C8.13779 12.8863 7.76445 13.031 7.29779 13.031H3.11179C2.63579 13.031 2.25312 12.891 1.96379 12.611C1.67445 12.3217 1.52979 11.9437 1.52979 11.477V9.13901ZM3.25179 8.78901C3.10245 8.78901 2.98112 8.83567 2.88779 8.92901C2.80379 9.02234 2.76179 9.14367 2.76179 9.29301V11.309C2.76179 11.4583 2.80379 11.5797 2.88779 11.673C2.98112 11.757 3.10245 11.799 3.25179 11.799H7.12979C7.28845 11.799 7.40979 11.757 7.49378 11.673C7.58712 11.5797 7.63379 11.4583 7.63379 11.309V9.29301C7.63379 9.13434 7.58712 9.01301 7.49378 8.92901C7.40979 8.83567 7.28845 8.78901 7.12979 8.78901H3.25179Z" fill="currentcolor"/>
</svg>
