<svg width="20" height="20" viewBox="0 0 20 20" fill="none" xmlns="http://www.w3.org/2000/svg">
<path fill-rule="evenodd" clip-rule="evenodd" d="M4.28482 10.4697C3.59027 10.4697 2.9547 10.2993 2.37809 9.95858C1.81459 9.63097 1.36903 9.18541 1.04141 8.62191C0.713798 8.0453 0.549988 7.40972 0.549988 6.71518C0.549988 6.03373 0.713798 5.41126 1.04141 4.84776C1.36903 4.27115 1.81459 3.81904 2.37809 3.49143C2.9547 3.16381 3.59027 3 4.28482 3C4.96627 3 5.58874 3.16381 6.15224 3.49143C6.72885 3.81904 7.18096 4.27115 7.50857 4.84776C7.83619 5.41126 8 6.03373 8 6.71518C8 7.40972 7.83619 8.0453 7.50857 8.62191C7.18096 9.18541 6.72885 9.63097 6.15224 9.95858C5.58874 10.2993 4.96627 10.4697 4.28482 10.4697ZM4.73693 6.26306V4.80844C4.73693 4.67739 4.69107 4.566 4.59933 4.47427C4.52071 4.38254 4.41587 4.33667 4.28482 4.33667C4.15378 4.33667 4.04239 4.38254 3.95065 4.47427C3.87202 4.566 3.83271 4.67739 3.83271 4.80844V6.26306H2.37809C2.24704 6.26306 2.13565 6.30892 2.04392 6.40066C1.96529 6.47929 1.92598 6.58412 1.92598 6.71517C1.92598 6.84622 1.96529 6.95761 2.04392 7.04934C2.13565 7.14107 2.24704 7.18694 2.37809 7.18694H3.83271V8.66121C3.83271 8.77916 3.87202 8.88399 3.95065 8.97573C4.04239 9.06746 4.15378 9.11333 4.28482 9.11333C4.41587 9.11333 4.52071 9.06746 4.59933 8.97573C4.69107 8.88399 4.73693 8.77916 4.73693 8.66121V7.18694H6.19155C6.3095 7.18694 6.40778 7.14107 6.48641 7.04934C6.57814 6.95761 6.62401 6.84622 6.62401 6.71517C6.62401 6.58412 6.57814 6.47929 6.48641 6.40066C6.40778 6.30892 6.3095 6.26306 6.19155 6.26306H4.73693Z" fill="currentColor"/>
<path d="M3.83163 11.1339C3.9983 11.1696 4.20068 11.1875 4.43878 11.1875C4.56973 11.1875 4.77806 11.1756 5.06378 11.1518V14.0123C5.06378 14.3099 5.15902 14.5599 5.34949 14.7623C5.55187 14.9528 5.80187 15.048 6.09949 15.048H16.1173C16.4269 15.048 16.6769 14.9528 16.8673 14.7623C17.0578 14.5599 17.1531 14.3099 17.1531 14.0123V8.92304C17.1531 8.61352 17.0578 8.36352 16.8673 8.17304C16.6769 7.98257 16.4269 7.88733 16.1173 7.88733H12.1531L10.3673 5.49447C10.2959 5.39923 10.1947 5.32185 10.0638 5.26233C9.94473 5.1909 9.82568 5.15519 9.70663 5.15519H8.59949C8.53997 4.9409 8.45663 4.72661 8.34949 4.51233C8.24235 4.29804 8.12925 4.13138 8.01021 4.01233H9.95663C10.1947 4.01233 10.4328 4.0659 10.6709 4.17304C10.909 4.28019 11.1054 4.42304 11.2602 4.60162H16.0102C16.4031 4.60162 16.7185 4.72662 16.9566 4.97662C17.1947 5.21471 17.3138 5.52423 17.3138 5.90519V6.95876C17.6471 7.12542 17.909 7.37542 18.0995 7.70876C18.29 8.04209 18.3852 8.42304 18.3852 8.85161V14.1195C18.3852 14.7623 18.1828 15.2861 17.7781 15.6909C17.3852 16.0838 16.8614 16.2802 16.2066 16.2802H6.01021C5.35544 16.2802 4.82568 16.0838 4.42092 15.6909C4.02806 15.2861 3.83163 14.7623 3.83163 14.1195V11.1339ZM12.8138 6.70876H16.1531V6.13733C16.1531 6.03019 16.1173 5.94685 16.0459 5.88733C15.9745 5.8159 15.8852 5.78019 15.7781 5.78019H12.1352L12.8138 6.70876Z" fill="currentColor"/>
</svg>
