<svg width="20" height="20" viewBox="0 0 20 20" fill="none" xmlns="http://www.w3.org/2000/svg">
<path d="M4.85911 16.0058C4.17911 16.0058 3.62661 15.798 3.20161 15.3825C2.78606 14.9764 2.57828 14.4333 2.57828 13.7533V5.74916C2.57828 5.06916 2.78133 4.52138 3.18744 4.10582C3.603 3.68082 4.15078 3.46832 4.83078 3.46832H8.57078C8.83522 3.46832 9.09494 3.53443 9.34994 3.66666C9.61439 3.79888 9.83161 3.96888 10.0016 4.17666H15.0308C15.4463 4.17666 15.7769 4.30416 16.0224 4.55916C16.2774 4.80471 16.4049 5.13054 16.4049 5.53666V6.78332C16.7355 6.97221 16.9905 7.23193 17.1699 7.56249C17.3494 7.89304 17.4391 8.28027 17.4391 8.72416V13.725C17.4391 14.4144 17.2313 14.9669 16.8158 15.3825C16.4097 15.798 15.8666 16.0058 15.1866 16.0058H4.85911ZM3.86744 13.6258C3.86744 13.9564 3.96661 14.2208 4.16494 14.4192C4.36328 14.6175 4.62772 14.7167 4.95828 14.7167H15.0591C15.3897 14.7167 15.6541 14.6175 15.8524 14.4192C16.0508 14.2208 16.1499 13.9564 16.1499 13.6258V8.69582C16.1499 8.36527 16.0508 8.10082 15.8524 7.90249C15.6541 7.70416 15.3897 7.60499 15.0591 7.60499H11.5883C11.4183 7.60499 11.253 7.56721 11.0924 7.49166C10.9319 7.40666 10.7997 7.29804 10.6958 7.16582L9.13744 5.02666C9.07133 4.94166 8.99106 4.87554 8.89661 4.82832C8.80217 4.7811 8.70772 4.75749 8.61328 4.75749H4.95828C4.62772 4.75749 4.36328 4.86138 4.16494 5.06916C3.96661 5.26749 3.86744 5.53193 3.86744 5.86249V13.6258ZM11.7158 6.47166H15.1583H15.2433V5.69249C15.2433 5.57916 15.2102 5.48943 15.1441 5.42332C15.078 5.35721 14.9883 5.32416 14.8749 5.32416H10.8658L11.7158 6.47166Z" fill="currentColor"/>
</svg>
