<svg width="20" height="20" viewBox="0 0 20 20" fill="none" xmlns="http://www.w3.org/2000/svg">
<path fill-rule="evenodd" clip-rule="evenodd" d="M3.46691 3.4669C3.8619 3.07191 4.39762 2.85001 4.95622 2.85001H7.11784C7.48518 2.85001 7.78296 3.14779 7.78296 3.51512C7.78296 3.88246 7.48518 4.18024 7.11784 4.18024H4.95622C4.75042 4.18024 4.55304 4.26199 4.40752 4.40751C4.262 4.55304 4.18025 4.75041 4.18025 4.95621V7.11784C4.18025 7.48517 3.88246 7.78295 3.51513 7.78295C3.1478 7.78295 2.85001 7.48517 2.85001 7.11784V4.95621C2.85001 4.39761 3.07192 3.86189 3.46691 3.4669ZM12.2171 3.51512C12.2171 3.14779 12.5149 2.85001 12.8822 2.85001H15.0438C15.6024 2.85001 16.1381 3.07191 16.5331 3.4669C16.9281 3.86189 17.15 4.39761 17.15 4.95621V7.11784C17.15 7.48517 16.8522 7.78295 16.4849 7.78295C16.1176 7.78295 15.8198 7.48517 15.8198 7.11784V4.95621C15.8198 4.75041 15.738 4.55304 15.5925 4.40751C15.447 4.26199 15.2496 4.18024 15.0438 4.18024H12.8822C12.5149 4.18024 12.2171 3.88246 12.2171 3.51512ZM3.51513 12.2171C3.88246 12.2171 4.18025 12.5148 4.18025 12.8822V15.0438C4.18025 15.2496 4.262 15.447 4.40752 15.5925C4.55304 15.738 4.75041 15.8198 4.95622 15.8198H7.11784C7.48518 15.8198 7.78296 16.1176 7.78296 16.4849C7.78296 16.8522 7.48518 17.15 7.11784 17.15H4.95622C4.39762 17.15 3.8619 16.9281 3.46691 16.5331C3.07192 16.1381 2.85001 15.6024 2.85001 15.0438V12.8822C2.85001 12.5148 3.1478 12.2171 3.51513 12.2171ZM16.4849 12.2171C16.8522 12.2171 17.15 12.5148 17.15 12.8822V15.0438C17.15 15.6024 16.9281 16.1381 16.5331 16.5331C16.1381 16.9281 15.6024 17.15 15.0438 17.15H12.8822C12.5149 17.15 12.2171 16.8522 12.2171 16.4849C12.2171 16.1176 12.5149 15.8198 12.8822 15.8198H15.0438C15.2496 15.8198 15.447 15.738 15.5925 15.5925C15.738 15.447 15.8198 15.2496 15.8198 15.0438V12.8822C15.8198 12.5148 16.1176 12.2171 16.4849 12.2171Z" fill="currentColor"/>
</svg>
