<svg width="20" height="20" viewBox="0 0 20 20" fill="none" xmlns="http://www.w3.org/2000/svg">
<path d="M15.5 3C16.8806 3.00008 18 4.11934 18 5.5V14.5C18 15.8807 16.8806 16.9999 15.5 17H4.5C3.11936 16.9999 2 15.8807 2 14.5V5.5C2 4.11934 3.11936 3.00008 4.5 3H15.5ZM4.10059 6.2998C3.65889 6.2998 3.30001 6.65796 3.2998 7.09961V14.7002C3.29991 15.2523 3.74774 15.7 4.2998 15.7002H15.7002C16.2523 15.7001 16.7001 15.2523 16.7002 14.7002V7.09961C16.7 6.65809 16.3419 6.30002 15.9004 6.2998H4.10059ZM13.8662 13C14.1423 13.0001 14.3662 13.2239 14.3662 13.5C14.3662 13.7761 14.1423 13.9999 13.8662 14H7.86621C7.59007 14 7.36621 13.7761 7.36621 13.5C7.36621 13.2239 7.59007 13 7.86621 13H13.8662ZM11 10.5C11.276 10.5002 11.5 10.724 11.5 11C11.5 11.276 11.276 11.4998 11 11.5H5.26758C4.99161 11.4998 4.76758 11.276 4.76758 11C4.76758 10.724 4.99161 10.5002 5.26758 10.5H11ZM14.8662 8C15.1423 8.0001 15.3662 8.22392 15.3662 8.5C15.3662 8.77608 15.1423 8.9999 14.8662 9H6.86621C6.59007 9 6.36621 8.77614 6.36621 8.5C6.36621 8.22386 6.59007 8 6.86621 8H14.8662Z" fill="currentcolor"/>
</svg>
