<svg width="20" height="20" viewBox="0 0 20 20" fill="none" xmlns="http://www.w3.org/2000/svg">
<path d="M8.47638 11.8086C8.41987 11.9193 8.43049 11.9806 8.50824 11.9923L8.58892 11.9846L10.0376 11.6072L17.5772 4.07922C17.7471 3.91936 17.8458 3.74873 17.8732 3.56733C17.8987 3.39888 17.8564 3.24008 17.7465 3.09092C17.5866 2.92096 17.4224 2.82325 17.254 2.79778C17.0726 2.77036 16.9044 2.83108 16.7493 2.97993L9.22921 10.5109L8.47638 11.8086Z" fill="currentcolor"/>
<path d="M5.11395 3.17466C5.02212 2.94182 4.69259 2.94182 4.60076 3.17466L3.94971 4.82542C3.92728 4.88229 3.88226 4.92731 3.82539 4.94974L2.17463 5.60079C1.94179 5.69262 1.94179 6.02215 2.17463 6.11398L3.82539 6.76503C3.88226 6.78746 3.92728 6.83248 3.94971 6.88935L4.60076 8.5401C4.69259 8.77295 5.02212 8.77295 5.11395 8.5401L5.765 6.88935C5.78743 6.83248 5.83245 6.78746 5.88932 6.76503L7.54007 6.11398C7.77292 6.02215 7.77292 5.69262 7.54007 5.60079L5.88932 4.94974C5.88221 4.94693 5.87529 4.94378 5.86857 4.94029C5.82155 4.91587 5.78463 4.87518 5.765 4.82542L5.11395 3.17466Z" fill="currentcolor"/>
<path d="M3.67049 8.907C3.80667 9.25229 4.05588 9.48689 4.34562 9.61077V14.3856C4.34562 14.7133 4.45046 14.9819 4.66014 15.1916C4.86981 15.4013 5.14501 15.5061 5.48573 15.5061H13.781C14.1217 15.5061 14.3969 15.4013 14.6066 15.1916C14.8163 14.9819 14.9211 14.7133 14.9211 14.3856V9.14868C14.9211 8.95211 14.9866 8.79486 15.1177 8.67691C15.2487 8.55897 15.4191 8.5 15.6288 8.5C15.8122 8.5 15.9629 8.55897 16.0809 8.67691C16.2119 8.79486 16.2774 8.95211 16.2774 9.14868V14.4839C16.2774 15.2047 16.0547 15.7878 15.6091 16.2334C15.1766 16.6659 14.6066 16.8821 13.8989 16.8821H5.34813C4.64048 16.8821 4.07042 16.6659 3.63797 16.2334C3.20552 15.7878 2.98929 15.2047 2.98929 14.4839V7.51024L3.14363 7.57111L3.67049 8.907Z" fill="currentcolor"/>
<path d="M7.90697 4.67052C8.15299 4.76755 8.34281 4.92196 8.47644 5.10752H11.8034C12 5.10752 12.1573 5.04855 12.2752 4.93061C12.4062 4.79956 12.4718 4.6292 12.4718 4.41953C12.4718 4.22296 12.4062 4.0657 12.2752 3.94776C12.1573 3.81671 12 3.75119 11.8034 3.75119H6.41629L6.57108 4.14366L7.90697 4.67052Z" fill="currentcolor"/>
</svg>
