<svg width="20" height="20" viewBox="0 0 20 20" fill="none" xmlns="http://www.w3.org/2000/svg">
<path d="M15.645 15.6462V8.24971C15.645 8.16435 15.6141 8.08307 15.5601 8.01924L15.4995 7.96163L10.2817 4.12959L10.2349 4.09151C10.1169 3.98862 9.94839 3.97606 9.81787 4.05342L9.76416 4.09151C9.7492 4.10459 9.73428 4.11783 9.71826 4.12959L4.50049 7.96163C4.40886 8.02895 4.35505 8.13602 4.35498 8.24971V15.6462C4.35514 15.8435 4.51505 16.0036 4.7124 16.0036H6.93311C7.07213 16.0036 7.18506 15.8907 7.18506 15.7517V13.0017C7.18531 12.0314 7.97161 11.2451 8.94189 11.2448H11.0571C12.0276 11.2448 12.8147 12.0312 12.8149 13.0017V15.7517C12.8149 15.8907 12.9279 16.0036 13.0669 16.0036H15.2876C15.4849 16.0035 15.6449 15.8434 15.645 15.6462ZM17.0444 15.6462C17.0443 16.6166 16.2581 17.4029 15.2876 17.403H13.0669C12.1547 17.403 11.4146 16.6639 11.4146 15.7517V13.0017C11.4143 12.8044 11.2544 12.6442 11.0571 12.6442H8.94189C8.74481 12.6445 8.58473 12.8046 8.58447 13.0017V15.7517C8.58447 16.6639 7.84533 17.403 6.93311 17.403H4.7124C3.74185 17.403 2.95474 16.6167 2.95459 15.6462V8.24971C2.95465 7.6906 3.22088 7.16481 3.67139 6.8337L8.88916 3.00069C9.53553 2.47245 10.4635 2.47338 11.1099 3.00166L11.1108 3.00069L16.3276 6.8337L16.4878 6.96651C16.8408 7.29663 17.0444 7.76029 17.0444 8.24971V15.6462Z" fill="currentcolor"/>
</svg>
