<svg width="20" height="20" viewBox="0 0 20 20" fill="none" xmlns="http://www.w3.org/2000/svg">
<path fill-rule="evenodd" clip-rule="evenodd" d="M13.7348 17.4086C13.0403 17.4086 12.4047 17.2382 11.8281 16.8975C11.2646 16.5699 10.819 16.1243 10.4914 15.5608C10.1638 14.9842 10 14.3486 10 13.6541C10 12.9726 10.1638 12.3502 10.4914 11.7867C10.819 11.2101 11.2646 10.7579 11.8281 10.4303C12.4047 10.1027 13.0403 9.9389 13.7348 9.9389C14.4163 9.9389 15.0388 10.1027 15.6023 10.4303C16.1789 10.7579 16.631 11.2101 16.9586 11.7867C17.2862 12.3502 17.45 12.9726 17.45 13.6541C17.45 14.3486 17.2862 14.9842 16.9586 15.5608C16.631 16.1243 16.1789 16.5699 15.6023 16.8975C15.0388 17.2382 14.4163 17.4086 13.7348 17.4086ZM14.1869 13.202V11.7473C14.1869 11.6163 14.1411 11.5049 14.0493 11.4132C13.9707 11.3214 13.8659 11.2756 13.7348 11.2756C13.6038 11.2756 13.4924 11.3214 13.4007 11.4132C13.322 11.5049 13.2827 11.6163 13.2827 11.7473V13.202H11.8281C11.6971 13.202 11.5857 13.2478 11.4939 13.3396C11.4153 13.4182 11.376 13.523 11.376 13.6541C11.376 13.7851 11.4153 13.8965 11.4939 13.9882C11.5857 14.08 11.6971 14.1258 11.8281 14.1258H13.2827V15.6001C13.2827 15.7181 13.322 15.8229 13.4007 15.9146C13.4924 16.0064 13.6038 16.0522 13.7348 16.0522C13.8659 16.0522 13.9707 16.0064 14.0493 15.9146C14.1411 15.8229 14.1869 15.7181 14.1869 15.6001V14.1258H15.6416C15.7595 14.1258 15.8578 14.08 15.9364 13.9882C16.0282 13.8965 16.074 13.7851 16.074 13.6541C16.074 13.523 16.0282 13.4182 15.9364 13.3396C15.8578 13.2478 15.7595 13.202 15.6416 13.202H14.1869Z" fill="currentColor"/>
<path d="M15.9826 6.50315C15.9826 7.2108 15.7139 7.83328 15.1766 8.37057L14.5431 9.00415C15.0373 9.08588 15.5096 9.24475 15.9552 9.48245L16.1202 9.3141C16.5133 8.92096 16.8082 8.48196 17.0047 7.99708C17.2144 7.51221 17.3193 7.01423 17.3193 6.50315C17.3193 6.00517 17.2144 5.5203 17.0047 5.04853C16.8082 4.56366 16.5199 4.1312 16.1398 3.75117C15.7598 3.37113 15.3273 3.08283 14.8425 2.88626C14.3707 2.67658 13.8793 2.57175 13.3682 2.57175C12.8571 2.57175 12.3591 2.67003 11.8743 2.8666C11.3894 3.06317 10.9504 3.35803 10.5572 3.75117L7.88389 6.40487C7.45143 6.82421 7.11726 7.30254 6.88138 7.83983C6.6586 8.36402 6.54721 8.89475 6.54721 9.43205C6.54721 10.4149 6.88138 11.2405 7.54972 11.9088C7.72008 12.0923 7.98217 12.2627 8.336 12.4199C8.59129 12.5239 8.84658 12.6006 9.10188 12.6501C9.18501 12.2531 9.31927 11.871 9.50557 11.5064C9.45667 11.4909 9.40754 11.4744 9.35816 11.4567C8.99123 11.3126 8.70948 11.1357 8.51291 10.926C8.10667 10.5328 7.90355 10.0414 7.90355 9.4517C7.90355 9.08477 7.98217 8.72439 8.13943 8.37057C8.29669 8.01674 8.53257 7.68257 8.84708 7.36806L11.5204 4.71436C12.0315 4.20328 12.6409 3.94774 13.3485 3.94774C14.0824 3.94774 14.718 4.20983 15.2553 4.73402C15.7401 5.21889 15.9826 5.8086 15.9826 6.50315Z" fill="currentColor"/>
<path d="M11.513 9.46418C11.4257 9.33736 11.3233 9.21526 11.2059 9.09788C11.0356 8.91441 10.7735 8.75716 10.4196 8.62611C10.0789 8.49506 9.7382 8.41643 9.39748 8.39022L10.3607 7.30909C10.6752 7.3353 11.0028 7.42703 11.3435 7.58429C11.6973 7.74154 11.9725 7.91846 12.1691 8.11503C12.4425 8.38841 12.665 8.68918 12.8367 9.01733C12.3754 9.10005 11.933 9.24853 11.513 9.46418Z" fill="currentColor"/>
<path d="M9.06681 14.4849L8.45394 15.0933C8.21806 15.3423 7.94286 15.5323 7.62835 15.6633C7.31383 15.7944 6.99277 15.8599 6.66515 15.8599C6.33754 15.8599 6.00992 15.7944 5.6823 15.6633C5.36779 15.5323 5.07949 15.3423 4.81739 15.0933C4.29321 14.556 4.03111 13.9335 4.03111 13.2259C4.03111 12.5051 4.28665 11.9023 4.79774 11.4174L5.52505 10.7098C5.42021 10.3952 5.36779 10.0152 5.36779 9.56965C5.36779 9.32066 5.38745 9.09132 5.42676 8.88165L3.83454 10.4935C3.4414 10.8867 3.14655 11.3257 2.94998 11.8105C2.75341 12.2954 2.65512 12.7999 2.65512 13.3241C2.65512 13.8221 2.75341 14.307 2.94998 14.7788C3.14655 15.2505 3.43485 15.6764 3.81488 16.0565C4.19492 16.4496 4.62737 16.751 5.11225 16.9607C5.59712 17.1573 6.0951 17.2555 6.60618 17.2555C7.11726 17.2555 7.61524 17.1573 8.10012 16.9607C8.58499 16.751 9.024 16.4496 9.41714 16.0565L9.55004 15.9236C9.31022 15.4692 9.14975 14.988 9.06681 14.4849Z" fill="currentColor"/>
</svg>
