<svg width="20" height="20" viewBox="0 0 20 20" fill="none" xmlns="http://www.w3.org/2000/svg">
<path d="M6.00478 18C4.56923 18 3.7793 17.248 3.7793 15.8125V11.1489H3.72613C3.05773 11.0046 2.69315 10.4653 2.69315 9.69054V7.69292C2.69315 6.76627 3.24762 6.18142 4.13629 6.18142H5.67058C5.26042 5.77886 5.02496 5.23199 5.02496 4.60156C5.02496 3.12804 6.19467 2.07986 7.66059 2.07986C8.73156 2.07986 9.60504 2.66471 9.99241 3.68251C10.3798 2.66471 11.2609 2.07986 12.3242 2.07986C13.7977 2.07986 14.9599 3.12804 14.9599 4.60156C14.9599 5.23199 14.7244 5.77886 14.3218 6.18142H15.8561C16.7828 6.18142 17.2993 6.76627 17.2993 7.69292V9.69054C17.2993 10.4653 16.9271 11.0046 16.2587 11.1489H16.2055V15.8125C16.2055 17.248 15.4156 18 13.9876 18H6.00478ZM9.36958 6.18142V5.15603C9.36958 4.0319 8.64041 3.34831 7.73655 3.34831C6.90105 3.34831 6.29341 3.83442 6.29341 4.66992C6.29341 5.50542 6.99219 6.18142 8.18468 6.18142H9.36958ZM10.6152 6.18142H11.8001C13.0002 6.18142 13.6914 5.50542 13.6914 4.66992C13.6914 3.83442 13.0838 3.34831 12.2483 3.34831C11.3444 3.34831 10.6152 4.0319 10.6152 5.15603V6.18142ZM9.31641 10.0551V7.32834H4.4477C4.06793 7.32834 3.91602 7.48025 3.91602 7.86002V9.51584C3.91602 9.89562 4.06793 10.0551 4.4477 10.0551H9.31641ZM10.6684 10.0551H15.5523C15.9321 10.0551 16.0764 9.89562 16.0764 9.51584V7.86002C16.0764 7.48025 15.9321 7.32834 15.5523 7.32834H10.6684V10.0551ZM9.31641 16.8607V11.202H5.00217V15.8733C5.00217 16.5037 5.35916 16.8607 5.98959 16.8607H9.31641ZM10.6684 16.8607H13.9952C14.6257 16.8607 14.9826 16.5037 14.9826 15.8733V11.202H10.6684V16.8607Z" fill="currentcolor"/>
</svg>
