<svg width="20" height="20" viewBox="0 0 20 20" fill="none" xmlns="http://www.w3.org/2000/svg">
<path d="M9.96752 17.4718C8.57842 17.4718 7.30727 17.1376 6.15406 16.4693C5.00085 15.8009 4.08352 14.8967 3.40207 13.7566C2.73374 12.6034 2.39957 11.3322 2.39957 9.94314C2.39957 8.54094 2.73374 7.26323 3.40207 6.11002C4.08352 4.9437 5.00085 4.02638 6.15406 3.35804C7.30727 2.6897 8.57842 2.35553 9.96752 2.35553C11.3697 2.35553 12.654 2.6897 13.8203 3.35804C14.9866 4.02638 15.9039 4.9437 16.5723 6.11002C17.2537 7.26323 17.5944 8.54094 17.5944 9.94314C17.5944 11.3322 17.2537 12.6034 16.5723 13.7566C15.9039 14.8967 14.9866 15.8009 13.8203 16.4693C12.654 17.1376 11.3697 17.4718 9.96752 17.4718ZM3.81487 10.5918C3.94592 11.9023 4.43079 13.0424 5.26949 14.0121C6.10819 14.9819 7.16312 15.624 8.43427 15.9385C7.32037 14.3004 6.70445 12.5182 6.58651 10.5918H3.81487ZM6.58651 9.29446C6.69135 7.38117 7.30727 5.57928 8.43427 3.88878C7.17622 4.20329 6.1213 4.85197 5.26949 5.83482C4.43079 6.81767 3.94592 7.97089 3.81487 9.29446H6.58651ZM12.0708 9.29446C12.0053 8.2985 11.7956 7.32876 11.4418 6.38522C11.088 5.44168 10.6031 4.55712 9.98718 3.73152C9.35815 4.55712 8.87328 5.44168 8.53256 6.38522C8.19183 7.32876 7.98871 8.2985 7.92319 9.29446H12.0708ZM7.92319 10.5918C7.98871 11.5747 8.19183 12.5379 8.53256 13.4814C8.88638 14.4118 9.37781 15.2898 10.0068 16.1154C10.6228 15.2898 11.1011 14.4118 11.4418 13.4814C11.7825 12.5379 11.9856 11.5747 12.0512 10.5918H7.92319ZM11.5597 3.90844C12.6736 5.55962 13.2896 7.35497 13.4075 9.29446H16.1988C16.0677 7.98399 15.5763 6.83733 14.7245 5.85448C13.8727 4.87163 12.8178 4.22295 11.5597 3.90844ZM11.5597 15.9189C12.8178 15.6175 13.8727 14.9819 14.7245 14.0121C15.5763 13.0293 16.0677 11.8892 16.1988 10.5918H13.4075C13.342 11.5223 13.152 12.4396 12.8374 13.3438C12.536 14.248 12.1101 15.1064 11.5597 15.9189Z" fill="currentColor"/>
</svg>
