<svg width="16" height="16" viewBox="0 0 16 16" fill="none" xmlns="http://www.w3.org/2000/svg">
<path d="M3.9998 6.55557C4.46612 6.55557 4.84424 6.9338 4.84434 7.4001V13.0892C4.84423 13.5554 4.46611 13.9337 3.9998 13.9337H3.64434C3.17811 13.9336 2.79991 13.5554 2.7998 13.0892V7.4001C2.7999 6.93386 3.1781 6.55566 3.64434 6.55557H3.9998Z" fill="currentColor" fill-opacity="0.7"/>
<path d="M8.72559 1.6665C9.89114 1.6666 10.702 2.82501 10.3037 3.92041L9.54121 6.01885C9.44644 6.27962 9.63957 6.5554 9.91699 6.55557H12.5146C13.804 6.55557 14.7234 7.80619 14.3389 9.03682L13.2279 12.5923C12.9786 13.3901 12.2396 13.9337 11.4037 13.9337H5.95527C5.68545 13.9335 5.46626 13.7145 5.46621 13.4446V7.14228C5.46622 6.82265 5.5468 6.50807 5.6998 6.22744L7.92949 2.13916C8.0883 1.84801 8.39395 1.66659 8.72559 1.6665Z" fill="currentColor" fill-opacity="0.7"/>
</svg>
