<svg width="14" height="14" viewBox="0 0 14 14" fill="none" xmlns="http://www.w3.org/2000/svg">
<path fill-rule="evenodd" clip-rule="evenodd" d="M7.43157 1.54788C8.60792 1.548 9.42633 2.71746 9.02431 3.82302L8.43266 5.4497H10.4556C11.7239 5.4497 12.6281 6.6799 12.25 7.89042L11.3632 10.7281C11.1179 11.5129 10.3911 12.0479 9.56885 12.0479H4.47542V12.0209C4.39543 12.0381 4.31254 12.0479 4.2274 12.0479H3.51798C2.8715 12.0479 2.34715 11.5235 2.34715 10.8771V6.62052C2.34715 5.97405 2.8715 5.4497 3.51798 5.4497H4.2274C4.36979 5.4497 4.50574 5.47655 4.63199 5.52314C4.65422 5.47209 4.67865 5.4219 4.70543 5.3728L6.48452 2.10973C6.67347 1.76341 7.03706 1.54788 7.43157 1.54788ZM3.51798 6.3725C3.38085 6.3725 3.26996 6.48339 3.26996 6.62052V10.8771C3.26996 11.0142 3.38084 11.1251 3.51798 11.1251H4.2274C4.36453 11.1251 4.47542 11.0142 4.47542 10.8771V6.62052C4.47542 6.48339 4.36453 6.3725 4.2274 6.3725H3.51798ZM7.43157 2.47068C7.37451 2.47068 7.32173 2.50164 7.2944 2.55174L5.51461 5.81411C5.4379 5.95474 5.39825 6.11255 5.39822 6.27274V11.1251H9.56885C9.98774 11.1251 10.3584 10.8529 10.4833 10.4531L11.3701 7.61538C11.5626 6.99875 11.1017 6.3725 10.4556 6.3725H8.38209C7.76676 6.37242 7.33837 5.76058 7.54866 5.18228L8.15762 3.50779C8.34093 3.00371 7.96791 2.4708 7.43157 2.47068Z" fill="currentcolor"/>
</svg>