<svg width="20" height="20" viewBox="0 0 20 20" fill="none" xmlns="http://www.w3.org/2000/svg">
<path d="M17.5025 10.1763C17.5025 9.65622 17.4603 9.13331 17.3704 8.62164H10.1536V11.5679H14.2863C14.1148 12.5182 13.5638 13.3588 12.7569 13.8929V15.8047H15.2225C16.6703 14.4721 17.5025 12.5041 17.5025 10.1763Z" fill="#4285F4"/>
<path d="M10.1536 17.6517C12.2171 17.6517 13.9574 16.9741 15.2253 15.8046L12.7597 13.8929C12.0737 14.3596 11.1882 14.6238 10.1564 14.6238C8.16034 14.6238 6.46791 13.2772 5.86065 11.4667H3.31638V13.4374C4.61522 16.0211 7.26071 17.6517 10.1536 17.6517Z" fill="#34A853"/>
<path d="M5.85785 11.4667C5.53735 10.5164 5.53735 9.48747 5.85785 8.53723V6.56647H3.31638C2.2312 8.7284 2.2312 11.2755 3.31638 13.4374L5.85785 11.4667Z" fill="#FBBC04"/>
<path d="M10.1536 5.37734C11.2444 5.36048 12.2987 5.77093 13.0886 6.52438L15.2731 4.33995C13.8899 3.04111 12.0541 2.32702 10.1536 2.34951C7.26071 2.34951 4.61522 3.9801 3.31638 6.56655L5.85784 8.53731C6.46228 6.72398 8.15753 5.37734 10.1536 5.37734Z" fill="#EA4335"/>
</svg>
