<svg width="20" height="20" viewBox="0 0 20 20" fill="none" xmlns="http://www.w3.org/2000/svg">
<path d="M5.01394 4.36053C4.80426 4.36053 4.6339 4.42605 4.50286 4.5571C4.38491 4.68815 4.32594 4.85196 4.32594 5.04853L4.30629 7.03389C4.30629 7.23046 4.37181 7.39426 4.50286 7.52531C4.6339 7.64325 4.80426 7.70222 5.01394 7.70222H7.07793C7.2745 7.70222 7.4383 7.64325 7.56935 7.52531C7.7004 7.39426 7.76592 7.23046 7.76592 7.03389V5.04853C7.76592 4.85196 7.7004 4.68815 7.56935 4.5571C7.4383 4.42605 7.2745 4.36053 7.07793 4.36053H5.01394ZM2.94995 4.67504C2.94995 4.17707 3.10065 3.77737 3.40206 3.47596C3.71657 3.16145 4.12282 3.0042 4.6208 3.0042H7.43175C7.92973 3.0042 8.33597 3.16145 8.65049 3.47596C8.965 3.77737 9.12226 4.17707 9.12226 4.67504V7.38771C9.12226 7.89879 8.965 8.31159 8.65049 8.6261C8.34908 8.92751 7.94939 9.07822 7.45141 9.07822H4.64046C4.14248 9.07822 3.73623 8.92751 3.42172 8.6261C3.12031 8.31159 2.96961 7.90535 2.96961 7.40737L2.94995 4.67504ZM12.9554 4.36053C12.7457 4.36053 12.5753 4.42605 12.4443 4.5571C12.3263 4.68815 12.2674 4.85196 12.2674 5.04853L12.2477 7.03389C12.2477 7.23046 12.3132 7.39426 12.4443 7.52531C12.5753 7.64325 12.7457 7.70222 12.9554 7.70222H15.0194C15.2159 7.70222 15.3732 7.64325 15.4911 7.52531C15.6222 7.39426 15.6877 7.23046 15.6877 7.03389V5.04853C15.6877 4.85196 15.6222 4.68815 15.4911 4.5571C15.3732 4.42605 15.2159 4.36053 15.0194 4.36053H12.9554ZM10.911 4.67504C10.911 4.17707 11.0617 3.77737 11.3632 3.47596C11.6646 3.16145 12.0643 3.0042 12.5622 3.0042H15.3732C15.8712 3.0042 16.2774 3.16145 16.5919 3.47596C16.9064 3.77737 17.0571 4.17707 17.044 4.67504V7.38771C17.044 7.89879 16.8933 8.31159 16.5919 8.6261C16.2905 8.92751 15.8908 9.07822 15.3928 9.07822H12.5819C12.0708 9.07822 11.6646 8.92751 11.3632 8.6261C11.0617 8.31159 10.911 7.90535 10.911 7.40737V4.67504ZM5.01394 12.1447C4.80426 12.1447 4.6339 12.2102 4.50286 12.3413C4.38491 12.4592 4.32594 12.6165 4.32594 12.813L4.30629 14.8377C4.30629 15.0474 4.37181 15.2178 4.50286 15.3488C4.6339 15.4667 4.80426 15.5257 5.01394 15.5257H7.07793C7.2745 15.5257 7.4383 15.4667 7.56935 15.3488C7.7004 15.2178 7.76592 15.0474 7.76592 14.8377V12.813C7.76592 12.6165 7.7004 12.4592 7.56935 12.3413C7.4383 12.2102 7.2745 12.1447 7.07793 12.1447H5.01394ZM2.94995 12.4592C2.94995 11.9612 3.10065 11.555 3.40206 11.2405C3.71657 10.926 4.12282 10.7687 4.6208 10.7687H7.43175C7.92973 10.7687 8.33597 10.926 8.65049 11.2405C8.965 11.5419 9.12226 11.9416 9.12226 12.4396V15.2112C9.12226 15.7092 8.965 16.1154 8.65049 16.4299C8.34908 16.7313 7.94939 16.8821 7.45141 16.8821H4.64046C4.14248 16.8821 3.73623 16.7313 3.42172 16.4299C3.12031 16.1285 2.96961 15.7288 2.96961 15.2309L2.94995 12.4592ZM12.9554 12.1447C12.7457 12.1447 12.5753 12.2102 12.4443 12.3413C12.3263 12.4592 12.2674 12.6165 12.2674 12.813L12.2477 14.8377C12.2477 15.0474 12.3132 15.2178 12.4443 15.3488C12.5753 15.4667 12.7457 15.5257 12.9554 15.5257H15.0194C15.2159 15.5257 15.3732 15.4667 15.4911 15.3488C15.6222 15.2178 15.6877 15.0474 15.6877 14.8377V12.813C15.6877 12.6165 15.6222 12.4592 15.4911 12.3413C15.3732 12.2102 15.2159 12.1447 15.0194 12.1447H12.9554ZM10.911 12.4592C10.911 11.9612 11.0617 11.555 11.3632 11.2405C11.6777 10.926 12.0774 10.7687 12.5622 10.7687H15.3732C15.8712 10.7687 16.2774 10.926 16.5919 11.2405C16.9064 11.5419 17.0571 11.9416 17.044 12.4396V15.2112C17.044 15.7092 16.8933 16.1154 16.5919 16.4299C16.2905 16.7313 15.8908 16.8821 15.3928 16.8821H12.5819C12.0708 16.8821 11.6646 16.7313 11.3632 16.4299C11.0617 16.1285 10.911 15.7288 10.911 15.2309V12.4592Z" fill="currentColor"/>
</svg>
