<svg width="20" height="20" viewBox="0 0 20 20" fill="none" xmlns="http://www.w3.org/2000/svg">
<path d="M15.9941 4.6725C16.183 4.6725 16.3388 4.73389 16.4616 4.85667C16.5938 4.97945 16.6599 5.13056 16.6599 5.31C16.6599 5.48945 16.5938 5.64528 16.4616 5.7775C16.3294 5.90028 16.1735 5.96167 15.9941 5.96167H3.99493C3.81548 5.96167 3.65965 5.90028 3.52743 5.7775C3.40465 5.65472 3.34326 5.50361 3.34326 5.32417C3.34326 5.14472 3.40465 4.99361 3.52743 4.87083C3.65965 4.73861 3.81548 4.6725 3.99493 4.6725H15.9941ZM15.9941 9.2625C16.1735 9.25306 16.3294 9.31445 16.4616 9.44667C16.5938 9.56945 16.6599 9.72056 16.6599 9.9C16.6599 10.0794 16.5938 10.2353 16.4616 10.3675C16.3388 10.4903 16.183 10.5517 15.9941 10.5517L3.99493 10.5375C3.81548 10.5375 3.65965 10.4761 3.52743 10.3533C3.40465 10.2211 3.34326 10.0653 3.34326 9.88583C3.34326 9.70639 3.40465 9.55528 3.52743 9.4325C3.65965 9.30028 3.81548 9.23417 3.99493 9.23417L15.9941 9.2625ZM15.9941 13.8242C16.1735 13.8242 16.3294 13.8903 16.4616 14.0225C16.5938 14.1453 16.6599 14.2964 16.6599 14.4758C16.6599 14.6553 16.5938 14.8064 16.4616 14.9292C16.3388 15.0519 16.183 15.1133 15.9941 15.1133H3.99493C3.81548 15.1133 3.65965 15.0519 3.52743 14.9292C3.40465 14.8064 3.34326 14.6553 3.34326 14.4758C3.34326 14.2964 3.40465 14.1453 3.52743 14.0225C3.65965 13.8903 3.81548 13.8242 3.99493 13.8242H15.9941Z" fill="currentColor"/>
</svg>
