<svg width="20" height="20" viewBox="0 0 20 20" fill="none" xmlns="http://www.w3.org/2000/svg">
<path fill-rule="evenodd" clip-rule="evenodd" d="M9.43959 2.94736C9.8221 2.68063 10.3324 2.68048 10.7148 2.94736L10.7942 3.00839L14.3663 6.00888V4.98959L14.379 4.86345C14.4373 4.57935 14.6888 4.36589 14.9901 4.36581H15.4808L15.607 4.37843C15.8913 4.43659 16.1054 4.68808 16.1054 4.98959V7.44606H16.0774L17.8482 8.93369C18.1118 9.15538 18.1463 9.54924 17.9247 9.813C17.7031 10.0767 17.3092 10.1106 17.0454 9.88909L16.1054 9.09929V14.9143C16.1053 16.0186 15.2098 16.9138 14.1055 16.9138H6.04847C4.94426 16.9137 4.0487 16.0185 4.04856 14.9143V9.09889L3.10821 9.88909C2.84435 10.1105 2.45047 10.0768 2.22889 9.813C2.0074 9.54915 2.04244 9.1553 2.30621 8.93369L9.35902 3.00839L9.43959 2.94736ZM9.51039 11.7356C8.89496 11.7357 8.39592 12.2347 8.39589 12.8501V15.2488C8.39589 15.4789 8.58251 15.6654 8.81255 15.6655H11.3414C11.5716 15.6655 11.7581 15.4789 11.7581 15.2488V12.8501C11.7581 12.2346 11.2583 11.7356 10.6428 11.7356H9.51039Z" fill="currentcolor"/>
</svg>
