<svg width="20" height="20" viewBox="0 0 20 20" fill="none" xmlns="http://www.w3.org/2000/svg">
<path d="M14.9211 10.5132C14.9211 10.3166 14.9866 10.1594 15.1177 10.0414C15.2487 9.92349 15.4191 9.86452 15.6287 9.86452C15.8122 9.86452 15.9629 9.92349 16.0808 10.0414C16.2119 10.1594 16.2774 10.3166 16.2774 10.5132V14.4839C16.2774 15.2047 16.0546 15.7878 15.6091 16.2334C15.1766 16.6658 14.6066 16.8821 13.8989 16.8821H5.34811C4.64046 16.8821 4.07041 16.6658 3.63795 16.2334C3.2055 15.7878 2.98927 15.2047 2.98927 14.4839V6.14934C2.98927 5.42858 3.2055 4.85197 3.63795 4.41952C4.07041 3.97396 4.64046 3.75118 5.34811 3.75118H9.55472C9.75129 3.75118 9.90854 3.81671 10.0265 3.94775C10.1575 4.06569 10.2231 4.22295 10.2231 4.41952C10.2231 4.6292 10.1575 4.79956 10.0265 4.9306C9.90854 5.04855 9.75129 5.10752 9.55472 5.10752H5.48571C5.1581 5.10752 4.8829 5.21235 4.66012 5.42203C4.45045 5.6317 4.34561 5.9069 4.34561 6.24762V14.3856C4.34561 14.7132 4.45045 14.9819 4.66012 15.1916C4.86979 15.4012 5.14499 15.5061 5.48571 15.5061H13.781C14.1217 15.5061 14.3969 15.4012 14.6066 15.1916C14.8162 14.9819 14.9211 14.7132 14.9211 14.3856V10.5132ZM17.0047 7.5843C17.0047 7.79398 16.9392 7.96434 16.8082 8.09538C16.6771 8.22643 16.5067 8.29195 16.2971 8.29195C16.0874 8.29195 15.917 8.22643 15.786 8.09538C15.6681 7.96434 15.6091 7.79398 15.6091 7.5843L15.6877 5.04855L14.6655 6.20831L9.84957 11.0636C9.67921 11.234 9.49575 11.3191 9.29918 11.3191C9.14192 11.3191 8.99122 11.2471 8.84707 11.1029C8.72912 10.9588 8.67015 10.7949 8.67015 10.6115C8.67015 10.4411 8.72912 10.2773 8.84707 10.1201L13.7023 5.24512L14.7638 4.30158L12.464 4.38021C12.2674 4.38021 12.1036 4.31468 11.9725 4.18364C11.8546 4.05259 11.7956 3.88878 11.7956 3.69221C11.7956 3.48254 11.8546 3.31218 11.9725 3.18113C12.1036 3.05008 12.2674 2.98456 12.464 2.98456H15.5698C16.0022 2.98456 16.3495 3.11561 16.6116 3.3777C16.8737 3.63979 17.0047 3.98051 17.0047 4.39986V7.5843Z" fill="currentColor"/>
</svg>
