<svg width="20" height="20" viewBox="0 0 20 20" fill="none" xmlns="http://www.w3.org/2000/svg">
<path fill-rule="evenodd" clip-rule="evenodd" d="M10.6167 3.01143C10.218 2.86902 9.78221 2.86902 9.38346 3.01143L5.2168 4.49952C4.48714 4.76012 4.00008 5.45126 4.00008 6.22605V12.7015C4.00008 13.2936 4.28602 13.8492 4.76781 14.1934L8.93448 17.1696C9.57192 17.6249 10.4282 17.6249 11.0657 17.1696L15.2324 14.1934C15.7141 13.8492 16.0001 13.2936 16.0001 12.7015V6.22605C16.0001 5.45126 15.513 4.76012 14.7834 4.49952L10.6167 3.01143ZM8.93502 1.75577C9.62376 1.50979 10.3764 1.50979 11.0651 1.75577L15.2318 3.24387C16.4921 3.69398 17.3334 4.88777 17.3334 6.22605V12.7015C17.3334 13.7242 16.8395 14.6839 16.0073 15.2783L11.8407 18.2545C10.7396 19.041 9.26054 19.041 8.1595 18.2545L3.99283 15.2783C3.16064 14.6839 2.66675 13.7242 2.66675 12.7015V6.22605C2.66675 4.88777 3.50804 3.69398 4.76835 3.24387L8.93502 1.75577Z" fill="currentColor"/>
<path d="M12.9672 6.5C12.7444 6.5 12.5609 6.61794 12.4168 6.85383L9.50752 12.2595C9.46821 12.3512 9.41579 12.3578 9.35027 12.2792L7.64011 10.4707C7.49596 10.3266 7.3387 10.2545 7.16834 10.2545C6.97177 10.2545 6.79486 10.3528 6.6376 10.5493C6.54587 10.6542 6.5 10.7852 6.5 10.9425C6.5 11.1391 6.57208 11.3094 6.71623 11.4536L8.72124 13.4782C8.99644 13.7665 9.28474 13.9107 9.58615 13.9107C9.76962 13.9107 9.93998 13.8517 10.0972 13.7338C10.2676 13.6158 10.4117 13.4455 10.5297 13.2227L13.6158 7.52216C13.6814 7.39112 13.7141 7.27973 13.7141 7.18799C13.7141 6.95211 13.6158 6.7752 13.4193 6.65726C13.2751 6.55242 13.1244 6.5 12.9672 6.5Z" fill="currentColor"/>
</svg>
