<svg xmlns="http://www.w3.org/2000/svg" width="20" height="20" viewBox="0 0 20 20" fill="none">
  <path d="M7.84895 3.99177C7.75614 4.03302 7.64271 4.05364 7.50866 4.05364C7.26118 4.05364 7.07557 3.96599 6.95183 3.79069C6.85902 3.63602 6.81262 3.4865 6.81262 3.34213C6.81262 3.09465 6.9312 2.90904 7.16837 2.7853C7.68396 2.53782 8.41094 2.35221 9.3493 2.22847C9.74115 2.20784 10.1381 2.27487 10.5403 2.42954C10.9528 2.58422 11.2879 2.79561 11.5457 3.06372L16.8975 8.52377C17.1656 8.80219 17.377 9.14763 17.5317 9.5601C17.6863 9.97257 17.7585 10.3696 17.7482 10.7511C17.6141 12.0504 17.2171 13.195 16.5572 14.1849C15.8972 15.1748 15.0259 15.9431 13.9432 16.4896C12.8708 17.0464 11.6591 17.3248 10.3083 17.3248C8.84403 17.3248 7.53444 17.0052 6.37953 16.3658C5.22461 15.7368 4.32234 14.8552 3.6727 13.7209C3.02306 12.5866 2.69824 11.2976 2.69824 9.85398C2.69824 9.64775 2.76527 9.48276 2.89932 9.35902C3.03337 9.23528 3.20867 9.17341 3.42522 9.17341C3.62114 9.17341 3.78097 9.24044 3.90471 9.37449C4.03877 9.49823 4.10579 9.65806 4.10579 9.85398C4.10579 11.0192 4.36874 12.0658 4.89464 12.9939C5.42054 13.9116 6.15267 14.6283 7.09103 15.1439C8.03971 15.6595 9.11213 15.9173 10.3083 15.9173C11.3498 15.9173 12.2985 15.7007 13.1543 15.2676C14.0102 14.8345 14.7166 14.2313 15.2734 13.4579C15.8302 12.6742 16.186 11.7771 16.3406 10.7666C15.9385 10.8594 15.526 10.9058 15.1032 10.9058C14.3505 10.9058 13.608 10.7717 12.8759 10.5036C12.1438 10.2252 11.489 9.83336 10.9115 9.32809C10.3444 8.82281 9.90098 8.18349 9.58131 7.41011C9.27196 6.62642 9.11729 5.79632 9.11729 4.91983C9.11729 4.49704 9.15854 4.05364 9.24103 3.58961C8.69451 3.68242 8.23048 3.81647 7.84895 3.99177ZM2.91479 6.99248C2.81167 6.96155 2.76011 6.90483 2.76011 6.82234C2.76011 6.73984 2.81167 6.68829 2.91479 6.66766C3.43037 6.59548 3.848 6.4408 4.16766 6.20363C4.48733 5.96647 4.73996 5.62618 4.92557 5.18277C5.11118 4.72906 5.25039 4.12582 5.3432 3.37307C5.35351 3.3112 5.36898 3.26995 5.3896 3.24933C5.42054 3.21839 5.46694 3.20292 5.52881 3.20292C5.58037 3.20292 5.61646 3.21839 5.63708 3.24933C5.65771 3.26995 5.67317 3.3112 5.68348 3.37307C5.76598 4.11551 5.90003 4.71359 6.08564 5.16731C6.27125 5.61071 6.52389 5.951 6.84355 6.18817C7.17353 6.42534 7.60146 6.58517 8.12736 6.66766C8.18923 6.68829 8.23048 6.70891 8.2511 6.72953C8.27173 6.75016 8.28204 6.78109 8.28204 6.82234C8.28204 6.90483 8.23048 6.96155 8.12736 6.99248C7.61178 7.06466 7.19415 7.21934 6.87449 7.45651C6.55483 7.68337 6.30219 8.02365 6.11658 8.47737C5.93097 8.92077 5.7866 9.51885 5.68348 10.2716C5.67317 10.3335 5.65771 10.3799 5.63708 10.4108C5.61646 10.4418 5.58037 10.4572 5.52881 10.4572C5.46694 10.4572 5.42054 10.4418 5.3896 10.4108C5.36898 10.3696 5.35351 10.3025 5.3432 10.2097C5.24008 9.48792 5.09572 8.90531 4.91011 8.4619C4.7245 8.0185 4.47186 7.68337 4.15219 7.45651C3.83253 7.22965 3.42006 7.07498 2.91479 6.99248ZM10.5094 3.89896C10.4475 4.23925 10.4166 4.57954 10.4166 4.91983C10.4166 5.61071 10.5403 6.26551 10.7878 6.88421C11.0353 7.4926 11.391 7.99787 11.8551 8.40003C12.2881 8.80219 12.7883 9.11154 13.3554 9.32809C13.9226 9.54463 14.4949 9.65291 15.0723 9.65291C15.4126 9.65291 15.7271 9.61681 16.0158 9.54463L10.5094 3.89896Z" fill="currentcolor"/>
</svg>