<svg width="20" height="20" viewBox="0 0 20 20" fill="none" xmlns="http://www.w3.org/2000/svg">
<g clip-path="url(#clip0_6880_1368)">
<path fill-rule="evenodd" clip-rule="evenodd" d="M16 14.9167C16 15.2366 15.8915 15.5255 15.7239 15.7234C15.5592 15.9179 15.362 16 15.1852 16L4.81481 16C4.63795 16 4.44075 15.9179 4.27607 15.7234C4.10855 15.5255 4 15.2366 4 14.9167L4 10.6667C4 10.2064 4.37309 9.83334 4.83333 9.83334L5 9.83334C5.36819 9.83334 5.66667 9.53487 5.66667 9.16668C5.66667 8.79849 5.36819 8.50001 5 8.50001L4.83333 8.50001C3.63671 8.50001 2.66667 9.47006 2.66667 10.6667L2.66667 14.9167C2.66667 15.525 2.87029 16.1264 3.25842 16.5849C3.6494 17.0467 4.20585 17.3333 4.81481 17.3333L15.1852 17.3333C15.7941 17.3333 16.3506 17.0467 16.7416 16.5849C17.1297 16.1264 17.3333 15.525 17.3333 14.9167L17.3333 10.6667C17.3333 9.47006 16.3633 8.50001 15.1667 8.50001L15 8.50001C14.6318 8.50001 14.3333 8.79849 14.3333 9.16668C14.3333 9.53487 14.6318 9.83334 15 9.83334L15.1667 9.83334C15.6269 9.83334 16 10.2064 16 10.6667L16 14.9167Z" fill="currentColor"/>
<path fill-rule="evenodd" clip-rule="evenodd" d="M13.7929 6.707C14.0468 6.96084 14.0468 7.3724 13.7929 7.62624L10.4596 10.9596C10.3377 11.0815 10.1724 11.15 9.99998 11.15C9.82759 11.15 9.66226 11.0815 9.54036 10.9596L6.20703 7.62624C5.95319 7.3724 5.95319 6.96084 6.20703 6.707C6.46087 6.45316 6.87243 6.45316 7.12627 6.707L9.99998 9.58072L12.8737 6.707C13.1275 6.45316 13.5391 6.45316 13.7929 6.707Z" fill="currentColor"/>
<path fill-rule="evenodd" clip-rule="evenodd" d="M10.0001 1.84998C10.3591 1.84998 10.6501 2.14099 10.6501 2.49998L10.6501 10.5C10.6501 10.859 10.359 11.15 9.99998 11.15C9.641 11.15 9.35007 10.859 9.35007 10.5L9.35007 2.49998C9.35007 2.14099 9.64108 1.84998 10.0001 1.84998Z" fill="currentColor"/>
</g>
<defs>
<clipPath id="clip0_6880_1368">
<rect width="20" height="20" fill="white"/>
</clipPath>
</defs>
</svg>
