<svg width="20" height="20" viewBox="0 0 20 20" fill="none" xmlns="http://www.w3.org/2000/svg">
<path d="M9.94786 7.48601C9.68577 7.48601 9.46299 7.39428 9.27952 7.21081C9.10916 7.01424 9.02398 6.77836 9.02398 6.50316C9.02398 6.24107 9.11572 6.01829 9.29918 5.83482C9.49575 5.65136 9.72508 5.55962 9.98718 5.55962C10.2624 5.55962 10.4917 5.65136 10.6752 5.83482C10.8586 6.01829 10.9504 6.24107 10.9504 6.50316C10.9504 6.79146 10.8521 7.02735 10.6555 7.21081C10.472 7.39428 10.2362 7.48601 9.94786 7.48601ZM9.31884 9.29446C9.31884 9.11099 9.38436 8.95374 9.51541 8.82269C9.64645 8.67854 9.80371 8.60646 9.98718 8.60646C10.1837 8.60646 10.3476 8.67854 10.4786 8.82269C10.6096 8.95374 10.6752 9.11099 10.6752 9.29446V13.678C10.6752 13.8614 10.6031 14.0187 10.4589 14.1497C10.3279 14.2808 10.1706 14.3463 9.98718 14.3463C9.80371 14.3463 9.64645 14.2808 9.51541 14.1497C9.38436 14.0187 9.31884 13.8614 9.31884 13.678V9.29446ZM9.96752 17.4718C8.57842 17.4718 7.30727 17.1376 6.15406 16.4693C5.00085 15.8009 4.08352 14.8967 3.40207 13.7566C2.73374 12.6034 2.39957 11.3322 2.39957 9.94314C2.39957 8.54094 2.73374 7.26323 3.40207 6.11002C4.08352 4.9437 5.00085 4.02638 6.15406 3.35804C7.30727 2.6897 8.57842 2.35553 9.96752 2.35553C11.3697 2.35553 12.654 2.6897 13.8203 3.35804C14.9866 4.02638 15.9039 4.9437 16.5723 6.11002C17.2537 7.26323 17.5944 8.54094 17.5944 9.94314C17.5944 11.3322 17.2537 12.6034 16.5723 13.7566C15.9039 14.8967 14.9866 15.8009 13.8203 16.4693C12.654 17.1376 11.3697 17.4718 9.96752 17.4718ZM9.96752 16.1154C11.1207 16.1154 12.1757 15.8468 13.1323 15.3095C14.0889 14.7591 14.8425 14.0121 15.3929 13.0686C15.9564 12.1251 16.2381 11.0832 16.2381 9.94314C16.2381 8.80303 15.9564 7.75466 15.3929 6.79802C14.8425 5.84138 14.0889 5.08786 13.1323 4.53746C12.1757 3.98706 11.1207 3.71186 9.96752 3.71186C8.82741 3.71186 7.78559 3.98706 6.84205 4.53746C5.89852 5.08786 5.15155 5.84138 4.60115 6.79802C4.05076 7.75466 3.77556 8.80303 3.77556 9.94314C3.77556 11.0832 4.05076 12.1251 4.60115 13.0686C5.15155 14.0121 5.89852 14.7591 6.84205 15.3095C7.78559 15.8468 8.82741 16.1154 9.96752 16.1154Z" fill="currentColor"/>
</svg>
