<svg width="20" height="20" viewBox="0 0 20 20" fill="none" xmlns="http://www.w3.org/2000/svg">
<path fill-rule="evenodd" clip-rule="evenodd" d="M6.15406 16.4693C7.30727 17.1376 8.57842 17.4718 9.96752 17.4718C11.3697 17.4718 12.654 17.1376 13.8203 16.4693C14.9866 15.8009 15.9039 14.8967 16.5723 13.7566C17.2537 12.6034 17.5944 11.3322 17.5944 9.94314C17.5944 8.54094 17.2537 7.26323 16.5723 6.11002C15.9039 4.9437 14.9866 4.02638 13.8203 3.35804C12.654 2.6897 11.3697 2.35553 9.96752 2.35553C8.57842 2.35553 7.30727 2.6897 6.15406 3.35804C5.00085 4.02638 4.08352 4.9437 3.40207 6.11002C2.73374 7.26323 2.39957 8.54094 2.39957 9.94314C2.39957 11.3322 2.73374 12.6034 3.40207 13.7566C4.08352 14.8967 5.00085 15.8009 6.15406 16.4693ZM9.94787 7.48602C9.68577 7.48602 9.46299 7.39429 9.27953 7.21082C9.10917 7.01425 9.02399 6.77837 9.02399 6.50317C9.02399 6.24107 9.11572 6.0183 9.29918 5.83483C9.49575 5.65136 9.72509 5.55963 9.98718 5.55963C10.2624 5.55963 10.4917 5.65136 10.6752 5.83483C10.8586 6.0183 10.9504 6.24107 10.9504 6.50317C10.9504 6.79147 10.8521 7.02736 10.6555 7.21082C10.4721 7.39429 10.2362 7.48602 9.94787 7.48602ZM9.31884 9.29446C9.31884 9.111 9.38436 8.95374 9.51541 8.8227C9.64646 8.67855 9.80371 8.60647 9.98718 8.60647C10.1837 8.60647 10.3476 8.67855 10.4786 8.8227C10.6097 8.95374 10.6752 9.111 10.6752 9.29446V13.678C10.6752 13.8614 10.6031 14.0187 10.4589 14.1497C10.3279 14.2808 10.1706 14.3463 9.98718 14.3463C9.80371 14.3463 9.64646 14.2808 9.51541 14.1497C9.38436 14.0187 9.31884 13.8614 9.31884 13.678V9.29446Z" fill="currentColor"/>
</svg>
