<svg width="24" height="24" viewBox="0 0 24 24" fill="none" xmlns="http://www.w3.org/2000/svg">
<g id="icon-Instagram-fill">
<path id="Subtract" fill-rule="evenodd" clip-rule="evenodd" d="M21.94 7.88C21.9206 7.0503 21.7652 6.2294 21.48 5.45C21.2257 4.78313 20.83 4.17928 20.32 3.68C19.8248 3.16743 19.2196 2.77418 18.55 2.53C17.7727 2.23616 16.9508 2.07721 16.12 2.06C15.06 2 14.72 2 12 2C9.28 2 8.94 2 7.88 2.06C7.04915 2.07721 6.22734 2.23616 5.45 2.53C4.78168 2.77665 4.17693 3.16956 3.68 3.68C3.16743 4.17518 2.77418 4.78044 2.53 5.45C2.23616 6.22734 2.07721 7.04915 2.06 7.88C2 8.94 2 9.28 2 12C2 14.72 2 15.06 2.06 16.12C2.07721 16.9508 2.23616 17.7727 2.53 18.55C2.77418 19.2196 3.16743 19.8248 3.68 20.32C4.17693 20.8304 4.78168 21.2234 5.45 21.47C6.22734 21.7638 7.04915 21.9228 7.88 21.94C8.94 22 9.28 22 12 22C14.72 22 15.06 22 16.12 21.94C16.9508 21.9228 17.7727 21.7638 18.55 21.47C19.2196 21.2258 19.8248 20.8326 20.32 20.32C20.8322 19.8226 21.2283 19.2182 21.48 18.55C21.7652 17.7706 21.9206 16.9497 21.94 16.12C21.94 15.7127 21.9489 15.4116 21.9598 15.041L21.9598 15.0409V15.0408C21.9773 14.447 22 13.6746 22 12C22 9.28 22 8.94 21.94 7.88ZM12 6.87C10.9858 6.87198 9.99497 7.17453 9.15266 7.73942C8.31035 8.30431 7.65439 9.1062 7.26764 10.0438C6.8809 10.9813 6.78073 12.0125 6.9798 13.0069C7.17887 14.0014 7.66824 14.9145 8.38608 15.631C9.10392 16.3474 10.018 16.835 11.0129 17.0322C12.0077 17.2293 13.0387 17.1271 13.9755 16.7385C14.9123 16.35 15.7129 15.6924 16.2761 14.849C16.8394 14.0056 17.14 13.0142 17.14 12C17.1413 11.3251 17.0092 10.6566 16.7512 10.033C16.4933 9.40931 16.1146 8.84281 15.6369 8.36605C15.1592 7.8893 14.592 7.51168 13.9678 7.25493C13.3437 6.99818 12.6749 6.86737 12 6.87ZM12 15.33C11.3414 15.33 10.6976 15.1347 10.15 14.7688C9.60235 14.4029 9.17554 13.8828 8.9235 13.2744C8.67146 12.6659 8.60551 11.9963 8.734 11.3504C8.86249 10.7044 9.17964 10.1111 9.64535 9.64535C10.1111 9.17964 10.7044 8.86249 11.3504 8.734C11.9963 8.60551 12.6659 8.67146 13.2744 8.9235C13.8828 9.17554 14.4029 9.60235 14.7688 10.15C15.1347 10.6976 15.33 11.3414 15.33 12C15.33 12.4373 15.2439 12.8703 15.0765 13.2744C14.9092 13.6784 14.6639 14.0455 14.3547 14.3547C14.0455 14.6639 13.6784 14.9092 13.2744 15.0765C12.8703 15.2439 12.4373 15.33 12 15.33ZM17.34 5.45999C17.1027 5.45999 16.8707 5.53037 16.6733 5.66223C16.476 5.79409 16.3222 5.9815 16.2314 6.20077C16.1405 6.42004 16.1168 6.66132 16.1631 6.8941C16.2094 7.12688 16.3237 7.3407 16.4915 7.50852C16.6593 7.67634 16.8731 7.79063 17.1059 7.83693C17.3387 7.88324 17.58 7.85947 17.7992 7.76865C18.0185 7.67782 18.2059 7.52401 18.3378 7.32668C18.4696 7.12934 18.54 6.89733 18.54 6.65999C18.54 6.34173 18.4136 6.03651 18.1885 5.81146C17.9635 5.58642 17.6583 5.45999 17.34 5.45999Z" fill="currentColor"/>
</g>
</svg>
