<svg width="20" height="20" viewBox="0 0 20 20" fill="none" xmlns="http://www.w3.org/2000/svg">
<path d="M14.2196 3.01611C14.4352 3.01611 14.6098 3.08285 14.7432 3.21631C14.8767 3.34978 14.9434 3.51918 14.9434 3.72451C14.9434 3.92985 14.8767 4.09925 14.7432 4.23271C14.6098 4.35591 14.4352 4.41751 14.2196 4.41751H11.9712L9.56884 15.5825H11.9096C12.1252 15.5825 12.2998 15.6492 12.4332 15.7827C12.5667 15.9162 12.6334 16.0856 12.6334 16.2909C12.6334 16.4962 12.5667 16.6605 12.4332 16.7837C12.2998 16.9172 12.1252 16.9839 11.9096 16.9839H5.76504C5.55971 16.9839 5.39031 16.9172 5.25684 16.7837C5.12337 16.6605 5.05664 16.4962 5.05664 16.2909C5.05664 16.0856 5.12337 15.9162 5.25684 15.7827C5.39031 15.6492 5.55971 15.5825 5.76504 15.5825H8.12124L10.539 4.41751H8.07504C7.85944 4.41751 7.68491 4.35591 7.55144 4.23271C7.41797 4.09925 7.35124 3.92985 7.35124 3.72451C7.35124 3.51918 7.41797 3.34978 7.55144 3.21631C7.68491 3.08285 7.85944 3.01611 8.07504 3.01611H14.2196Z" fill="currentColor"/>
</svg>
