<svg width="20" height="20" viewBox="0 0 20 20" fill="none" xmlns="http://www.w3.org/2000/svg">
<path d="M5.03361 6.75866C5.03361 6.64072 5.06637 6.54243 5.13189 6.46381C5.21052 6.38518 5.31536 6.34586 5.44641 6.34586H6.25234C6.37029 6.34586 6.46857 6.38518 6.5472 6.46381C6.62583 6.54243 6.66514 6.64072 6.66514 6.75866V7.5646C6.66514 7.68254 6.62583 7.78083 6.5472 7.85946C6.46857 7.93808 6.37029 7.9774 6.25234 7.9774H5.44641C5.31536 7.9774 5.21052 7.93808 5.13189 7.85946C5.06637 7.78083 5.03361 7.68254 5.03361 7.5646V6.75866ZM7.80525 6.75866C7.80525 6.64072 7.84456 6.54243 7.92319 6.46381C8.00182 6.38518 8.1001 6.34586 8.21805 6.34586H9.02398C9.14193 6.34586 9.24021 6.38518 9.31884 6.46381C9.39747 6.54243 9.43678 6.64072 9.43678 6.75866V7.5646C9.43678 7.68254 9.39747 7.78083 9.31884 7.85946C9.24021 7.93808 9.14193 7.9774 9.02398 7.9774H8.21805C8.1001 7.9774 8.00182 7.93808 7.92319 7.85946C7.84456 7.78083 7.80525 7.68254 7.80525 7.5646V6.75866ZM10.5376 6.75866C10.5376 6.64072 10.5703 6.54243 10.6359 6.46381C10.7145 6.38518 10.8193 6.34586 10.9504 6.34586H11.7367C11.8677 6.34586 11.9725 6.38518 12.0512 6.46381C12.1298 6.54243 12.1691 6.64072 12.1691 6.75866V7.5646C12.1691 7.68254 12.1298 7.78083 12.0512 7.85946C11.9725 7.93808 11.8677 7.9774 11.7367 7.9774H10.9504C10.8193 7.9774 10.7145 7.93808 10.6359 7.85946C10.5703 7.78083 10.5376 7.68254 10.5376 7.5646V6.75866ZM13.2502 6.75866C13.2502 6.64072 13.2896 6.54243 13.3682 6.46381C13.4468 6.38518 13.5451 6.34586 13.663 6.34586H14.469C14.6 6.34586 14.6983 6.38518 14.7638 6.46381C14.8425 6.54243 14.8818 6.64072 14.8818 6.75866V7.5646C14.8818 7.68254 14.8425 7.78083 14.7638 7.85946C14.6983 7.93808 14.6 7.9774 14.469 7.9774H13.663C13.5451 7.9774 13.4468 7.93808 13.3682 7.85946C13.2896 7.78083 13.2502 7.68254 13.2502 7.5646V6.75866ZM5.03361 9.56962C5.03361 9.45167 5.06637 9.35339 5.13189 9.27476C5.21052 9.19613 5.31536 9.15682 5.44641 9.15682H6.25234C6.37029 9.15682 6.46857 9.19613 6.5472 9.27476C6.62583 9.35339 6.66514 9.45167 6.66514 9.56962V10.3756C6.66514 10.4935 6.62583 10.5918 6.5472 10.6704C6.46857 10.749 6.37029 10.7884 6.25234 10.7884H5.44641C5.31536 10.7884 5.21052 10.749 5.13189 10.6704C5.06637 10.5918 5.03361 10.4935 5.03361 10.3756V9.56962ZM7.80525 9.56962C7.80525 9.45167 7.84456 9.35339 7.92319 9.27476C8.00182 9.19613 8.1001 9.15682 8.21805 9.15682H9.02398C9.14193 9.15682 9.24021 9.19613 9.31884 9.27476C9.39747 9.35339 9.43678 9.45167 9.43678 9.56962V10.3756C9.43678 10.4935 9.39747 10.5918 9.31884 10.6704C9.24021 10.749 9.14193 10.7884 9.02398 10.7884H8.21805C8.1001 10.7884 8.00182 10.749 7.92319 10.6704C7.84456 10.5918 7.80525 10.4935 7.80525 10.3756V9.56962ZM10.5376 9.56962C10.5376 9.45167 10.5703 9.35339 10.6359 9.27476C10.7145 9.19613 10.8193 9.15682 10.9504 9.15682H11.7367C11.8677 9.15682 11.9725 9.19613 12.0512 9.27476C12.1298 9.35339 12.1691 9.45167 12.1691 9.56962V10.3756C12.1691 10.4935 12.1298 10.5918 12.0512 10.6704C11.9725 10.749 11.8677 10.7884 11.7367 10.7884H10.9504C10.8193 10.7884 10.7145 10.749 10.6359 10.6704C10.5703 10.5918 10.5376 10.4935 10.5376 10.3756V9.56962ZM13.2502 9.56962C13.2502 9.45167 13.2896 9.35339 13.3682 9.27476C13.4468 9.19613 13.5451 9.15682 13.663 9.15682H14.469C14.6 9.15682 14.6983 9.19613 14.7638 9.27476C14.8425 9.35339 14.8818 9.45167 14.8818 9.56962V10.3756C14.8818 10.4935 14.8425 10.5918 14.7638 10.6704C14.6983 10.749 14.6 10.7884 14.469 10.7884H13.663C13.5451 10.7884 13.4468 10.749 13.3682 10.6704C13.2896 10.5918 13.2502 10.4935 13.2502 10.3756V9.56962ZM5.8592 12.5378C5.8592 12.4199 5.89852 12.3216 5.97715 12.243C6.05577 12.1643 6.15406 12.125 6.272 12.125H13.6827C13.8137 12.125 13.9186 12.1643 13.9972 12.243C14.0758 12.3216 14.1151 12.4199 14.1151 12.5378V13.2455C14.1151 13.3634 14.0758 13.4617 13.9972 13.5403C13.9186 13.619 13.8137 13.6583 13.6827 13.6583H6.272C6.15406 13.6583 6.05577 13.619 5.97715 13.5403C5.89852 13.4617 5.8592 13.3634 5.8592 13.2455V12.5378ZM4.38493 16.4889C3.66417 16.4889 3.08101 16.2727 2.63545 15.8402C2.203 15.3946 1.98677 14.818 1.98677 14.1104V5.77581C1.98677 5.05505 2.203 4.47845 2.63545 4.04599C3.08101 3.60043 3.65762 3.37766 4.36527 3.37766H15.6287C16.3495 3.37766 16.9261 3.60043 17.3586 4.04599C17.8041 4.47845 18.0203 5.0485 18.0072 5.75615V14.0907C18.0072 14.8115 17.7845 15.3946 17.3389 15.8402C16.9064 16.2727 16.3364 16.4889 15.6287 16.4889H4.38493ZM3.3431 13.9728C3.3431 14.3004 3.44794 14.5756 3.65762 14.7984C3.8804 15.0081 4.15559 15.1129 4.48321 15.1129H15.5108C15.8515 15.1129 16.1267 15.0081 16.3364 14.7984C16.5461 14.5756 16.6509 14.3004 16.6509 13.9728V5.8741C16.6509 5.53337 16.5461 5.25818 16.3364 5.0485C16.1267 4.83883 15.8515 4.73399 15.5108 4.73399H4.48321C4.15559 4.73399 3.8804 4.83883 3.65762 5.0485C3.44794 5.25818 3.3431 5.53337 3.3431 5.8741V13.9728Z" fill="currentColor"/>
</svg>
