<svg width="20" height="20" viewBox="0 0 20 20" fill="none" xmlns="http://www.w3.org/2000/svg">
<path d="M10.7538 16.7641C10.2427 17.2752 9.67268 17.5307 9.04365 17.5307C8.42773 17.5307 7.87079 17.2752 7.37281 16.7641L3.08758 12.4592C2.57649 11.9482 2.32095 11.3847 2.32095 10.7687C2.32095 10.1528 2.56994 9.59586 3.06792 9.09788L9.53508 2.5521C9.62681 2.46036 9.74475 2.38173 9.88891 2.31621C10.0462 2.25069 10.1969 2.21793 10.341 2.21793H13.9776C14.1217 2.21793 14.2659 2.25069 14.41 2.31621C14.5542 2.36863 14.6787 2.44726 14.7835 2.5521L17.3193 5.02888C17.4241 5.12061 17.5027 5.23855 17.5551 5.38271C17.6207 5.52686 17.6534 5.67756 17.6534 5.83482V9.4124C17.6534 9.56965 17.6207 9.72036 17.5551 9.86451C17.5027 10.0087 17.4241 10.1266 17.3193 10.2183L10.7538 16.7641ZM8.25737 15.7223C8.50636 15.9451 8.77501 16.0565 9.06331 16.0565C9.35161 16.0565 9.62026 15.9451 9.86925 15.7223L16.1398 9.53034C16.2447 9.4255 16.2971 9.29445 16.2971 9.1372V6.09036C16.2971 5.97242 16.2447 5.84792 16.1398 5.71688L14.0169 3.73152C13.912 3.62668 13.7875 3.57426 13.6434 3.57426H10.6948C10.5507 3.57426 10.4196 3.63323 10.3017 3.75117L4.10974 9.94313C3.87386 10.179 3.75592 10.4542 3.75592 10.7687C3.75592 11.0701 3.86731 11.3322 4.09009 11.555L8.25737 15.7223ZM12.0905 7.74155C11.8808 7.51877 11.776 7.25012 11.776 6.93561C11.776 6.60799 11.8808 6.33935 12.0905 6.12967C12.3395 5.90689 12.6081 5.7955 12.8964 5.7955C13.1978 5.7955 13.4599 5.90689 13.6827 6.12967C13.9055 6.35245 14.0169 6.6211 14.0169 6.93561C14.0169 7.22391 13.9055 7.49256 13.6827 7.74155C13.473 7.95122 13.2109 8.05606 12.8964 8.05606C12.5819 8.05606 12.3133 7.95122 12.0905 7.74155Z" fill="currentColor"/>
</svg>
