<svg width="20" height="20" viewBox="0 0 20 20" fill="none" xmlns="http://www.w3.org/2000/svg">
<path fill-rule="evenodd" clip-rule="evenodd" d="M8.2 3.00005C8.2 2.61345 7.8866 2.30005 7.5 2.30005C7.1134 2.30005 6.8 2.61345 6.8 3.00005V4.30005H4.51882C4.50659 4.29972 4.49431 4.29972 4.482 4.30005H3C2.6134 4.30005 2.3 4.61345 2.3 5.00005C2.3 5.38665 2.6134 5.70005 3 5.70005H3.98425C4.37482 6.83954 5.17079 8.47793 6.50681 9.98023C5.62975 10.7444 4.56209 11.4081 3.27864 11.8359C2.91188 11.9582 2.71367 12.3546 2.83592 12.7213C2.95818 13.0881 3.3546 13.2863 3.72136 13.1641C5.23741 12.6587 6.48524 11.8732 7.5 10.9733C8.23968 11.6293 9.1032 12.2244 10.1042 12.6946L10.4168 11.2879C9.69321 10.9167 9.05421 10.4691 8.49319 9.98023C9.82921 8.47793 10.6252 6.83954 11.0157 5.70005H12C12.3866 5.70005 12.7 5.38665 12.7 5.00005C12.7 4.61345 12.3866 4.30005 12 4.30005H10.518C10.5057 4.29972 10.4934 4.29972 10.4812 4.30005H8.2V3.00005ZM7.5 8.98885C8.49045 7.86047 9.14332 6.64857 9.52326 5.70005H5.47674C5.85668 6.64857 6.50955 7.86047 7.5 8.98885Z" fill="currentcolor"/>
<path fill-rule="evenodd" clip-rule="evenodd" d="M16.3167 16.6519L15.5496 13.2H12.4504L11.6833 16.6519C11.5995 17.0293 11.2255 17.2672 10.8481 17.1834C10.4708 17.0995 10.2328 16.7256 10.3167 16.3482L12.1427 8.13127C12.3155 7.35345 13.0054 6.80005 13.8022 6.80005H14.1978C14.9946 6.80005 15.6845 7.35345 15.8573 8.13127L17.6833 16.3482C17.7672 16.7256 17.5292 17.0995 17.1519 17.1834C16.7745 17.2672 16.4005 17.0293 16.3167 16.6519ZM13.5093 8.43497C13.5398 8.29771 13.6616 8.20005 13.8022 8.20005H14.1978C14.3384 8.20005 14.4602 8.29771 14.4907 8.43497L15.2385 11.8H12.7615L13.5093 8.43497Z" fill="currentcolor"/>
</svg>
