<svg width="24" height="24" viewBox="0 0 24 24" fill="none" xmlns="http://www.w3.org/2000/svg">
<g id="icon-linkedin">
<path id="Subtract" fill-rule="evenodd" clip-rule="evenodd" d="M21.48 5.45134C21.7652 6.23075 21.9206 7.05164 21.94 7.88134C22 8.94134 22 9.28134 22 12.0013C22 13.6759 21.9773 14.4484 21.9598 15.0422C21.9489 15.4129 21.94 15.7139 21.94 16.1213C21.9206 16.951 21.7652 17.7719 21.48 18.5513C21.2283 19.2195 20.8322 19.8239 20.32 20.3213C19.8248 20.8339 19.2196 21.2272 18.55 21.4713C17.7727 21.7652 16.9508 21.9241 16.12 21.9413C15.06 22.0013 14.72 22.0013 12 22.0013C9.28 22.0013 8.94 22.0013 7.88 21.9413C7.04915 21.9241 6.22734 21.7652 5.45 21.4713C4.78168 21.2247 4.17693 20.8318 3.68 20.3213C3.16743 19.8262 2.77418 19.2209 2.53 18.5513C2.23616 17.774 2.07721 16.9522 2.06 16.1213C2 15.0613 2 14.7213 2 12.0013C2 9.28134 2 8.94134 2.06 7.88134C2.07721 7.0505 2.23616 6.22869 2.53 5.45134C2.77418 4.78178 3.16743 4.17652 3.68 3.68134C4.17693 3.1709 4.78168 2.77799 5.45 2.53134C6.22734 2.2375 7.04915 2.07855 7.88 2.06134C8.94 2.00134 9.28 2.00134 12 2.00134C14.72 2.00134 15.06 2.00134 16.12 2.06134C16.9508 2.07855 17.7727 2.2375 18.55 2.53134C19.2196 2.77552 19.8248 3.16877 20.32 3.68134C20.83 4.18062 21.2257 4.78448 21.48 5.45134ZM10.1667 17.5013H12.6111V13.3763C12.5895 13.0752 12.6915 12.7783 12.8937 12.5542C13.0959 12.33 13.3807 12.1979 13.6824 12.1883C14.3722 12.1868 14.9578 12.6935 15.0555 13.3763V17.5013H17.5V13.0708C17.5044 11.5548 16.2812 10.3212 14.7653 10.3128C13.9223 10.3321 13.1322 10.7273 12.6111 11.3902V10.168H10.1667V17.5013ZM6.5 10.168V17.5013H8.94444V10.168H6.5ZM6.5 7.72356C6.5 8.39858 7.04721 8.94578 7.72222 8.94578C8.04637 8.94578 8.35725 8.81701 8.58646 8.5878C8.81567 8.35859 8.94444 8.04772 8.94444 7.72356C8.94444 7.04855 8.39723 6.50134 7.72222 6.50134C7.04721 6.50134 6.5 7.04855 6.5 7.72356Z" fill="currentcolor"/>
</g>
</svg>
