<svg xmlns="http://www.w3.org/2000/svg" width="24" height="24" viewBox="0 0 24 24" fill="none">
  <circle cx="12" cy="12" r="12" fill="#146CC4"/>
  <path d="M12.9444 17.5H10.1667V9.16667H12.9444V10.5556C13.5366 9.80226 14.4345 9.35318 15.3924 9.33125C17.115 9.34081 18.505 10.7426 18.5 12.4653V17.5H15.7222V12.8125C15.6111 12.0365 14.9457 11.4608 14.1618 11.4625C13.8189 11.4733 13.4953 11.6235 13.2656 11.8782C13.0359 12.133 12.9199 12.4703 12.9444 12.8125V17.5ZM8.77778 17.5H6V9.16667H8.77778V17.5ZM7.38889 7.77778C6.62183 7.77778 6 7.15595 6 6.38889C6 5.62183 6.62183 5 7.38889 5C8.15595 5 8.77778 5.62183 8.77778 6.38889C8.77778 6.75725 8.63145 7.11051 8.37098 7.37098C8.11052 7.63145 7.75725 7.77778 7.38889 7.77778Z" fill="white"/>
</svg>