<svg width="20" height="20" viewBox="0 0 20 20" fill="none" xmlns="http://www.w3.org/2000/svg">
<path d="M3.37743 5.78829C3.02836 5.78829 2.74603 5.68049 2.53043 5.46489C2.31483 5.24929 2.20703 4.97209 2.20703 4.63329C2.20703 4.29449 2.31483 4.01729 2.53043 3.80169C2.74603 3.58609 3.02836 3.47316 3.37743 3.46289C3.71623 3.47316 3.99343 3.58609 4.20903 3.80169C4.42463 4.01729 4.53243 4.29449 4.53243 4.63329C4.53243 4.97209 4.42463 5.24929 4.20903 5.46489C3.99343 5.68049 3.71623 5.78829 3.37743 5.78829ZM3.37743 11.1629C3.03863 11.1629 2.76143 11.0551 2.54583 10.8395C2.33023 10.6239 2.22243 10.3467 2.22243 10.0079C2.22243 9.66909 2.33023 9.39189 2.54583 9.17629C2.76143 8.96069 3.03863 8.85289 3.37743 8.85289C3.71623 8.85289 3.99343 8.96069 4.20903 9.17629C4.42463 9.39189 4.53243 9.66909 4.53243 10.0079C4.53243 10.3467 4.42463 10.6239 4.20903 10.8395C3.99343 11.0551 3.71623 11.1629 3.37743 11.1629ZM3.37743 16.5375C3.03863 16.5375 2.76143 16.4246 2.54583 16.1987C2.33023 15.9831 2.22243 15.7059 2.22243 15.3671C2.22243 15.0283 2.33023 14.7511 2.54583 14.5355C2.76143 14.3096 3.03863 14.1967 3.37743 14.1967C3.71623 14.1967 3.99343 14.3096 4.20903 14.5355C4.42463 14.7511 4.53243 15.0283 4.53243 15.3671C4.53243 15.7059 4.42463 15.9831 4.20903 16.1987C3.99343 16.4246 3.71623 16.5375 3.37743 16.5375ZM17.0526 3.92489C17.2682 3.92489 17.4428 3.99162 17.5762 4.12509C17.72 4.25856 17.7918 4.42796 17.7918 4.63329C17.7918 4.83862 17.72 5.00802 17.5762 5.14149C17.4428 5.26469 17.2682 5.32629 17.0526 5.32629H6.98103C6.76543 5.32629 6.5909 5.26469 6.45743 5.14149C6.32397 5.00802 6.25723 4.83862 6.25723 4.63329C6.25723 4.42796 6.32397 4.25856 6.45743 4.12509C6.5909 3.99162 6.76543 3.92489 6.98103 3.92489H17.0526ZM17.0526 9.31489C17.2682 9.31489 17.4428 9.38162 17.5762 9.51509C17.72 9.64856 17.7918 9.81796 17.7918 10.0233C17.7918 10.2286 17.72 10.398 17.5762 10.5315C17.4428 10.665 17.2682 10.7317 17.0526 10.7317L6.98103 10.7163C6.76543 10.7163 6.5909 10.6547 6.45743 10.5315C6.32397 10.398 6.25723 10.2286 6.25723 10.0233C6.25723 9.81796 6.32397 9.64856 6.45743 9.51509C6.5909 9.38162 6.76543 9.31489 6.98103 9.31489H17.0526ZM17.0526 14.6587C17.2682 14.6587 17.4428 14.7254 17.5762 14.8589C17.72 14.9924 17.7918 15.1618 17.7918 15.3671C17.7918 15.5724 17.72 15.7367 17.5762 15.8599C17.4428 15.9934 17.2682 16.0601 17.0526 16.0601H6.98103C6.76543 16.0601 6.5909 15.9934 6.45743 15.8599C6.32397 15.7367 6.25723 15.5724 6.25723 15.3671C6.25723 15.1618 6.32397 14.9924 6.45743 14.8589C6.5909 14.7254 6.76543 14.6587 6.98103 14.6587H17.0526Z" fill="currentColor"/>
</svg>
