<svg width="20" height="20" viewBox="0 0 20 20" fill="none" xmlns="http://www.w3.org/2000/svg">
<path d="M6.89853 11.023H13.1015" stroke="currentColor" stroke-width="1.28438" stroke-linecap="round"/>
<path d="M6.89853 8.6969H13.1015" stroke="currentColor" stroke-width="1.28438" stroke-linecap="round"/>
<path d="M6.89853 13.3492H10.7754" stroke="currentColor" stroke-width="1.28438" stroke-linecap="round"/>
<path fill-rule="evenodd" clip-rule="evenodd" d="M7.61604 5.36559H12.384C12.8315 5.36559 13.1015 5.08013 13.1015 4.60179V3.7917C13.1015 3.31336 12.8315 3.0279 12.384 3.0279H11.6742C11.6202 2.15608 10.895 1.44629 10 1.44629C9.10507 1.44629 8.37984 2.15608 8.32584 3.0279H7.61604C7.16856 3.0279 6.89853 3.31336 6.89853 3.7917V4.60179C6.89853 5.08013 7.16856 5.36559 7.61604 5.36559ZM10 3.76083C9.6297 3.76083 9.32881 3.45223 9.32881 3.08961C9.32881 2.71158 9.6297 2.41068 10 2.41068C10.3704 2.41068 10.6713 2.71158 10.6713 3.08961C10.6713 3.45223 10.3704 3.76083 10 3.76083Z" fill="currentColor"/>
<path d="M13.8759 4.66495H14.6523C15.1661 4.66495 15.5827 5.08152 15.5827 5.59539V15.6753C15.5827 16.1891 15.1661 16.6057 14.6523 16.6057H5.34777C4.83389 16.6057 4.41732 16.1891 4.41732 15.6753V5.59539C4.41732 5.08152 4.83389 4.66495 5.34777 4.66495H6.12416C6.12348 4.64385 6.12315 4.6228 6.12315 4.6018V3.79171C6.12315 3.66997 6.13428 3.54634 6.15891 3.42435H5.34777C4.14873 3.42435 3.17672 4.39636 3.17672 5.59539V15.6753C3.17672 16.8743 4.14873 17.8463 5.34777 17.8463H14.6523C15.8513 17.8463 16.8233 16.8743 16.8233 15.6753V5.59539C16.8233 4.39636 15.8513 3.42435 14.6523 3.42435H13.8411C13.8658 3.54634 13.8769 3.66996 13.8769 3.79171V4.6018C13.8769 4.6228 13.8766 4.64385 13.8759 4.66495Z" fill="currentColor"/>
</svg>
