<svg width="20" height="20" viewBox="0 0 20 20" fill="none" xmlns="http://www.w3.org/2000/svg">
<path fill-rule="evenodd" clip-rule="evenodd" d="M10 4.58126C7.0073 4.58126 4.58125 7.00732 4.58125 10C4.58125 10.4591 4.20908 10.8313 3.75 10.8313C3.29091 10.8313 2.91875 10.4591 2.91875 10C2.91875 6.08915 6.08913 2.91876 10 2.91876C13.9109 2.91876 17.0812 6.08915 17.0812 10C17.0812 13.9109 13.9109 17.0813 10 17.0813C9.02678 17.0813 8.0974 16.8845 7.25112 16.5277C6.82809 16.3494 6.62972 15.8619 6.80805 15.4388C6.98639 15.0158 7.47389 14.8174 7.89693 14.9958C8.54248 15.2679 9.25256 15.4188 10 15.4188C12.9927 15.4188 15.4187 12.9927 15.4187 10C15.4187 7.00732 12.9927 4.58126 10 4.58126Z" fill="currentColor"/>
</svg>
