<svg width="14" height="14" viewBox="0 0 14 14" fill="none" xmlns="http://www.w3.org/2000/svg">
<rect width="14" height="14" rx="4" fill="#FFDDD4"/>
<rect x="0.25" y="0.25" width="13.5" height="13.5" rx="3.75" stroke="white" stroke-opacity="0.6" stroke-width="0.5"/>
<path fill-rule="evenodd" clip-rule="evenodd" d="M6.99931 3.73237C6.32278 3.73237 5.77436 4.28079 5.77435 4.95728V4.95731L5.7744 5.99976H8.22432L8.22428 4.95733V4.95731C8.22428 4.2808 7.67585 3.73237 6.99931 3.73237ZM4.72435 4.95733L4.7244 6.01267C4.31291 6.08405 4 6.44286 4 6.87476V10.1248C4 10.608 4.39175 10.9998 4.875 10.9998H9.125C9.60825 10.9998 10 10.608 10 10.1248V6.87476C10 6.44241 9.68644 6.08331 9.27433 6.01245L9.27428 4.95731V4.95728C9.27426 3.70087 8.25572 2.68237 6.99931 2.68237C5.74289 2.68237 4.72435 3.70089 4.72435 4.95731V4.95733ZM7 7.50002C6.72386 7.50002 6.5 7.72387 6.5 8.00002V9.00002C6.5 9.27616 6.72386 9.50002 7 9.50002C7.27614 9.50002 7.5 9.27616 7.5 9.00002V8.00002C7.5 7.72387 7.27614 7.50002 7 7.50002Z" fill="#FA4A1E"/>
</svg>
