<svg width="20" height="20" viewBox="0 0 20 20" fill="none" xmlns="http://www.w3.org/2000/svg">
<path d="M4.87635 15.2112C4.87635 15.5388 4.98119 15.8074 5.19087 16.0171C5.40054 16.2268 5.67574 16.3316 6.01646 16.3316H13.9579C14.2986 16.3316 14.5673 16.2268 14.7638 16.0171C14.9735 15.8074 15.0783 15.5388 15.0783 15.2112L15.098 10.1004C15.098 9.75964 14.9932 9.48444 14.7835 9.27476C14.5738 9.06509 14.2986 8.96025 13.9579 8.96025H6.03612C5.7085 8.96025 5.4333 9.06509 5.21052 9.27476C5.00085 9.48444 4.89601 9.75964 4.89601 10.1004L4.87635 15.2112ZM5.89852 17.7076C5.19087 17.7076 4.61426 17.4848 4.1687 17.0393C3.73625 16.6068 3.52002 16.0302 3.52002 15.3095V10.0021C3.52002 9.28131 3.73625 8.70471 4.1687 8.27225C4.61426 7.82669 5.19087 7.60392 5.89852 7.60392H5.95749V6.22792C5.95749 5.45475 6.12785 4.76675 6.46857 4.16394C6.80929 3.56112 7.28762 3.08935 7.90354 2.74863C8.51945 2.40791 9.214 2.23755 9.98718 2.23755C10.7735 2.23755 11.4746 2.40791 12.0905 2.74863C12.7064 3.08935 13.1847 3.56112 13.5254 4.16394C13.8662 4.76675 14.0365 5.45475 14.0365 6.22792V7.60392H14.0955C14.79 7.60392 15.3535 7.82669 15.786 8.27225C16.2316 8.70471 16.4543 9.28131 16.4543 10.0021V15.3095C16.4543 16.0302 16.2316 16.6068 15.786 17.0393C15.3535 17.4848 14.7835 17.7076 14.0758 17.7076H5.89852ZM10.0068 13.8942C9.65301 13.8811 9.36471 13.7631 9.14193 13.5403C8.91915 13.3045 8.80776 13.0096 8.80776 12.6558C8.80776 12.3282 8.91915 12.053 9.14193 11.8302C9.36471 11.6074 9.65301 11.4895 10.0068 11.4763C10.3476 11.5026 10.6293 11.6271 10.8521 11.8498C11.088 12.0595 11.2125 12.3282 11.2256 12.6558C11.2125 13.0227 11.088 13.3241 10.8521 13.56C10.6293 13.7828 10.3476 13.8942 10.0068 13.8942ZM12.6802 7.60392V6.22792C12.6802 5.46785 12.4312 4.84538 11.9332 4.36051C11.4484 3.86253 10.8128 3.61354 10.0265 3.61354C9.24021 3.61354 8.59153 3.85598 8.08045 4.34085C7.58247 4.82572 7.33348 5.45475 7.33348 6.22792V7.60392H12.6802Z" fill="currentColor"/>
</svg>
