<svg width="20" height="20" viewBox="0 0 20 20" fill="none" xmlns="http://www.w3.org/2000/svg">
<path d="M17.3586 15.5061C17.542 15.5061 17.6927 15.5716 17.8107 15.7027C17.9417 15.8337 18.0072 15.9975 18.0072 16.1941C18.0072 16.4037 17.9417 16.5741 17.8107 16.7052C17.6927 16.8231 17.542 16.8821 17.3586 16.8821H15.1963C14.4886 16.8821 13.912 16.6658 13.4665 16.2334C13.034 15.7878 12.8178 15.2047 12.8178 14.4839V10.5722H11.0093V11.3388C11.0093 11.8368 10.8521 12.243 10.5376 12.5575C10.2362 12.872 9.84303 13.0227 9.35816 13.0096H3.55934C3.06136 13.0096 2.65511 12.8589 2.3406 12.5575C2.03919 12.2561 1.88849 11.8564 1.88849 11.3584V8.56715C1.88849 8.06917 2.03919 7.66293 2.3406 7.34842C2.65511 7.0339 3.05481 6.8832 3.53968 6.89631H9.3385C9.83648 6.89631 10.2362 7.04701 10.5376 7.34842C10.8521 7.64983 11.0093 8.04952 11.0093 8.54749V9.35343H12.8178V5.38271C12.8178 4.66196 13.034 4.08535 13.4665 3.6529C13.912 3.20734 14.4886 2.98456 15.1963 2.98456H17.3586C17.542 2.98456 17.6927 3.05008 17.8107 3.18113C17.9417 3.29907 18.0072 3.44978 18.0072 3.63324C18.0072 3.84292 17.9417 4.01328 17.8107 4.14432C17.6927 4.27537 17.542 4.34089 17.3586 4.34089H15.3142C14.9866 4.34089 14.7114 4.44573 14.4886 4.65541C14.279 4.86508 14.1741 5.14028 14.1741 5.481V9.29446H17.3586C17.542 9.29446 17.6927 9.35998 17.8107 9.49103C17.9417 9.60897 18.0072 9.76623 18.0072 9.9628C18.0072 10.1594 17.9417 10.3232 17.8107 10.4542C17.6927 10.5853 17.542 10.6508 17.3586 10.6508H14.1741V14.3856C14.1741 14.7132 14.279 14.9819 14.4886 15.1916C14.6983 15.4012 14.9735 15.5061 15.3142 15.5061H17.3586ZM9.65301 8.76372C9.65301 8.60647 9.60059 8.48197 9.49576 8.39024C9.40402 8.29851 9.28608 8.25264 9.14193 8.25264H3.75591C3.61175 8.25264 3.48726 8.29851 3.38242 8.39024C3.29069 8.48197 3.24482 8.60647 3.24482 8.76372V11.1422C3.24482 11.2864 3.29069 11.4109 3.38242 11.5157C3.48726 11.6074 3.61175 11.6533 3.75591 11.6533H9.14193C9.28608 11.6533 9.40402 11.6074 9.49576 11.5157C9.60059 11.4109 9.65301 11.2864 9.65301 11.1422V8.76372Z" fill="currentcolor"/>
</svg>
