<svg width="20" height="20" viewBox="0 0 20 20" fill="none" xmlns="http://www.w3.org/2000/svg">
<path d="M10.5818 7.67343C10.9064 7.34882 11.2648 7.18652 11.6571 7.18652C11.9952 7.18652 12.2995 7.32177 12.57 7.59228C12.8405 7.86278 12.9758 8.1671 12.9758 8.50523C12.9758 8.89747 12.8135 9.24913 12.4889 9.56021L4.39398 17.3508C4.06937 17.6754 3.70419 17.8377 3.29843 17.8377C2.9603 17.8377 2.66274 17.7092 2.40576 17.4522C2.13525 17.1547 2 16.8368 2 16.4987C2 16.1065 2.1623 15.7616 2.48691 15.464L10.5818 7.67343ZM3.09555 16.0929C2.97382 16.2147 2.91296 16.3499 2.91296 16.4987C2.91296 16.6339 2.95353 16.7421 3.03469 16.8233C3.10231 16.8909 3.19023 16.9247 3.29843 16.9247C3.47426 16.9247 3.63656 16.8503 3.78534 16.7016L8.5733 12.0759L7.92408 11.447L3.09555 16.0929ZM5.89529 5.92866C5.82766 5.92866 5.79385 5.89485 5.79385 5.82722C5.79385 5.77312 5.82766 5.73255 5.89529 5.7055C6.35515 5.63787 6.73386 5.40118 7.03141 4.99542C7.3425 4.58966 7.53861 4.05541 7.61976 3.39267C7.61976 3.31152 7.66034 3.27094 7.74149 3.27094C7.80912 3.27094 7.84969 3.31152 7.86322 3.39267C7.93085 4.05541 8.11344 4.58966 8.41099 4.99542C8.72208 5.40118 9.11431 5.63787 9.5877 5.7055C9.65532 5.73255 9.68914 5.77312 9.68914 5.82722C9.68914 5.89485 9.65532 5.92866 9.5877 5.92866C9.12784 5.98276 8.74236 6.21946 8.43128 6.63874C8.13373 7.0445 7.94437 7.57875 7.86322 8.24149C7.84969 8.32264 7.80912 8.36322 7.74149 8.36322C7.67387 8.36322 7.62653 8.30912 7.59948 8.20092C7.51832 7.5517 7.32897 7.02421 7.03141 6.61846C6.73386 6.2127 6.35515 5.98276 5.89529 5.92866ZM13.7062 10.5746C13.6385 10.5746 13.6047 10.5408 13.6047 10.4732C13.6047 10.4055 13.6385 10.3717 13.7062 10.3717C14.166 10.2906 14.5447 10.0471 14.8423 9.64136C15.1534 9.22208 15.3495 8.68783 15.4306 8.03861C15.4577 7.95746 15.4983 7.91688 15.5524 7.91688C15.62 7.91688 15.6606 7.95746 15.6741 8.03861C15.7417 8.68783 15.9243 9.22208 16.2219 9.64136C16.5329 10.0471 16.9252 10.2906 17.3986 10.3717C17.4662 10.3717 17.5 10.4055 17.5 10.4732C17.5 10.5408 17.4662 10.5746 17.3986 10.5746C16.9252 10.6558 16.5329 10.906 16.2219 11.3253C15.9243 11.731 15.7417 12.2585 15.6741 12.9077C15.647 12.9753 15.6065 13.0092 15.5524 13.0092C15.4983 13.0092 15.4577 12.9551 15.4306 12.8469C15.3495 12.2112 15.1534 11.6972 14.8423 11.305C14.5447 10.8992 14.166 10.6558 13.7062 10.5746ZM12.5294 4.40707C12.4618 4.38002 12.428 4.35297 12.428 4.32592C12.428 4.29887 12.4618 4.27181 12.5294 4.24476C12.8676 4.19066 13.1449 4.0216 13.3613 3.73757C13.5777 3.44001 13.7129 3.05454 13.767 2.58115C13.767 2.52705 13.7941 2.5 13.8482 2.5C13.9023 2.5 13.9293 2.52705 13.9293 2.58115C13.9834 3.05454 14.1187 3.44001 14.3351 3.73757C14.5515 4.03512 14.8288 4.20419 15.1669 4.24476C15.2345 4.27181 15.2683 4.29887 15.2683 4.32592C15.2683 4.35297 15.2345 4.38002 15.1669 4.40707C14.8288 4.46117 14.5515 4.637 14.3351 4.93456C14.1187 5.21859 13.9834 5.59729 13.9293 6.07068C13.9293 6.12478 13.9023 6.15183 13.8482 6.15183C13.8076 6.15183 13.7738 6.11802 13.7467 6.05039C13.6926 5.59053 13.5574 5.21859 13.341 4.93456C13.1246 4.637 12.8541 4.46117 12.5294 4.40707Z" fill="currentColor"/>
</svg>
