<svg width="20" height="20" viewBox="0 0 20 20" fill="none" xmlns="http://www.w3.org/2000/svg">
<path d="M3.99654 15.7973C3.27777 15.7973 2.73088 15.612 2.35587 15.2415C1.98532 14.8709 1.80005 14.3307 1.80005 13.6209V6.21445C1.80005 5.50015 1.97863 4.95995 2.33578 4.59387C2.69293 4.22333 3.19071 4.03805 3.82912 4.03805H15.9969C16.7201 4.03805 17.267 4.22333 17.6375 4.59387C18.0125 4.95995 18.2 5.50015 18.2 6.21445V13.6209C18.2 14.3307 18.0215 14.8709 17.6643 15.2415C17.3072 15.612 16.8094 15.7973 16.171 15.7973H3.99654ZM3.99654 14.5584H15.9969C16.3049 14.5584 16.5438 14.4758 16.7134 14.3107C16.883 14.1455 16.9679 13.9044 16.9679 13.5874V6.24794C16.9679 5.93096 16.883 5.68989 16.7134 5.5247C16.5438 5.35952 16.3049 5.27693 15.9969 5.27693H3.99654C3.68849 5.27693 3.44965 5.35952 3.28 5.5247C3.11482 5.68989 3.03223 5.92873 3.03223 6.24124V13.5807C3.03223 13.9022 3.11482 14.1455 3.28 14.3107C3.44965 14.4758 3.68849 14.5584 3.99654 14.5584ZM9.9967 11.7459C9.76902 11.7459 9.54803 11.7034 9.33374 11.6186C9.12391 11.5338 8.91631 11.3976 8.71095 11.2101L2.44962 5.57827L3.25321 4.76799L9.39401 10.3061C9.58598 10.4802 9.78687 10.5672 9.9967 10.5672C10.2065 10.5672 10.4074 10.4802 10.5994 10.3061L16.7402 4.76799L17.5438 5.57827L11.2824 11.2101C11.0771 11.3976 10.8673 11.5338 10.653 11.6186C10.4431 11.7034 10.2244 11.7459 9.9967 11.7459ZM3.36706 14.833L2.56346 14.0227L7.29797 9.2882L8.10156 10.0851L3.36706 14.833ZM16.6397 14.8397L11.8918 10.0851L12.7021 9.2882L17.4433 14.0294L16.6397 14.8397Z" fill="currentColor"/>
</svg>
