<svg width="20" height="20" viewBox="0 0 20 20" fill="none" xmlns="http://www.w3.org/2000/svg">
<path d="M18.0269 12.0253L17.9044 11.977L17.3775 10.6411C17.2364 10.2832 16.9738 10.0442 16.6706 9.9242V5.87413C16.6706 5.53341 16.5657 5.25821 16.356 5.04853C16.1464 4.83886 15.8712 4.73402 15.5304 4.73402H4.50286C4.17525 4.73402 3.90005 4.83886 3.67727 5.04853C3.46759 5.25821 3.36276 5.53341 3.36276 5.87413V11.5192L5.1712 9.96279C5.43329 9.74001 5.72815 9.62862 6.05577 9.62862C6.35717 9.62862 6.64548 9.73345 6.92068 9.94313L8.35564 11.1422C8.42116 11.1815 8.47358 11.2012 8.51289 11.2012C8.57842 11.2012 8.63739 11.175 8.68981 11.1226L11.4614 8.19366C11.6842 7.93156 11.9594 7.80051 12.287 7.80051C12.6016 7.80051 12.8702 7.9119 13.093 8.13468L15.3035 10.1866C15.1792 10.3072 15.0758 10.4587 15.0038 10.6411L14.7151 11.3731L12.4836 9.37308C12.4312 9.32066 12.3722 9.29445 12.3067 9.29445C12.2543 9.29445 12.2019 9.32066 12.1494 9.37308L9.61369 12.0661C9.31228 12.3937 8.95845 12.5575 8.55221 12.5575C8.2508 12.5575 7.95595 12.4461 7.66764 12.2233L6.25234 11.0439C6.21302 11.0046 6.15405 10.985 6.07542 10.985C6.02301 10.985 5.96403 11.0046 5.89851 11.0439L3.36276 13.1945V13.9925C3.36276 14.3201 3.46759 14.5887 3.67727 14.7984C3.88694 15.0081 4.16214 15.1129 4.50286 15.1129H13.7379L14.477 15.4044L14.9047 16.4889H4.40458C3.68382 16.4889 3.10066 16.2727 2.6551 15.8402C2.20954 15.3947 1.99332 14.8181 2.00642 14.1104V5.77584C2.00642 5.05508 2.22265 4.47848 2.6551 4.04602C3.08756 3.60046 3.65761 3.37769 4.36526 3.37769H15.6287C16.3495 3.37769 16.9261 3.59391 17.3586 4.02637C17.8041 4.45882 18.0269 5.02887 18.0269 5.73653V12.0253Z" fill="currentcolor"/>
<path d="M17.2111 12.7781C17.1597 12.7544 17.1192 12.7117 17.0983 12.6587L16.4473 11.008C16.3791 10.8352 16.1801 10.7906 16.0444 10.8743C15.9973 10.9034 15.9578 10.9479 15.9341 11.008L15.283 12.6587C15.2606 12.7156 15.2156 12.7606 15.1587 12.7831L13.508 13.4341C13.2751 13.5259 13.2751 13.8555 13.508 13.9473L15.1587 14.5983C15.2156 14.6208 15.2606 14.6658 15.283 14.7227L15.9341 16.3734C15.9496 16.4128 15.9719 16.4455 15.9987 16.4715C16.1281 16.5973 16.3622 16.568 16.4429 16.3839C16.4444 16.3804 16.4459 16.377 16.4473 16.3734L17.0983 14.7227C17.1208 14.6658 17.1658 14.6208 17.2226 14.5983L18.8734 13.9473C19.1062 13.8555 19.1062 13.5259 18.8734 13.4341L17.2226 12.7831C17.2187 12.7815 17.2149 12.7799 17.2111 12.7781Z" fill="currentcolor"/>
<path d="M6.07542 8.39023C5.78712 8.39023 5.55124 8.29849 5.36777 8.11503C5.19741 7.93156 5.11223 7.70223 5.11223 7.42703C5.11223 7.15183 5.19741 6.92905 5.36777 6.75869C5.55124 6.57523 5.78712 6.48349 6.07542 6.48349C6.35062 6.48349 6.5734 6.57523 6.74376 6.75869C6.91412 6.92905 6.9993 7.15183 6.9993 7.42703C6.9993 7.70223 6.91412 7.93156 6.74376 8.11503C6.5734 8.29849 6.35062 8.39023 6.07542 8.39023Z" fill="currentcolor"/>
</svg>
