<svg width="20" height="20" viewBox="0 0 20 20" fill="none" xmlns="http://www.w3.org/2000/svg">
<path d="M5.3291 14.6428C6.39203 14.6428 7.38103 14.0988 7.94922 13.2004L11.5371 7.52759C11.8854 6.97708 12.4912 6.64284 13.1426 6.64282H16.4326C16.764 6.64282 17.0332 6.37458 17.0332 6.04321C17.0332 5.71184 16.764 5.4436 16.4326 5.4436H13.1426C12.0797 5.44362 11.0906 5.98767 10.5225 6.88599L6.93457 12.5588C6.58632 13.1093 5.98053 13.4436 5.3291 13.4436H2.59961C2.26824 13.4436 2 13.7118 2 14.0432C2 14.3746 2.26824 14.6428 2.59961 14.6428H5.3291Z" fill="#1F2326"/>
<path d="M18.5064 5.68C18.7198 5.84 18.7198 6.16 18.5064 6.32L15.7331 8.4C15.4035 8.64721 14.9331 8.41202 14.9331 8L14.9331 4C14.9331 3.58798 15.4035 3.35279 15.7331 3.6L18.5064 5.68Z" fill="#1F2326"/>
<path d="M16.1336 11.3708C16.2218 11.143 16.5451 11.143 16.6333 11.3708L17.269 12.9765C17.291 13.0316 17.3351 13.0757 17.3902 13.0978L18.9959 13.7334C19.2237 13.8216 19.2237 14.145 18.9959 14.2331L17.3902 14.8688C17.3351 14.8909 17.291 14.9349 17.269 14.9901L16.6333 16.5958C16.5451 16.8236 16.2218 16.8236 16.1336 16.5958L15.4979 14.9901C15.4759 14.9349 15.4318 14.8909 15.3767 14.8688L13.771 14.2331C13.5431 14.145 13.5431 13.8216 13.771 13.7334L15.3767 13.0978C15.4318 13.0757 15.4759 13.0316 15.4979 12.9765L16.1336 11.3708Z" fill="#1F2326"/>
<path d="M16.4326 13.4434C16.7639 13.4434 17.0331 13.7117 17.0332 14.043C17.0332 14.3743 16.764 14.6426 16.4326 14.6426H14.8037L13.7705 14.2334C13.5716 14.1562 13.5463 13.8986 13.6953 13.7764L13.7705 13.7334L14.5029 13.4434H16.4326ZM5.3291 5.44336C6.39198 5.44336 7.38102 5.9875 7.94922 6.88574L11.5371 12.5586C11.8124 12.9937 12.2488 13.2928 12.7412 13.3994C12.5472 13.7808 12.557 14.2463 12.7705 14.6191C11.8525 14.5083 11.0237 13.9926 10.5225 13.2002L6.93457 7.52734C6.5863 6.97691 5.98047 6.64258 5.3291 6.64258H2.59961C2.26824 6.64258 2 6.37434 2 6.04297C2.0001 5.71168 2.2683 5.44336 2.59961 5.44336H5.3291Z" fill="#1F2326"/>
</svg>
