<svg width="20" height="20" viewBox="0 0 20 20" fill="none" xmlns="http://www.w3.org/2000/svg">
<path fill-rule="evenodd" clip-rule="evenodd" d="M6.5 11.6707C6.02135 11.6707 5.63333 12.0587 5.63333 12.5374C5.63333 13.016 6.02135 13.404 6.5 13.404C6.97864 13.404 7.36666 13.016 7.36666 12.5374C7.36666 12.0587 6.97864 11.6707 6.5 11.6707ZM4.7 12.5374C4.7 11.5432 5.50588 10.7374 6.5 10.7374C7.49411 10.7374 8.3 11.5432 8.3 12.5374C8.3 13.5315 7.49411 14.3374 6.5 14.3374C5.50588 14.3374 4.7 13.5315 4.7 12.5374Z" fill="currentColor"/>
<path fill-rule="evenodd" clip-rule="evenodd" d="M6.50001 8.57068C4.30928 8.57068 2.53334 10.3466 2.53334 12.5373V12.7299C2.53334 14.7257 3.51715 16.5932 5.16313 17.7219C5.96878 18.2743 7.03124 18.2743 7.83688 17.7219C9.48286 16.5932 10.4667 14.7257 10.4667 12.7299V12.5373C10.4667 10.3466 8.69074 8.57068 6.50001 8.57068ZM3.80001 12.5373C3.80001 11.0462 5.00884 9.83735 6.50001 9.83735C7.99118 9.83735 9.20001 11.0462 9.20001 12.5373V12.7299C9.20001 14.3081 8.42207 15.7848 7.12054 16.6772C6.74659 16.9337 6.25342 16.9337 5.87947 16.6772C4.57794 15.7848 3.80001 14.3081 3.80001 12.7299V12.5373Z" fill="currentColor"/>
<path fill-rule="evenodd" clip-rule="evenodd" d="M5.54468 7.72736C5.05325 7.82959 4.59016 8.00911 4.16869 8.25264V4.57678C4.16869 3.85602 4.38492 3.27941 4.81737 2.84696C5.26293 2.4014 5.83954 2.17862 6.54719 2.17862H11.2649C11.4877 2.17862 11.7104 2.22449 11.9332 2.31622C12.156 2.40795 12.3395 2.53245 12.4836 2.6897L16.5133 6.77836C16.6574 6.93562 16.7754 7.13219 16.8671 7.36807C16.9589 7.59085 17.0047 7.80708 17.0047 8.01675V15.2505C17.0047 15.9713 16.7885 16.5545 16.356 17C15.9236 17.4325 15.3535 17.6487 14.6459 17.6487H9.35681C9.78683 17.2442 10.1591 16.7877 10.4667 16.2924H14.4886C14.8293 16.2924 15.1045 16.1875 15.3142 15.9778C15.5239 15.7551 15.6287 15.4799 15.6287 15.1523L15.6484 8.70475H12.2477C11.7497 8.70475 11.3435 8.55405 11.029 8.25264C10.7276 7.93813 10.5769 7.53188 10.5769 7.0339V3.53495H6.68479C6.35717 3.53495 6.08197 3.63979 5.85919 3.84947C5.64952 4.05914 5.54468 4.33434 5.54468 4.67506V7.72736ZM11.8742 6.81768C11.8742 6.98804 11.9267 7.13219 12.0315 7.25013C12.1494 7.35497 12.2936 7.40739 12.464 7.40739H15.3142L11.8742 3.96741V6.81768Z" fill="currentColor"/>
</svg>
