<svg width="20" height="20" viewBox="0 0 20 20" fill="none" xmlns="http://www.w3.org/2000/svg">
<path d="M7.6873 8.78337C7.43832 8.78337 7.22864 8.69819 7.05828 8.52783C6.88792 8.35747 6.80929 8.15434 6.8224 7.91846C6.80929 7.68258 6.88792 7.486 7.05828 7.32875C7.22864 7.15839 7.43832 7.06666 7.6873 7.05355C7.93629 7.06666 8.13942 7.15184 8.29667 7.30909C8.46703 7.46635 8.55221 7.66947 8.55221 7.91846C8.55221 8.15434 8.46703 8.35747 8.29667 8.52783C8.13942 8.69819 7.93629 8.78337 7.6873 8.78337ZM12.4246 8.78337C12.1757 8.78337 11.966 8.69819 11.7956 8.52783C11.6384 8.35747 11.5597 8.15434 11.5597 7.91846C11.5597 7.66947 11.6384 7.46635 11.7956 7.30909C11.966 7.15184 12.1757 7.06666 12.4246 7.05355C12.6736 7.06666 12.8768 7.15184 13.034 7.30909C13.1913 7.46635 13.2699 7.66947 13.2699 7.91846C13.2699 8.15434 13.1847 8.35747 13.0144 8.52783C12.8571 8.69819 12.6605 8.78337 12.4246 8.78337ZM9.98718 13.8745C10.59 13.8614 11.16 13.6976 11.6973 13.3831C12.2346 13.0555 12.6212 12.6492 12.8571 12.1644C12.8833 12.112 12.8964 12.0399 12.8964 11.9481C12.8964 11.8433 12.8702 11.7712 12.8178 11.7319C12.7916 11.7057 12.7392 11.6926 12.6605 11.6926C12.5557 11.6926 12.4705 11.7254 12.405 11.7909C12.1953 12.0399 11.8742 12.2496 11.4418 12.4199C11.0093 12.5772 10.5507 12.6558 10.0658 12.6558C9.58093 12.6558 9.10916 12.5772 8.6505 12.4199C8.19183 12.2496 7.85767 12.0399 7.64799 11.7909C7.59557 11.7123 7.5235 11.6729 7.43176 11.6729C7.37935 11.6729 7.32037 11.6926 7.25485 11.7319C7.18933 11.7974 7.15657 11.8826 7.15657 11.9875C7.15657 12.0268 7.16967 12.0857 7.19588 12.1644C7.41866 12.6624 7.79214 13.0752 8.31633 13.4028C8.84052 13.7173 9.39747 13.8745 9.98718 13.8745ZM9.96752 17.4718C8.57842 17.4718 7.30072 17.1376 6.1344 16.4693C4.98119 15.8009 4.07041 14.8967 3.40207 13.7566C2.73374 12.6034 2.39957 11.3322 2.39957 9.94313C2.39957 8.54093 2.73374 7.26323 3.40207 6.11001C4.07041 4.9437 4.98119 4.02637 6.1344 3.35803C7.30072 2.68969 8.57842 2.35552 9.96752 2.35552C11.3697 2.35552 12.654 2.68969 13.8203 3.35803C14.9866 4.02637 15.9039 4.9437 16.5723 6.11001C17.2537 7.26323 17.5944 8.54093 17.5944 9.94313C17.5944 11.3322 17.2537 12.6034 16.5723 13.7566C15.9039 14.8967 14.9866 15.8009 13.8203 16.4693C12.654 17.1376 11.3697 17.4718 9.96752 17.4718ZM9.96752 16.1154C11.1207 16.1154 12.1757 15.8468 13.1323 15.3095C14.0889 14.7591 14.8425 14.0121 15.3929 13.0686C15.9564 12.1251 16.2381 11.0832 16.2381 9.94313C16.2381 8.80303 15.9564 7.7612 15.3929 6.81767C14.8425 5.86102 14.0889 5.10751 13.1323 4.55711C12.1757 3.99361 11.1207 3.71186 9.96752 3.71186C8.82741 3.71186 7.77904 3.98706 6.8224 4.53745C5.87886 5.08785 5.13189 5.84137 4.5815 6.79801C4.0311 7.75465 3.7559 8.80303 3.7559 9.94313C3.7559 11.0832 4.0311 12.1251 4.5815 13.0686C5.13189 14.0121 5.87886 14.7591 6.8224 15.3095C7.77904 15.8468 8.82741 16.1154 9.96752 16.1154Z" fill="currentColor"/>
</svg>
