<svg width="20" height="20" viewBox="0 0 20 20" fill="none" xmlns="http://www.w3.org/2000/svg">
<path fill-rule="evenodd" clip-rule="evenodd" d="M4.5784 4.54343C5.92936 3.21431 7.84576 2.45001 10.1095 2.45001C12.2928 2.45001 14.1529 3.13011 15.4687 4.30692C16.7855 5.48462 17.55 7.15365 17.55 9.11428V9.13208C17.55 10.5955 17.2132 11.807 16.5983 12.6561C15.9807 13.509 15.0868 13.9893 13.9972 13.9893C12.9931 13.9893 12.1781 13.4762 11.9307 12.666L11.8963 12.5532L11.8391 12.6563C11.3915 13.4641 10.5784 13.9092 9.56194 13.9092C8.57783 13.9092 7.74954 13.5134 7.16925 12.8233C6.59046 12.1349 6.26466 11.1617 6.26466 10.0134V9.99556C6.26466 8.89431 6.59836 7.94772 7.18061 7.27451C7.76396 6.60003 8.59154 6.20658 9.56194 6.20658C10.4267 6.20658 11.1949 6.58343 11.6308 7.22009L11.722 7.35338V6.72572C11.722 6.53242 11.8787 6.37572 12.072 6.37572H12.9929C13.1862 6.37572 13.3429 6.53242 13.3429 6.72572V11.7225C13.3429 12.0096 13.4285 12.2218 13.5749 12.3628C13.7219 12.5043 13.9461 12.5892 14.2527 12.5892C14.7681 12.5892 15.2057 12.275 15.5209 11.6739C15.8371 11.0709 16.0204 10.1934 16.0204 9.11428V9.09648C16.0204 7.52777 15.4093 6.21061 14.3551 5.28424C13.2996 4.35678 11.792 3.8145 9.99087 3.8145C6.49354 3.8145 3.97962 6.40893 3.97962 10.0401V10.0579C3.97962 11.9263 4.59949 13.4531 5.69043 14.5129C6.78172 15.5731 8.3555 16.1766 10.2829 16.1766C11.3794 16.1766 12.4529 16.0455 13.0716 15.8431C13.2526 15.784 13.4615 15.9113 13.4615 16.118V16.8281C13.4615 16.9777 13.3659 17.1138 13.2191 17.1587C12.4029 17.408 11.3523 17.55 10.2646 17.55C7.88528 17.55 5.92948 16.8209 4.56781 15.5064C3.20569 14.1913 2.44999 12.3018 2.44999 10.0045V9.98666C2.44999 7.75883 3.22728 5.87269 4.5784 4.54343ZM9.79009 7.67789C9.20987 7.67789 8.70273 7.89262 8.3399 8.28636C7.97662 8.68058 7.7497 9.26354 7.7497 10.0134V10.0312C7.7497 10.7762 7.97875 11.3713 8.34232 11.7785C8.7054 12.1852 9.20817 12.4112 9.77184 12.4112C10.3525 12.4112 10.7805 12.0906 11.0914 11.6757C11.402 11.2612 11.5928 10.7539 11.5928 10.0178V10C11.5928 9.26286 11.3975 8.7204 11.092 8.32502C10.7885 7.93236 10.3724 7.67789 9.79009 7.67789Z" fill="currentColor"/>
</svg>
