<svg width="20" height="20" viewBox="0 0 20 20" fill="none" xmlns="http://www.w3.org/2000/svg">
<path d="M6.22 8.24994C6.06133 8.24994 5.93533 8.29661 5.842 8.38994C5.758 8.47394 5.716 8.59527 5.716 8.75394V11.3019C5.716 11.4513 5.76267 11.5726 5.856 11.6659C5.94933 11.7593 6.07067 11.8059 6.22 11.8059H13.822C13.9713 11.8059 14.088 11.7593 14.172 11.6659C14.2653 11.5726 14.312 11.4513 14.312 11.3019V8.75394C14.312 8.59527 14.2653 8.47394 14.172 8.38994C14.088 8.29661 13.9713 8.24994 13.822 8.24994H6.22ZM4.484 8.62794C4.484 8.15194 4.62867 7.76927 4.918 7.47994C5.20733 7.19061 5.58533 7.04594 6.052 7.04594H7.046C6.70067 6.53261 6.15467 6.12661 5.408 5.82794C4.67067 5.52927 3.84 5.38461 2.916 5.39394C2.70133 5.39394 2.524 5.33327 2.384 5.21194C2.244 5.09061 2.16933 4.93661 2.16 4.74994C2.16 4.57261 2.22067 4.42794 2.342 4.31594C2.47267 4.19461 2.64067 4.13394 2.846 4.13394C3.67667 4.12461 4.46533 4.24127 5.212 4.48394C5.95867 4.72661 6.60733 5.07194 7.158 5.51994C7.718 5.95861 8.13333 6.46728 8.404 7.04594H11.54C11.848 6.46728 12.2913 5.95861 12.87 5.51994C13.4487 5.07194 14.1113 4.72661 14.858 4.48394C15.6047 4.24127 16.3747 4.12461 17.168 4.13394C17.364 4.13394 17.5227 4.19461 17.644 4.31594C17.7747 4.42794 17.84 4.57261 17.84 4.74994C17.84 4.94594 17.7653 5.10461 17.616 5.22594C17.4667 5.33794 17.2753 5.39394 17.042 5.39394C16.1553 5.39394 15.3433 5.54327 14.606 5.84194C13.8687 6.14061 13.3087 6.54194 12.926 7.04594H13.976C14.4427 7.04594 14.8207 7.19061 15.11 7.47994C15.3993 7.75994 15.544 8.13327 15.544 8.59994V11.4279C15.544 11.9039 15.3993 12.2866 15.11 12.5759C14.83 12.8653 14.4567 13.0099 13.99 13.0099H12.926C13.2993 13.5046 13.8593 13.8966 14.606 14.1859C15.362 14.4659 16.1927 14.6013 17.098 14.5919C17.3127 14.5919 17.49 14.6526 17.63 14.7739C17.77 14.8859 17.84 15.0306 17.84 15.2079C17.84 15.3946 17.7747 15.5486 17.644 15.6699C17.5227 15.8006 17.3593 15.8659 17.154 15.8659C16.3513 15.8753 15.572 15.7586 14.816 15.5159C14.0693 15.2826 13.4067 14.9513 12.828 14.5219C12.2587 14.0833 11.82 13.5793 11.512 13.0099H8.446C8.18467 13.5793 7.774 14.0833 7.214 14.5219C6.654 14.9606 5.996 15.2966 5.24 15.5299C4.484 15.7633 3.686 15.8753 2.846 15.8659C2.65933 15.8659 2.50067 15.8006 2.37 15.6699C2.23933 15.5486 2.16933 15.3946 2.16 15.2079C2.16 15.0306 2.23 14.8859 2.37 14.7739C2.51 14.6526 2.692 14.5919 2.916 14.5919C3.84 14.6013 4.67067 14.4659 5.408 14.1859C6.15467 13.8966 6.70533 13.5046 7.06 13.0099H6.066C5.59933 13.0099 5.21667 12.8653 4.918 12.5759C4.62867 12.2866 4.484 11.9086 4.484 11.4419V8.62794Z" fill="currentcolor"/>
</svg>
