<svg width="20" height="20" viewBox="0 0 20 20" fill="none" xmlns="http://www.w3.org/2000/svg">
<path d="M4.83704 11.1225C4.50942 11.1225 4.23423 11.0112 4.01145 10.7884C3.78867 10.5525 3.67728 10.2642 3.67728 9.92347C3.67728 9.59585 3.78867 9.32065 4.01145 9.09787C4.23423 8.87509 4.50942 8.7637 4.83704 8.7637C5.16466 8.7637 5.43986 8.87509 5.66264 9.09787C5.89852 9.32065 6.01646 9.59585 6.01646 9.92347C6.01646 10.2642 5.89852 10.5525 5.66264 10.7884C5.43986 11.0112 5.16466 11.1225 4.83704 11.1225ZM9.98718 11.1225C9.65956 11.1225 9.37781 11.0112 9.14193 10.7884C8.91915 10.5525 8.81431 10.2642 8.82742 9.92347C8.81431 9.59585 8.91915 9.32065 9.14193 9.09787C9.37781 8.87509 9.65956 8.7637 9.98718 8.7637C10.3279 8.7637 10.6097 8.87509 10.8324 9.09787C11.0683 9.32065 11.1797 9.59585 11.1666 9.92347C11.1797 10.2642 11.0683 10.5525 10.8324 10.7884C10.6097 11.0112 10.3279 11.1225 9.98718 11.1225ZM15.157 11.1225C14.8294 11.1225 14.5476 11.0046 14.3117 10.7687C14.0758 10.5328 13.9579 10.2511 13.9579 9.92347C13.9579 9.59585 14.0693 9.32065 14.2921 9.09787C14.528 8.87509 14.8163 8.7637 15.157 8.7637C15.4846 8.7637 15.7598 8.87509 15.9826 9.09787C16.2054 9.32065 16.3167 9.59585 16.3167 9.92347C16.3167 10.2642 16.2054 10.5525 15.9826 10.7884C15.7598 11.0112 15.4846 11.1225 15.157 11.1225Z" fill="currentColor"/>
</svg>
