<svg width="20" height="20" viewBox="0 0 20 20" fill="none" xmlns="http://www.w3.org/2000/svg">
<path d="M15.6371 9.46277L11.7563 12.6558C11.5598 12.813 11.4615 13.0031 11.4615 13.2258C11.4615 13.3962 11.5204 13.5535 11.6384 13.6976C11.7694 13.868 11.9398 13.9532 12.1495 13.9532C12.3198 13.9532 12.4705 13.8942 12.6016 13.7762L17.3389 9.70724C17.6665 9.45825 17.8303 9.16994 17.8303 8.84233C17.8303 8.51471 17.6731 8.22641 17.3586 7.97742L12.6016 3.90842C12.4705 3.79047 12.3198 3.7315 12.1495 3.7315C11.9529 3.7315 11.7825 3.81013 11.6384 3.96739C11.5073 4.12464 11.4418 4.2819 11.4418 4.43916C11.4418 4.66193 11.5466 4.85195 11.7563 5.00921L15.6672 8.21054L13.4861 8.17398H8.17588C7.20613 8.17398 6.33467 8.37711 5.56149 8.78335C4.80142 9.1896 4.20516 9.7531 3.77271 10.4739C3.34025 11.1815 3.12402 11.994 3.12402 12.9113V15.5355C3.12402 15.9067 3.42497 16.2076 3.7962 16.2076C4.16428 16.2076 4.46391 15.9116 4.46834 15.5435L4.50002 12.9113C4.50002 12.2561 4.65727 11.6729 4.97178 11.1619C5.2863 10.6377 5.71875 10.2314 6.26915 9.94312C6.83265 9.65481 7.46823 9.51066 8.17588 9.51066H13.5058L15.6371 9.46277Z" fill="currentColor"/>
</svg>
