<svg xmlns="http://www.w3.org/2000/svg" width="20" height="20" viewBox="0 0 20 20" fill="none">
  <path d="M8.96777 1.73383C9.00822 1.74225 9.05017 1.75627 9.09375 1.77582L9.23047 1.85199L11.585 3.55023L11.5859 3.55121C11.7148 3.64222 11.7747 3.73955 11.7881 3.84027L11.792 3.88617C11.7919 3.90164 11.79 3.91745 11.7881 3.93207C11.7746 4.0323 11.7147 4.12919 11.5859 4.22016L9.22559 5.91352C9.12871 5.97989 9.04194 6.0202 8.96387 6.03754C8.93742 6.0434 8.91264 6.04628 8.88965 6.0473C8.86565 6.04716 8.84368 6.04618 8.82422 6.04242C8.763 6.03047 8.70834 6.00082 8.66016 5.95062C8.60427 5.88266 8.56841 5.77433 8.56836 5.61469V4.53949L8.44434 4.57074C8.13732 4.64722 7.83806 4.74818 7.54688 4.87348C6.89817 5.15027 6.31647 5.52236 5.80371 5.98871L5.58887 6.19477C5.09569 6.68372 4.69436 7.24422 4.38672 7.87641L4.26074 8.1518C3.94391 8.89449 3.78619 9.69219 3.78613 10.5414C3.7862 11.3907 3.94391 12.1884 4.26074 12.9311L4.38672 13.2055C4.69432 13.8345 5.09582 14.3961 5.58887 14.8891C6.15255 15.4527 6.80571 15.8922 7.54688 16.2084C8.29434 16.5301 9.09073 16.6918 9.93555 16.6918L10.252 16.684C10.9836 16.6488 11.6754 16.4909 12.3252 16.2094C13.0661 15.8932 13.7187 15.4524 14.2822 14.8891L14.4893 14.6733C14.9592 14.1606 15.3335 13.5797 15.6104 12.9311C15.9272 12.1884 16.0849 11.3908 16.085 10.5414C16.0849 9.87488 15.9862 9.24334 15.7881 8.64887C15.6151 8.12591 15.38 7.6398 15.082 7.19184L14.9502 7.00141C14.5952 6.49882 14.1732 6.06197 13.6855 5.69184C13.5691 5.59181 13.4865 5.48145 13.4365 5.36078L13.3975 5.23578C13.3607 5.07185 13.3941 4.9094 13.5068 4.74457L13.5059 4.74359C13.6098 4.60408 13.7528 4.52457 13.9395 4.50336H13.9414C14.1219 4.47879 14.2959 4.5343 14.4678 4.68402L14.4727 4.68793C15.0677 5.14387 15.5808 5.67719 16.0127 6.28656C16.4493 6.89595 16.7873 7.5608 17.0225 8.2807C17.262 8.99958 17.3818 9.75416 17.3818 10.5414C17.3818 11.4408 17.2328 12.2906 16.9355 13.0893L16.7988 13.4291C16.4146 14.327 15.8816 15.1168 15.2002 15.7983C14.5187 16.4798 13.7261 17.0127 12.8232 17.3969C11.9266 17.7853 10.9636 17.9809 9.93555 17.9809C8.90754 17.9809 7.94538 17.7852 7.04883 17.3969C6.15101 17.0127 5.36022 16.4797 4.67871 15.7983C4.08217 15.2017 3.59717 14.5224 3.22461 13.7602L3.07227 13.4291C2.68875 12.5326 2.49616 11.5695 2.49609 10.5414C2.49615 9.51348 2.68886 8.55117 3.07227 7.65473C3.4565 6.75176 3.9895 5.96126 4.6709 5.28461C5.35739 4.60293 6.14987 4.07025 7.04785 3.68598L7.04883 3.685C7.51114 3.48586 7.99161 3.33872 8.48828 3.24164L8.56836 3.22602V2.1557C8.56846 1.98881 8.60572 1.88347 8.66016 1.82172C8.7087 1.76754 8.76209 1.73737 8.82129 1.72699C8.84044 1.72372 8.86365 1.72306 8.88867 1.72406C8.91489 1.72509 8.94121 1.7283 8.96777 1.73383Z" fill="currentcolor"/>
  <path d="M12.5195 6.70062C12.5769 6.70261 12.6077 6.71673 12.624 6.72992C12.6671 6.76519 12.704 6.83924 12.7041 6.98676V8.51215C12.7041 8.67776 12.6827 8.78752 12.6523 8.85395L12.6191 8.90668C12.5852 8.94534 12.5184 8.98473 12.4072 9.01801L12.2803 9.04926L12.2764 9.05023L10.4668 9.49555C10.3715 9.51343 10.2868 9.55364 10.2334 9.62934C10.2051 9.66998 10.1886 9.72199 10.1787 9.77484C10.1686 9.82895 10.1641 9.8928 10.1641 9.9643V12.5551C10.164 13.0968 9.99621 13.5373 9.66602 13.8813C9.3419 14.2187 8.91632 14.3901 8.38086 14.3901C8.00656 14.39 7.71612 14.2857 7.5 14.0873C7.28852 13.8886 7.18182 13.6381 7.18164 13.3295C7.18174 12.9751 7.29974 12.7017 7.52832 12.4995C7.76776 12.2877 8.06406 12.1363 8.41992 12.0473L8.4209 12.0463L9.13672 11.8569C9.23186 11.8318 9.3128 11.8056 9.37598 11.7768C9.43602 11.7494 9.49237 11.7134 9.52734 11.6655C9.56135 11.6195 9.58251 11.5611 9.59473 11.4985C9.60723 11.4341 9.61229 11.3572 9.6123 11.2709V7.84809C9.61233 7.73777 9.61999 7.64883 9.63281 7.58051C9.63935 7.5458 9.64721 7.51804 9.65527 7.49652L9.67969 7.44867C9.72222 7.39905 9.82479 7.34339 10.0176 7.29633L12.2881 6.7348C12.385 6.70943 12.4621 6.69864 12.5195 6.70062Z" fill="currentcolor"/>
</svg>
