<svg width="20" height="20" viewBox="0 0 20 20" fill="none" xmlns="http://www.w3.org/2000/svg">
<path d="M2.94855 14.4053C2.94855 14.746 3.05339 15.0212 3.26306 15.2309C3.47274 15.4405 3.74139 15.5454 4.069 15.5454H16.0205C16.3612 15.5454 16.6364 15.4405 16.8461 15.2309C17.0557 15.0081 17.1606 14.7329 17.1606 14.4053V11.3388H12.9933C12.9147 11.3388 12.8622 11.3781 12.836 11.4567C12.6657 12.0726 12.325 12.5772 11.8139 12.9703C11.3028 13.3504 10.7262 13.5404 10.0841 13.5404C9.44192 13.5404 8.85876 13.3438 8.33458 12.9507C7.82349 12.5575 7.48277 12.053 7.31241 11.4371C7.2862 11.3715 7.24033 11.3388 7.17481 11.3388H2.94855V14.4053ZM3.95106 16.9017C3.24341 16.9017 2.6668 16.6855 2.22124 16.253C1.78879 15.8075 1.57256 15.2243 1.57256 14.5036L1.59222 11.0832C1.59222 10.8736 1.61843 10.6442 1.67085 10.3952C1.73637 10.1332 1.82155 9.91037 1.92639 9.72691L5.09117 4.02637C5.27463 3.71186 5.52362 3.45632 5.83813 3.25975C6.16575 3.06318 6.50647 2.97145 6.8603 2.98455H13.2292C13.5961 2.98455 13.9368 3.08284 14.2513 3.27941C14.579 3.46287 14.8345 3.70531 15.018 4.00672L18.1827 9.68759C18.2876 9.87106 18.3728 10.0873 18.4383 10.3363C18.5038 10.5853 18.5366 10.8146 18.5366 11.0243V14.5036C18.5235 15.2243 18.3007 15.8075 17.8682 16.253C17.4358 16.6855 16.8657 16.9017 16.1581 16.9017H3.95106ZM12.4036 5.57928C12.5477 5.57928 12.6657 5.6317 12.7574 5.73653C12.8622 5.82827 12.9147 5.95276 12.9147 6.11002C12.9147 6.25417 12.8622 6.37866 12.7574 6.4835C12.6657 6.57523 12.5477 6.6211 12.4036 6.6211H7.70555C7.5483 6.6211 7.4238 6.57523 7.33207 6.4835C7.24033 6.37866 7.19447 6.25417 7.19447 6.11002C7.19447 5.95276 7.24033 5.82827 7.33207 5.73653C7.4238 5.6317 7.5483 5.57928 7.70555 5.57928H12.4036ZM13.3078 7.78086C13.4782 7.78086 13.6158 7.83328 13.7206 7.93812C13.8385 8.04296 13.8975 8.17401 13.8975 8.33126C13.8975 8.50162 13.8385 8.63922 13.7206 8.74406C13.6158 8.8489 13.4782 8.90131 13.3078 8.90131H6.78167C6.61131 8.90131 6.47371 8.8489 6.36887 8.74406C6.26404 8.63922 6.21162 8.50162 6.21162 8.33126C6.21162 8.17401 6.26404 8.04296 6.36887 7.93812C6.47371 7.83328 6.61131 7.78086 6.78167 7.78086H13.3078ZM7.86281 10.0414C8.08559 10.0414 8.2625 10.1069 8.39355 10.238C8.52459 10.369 8.59012 10.546 8.59012 10.7687C8.65564 11.2274 8.81945 11.5878 9.08154 11.8499C9.34364 12.112 9.67781 12.243 10.0841 12.243C10.4903 12.243 10.8245 12.112 11.0866 11.8499C11.3618 11.5878 11.5256 11.2274 11.578 10.7687C11.5649 10.546 11.6239 10.369 11.7549 10.238C11.8859 10.1069 12.0563 10.0414 12.266 10.0414H16.8264L13.9761 4.75368C13.8975 4.60953 13.7796 4.49159 13.6223 4.39986C13.4782 4.29502 13.3209 4.2426 13.1505 4.2426H6.97824C6.80788 4.2426 6.64407 4.29502 6.48682 4.39986C6.32956 4.49159 6.21162 4.60953 6.13299 4.75368L3.30238 10.0414H7.86281Z" fill="currentcolor"/>
<path d="M3.95106 16.9017C3.24341 16.9017 2.6668 16.6855 2.22124 16.253C1.78879 15.8075 1.57256 15.2243 1.57256 14.5036L1.59222 11.0832C1.59222 10.8736 1.61843 10.6442 1.67085 10.3952C1.73637 10.1332 1.82155 9.91037 1.92639 9.72691L5.09117 4.02637C5.27463 3.71186 5.52362 3.45632 5.83813 3.25975C6.16575 3.06318 6.50647 2.97145 6.8603 2.98455H13.2292C13.5961 2.98455 13.9368 3.08284 14.2513 3.27941C14.579 3.46287 14.8345 3.70531 15.018 4.00672L18.1827 9.68759C18.2876 9.87106 18.3728 10.0873 18.4383 10.3363C18.5038 10.5853 18.5366 10.8146 18.5366 11.0243V14.5036C18.5235 15.2243 18.3007 15.8075 17.8682 16.253C17.4358 16.6855 16.8657 16.9017 16.1581 16.9017H3.95106ZM12.4036 5.57928C12.5477 5.57928 12.6657 5.6317 12.7574 5.73653C12.8622 5.82827 12.9147 5.95276 12.9147 6.11002C12.9147 6.25417 12.8622 6.37866 12.7574 6.4835C12.6657 6.57523 12.5477 6.6211 12.4036 6.6211H7.70555C7.5483 6.6211 7.4238 6.57523 7.33207 6.4835C7.24033 6.37866 7.19447 6.25417 7.19447 6.11002C7.19447 5.95276 7.24033 5.82827 7.33207 5.73653C7.4238 5.6317 7.5483 5.57928 7.70555 5.57928H12.4036ZM13.3078 7.78086C13.4782 7.78086 13.6158 7.83328 13.7206 7.93812C13.8385 8.04296 13.8975 8.17401 13.8975 8.33126C13.8975 8.50162 13.8385 8.63922 13.7206 8.74406C13.6158 8.8489 13.4782 8.90131 13.3078 8.90131H6.78167C6.61131 8.90131 6.47371 8.8489 6.36887 8.74406C6.26404 8.63922 6.21162 8.50162 6.21162 8.33126C6.21162 8.17401 6.26404 8.04296 6.36887 7.93812C6.47371 7.83328 6.61131 7.78086 6.78167 7.78086H13.3078ZM7.86281 10.0414C8.08559 10.0414 8.2625 10.1069 8.39355 10.238C8.52459 10.369 8.59012 10.546 8.59012 10.7687C8.65564 11.2274 8.81945 11.5878 9.08154 11.8499C9.34364 12.112 9.67781 12.243 10.0841 12.243C10.4903 12.243 10.8245 12.112 11.0866 11.8499C11.3618 11.5878 11.5256 11.2274 11.578 10.7687C11.5649 10.546 11.6239 10.369 11.7549 10.238C11.8859 10.1069 12.0563 10.0414 12.266 10.0414H16.8264L13.9761 4.75368C13.8975 4.60953 13.7796 4.49159 13.6223 4.39986C13.4782 4.29502 13.3209 4.2426 13.1505 4.2426H6.97824C6.80788 4.2426 6.64407 4.29502 6.48682 4.39986C6.32956 4.49159 6.21162 4.60953 6.13299 4.75368L3.30238 10.0414H7.86281Z" fill="currentcolor"/>
</svg>
