<svg width="20" height="20" viewBox="0 0 20 20" fill="none" xmlns="http://www.w3.org/2000/svg">
<path d="M1.66667 12.5H2.89574V9.66563H3.53852L2.62026 9.21171L5.09251 12.5H6.12026V7.5H4.8912V10.3101H4.24841L5.16668 10.7606L2.70149 7.5H1.66667L1.66667 12.5Z" fill="currentColor"/>
<path d="M7.25227 12.5H10.7452V11.4778H8.54844V10.4556H10.6145V9.5201H8.54844V8.52218H10.7452V7.5H7.25227V12.5Z" fill="currentColor"/>
<path d="M12.8131 12.5H14.0351L14.8722 9.4404H14.9358L15.7869 12.5H17.0019L18.3333 7.5L16.9983 7.5L16.3308 10.8125H16.2672L15.4231 7.5H14.3848L13.569 10.8125H13.5054L12.8273 7.5H11.4817L12.8131 12.5Z" fill="currentColor"/>
<path fill-rule="evenodd" clip-rule="evenodd" d="M2.5 5.37543C2.5 3.73894 3.82664 2.41229 5.46314 2.41229H14.5369C16.1734 2.41229 17.5 3.73893 17.5 5.37543V6.79928H16.1916V5.37543C16.1916 4.46154 15.4507 3.72069 14.5369 3.72069H5.46314C4.54925 3.72069 3.8084 4.46154 3.8084 5.37543V6.79928H2.5V5.37543ZM2.5 14.4492V13.1873H3.8084V14.4492C3.8084 15.363 4.54925 16.1039 5.46314 16.1039H14.5369C15.4507 16.1039 16.1916 15.363 16.1916 14.4492V13.1873H17.5V14.4492C17.5 16.0856 16.1734 17.4123 14.5369 17.4123H5.46314C3.82665 17.4123 2.5 16.0856 2.5 14.4492Z" fill="currentColor"/>
</svg>
