<svg width="20" height="20" viewBox="0 0 20 20" fill="none" xmlns="http://www.w3.org/2000/svg">
<path d="M7.60868 4.73402C7.60868 4.58987 7.65454 4.47848 7.74627 4.39985C7.83801 4.30812 7.95595 4.26225 8.1001 4.26225H9.98717C10.1313 4.26225 10.2427 4.30812 10.3213 4.39985C10.4131 4.47848 10.4589 4.58987 10.4589 4.73402V6.64075C10.4589 6.7849 10.4131 6.90285 10.3213 6.99458C10.2427 7.07321 10.1313 7.11252 9.98717 7.11252H8.08044C7.93629 7.11252 7.81835 7.07321 7.72662 6.99458C7.63489 6.90285 7.58902 6.7849 7.58902 6.64075L7.60868 4.73402ZM8.3753 10.7491C8.21804 10.7491 8.087 10.7949 7.98216 10.8867C7.89043 10.9784 7.84456 11.1094 7.84456 11.2798V13.7762C7.84456 13.9335 7.89043 14.0646 7.98216 14.1694C8.087 14.2611 8.21804 14.307 8.3753 14.307H14.5476C14.7049 14.307 14.8294 14.2611 14.9211 14.1694C15.0259 14.0646 15.0783 13.9335 15.0783 13.7762V11.2798C15.0783 11.1094 15.0259 10.9784 14.9211 10.8867C14.8294 10.7949 14.7049 10.7491 14.5476 10.7491H8.3753ZM6.48823 11.0439C6.48823 10.5459 6.63893 10.1463 6.94034 9.84485C7.25485 9.53033 7.65454 9.37308 8.13942 9.37308L14.7638 9.39273C15.2618 9.39273 15.6615 9.54999 15.9629 9.8645C16.2774 10.1659 16.4347 10.5656 16.4347 11.0636V13.9925C16.4347 14.4905 16.2774 14.8967 15.9629 15.2112C15.6615 15.5257 15.2684 15.683 14.7835 15.683H8.15907C7.66109 15.683 7.25485 15.5323 6.94034 15.2309C6.63893 14.9295 6.48823 14.5298 6.48823 14.0318V11.0439ZM6.50788 6.40487H5.4464C5.28915 6.40487 5.1581 6.45729 5.05326 6.56212C4.96153 6.65386 4.91566 6.77835 4.91566 6.93561V11.3191C4.91566 11.4764 4.96153 11.6074 5.05326 11.7123C5.1581 11.804 5.28915 11.8499 5.4464 11.8499H7.01897V13.2062H5.23018C4.7322 13.2062 4.32595 13.0555 4.01144 12.7541C3.69693 12.4396 3.53967 12.0399 3.53967 11.555V6.71938C3.53967 6.2214 3.69038 5.81516 3.99178 5.50064C4.3063 5.18613 4.71254 5.02888 5.21052 5.02888H6.50788V6.40487Z" fill="currentColor"/>
</svg>
