<svg width="20" height="20" viewBox="0 0 20 20" fill="none" xmlns="http://www.w3.org/2000/svg">
<path d="M1.98677 9.09787C1.98677 8.95372 2.03264 8.83578 2.12437 8.74405C2.2161 8.65232 2.33404 8.60645 2.4782 8.60645H4.34561C4.48976 8.60645 4.60771 8.65232 4.69944 8.74405C4.79117 8.83578 4.83704 8.95372 4.83704 9.09787V10.9849C4.83704 11.1291 4.79117 11.247 4.69944 11.3388C4.60771 11.4174 4.48976 11.4567 4.34561 11.4567H2.45854C2.31439 11.4567 2.19645 11.4174 2.10471 11.3388C2.01298 11.247 1.96711 11.1291 1.96711 10.9849L1.98677 9.09787ZM9.41712 8.07571C9.25987 8.07571 9.12882 8.12813 9.02398 8.23297C8.93225 8.3247 8.88638 8.45574 8.88638 8.62611L8.86673 11.4567C8.86673 11.614 8.91259 11.745 9.00433 11.8499C9.10916 11.9416 9.24676 11.9875 9.41712 11.9875H16.0415C16.2119 11.9875 16.3429 11.9416 16.4347 11.8499C16.5264 11.745 16.5723 11.6074 16.5723 11.4371L16.5919 8.62611C16.5919 8.45574 16.5395 8.3247 16.4347 8.23297C16.3429 8.12813 16.2119 8.07571 16.0415 8.07571H9.41712ZM7.45142 8.39022C7.45142 7.89224 7.60213 7.49255 7.90353 7.19114C8.21805 6.87663 8.61774 6.71938 9.10261 6.71938H16.3364C16.8344 6.71938 17.2406 6.87663 17.5551 7.19114C17.8696 7.49255 18.0269 7.89224 18.0269 8.39022L18.0072 11.6729C18.0072 12.1709 17.85 12.5772 17.5355 12.8917C17.2341 13.1931 16.8409 13.3438 16.3561 13.3438H9.12227C8.62429 13.3438 8.21805 13.1931 7.90353 12.8917C7.58902 12.5772 7.43176 12.1709 7.43176 11.6729L7.45142 8.39022ZM7.86422 10.7098H5.93783V9.33376H7.86422V10.7098Z" fill="currentColor"/>
</svg>
