<svg width="20" height="20" viewBox="0 0 20 20" fill="none" xmlns="http://www.w3.org/2000/svg">
<path fill-rule="evenodd" clip-rule="evenodd" d="M4.36684 4.64223C4.72742 3.64086 5.6858 2.9248 6.81151 2.9248H14.4981C15.6238 2.9248 16.5822 3.64086 16.9428 4.64223C16.9467 4.65308 16.945 4.66515 16.9384 4.67459C16.9318 4.68402 16.921 4.68964 16.9094 4.68964H15.4402C15.4303 4.68964 15.4208 4.6855 15.4141 4.67823C15.1865 4.43131 14.8603 4.27671 14.4981 4.27671H6.81151C6.44925 4.27671 6.12314 4.43131 5.89547 4.67823C5.88877 4.6855 5.87933 4.68964 5.86944 4.68964H4.40015C4.38862 4.68964 4.37781 4.68402 4.37118 4.67459C4.36455 4.66515 4.36293 4.65308 4.36684 4.64223ZM3.36011 8.06343C3.36011 6.62882 4.52309 5.46583 5.9577 5.46583H15.3524C16.787 5.46583 17.95 6.62882 17.95 8.06343V14.8959C17.95 16.3305 16.787 17.4935 15.3524 17.4935H7.68194C7.66856 17.4935 7.65633 17.486 7.65031 17.474C7.6443 17.4621 7.64553 17.4478 7.6535 17.437C7.93509 17.0573 8.15462 16.6288 8.29715 16.1666C8.30173 16.1518 8.31545 16.1416 8.33098 16.1416H15.3524C16.0404 16.1416 16.5981 15.5839 16.5981 14.8959V8.06343C16.5981 7.37545 16.0404 6.81774 15.3524 6.81774H5.9577C5.26973 6.81774 4.71201 7.37545 4.71201 8.06343V10.6679C4.71201 10.6779 4.70779 10.6874 4.70038 10.6941C4.69296 10.7008 4.68306 10.7041 4.67311 10.7031C4.53382 10.6893 4.39253 10.6822 4.24958 10.6822C3.95947 10.6822 3.67621 10.7114 3.40256 10.7669C3.39214 10.769 3.38133 10.7663 3.37311 10.7596C3.36488 10.7529 3.36011 10.7428 3.36011 10.7322V8.06343Z" fill="currentColor"/>
<path fill-rule="evenodd" clip-rule="evenodd" d="M7.6817 14.9374C7.6817 16.7865 6.11494 18.3333 4.25752 18.3333C2.37883 18.3333 0.833344 16.8006 0.833344 14.9374C0.833344 13.0743 2.37883 11.5415 4.25752 11.5415C6.12912 11.5415 7.6817 13.0743 7.6817 14.9374ZM3.8038 16.7162C3.8038 16.9764 4.01648 17.1451 4.25752 17.1451C4.49856 17.1451 4.71124 16.9764 4.71124 16.7162V15.3593H5.98025C6.2142 15.3593 6.40561 15.1624 6.40561 14.9304C6.40561 14.7054 6.2142 14.5086 5.98025 14.5086H4.71124V13.1516C4.71124 12.8915 4.49856 12.7227 4.25752 12.7227C4.01648 12.7227 3.8038 12.8915 3.8038 13.1516V14.5086H2.5348C2.30085 14.5086 2.10235 14.7054 2.10235 14.9304C2.10235 15.1624 2.30085 15.3593 2.5348 15.3593H3.8038V16.7162Z" fill="currentColor"/>
</svg>
