<svg width="20" height="20" viewBox="0 0 20 20" fill="none" xmlns="http://www.w3.org/2000/svg">
<path d="M5.23483 18.3563C4.54029 18.3563 3.90471 18.186 3.3281 17.8453C2.7646 17.5176 2.31904 17.0721 1.99143 16.5086C1.66381 15.932 1.5 15.2964 1.5 14.6019C1.5 13.9204 1.66381 13.2979 1.99143 12.7344C2.31904 12.1578 2.7646 11.7057 3.3281 11.3781C3.90471 11.0505 4.54029 10.8867 5.23483 10.8867C5.91628 10.8867 6.53875 11.0505 7.10225 11.3781C7.67886 11.7057 8.13097 12.1578 8.45858 12.7344C8.7862 13.2979 8.95001 13.9204 8.95001 14.6019C8.95001 15.2964 8.7862 15.932 8.45858 16.5086C8.13097 17.0721 7.67886 17.5176 7.10225 17.8453C6.53875 18.186 5.91628 18.3563 5.23483 18.3563ZM5.68695 14.1497V12.6951C5.68695 12.5641 5.64108 12.4527 5.54935 12.361C5.47072 12.2692 5.36588 12.2234 5.23483 12.2234C5.10379 12.2234 4.9924 12.2692 4.90066 12.361C4.82204 12.4527 4.78272 12.5641 4.78272 12.6951V14.1497H3.3281C3.19706 14.1497 3.08567 14.1956 2.99393 14.2873C2.91531 14.366 2.87599 14.4708 2.87599 14.6019C2.87599 14.7329 2.91531 14.8443 2.99393 14.936C3.08567 15.0278 3.19706 15.0736 3.3281 15.0736H4.78272V16.5479C4.78272 16.6658 4.82204 16.7707 4.90066 16.8624C4.9924 16.9541 5.10379 17 5.23483 17C5.36588 17 5.47072 16.9541 5.54935 16.8624C5.64108 16.7707 5.68695 16.6658 5.68695 16.5479V15.0736H7.14156C7.25951 15.0736 7.35779 15.0278 7.43642 14.936C7.52815 14.8443 7.57402 14.7329 7.57402 14.6019C7.57402 14.4708 7.52815 14.366 7.43642 14.2873C7.35779 14.1956 7.25951 14.1497 7.14156 14.1497H5.68695ZM8.96967 17.6684C9.29728 17.2752 9.53972 16.8165 9.69698 16.2924H14.9257C15.2665 16.2924 15.5417 16.1875 15.7513 15.9778C15.961 15.7551 16.0659 15.4799 16.0659 15.1523L16.0855 8.70475H12.6848C12.1869 8.70475 11.7806 8.55405 11.4661 8.25264C11.1647 7.93813 11.014 7.53188 11.014 7.0339V3.53495H7.12191C6.79429 3.53495 6.51909 3.64634 6.29631 3.86912C6.08664 4.0788 5.9818 4.354 5.9818 4.69472V9.86451C5.64108 9.81209 5.38554 9.78588 5.21518 9.78588C5.0055 9.78588 4.80238 9.80554 4.60581 9.84486V4.57678C4.60581 3.85602 4.82204 3.27941 5.25449 2.84696C5.70005 2.4014 6.27666 2.17862 6.98431 2.17862H11.702C11.9117 2.17862 12.1279 2.23104 12.3507 2.33587C12.5866 2.42761 12.7766 2.54555 12.9207 2.6897L16.9504 6.77836C17.0946 6.93562 17.2125 7.13219 17.3042 7.36807C17.396 7.59085 17.4418 7.80708 17.4418 8.01675V15.2702C17.4418 15.991 17.2191 16.5676 16.7735 17C16.3411 17.4456 15.771 17.6684 15.0633 17.6684H8.96967ZM12.3114 6.81768C12.3114 6.98804 12.3703 7.13219 12.4883 7.25013C12.6062 7.35497 12.7504 7.40739 12.9207 7.40739H15.7513L12.3114 3.96741V6.81768Z" fill="currentColor"/>
</svg>
