<svg width="20" height="20" viewBox="0 0 20 20" fill="none" xmlns="http://www.w3.org/2000/svg">
<path fill-rule="evenodd" clip-rule="evenodd" d="M7.6817 14.9374C7.6817 16.7865 6.11494 18.3333 4.25752 18.3333C2.37883 18.3333 0.833344 16.8006 0.833344 14.9374C0.833344 13.0743 2.37883 11.5415 4.25752 11.5415C6.12912 11.5415 7.6817 13.0743 7.6817 14.9374ZM3.8038 16.7162C3.8038 16.9764 4.01648 17.1451 4.25752 17.1451C4.49856 17.1451 4.71124 16.9764 4.71124 16.7162V15.3593H5.98025C6.2142 15.3593 6.40561 15.1624 6.40561 14.9304C6.40561 14.7054 6.2142 14.5086 5.98025 14.5086H4.71124V13.1516C4.71124 12.8915 4.49856 12.7227 4.25752 12.7227C4.01648 12.7227 3.8038 12.8915 3.8038 13.1516V14.5086H2.5348C2.30085 14.5086 2.10235 14.7054 2.10235 14.9304C2.10235 15.1624 2.30085 15.3593 2.5348 15.3593H3.8038V16.7162Z" fill="currentColor"/>
<path fill-rule="evenodd" clip-rule="evenodd" d="M15.5894 14.7001C15.039 14.9753 14.4035 15.1129 13.6827 15.1129H8.67811C8.65871 15.5874 8.56106 16.0436 8.39808 16.4693H13.6827C14.6656 16.4693 15.537 16.2727 16.2971 15.8796C17.0703 15.4733 17.6731 14.9164 18.1055 14.2087C18.538 13.488 18.7542 12.6755 18.7542 11.7712C18.7542 10.9981 18.6101 10.2904 18.3218 9.64828C18.0466 8.99305 17.66 8.46231 17.162 8.05607C16.664 7.63672 16.094 7.38117 15.4518 7.28944C15.347 6.51627 15.0194 5.90035 14.469 5.44168C13.9186 4.96991 13.2503 4.73403 12.464 4.73403C12.3329 4.73403 12.1364 4.74713 11.8743 4.77334C11.5335 4.26226 11.0225 3.84291 10.341 3.51529C9.67268 3.17457 8.99124 3.00421 8.29669 3.00421C7.39246 3.00421 6.59308 3.22044 5.89853 3.65289C5.20398 4.08535 4.67324 4.68816 4.30631 5.46134C3.93938 6.22141 3.77557 7.09287 3.81489 8.07572C3.02861 8.2985 2.38648 8.78993 1.8885 9.55C1.44381 10.217 1.19767 10.9729 1.15009 11.8176C1.61346 11.3621 2.17647 11.007 2.80167 10.7883C2.89846 10.5856 3.01997 10.3956 3.16621 10.2183C3.59866 9.68105 4.16871 9.33377 4.87637 9.17652C4.99431 9.16341 5.08604 9.11754 5.15156 9.03892C5.21709 8.94718 5.24985 8.84235 5.24985 8.7244V8.68509C5.21054 8.40989 5.19088 8.14125 5.19088 7.87915C5.19088 6.81767 5.46608 5.97242 6.01647 5.3434C6.57998 4.70127 7.34005 4.3802 8.29669 4.3802C8.86019 4.3802 9.38438 4.5047 9.86925 4.75369C10.3672 5.00267 10.7538 5.34995 11.029 5.79551C11.1207 6.00518 11.2846 6.11002 11.5204 6.11002C11.586 6.11002 11.6318 6.10347 11.658 6.09036C11.8808 6.05105 12.0774 6.03139 12.2477 6.03139C12.8637 6.03139 13.3485 6.22141 13.7024 6.60145C14.0693 6.96838 14.2528 7.47291 14.2528 8.11504C14.2397 8.23298 14.2659 8.33782 14.3314 8.42955C14.41 8.50818 14.5083 8.54749 14.6262 8.54749H14.6656C15.5043 8.59991 16.166 8.92097 16.6509 9.51068C17.1358 10.0873 17.3782 10.8408 17.3782 11.7712C17.3782 12.4134 17.221 12.99 16.9065 13.5011C16.592 14.0121 16.1529 14.4118 15.5894 14.7001Z" fill="currentColor"/>
</svg>
