<svg width="20" height="20" viewBox="0 0 20 20" fill="none" xmlns="http://www.w3.org/2000/svg">
<path d="M16.9261 7.78086V14.4642C16.9261 15.185 16.7033 15.7682 16.2578 16.2137C15.8253 16.6462 15.2553 16.8624 14.5476 16.8624L5.50537 16.8821C4.79772 16.8821 4.22767 16.6658 3.79521 16.2334C3.36276 15.7878 3.14653 15.2047 3.14653 14.4839V5.71687C3.14653 4.99611 3.36276 4.41951 3.79521 3.98705C4.24077 3.54149 4.81738 3.31871 5.52503 3.31871H15.2553L14.2921 4.67505H5.7216C5.39398 4.67505 5.11878 4.77989 4.896 4.98956C4.68633 5.19923 4.58149 5.47443 4.58149 5.81516V14.3856C4.58149 14.7132 4.68633 14.9819 4.896 15.1916C5.10568 15.4012 5.38088 15.5061 5.7216 15.5061H14.351C14.6918 15.5061 14.967 15.4012 15.1766 15.1916C15.3863 14.9688 15.4911 14.6936 15.4911 14.366V9.76622L16.9261 7.78086ZM10.5179 12.8917C10.4393 12.8917 10.4196 12.8327 10.4589 12.7148L11.0093 11.3191L17.3192 2.74866C17.4503 2.5783 17.6075 2.49312 17.791 2.49312C17.9614 2.49312 18.1383 2.56519 18.3218 2.70935C18.4528 2.84039 18.5183 2.9911 18.5183 3.16146C18.5183 3.34492 18.4462 3.52839 18.3021 3.71185L11.9725 12.2823L10.5965 12.872L10.5179 12.8917ZM11.3239 6.32624C11.5204 6.32624 11.6842 6.39176 11.8153 6.52281C11.9463 6.64075 12.0118 6.80456 12.0118 7.01423C12.0118 7.2108 11.9463 7.37461 11.8153 7.50566C11.6842 7.6236 11.5204 7.68257 11.3239 7.68257H6.86171C6.66514 7.68257 6.50133 7.6236 6.37028 7.50566C6.25234 7.37461 6.19337 7.2108 6.19337 7.01423C6.19337 6.80456 6.25234 6.64075 6.37028 6.52281C6.50133 6.39176 6.66514 6.32624 6.86171 6.32624H11.3239ZM9.49575 9.19616C9.69232 9.19616 9.85613 9.26169 9.98717 9.39273C10.1182 9.52378 10.1837 9.68759 10.1837 9.88416C10.1837 10.0807 10.1182 10.2445 9.98717 10.3756C9.85613 10.4935 9.69232 10.5525 9.49575 10.5525H6.86171C6.66514 10.5525 6.50133 10.4935 6.37028 10.3756C6.25234 10.2576 6.19337 10.0938 6.19337 9.88416C6.19337 9.68759 6.25234 9.52378 6.37028 9.39273C6.50133 9.26169 6.66514 9.19616 6.86171 9.19616H9.49575Z" fill="currentColor"/>
</svg>
