<svg width="20" height="20" viewBox="0 0 20 20" fill="none" xmlns="http://www.w3.org/2000/svg">
<path d="M15.1766 8.37057C15.7139 7.83328 15.9826 7.2108 15.9826 6.50315C15.9826 5.8086 15.7401 5.21889 15.2553 4.73402C14.718 4.20983 14.0824 3.94774 13.3485 3.94774C12.6409 3.94774 12.0315 4.20328 11.5204 4.71436L8.84707 7.36806C8.53255 7.68257 8.29667 8.01674 8.13941 8.37057C7.98216 8.72439 7.90353 9.08477 7.90353 9.4517C7.90353 10.0414 8.10665 10.5328 8.5129 10.926C8.70947 11.1357 8.99122 11.3126 9.35815 11.4567C9.72508 11.5878 10.0789 11.6598 10.4196 11.6729L9.39746 12.6951C9.04364 12.6558 8.68981 12.5641 8.33598 12.4199C7.98216 12.2627 7.72006 12.0923 7.5497 11.9088C6.88136 11.2405 6.5472 10.4149 6.5472 9.43205C6.5472 8.89475 6.65859 8.36402 6.88136 7.83983C7.11725 7.30254 7.45142 6.82421 7.88387 6.40487L10.5572 3.75117C10.9504 3.35803 11.3894 3.06317 11.8742 2.8666C12.3591 2.67003 12.8571 2.57175 13.3682 2.57175C13.8793 2.57175 14.3707 2.67658 14.8425 2.88626C15.3273 3.08283 15.7598 3.37113 16.1398 3.75117C16.5199 4.1312 16.8082 4.56366 17.0047 5.04853C17.2144 5.5203 17.3192 6.00517 17.3192 6.50315C17.3192 7.01423 17.2144 7.51221 17.0047 7.99708C16.8082 8.48196 16.5133 8.92096 16.1202 9.3141L14.1938 11.2798C14.22 11.0439 14.2331 10.8539 14.2331 10.7098C14.2331 10.2249 14.1807 9.81208 14.0758 9.47136L15.1766 8.37057ZM3.83453 10.4935C3.44139 10.8867 3.14653 11.3257 2.94996 11.8105C2.75339 12.2954 2.65511 12.7999 2.65511 13.3241C2.65511 13.8221 2.75339 14.307 2.94996 14.7788C3.14653 15.2505 3.43483 15.6764 3.81487 16.0565C4.19491 16.4496 4.62736 16.751 5.11223 16.9607C5.59711 17.1573 6.09508 17.2555 6.60617 17.2555C7.11725 17.2555 7.61523 17.1573 8.1001 16.9607C8.58497 16.751 9.02398 16.4496 9.41712 16.0565L12.0905 13.3831C12.4705 13.0031 12.7588 12.5772 12.9554 12.1054C13.152 11.6336 13.2502 11.1553 13.2502 10.6704C13.2502 10.1987 13.1585 9.74656 12.975 9.3141C12.7916 8.86855 12.5229 8.46885 12.1691 8.11503C11.9725 7.91846 11.6973 7.74154 11.3435 7.58429C11.0028 7.42703 10.6752 7.3353 10.3607 7.30909L9.39746 8.39022C9.73818 8.41643 10.0789 8.49506 10.4196 8.62611C10.7735 8.75716 11.0355 8.91441 11.2059 9.09788C11.6646 9.55654 11.8939 10.0873 11.8939 10.6901C11.8939 11.3453 11.6384 11.9285 11.1273 12.4396L8.45393 15.0933C8.21804 15.3423 7.94284 15.5323 7.62833 15.6633C7.31382 15.7944 6.99275 15.8599 6.66514 15.8599C6.33752 15.8599 6.0099 15.7944 5.68229 15.6633C5.36777 15.5323 5.07947 15.3423 4.81738 15.0933C4.29319 14.556 4.0311 13.9335 4.0311 13.2259C4.0311 12.5051 4.28664 11.9023 4.79772 11.4174L5.52503 10.7098C5.42019 10.3952 5.36777 10.0152 5.36777 9.56965C5.36777 9.32066 5.38743 9.09132 5.42675 8.88165L3.83453 10.4935Z" fill="currentColor"/>
</svg>
