<svg width="20" height="20" viewBox="0 0 20 20" fill="none" xmlns="http://www.w3.org/2000/svg">
<path d="M16.9261 7.78084V14.4642C16.9261 15.185 16.7033 15.7681 16.2578 16.2137C15.8253 16.6462 15.2553 16.8624 14.5476 16.8624L5.50539 16.882C4.79773 16.882 4.22768 16.6658 3.79523 16.2334C3.36277 15.7878 3.14655 15.2046 3.14655 14.4839V5.71685C3.14655 4.9961 3.36277 4.41949 3.79523 3.98704C4.24079 3.54148 4.81739 3.3187 5.52504 3.3187H15.2553L11.9725 7.68256H5.51223C4.95519 7.68256 4.50553 8.13772 4.51231 8.69472L4.58151 14.3856C4.58151 14.7132 4.68635 14.9819 4.89602 15.1915C5.10569 15.4012 5.38089 15.5061 5.72162 15.5061H14.351C14.6918 15.5061 14.967 15.4012 15.1766 15.1915C15.3863 14.9688 15.4912 14.6936 15.4912 14.3659V9.7662L16.9261 7.78084ZM10.5179 12.8917C10.4393 12.8917 10.4196 12.8327 10.459 12.7148L11.0094 11.3191L17.3193 2.74864C17.4503 2.57828 17.6076 2.4931 17.791 2.4931C17.9614 2.4931 18.1383 2.56518 18.3218 2.70933C18.4528 2.84038 18.5183 2.99108 18.5183 3.16144C18.5183 3.34491 18.4463 3.52837 18.3021 3.71184L11.9725 12.2823L10.5966 12.872L10.5179 12.8917ZM9.49576 9.19615C9.69233 9.19615 9.85614 9.26167 9.98719 9.39272C10.1182 9.52376 10.1838 9.68757 10.1838 9.88414C10.1838 10.0807 10.1182 10.2445 9.98719 10.3756C9.85614 10.4935 9.69233 10.5525 9.49576 10.5525H6.86172C6.66515 10.5525 6.50134 10.4935 6.3703 10.3756C6.25235 10.2576 6.19338 10.0938 6.19338 9.88414C6.19338 9.68757 6.25235 9.52376 6.3703 9.39272C6.50134 9.26167 6.66515 9.19615 6.86172 9.19615H9.49576Z" fill="currentColor"/>
</svg>
