<svg width="20" height="20" viewBox="0 0 20 20" fill="none" xmlns="http://www.w3.org/2000/svg">
<path d="M3.60086 3.02393C3.87806 3.02393 4.10393 3.10606 4.27846 3.27033C4.46326 3.43459 4.55566 3.64506 4.55566 3.90173L4.57106 8.24453C4.57106 8.43959 4.50433 8.60386 4.37086 8.73733C4.24766 8.86053 4.08853 8.92213 3.89346 8.92213C3.68813 8.92213 3.5136 8.86053 3.36986 8.73733C3.2364 8.60386 3.16966 8.43959 3.16966 8.24453L3.20046 4.37913H2.26106C2.05573 4.37913 1.89146 4.31753 1.76826 4.19433C1.64506 4.07113 1.58346 3.91199 1.58346 3.71692C1.58346 3.51159 1.64506 3.34733 1.76826 3.22412C1.90173 3.09066 2.066 3.02393 2.26106 3.02393H3.60086ZM2.38426 16.9763C2.10706 16.9763 1.8812 16.8993 1.70666 16.7453C1.5424 16.6016 1.4654 16.4117 1.47566 16.1755C1.4654 16.0215 1.52186 15.8573 1.64506 15.6827C1.76826 15.5185 1.9274 15.385 2.12246 15.2823C2.89246 14.8717 3.52386 14.4251 4.01666 13.9425C4.51973 13.4497 4.77126 13.0288 4.77126 12.6797C4.761 12.4025 4.66346 12.1767 4.47866 12.0021C4.29386 11.8276 4.05773 11.7403 3.77026 11.7403C3.46226 11.7403 3.2056 11.8327 3.00026 12.0175C2.8052 12.2023 2.70766 12.4333 2.70766 12.7105C2.70766 12.8748 2.64606 13.0134 2.52286 13.1263C2.40993 13.229 2.2662 13.2803 2.09166 13.2803C1.88633 13.2803 1.72206 13.2239 1.59886 13.1109C1.47566 12.9877 1.41406 12.8337 1.41406 12.6489C1.41406 12.0124 1.62966 11.4888 2.06086 11.0781C2.49206 10.6675 3.04646 10.4621 3.72406 10.4621C4.43246 10.4621 5.0074 10.6675 5.44886 11.0781C5.9006 11.4888 6.12646 12.0227 6.12646 12.6797C6.12646 13.1828 5.89546 13.7064 5.43346 14.2505C4.97146 14.7844 4.376 15.2259 3.64706 15.5749V15.6827L5.66446 15.6673C5.85953 15.6571 6.01866 15.7135 6.14186 15.8367C6.26506 15.9702 6.32666 16.1396 6.32666 16.3449C6.32666 16.5297 6.26506 16.6786 6.14186 16.7915C6.01866 16.9147 5.85953 16.9763 5.66446 16.9763H2.38426ZM17.8613 3.85553C18.0769 3.85553 18.2514 3.92226 18.3849 4.05573C18.5183 4.18919 18.5851 4.35859 18.5851 4.56393C18.5851 4.76926 18.5183 4.93866 18.3849 5.07213C18.2514 5.19533 18.0769 5.25693 17.8613 5.25693H8.08226C7.87693 5.25693 7.70753 5.19533 7.57406 5.07213C7.4406 4.93866 7.37386 4.76926 7.37386 4.56393C7.37386 4.35859 7.4406 4.18919 7.57406 4.05573C7.70753 3.92226 7.87693 3.85553 8.08226 3.85553H17.8613ZM17.8613 9.24553C18.0769 9.24553 18.2514 9.31226 18.3849 9.44573C18.5183 9.56893 18.5851 9.73319 18.5851 9.93853C18.5851 10.1439 18.5183 10.3133 18.3849 10.4467C18.2514 10.5699 18.0769 10.6367 17.8613 10.6469L8.08226 10.6315C7.87693 10.6315 7.70753 10.5699 7.57406 10.4467C7.4406 10.3133 7.37386 10.1439 7.37386 9.93853C7.37386 9.73319 7.4406 9.56893 7.57406 9.44573C7.70753 9.31226 7.87693 9.24553 8.08226 9.24553H17.8613ZM17.8613 14.5893C18.0769 14.5893 18.2514 14.6561 18.3849 14.7895C18.5183 14.9127 18.5851 15.077 18.5851 15.2823C18.5851 15.4877 18.5183 15.6519 18.3849 15.7751C18.2514 15.9086 18.0769 15.9753 17.8613 15.9753H8.08226C7.87693 15.9753 7.70753 15.9086 7.57406 15.7751C7.4406 15.6519 7.37386 15.4877 7.37386 15.2823C7.37386 15.077 7.4406 14.9127 7.57406 14.7895C7.70753 14.6561 7.87693 14.5893 8.08226 14.5893H17.8613Z" fill="currentColor"/>
</svg>
