<svg width="20" height="20" viewBox="0 0 20 20" fill="none" xmlns="http://www.w3.org/2000/svg">
<path d="M8.02134 7.1756V7.17507L11.5203 9.30143L13.6052 8.41104C14.029 8.22533 14.4858 8.12983 14.9474 8.13045C15.0245 8.13045 15.1005 8.13415 15.1761 8.1389C14.6641 6.1127 13.0223 4.58359 10.9888 4.23903C8.95525 3.89447 6.91279 4.79932 5.77966 6.54678L5.83278 6.54519C6.60597 6.54417 7.36403 6.76252 8.02134 7.1756Z" fill="#0364B8"/>
<path d="M8.02192 7.17511C7.36441 6.76213 6.60616 6.54395 5.83285 6.54523L5.77972 6.54682C4.23753 6.56639 2.83225 7.44896 2.12727 8.84069C1.4223 10.2324 1.53305 11.9055 2.41512 13.189L5.49951 11.8717L6.87139 11.2862L9.92505 9.98207L11.5199 9.30147L8.02192 7.17511Z" fill="#0078D4"/>
<path d="M15.1763 8.13892C15.1002 8.13352 15.0239 8.1307 14.9476 8.13046C14.4862 8.13008 14.0295 8.22576 13.606 8.41158L11.5205 9.30144L12.1252 9.66869L14.107 10.873L14.9716 11.3982L17.9284 13.1948C18.4743 12.1667 18.4679 10.9276 17.9115 9.90535C17.355 8.88308 16.3247 8.21769 15.1763 8.13892Z" fill="#1490DF"/>
<path d="M14.9715 11.3982L14.1069 10.8729L12.1251 9.66814L11.521 9.30142L9.92565 9.98203L6.87199 11.2862L5.49959 11.8717L2.41415 13.189C3.19257 14.3244 4.46976 15.0009 5.83292 14.9999H14.9476C16.1928 15.0004 17.3377 14.307 17.9283 13.1948L14.9715 11.3982Z" fill="#28A8EA"/>
</svg>
