<svg width="20" height="20" viewBox="0 0 20 20" fill="none" xmlns="http://www.w3.org/2000/svg">
<path d="M8.11976 7.17148C7.3859 6.71282 6.59961 6.47693 5.76091 6.46383C6.29821 5.75618 6.95999 5.21233 7.74627 4.8323C8.53255 4.43915 9.35815 4.24258 10.2231 4.24258C10.5638 4.24258 10.8652 4.26879 11.1273 4.32121C12.1494 4.50468 13.0537 4.94369 13.8399 5.63823C14.6393 6.33278 15.2094 7.17148 15.5501 8.15433C14.9473 8.14123 14.3641 8.25262 13.8006 8.4885L11.7366 9.37307L8.11976 7.17148ZM1.94745 13.56C1.58052 12.9179 1.39706 12.2233 1.39706 11.4764C1.39706 10.7818 1.54776 10.1397 1.84917 9.54998C2.18989 8.85543 2.68787 8.31159 3.3431 7.91845C3.99834 7.5122 4.71909 7.30908 5.50537 7.30908C6.27855 7.30908 6.99931 7.50565 7.66765 7.89879L10.7538 9.80552L1.94745 13.56ZM18.2824 10.7294C18.5576 11.2143 18.6952 11.7516 18.6952 12.3413C18.6952 12.7475 18.6297 13.1276 18.4987 13.4814L12.6409 9.92346L14.1545 9.29444C14.6393 9.07166 15.1373 8.97993 15.6484 9.01924H15.6681C16.2185 9.05855 16.7295 9.23547 17.2013 9.54998C17.6731 9.85139 18.0334 10.2445 18.2824 10.7294ZM18.0859 14.248C17.7714 14.6805 17.3848 15.0212 16.9261 15.2702C16.4674 15.5192 15.9695 15.6437 15.4322 15.6437H5.50537C4.92877 15.6437 4.37182 15.5257 3.83453 15.2898C3.29724 15.0408 2.83857 14.7001 2.45854 14.2677L11.6777 10.3363L18.0859 14.248Z" fill="currentColor"/>
</svg>
