<svg width="20" height="20" viewBox="0 0 20 20" fill="none" xmlns="http://www.w3.org/2000/svg">
<path d="M7.06014 4.96699C6.92948 4.96699 6.82681 5.00899 6.75214 5.09299C6.67748 5.16765 6.64014 5.27032 6.64014 5.40099V7.82299C6.64014 7.95365 6.67748 8.06099 6.75214 8.14499C6.82681 8.21965 6.92948 8.25699 7.06014 8.25699H12.9541C13.0848 8.25699 13.1875 8.21965 13.2621 8.14499C13.3461 8.06099 13.3881 7.95365 13.3881 7.82299V5.40099C13.3881 5.27032 13.3461 5.16765 13.2621 5.09299C13.1875 5.00899 13.0848 4.96699 12.9541 4.96699H7.06014ZM5.39414 5.30299C5.39414 4.83632 5.53414 4.45832 5.81414 4.16899C6.10348 3.87965 6.48148 3.73499 6.94814 3.73499H13.0381C13.5141 3.73499 13.8968 3.87965 14.1861 4.16899C14.4755 4.44899 14.6201 4.82232 14.6201 5.28899V7.90699C14.6201 8.38299 14.4755 8.76565 14.1861 9.05499C13.9061 9.34432 13.5328 9.48899 13.0661 9.48899H10.5601V11.015H14.6481C15.3201 11.015 15.8615 11.2203 16.2721 11.631C16.6921 12.0417 16.9021 12.5783 16.9021 13.241V15.635C16.9021 15.8217 16.8461 15.971 16.7341 16.083C16.6221 16.2043 16.4775 16.265 16.3001 16.265C16.1135 16.265 15.9595 16.2043 15.8381 16.083C15.7168 15.971 15.6561 15.8217 15.6561 15.635V13.339C15.6561 13.0123 15.5581 12.751 15.3621 12.555C15.1661 12.359 14.9048 12.261 14.5781 12.261H10.6161V15.635C10.6161 15.8217 10.5555 15.971 10.4341 16.083C10.3221 16.2043 10.1775 16.265 10.0001 16.265C9.81348 16.265 9.65948 16.2043 9.53815 16.083C9.41681 15.971 9.35614 15.8217 9.35614 15.635V12.261H5.42214C5.09548 12.261 4.83414 12.359 4.63814 12.555C4.44214 12.751 4.34414 13.0123 4.34414 13.339V15.635C4.34414 15.8123 4.28348 15.9617 4.16214 16.083C4.05014 16.2043 3.90548 16.265 3.72814 16.265C3.55081 16.265 3.40148 16.2043 3.28014 16.083C3.15881 15.971 3.09814 15.8217 3.09814 15.635V13.269C3.09814 12.597 3.29881 12.0557 3.70014 11.645C4.11081 11.225 4.65214 11.015 5.32414 11.015H9.46814V9.48899H6.97614C6.50014 9.48899 6.11748 9.34899 5.82814 9.06899C5.53881 8.77965 5.39414 8.40165 5.39414 7.93499V5.30299Z" fill="currentcolor"/>
</svg>
