<svg width="20" height="20" viewBox="0 0 20 20" xmlns="http://www.w3.org/2000/svg">
<path d="M9.96761 17.4717C8.57851 17.4717 7.30736 17.1375 6.15415 16.4692C5.00094 15.8009 4.08361 14.8966 3.40217 13.7565C2.73383 12.6033 2.39966 11.3322 2.39966 9.94308C2.39966 8.54088 2.73383 7.26317 3.40217 6.10996C4.08361 4.94364 5.00094 4.02632 6.15415 3.35798C7.30736 2.68964 8.57851 2.35547 9.96761 2.35547C11.3698 2.35547 12.6541 2.68964 13.8204 3.35798C14.9867 4.02632 15.904 4.94364 16.5724 6.10996C17.2538 7.26317 17.5945 8.54088 17.5945 9.94308C17.5945 11.3322 17.2538 12.6033 16.5724 13.7565C15.904 14.8966 14.9867 15.8009 13.8204 16.4692C12.6541 17.1375 11.3698 17.4717 9.96761 17.4717ZM3.81496 10.5918C3.94601 11.9022 4.43088 13.0423 5.26958 14.0121C6.10828 14.9818 7.16321 15.624 8.43436 15.9385C7.32047 14.3004 6.70455 12.5181 6.5866 10.5918H3.81496ZM6.5866 9.2944C6.69144 7.38111 7.30736 5.57922 8.43436 3.88872C7.17631 4.20323 6.12139 4.85191 5.26958 5.83476C4.43088 6.81761 3.94601 7.97082 3.81496 9.2944H6.5866ZM12.0709 9.2944C12.0054 8.29844 11.7957 7.3287 11.4419 6.38516C11.0881 5.44162 10.6032 4.55706 9.98727 3.73146C9.35824 4.55706 8.87337 5.44162 8.53265 6.38516C8.19193 7.3287 7.9888 8.29844 7.92328 9.2944H12.0709ZM7.92328 10.5918C7.9888 11.5746 8.19193 12.5378 8.53265 13.4813C8.88647 14.4118 9.3779 15.2898 10.0069 16.1154C10.6228 15.2898 11.1012 14.4118 11.4419 13.4813C11.7826 12.5378 11.9857 11.5746 12.0513 10.5918H7.92328ZM11.5598 3.90837C12.6737 5.55956 13.2896 7.3549 13.4076 9.2944H16.1989C16.0678 7.98393 15.5764 6.83727 14.7246 5.85442C13.8728 4.87157 12.8179 4.22289 11.5598 3.90837ZM11.5598 15.9188C12.8179 15.6174 13.8728 14.9818 14.7246 14.0121C15.5764 13.0292 16.0678 11.8891 16.1989 10.5918H13.4076C13.3421 11.5222 13.152 12.4395 12.8375 13.3437C12.5361 14.248 12.1102 15.1063 11.5598 15.9188Z" fill="currentColor" />
</svg>
