<svg width="20" height="20" viewBox="0 0 20 20" fill="none" xmlns="http://www.w3.org/2000/svg">
<path d="M4.36527 16.4889C3.65762 16.4889 3.08101 16.2727 2.63545 15.8402C2.203 15.3947 1.98677 14.8115 1.98677 14.0908V5.75618C1.97366 5.04853 2.18334 4.47848 2.61579 4.04602C3.06135 3.60046 3.64451 3.37769 4.36527 3.37769H15.6287C16.3364 3.37769 16.9064 3.60046 17.3389 4.04602C17.7845 4.47848 18.0072 5.05508 18.0072 5.77584V14.1104C18.0072 14.8181 17.7845 15.3947 17.3389 15.8402C16.9064 16.2727 16.3298 16.4889 15.6091 16.4889H4.36527ZM16.6509 5.87413C16.6509 5.53341 16.5461 5.25821 16.3364 5.04853C16.1267 4.83886 15.8515 4.73402 15.5108 4.73402H11.8153V15.1129H15.5108C15.8515 15.1129 16.1267 15.0081 16.3364 14.7984C16.5461 14.5756 16.6509 14.3004 16.6509 13.9728V5.87413ZM15.3732 6.69972C15.3732 6.87008 15.3142 7.01423 15.1963 7.13218C15.0783 7.23701 14.9211 7.28943 14.7245 7.28943H13.4468C13.2633 7.28943 13.1126 7.23701 12.9947 7.13218C12.8768 7.01423 12.8178 6.87008 12.8178 6.69972C12.8178 6.51626 12.8768 6.36555 12.9947 6.24761C13.1126 6.12967 13.2633 6.0707 13.4468 6.0707H14.7245C14.9211 6.0707 15.0783 6.12967 15.1963 6.24761C15.3142 6.36555 15.3732 6.51626 15.3732 6.69972ZM15.3732 9.13719C15.3732 9.30755 15.3142 9.44515 15.1963 9.54999C15.0783 9.65483 14.9211 9.70725 14.7245 9.70725H13.4468C13.2633 9.70725 13.1126 9.65483 12.9947 9.54999C12.8768 9.44515 12.8178 9.30755 12.8178 9.13719C12.8178 8.94062 12.8768 8.78337 12.9947 8.66542C13.1126 8.54748 13.2633 8.48851 13.4468 8.48851H14.7245C14.9211 8.48851 15.0783 8.54748 15.1963 8.66542C15.3142 8.78337 15.3732 8.94062 15.3732 9.13719ZM3.3431 13.9728C3.3431 14.3004 3.44794 14.5756 3.65762 14.7984C3.8804 15.0081 4.15559 15.1129 4.48321 15.1129H10.4589V4.73402H4.48321C4.15559 4.73402 3.8804 4.83886 3.65762 5.04853C3.44794 5.25821 3.3431 5.53341 3.3431 5.87413V13.9728Z" fill="currentColor"/>
</svg>
