<svg width="20" height="20" viewBox="0 0 20 20" fill="none" xmlns="http://www.w3.org/2000/svg">
<path d="M4.38493 16.4889C3.66417 16.4889 3.08101 16.2727 2.63545 15.8402C2.203 15.3947 1.98677 14.8181 1.98677 14.1104V5.77584C1.98677 5.05508 2.203 4.47848 2.63545 4.04602C3.08101 3.60046 3.65762 3.37769 4.36527 3.37769H15.6287C16.3495 3.37769 16.9261 3.60046 17.3586 4.04602C17.8041 4.47848 18.0203 5.04853 18.0072 5.75618V14.0908C18.0072 14.8115 17.7845 15.3947 17.3389 15.8402C16.9064 16.2727 16.3364 16.4889 15.6287 16.4889H4.38493ZM3.3431 13.9728C3.3431 14.3004 3.44794 14.5756 3.65762 14.7984C3.8804 15.0081 4.1556 15.1129 4.48321 15.1129H8.17873V4.73402H4.48321C4.1556 4.73402 3.8804 4.83886 3.65762 5.04853C3.44794 5.25821 3.3431 5.53341 3.3431 5.87413V13.9728ZM4.62081 6.69972C4.62081 6.51626 4.67978 6.36555 4.79772 6.24761C4.91567 6.12967 5.07292 6.0707 5.26949 6.0707H6.5472C6.73066 6.0707 6.88137 6.12967 6.99931 6.24761C7.11725 6.36555 7.17622 6.51626 7.17622 6.69972C7.17622 6.87008 7.11725 7.01423 6.99931 7.13218C6.88137 7.23701 6.73066 7.28943 6.5472 7.28943H5.26949C5.07292 7.28943 4.91567 7.23701 4.79772 7.13218C4.67978 7.01423 4.62081 6.87008 4.62081 6.69972ZM4.62081 9.13719C4.62081 8.94062 4.67978 8.78337 4.79772 8.66542C4.91567 8.54748 5.07292 8.48851 5.26949 8.48851H6.5472C6.73066 8.48851 6.88137 8.54748 6.99931 8.66542C7.11725 8.78337 7.17622 8.94062 7.17622 9.13719C7.17622 9.30755 7.11725 9.44515 6.99931 9.54999C6.88137 9.65483 6.73066 9.70725 6.5472 9.70725H5.26949C5.07292 9.70725 4.91567 9.65483 4.79772 9.54999C4.67978 9.44515 4.62081 9.30755 4.62081 9.13719ZM15.5108 15.1129C15.8515 15.1129 16.1267 15.0081 16.3364 14.7984C16.5461 14.5756 16.6509 14.3004 16.6509 13.9728V5.87413C16.6509 5.53341 16.5461 5.25821 16.3364 5.04853C16.1267 4.83886 15.8515 4.73402 15.5108 4.73402H9.53507V15.1129H15.5108Z" fill="currentColor"/>
</svg>
