<svg width="20" height="20" viewBox="0 0 20 20" fill="none" xmlns="http://www.w3.org/2000/svg">
<path fill-rule="evenodd" clip-rule="evenodd" d="M16.0497 11.8879C16.0754 11.9374 16.0818 12.0009 16.0946 12.1278C16.1189 12.3681 16.131 12.4882 16.1817 12.5542C16.2461 12.6378 16.3507 12.6807 16.4559 12.6667C16.5387 12.6557 16.633 12.5792 16.8215 12.4263C16.9211 12.3455 16.9709 12.3051 17.0245 12.2882C17.0926 12.2666 17.1662 12.2703 17.2318 12.2984C17.2834 12.3206 17.3289 12.3657 17.4199 12.4559L17.6837 12.7174C17.7747 12.8076 17.8202 12.8527 17.8426 12.9039C17.871 12.9689 17.8746 13.0419 17.8529 13.1093C17.8358 13.1624 17.795 13.2118 17.7135 13.3105C17.5593 13.4974 17.4822 13.5909 17.471 13.673C17.4569 13.7773 17.5002 13.881 17.5846 13.9448C17.6511 13.9951 17.7723 14.0071 18.0146 14.0311C18.1427 14.0438 18.2067 14.0501 18.2567 14.0757C18.3202 14.1082 18.3697 14.1623 18.396 14.2282C18.4167 14.2801 18.4167 14.3439 18.4167 14.4714V14.8413C18.4167 14.9688 18.4167 15.0326 18.396 15.0845C18.3697 15.1503 18.3202 15.2045 18.2567 15.237C18.2067 15.2626 18.1427 15.2689 18.0147 15.2816C17.7724 15.3056 17.6512 15.3176 17.5847 15.3679C17.5003 15.4317 17.457 15.5354 17.4711 15.6397C17.4823 15.7218 17.5594 15.8152 17.7136 16.0021C17.7951 16.1008 17.8358 16.1501 17.8529 16.2032C17.8747 16.2707 17.871 16.3437 17.8426 16.4087C17.8202 16.4599 17.7747 16.5049 17.6838 16.5951L17.4199 16.8567C17.3289 16.9469 17.2834 16.992 17.2318 17.0141C17.1662 17.0423 17.0926 17.0459 17.0245 17.0244C16.9709 17.0074 16.9211 16.967 16.8215 16.8863C16.633 16.7333 16.5388 16.6569 16.4559 16.6458C16.3507 16.6318 16.2461 16.6748 16.1817 16.7584C16.131 16.8243 16.1189 16.9445 16.0947 17.1848C16.0818 17.3118 16.0754 17.3753 16.0496 17.4248C16.0169 17.4878 15.9622 17.5368 15.8958 17.5628C15.8435 17.5833 15.7791 17.5833 15.6504 17.5833H15.2774C15.1487 17.5833 15.0843 17.5833 15.032 17.5628C14.9656 17.5368 14.9109 17.4878 14.8781 17.4248C14.8524 17.3753 14.8459 17.3118 14.8331 17.1848C14.8089 16.9446 14.7968 16.8244 14.7461 16.7585C14.6817 16.6749 14.5771 16.6319 14.4719 16.646C14.389 16.657 14.2948 16.7335 14.1062 16.8864C14.0066 16.9672 13.9568 17.0076 13.9032 17.0245C13.8352 17.0461 13.7616 17.0424 13.696 17.0143C13.6444 16.9921 13.5989 16.947 13.5079 16.8568L13.2441 16.5953C13.1531 16.5051 13.1076 16.46 13.0852 16.4088C13.0568 16.3438 13.0531 16.2708 13.0749 16.2034C13.092 16.1503 13.1327 16.1009 13.2142 16.0021C13.3685 15.8153 13.4456 15.7218 13.4568 15.6397C13.4709 15.5354 13.4275 15.4317 13.3432 15.3679C13.2767 15.3176 13.1555 15.3056 12.9131 15.2816C12.7851 15.2689 12.7211 15.2625 12.6711 15.237C12.6076 15.2045 12.5581 15.1503 12.5318 15.0845C12.5111 15.0326 12.5111 14.9688 12.5111 14.8413V14.4715C12.5111 14.3439 12.5111 14.2801 12.5318 14.2282C12.5581 14.1623 12.6076 14.1082 12.671 14.0757C12.721 14.0501 12.7851 14.0438 12.9132 14.0311C13.1556 14.0071 13.2768 13.995 13.3433 13.9447C13.4277 13.881 13.471 13.7773 13.4569 13.6731C13.4457 13.5909 13.3686 13.4974 13.2143 13.3105C13.1327 13.2117 13.092 13.1623 13.0749 13.1091C13.0531 13.0417 13.0568 12.9687 13.0852 12.9038C13.1076 12.8526 13.1531 12.8075 13.2441 12.7172L13.5079 12.4558C13.5989 12.3656 13.6444 12.3204 13.696 12.2983C13.7616 12.2701 13.8352 12.2665 13.9033 12.288C13.9568 12.305 14.0067 12.3454 14.1063 12.4262C14.2948 12.5791 14.389 12.6555 14.4719 12.6666C14.5771 12.6806 14.6817 12.6376 14.7461 12.554C14.7968 12.4881 14.8089 12.368 14.8331 12.1278C14.8459 12.0009 14.8523 11.9375 14.8781 11.8879C14.9109 11.8249 14.9656 11.7759 15.032 11.7498C15.0843 11.7293 15.1487 11.7293 15.2773 11.7293H15.6504C15.7791 11.7293 15.8435 11.7293 15.8958 11.7499C15.9622 11.7759 16.0169 11.8249 16.0497 11.8879ZM15.4639 15.8271C16.1162 15.8271 16.645 15.303 16.645 14.6563C16.645 14.0097 16.1162 13.4855 15.4639 13.4855C14.8116 13.4855 14.2828 14.0097 14.2828 14.6563C14.2828 15.303 14.8116 15.8271 15.4639 15.8271Z" fill="currentColor"/>
<path fill-rule="evenodd" clip-rule="evenodd" d="M7.72662 8.29194C8.32943 8.89476 9.09606 9.19617 10.0265 9.19617C10.97 9.19617 11.7432 8.89476 12.346 8.29194C12.9488 7.67602 13.2502 6.88974 13.2502 5.9331C13.2502 5.30408 13.1126 4.74058 12.8374 4.2426C12.5622 3.73151 12.1757 3.33837 11.6777 3.06318C11.1928 2.77487 10.6424 2.63072 10.0265 2.63072C9.41057 2.63072 8.86017 2.77487 8.3753 3.06318C7.89043 3.33837 7.51039 3.73151 7.23519 4.2426C6.95999 4.74058 6.8224 5.30408 6.8224 5.9331C6.8224 6.88974 7.1238 7.67602 7.72662 8.29194ZM11.3435 7.30909C11.0028 7.66292 10.5638 7.83983 10.0265 7.83983C9.4892 7.83983 9.04364 7.66292 8.68981 7.30909C8.34909 6.95527 8.17873 6.4966 8.17873 5.9331C8.17873 5.3696 8.34909 4.90438 8.68981 4.53745C9.04364 4.17052 9.4892 3.98706 10.0265 3.98706C10.5638 3.98706 11.0028 4.17052 11.3435 4.53745C11.6973 4.90438 11.8742 5.3696 11.8742 5.9331C11.8742 6.4966 11.6973 6.95527 11.3435 7.30909Z" fill="currentColor"/>
<path d="M12.7496 11.7513C12.6752 11.7242 12.5996 11.6981 12.5229 11.6729C11.7235 11.4109 10.8783 11.2798 9.98717 11.2798C9.09606 11.2798 8.25736 11.4109 7.47108 11.6729C6.6848 11.935 6.01646 12.302 5.46606 12.7737C4.92877 13.2455 4.56184 13.7763 4.36527 14.366C4.32595 14.497 4.3063 14.6215 4.3063 14.7394C4.3063 14.9753 4.38492 15.1653 4.54218 15.3095C4.71254 15.4405 4.94187 15.5061 5.23018 15.5061H11.5869C11.6947 16.0059 11.8959 16.4709 12.1713 16.8821H5.03361C4.36527 16.8821 3.84108 16.7117 3.46105 16.371C3.08101 16.0303 2.89099 15.565 2.89099 14.9753C2.89099 14.6477 2.94996 14.307 3.0679 13.9532C3.31689 13.18 3.78211 12.4854 4.46355 11.8695C5.145 11.2536 5.96404 10.7753 6.92068 10.4346C7.89043 10.0938 8.91259 9.92348 9.98717 9.92348C11.0749 9.92348 12.1036 10.1004 13.0733 10.4542C13.4422 10.5838 13.7903 10.7334 14.1175 10.9028C13.6038 11.0915 13.1396 11.3826 12.7496 11.7513Z" fill="currentColor"/>
</svg>
