<svg width="20" height="20" viewBox="0 0 20 20" fill="none" xmlns="http://www.w3.org/2000/svg">
<path d="M12.2667 9.83332C12.6833 10.0667 13.15 10.175 13.6583 10.175C14.1667 10.175 14.65 10.0583 15.0583 9.83332C15.4667 9.59165 15.7833 9.27499 16.0167 8.86665C16.25 8.44999 16.3583 7.98332 16.3583 7.45832C16.3583 6.93332 16.2417 6.46665 16.0167 6.04999C15.7917 5.63332 15.4667 5.30832 15.0583 5.08332C14.65 4.84165 14.1833 4.72499 13.6583 4.72499C13.1333 4.72499 12.675 4.84165 12.2583 5.08332C11.85 5.31665 11.5333 5.63332 11.3 6.04999C11.0667 6.46665 10.9583 6.93332 10.9583 7.45832C10.9583 7.98332 11.075 8.44999 11.3 8.86665C11.525 9.27499 11.85 9.59999 12.2583 9.83332H12.2667ZM12.625 6.36665C12.8917 6.08332 13.2417 5.93332 13.6583 5.93332C14.075 5.93332 14.4333 6.07499 14.7083 6.36665C14.975 6.64165 15.1167 7.00832 15.1167 7.45832C15.1167 7.90832 14.9833 8.25832 14.7083 8.54999C14.4417 8.82499 14.0917 8.96665 13.6583 8.96665C13.225 8.96665 12.8917 8.82499 12.625 8.54999C12.35 8.26665 12.2167 7.89999 12.2167 7.45832C12.2167 7.01665 12.35 6.64999 12.625 6.36665Z" fill="currentColor"/>
<path d="M19.35 13.9417C19.1417 13.3 18.75 12.7333 18.1833 12.2417C17.625 11.7417 16.95 11.35 16.1583 11.0833C15.3667 10.8 14.5333 10.6583 13.6417 10.6583C13.2417 10.6583 12.85 10.6917 12.4667 10.75L12.2667 10.7833L12.4333 10.9C12.6083 11.0333 12.7833 11.1667 12.9417 11.3083C13.15 11.4917 13.35 11.6917 13.525 11.8917L13.55 11.925H13.6417C14.3583 11.925 15.025 12.0333 15.6583 12.2417C16.3 12.4417 16.8333 12.7333 17.2667 13.1167C17.7083 13.4917 18.0083 13.9167 18.1667 14.3833C18.2 14.475 18.2083 14.5667 18.2083 14.6667C18.2083 14.8333 18.15 14.9667 18.0417 15.075C17.9417 15.175 17.7917 15.225 17.5917 15.225H14.575L14.5583 15.2917C14.475 15.6833 14.3 16.0333 14.0333 16.3417L13.9083 16.4833H17.6417C18.2083 16.4833 18.6583 16.3333 18.9917 16.0333C19.325 15.725 19.4833 15.3167 19.4833 14.8167C19.4833 14.5667 19.4333 14.2833 19.3417 13.9667L19.35 13.9417Z" fill="currentColor"/>
<path d="M5.91667 9.12499C6.37501 9.38333 6.89167 9.50833 7.46667 9.50833C8.04167 9.50833 8.56667 9.38333 9.01667 9.12499C9.46667 8.85833 9.82501 8.49999 10.075 8.04999C10.3333 7.59166 10.4583 7.06666 10.4583 6.48333C10.4583 5.89999 10.3333 5.38333 10.075 4.91666C9.82501 4.45833 9.46667 4.09999 9.01667 3.84166C8.56667 3.57499 8.05001 3.44999 7.46667 3.44999C6.88334 3.44999 6.37501 3.58333 5.91667 3.84166C5.46667 4.09999 5.10834 4.45833 4.85834 4.91666C4.60001 5.37499 4.47501 5.89999 4.47501 6.48333C4.47501 7.06666 4.60001 7.58333 4.85834 8.04999C5.11667 8.49999 5.46667 8.85833 5.91667 9.12499ZM6.30834 5.26666C6.60834 4.94999 7.00001 4.78333 7.46667 4.78333C7.93334 4.78333 8.34167 4.94166 8.64167 5.26666C8.94167 5.57499 9.10001 5.98333 9.10001 6.48333C9.10001 6.98333 8.95001 7.38333 8.64167 7.69999C8.34167 8.00833 7.95001 8.16666 7.46667 8.16666C6.98334 8.16666 6.60834 8.00833 6.30834 7.69999C6.00834 7.37499 5.85001 6.97499 5.85001 6.48333C5.85001 5.99166 6.00001 5.57499 6.30834 5.26666Z" fill="currentColor"/>
<path d="M13.7917 13.7083C13.5583 12.9917 13.125 12.3667 12.4917 11.8167C11.8667 11.2583 11.1167 10.8333 10.2417 10.525C9.36667 10.2083 8.43333 10.05 7.44167 10.05C6.45 10.05 5.53333 10.2083 4.65833 10.525C3.79167 10.8333 3.04167 11.2583 2.425 11.8C1.80833 12.35 1.39167 12.975 1.16667 13.6917C1.05833 14.025 1 14.35 1 14.65C1 15.2083 1.18333 15.6667 1.55 16C1.91667 16.3417 2.425 16.5 3.05833 16.5H11.9083C12.5333 16.5 13.0417 16.3333 13.4083 16C13.775 15.6583 13.9583 15.2083 13.9583 14.65C13.9583 14.375 13.9083 14.0583 13.8083 13.7083H13.7917ZM7.44167 11.4417C8.24167 11.4417 8.99167 11.5583 9.69167 11.7917C10.4083 12.0167 11 12.3417 11.4833 12.7667C11.975 13.1917 12.3083 13.6583 12.4833 14.1833C12.5167 14.2833 12.5333 14.3917 12.5333 14.5C12.5333 14.6917 12.4667 14.8417 12.3417 14.9583C12.225 15.0667 12.0583 15.125 11.8333 15.125H3.10833C2.875 15.125 2.7 15.0667 2.575 14.9583C2.45833 14.85 2.4 14.7 2.4 14.5167C2.4 14.4167 2.41667 14.3 2.46667 14.175C2.63333 13.65 2.95833 13.1833 3.43333 12.775C3.91667 12.35 4.50833 12.025 5.2 11.8C5.90833 11.5667 6.65833 11.45 7.45 11.45L7.44167 11.4417Z" fill="currentColor"/>
</svg>
