<svg width="20" height="20" viewBox="0 0 20 20" fill="none" xmlns="http://www.w3.org/2000/svg">
<path d="M10.0265 7.83983C10.5638 7.83983 11.0028 7.66292 11.3435 7.30909C11.6973 6.95527 11.8742 6.4966 11.8742 5.9331C11.8742 5.3696 11.6973 4.90438 11.3435 4.53745C11.0028 4.17052 10.5638 3.98706 10.0265 3.98706C9.4892 3.98706 9.04364 4.17052 8.68981 4.53745C8.34909 4.90438 8.17873 5.3696 8.17873 5.9331C8.17873 6.4966 8.34909 6.95527 8.68981 7.30909C9.04364 7.66292 9.4892 7.83983 10.0265 7.83983ZM10.0265 9.19617C9.09606 9.19617 8.32943 8.89476 7.72662 8.29194C7.1238 7.67602 6.8224 6.88974 6.8224 5.9331C6.8224 5.30408 6.95999 4.74058 7.23519 4.2426C7.51039 3.73151 7.89043 3.33837 8.3753 3.06318C8.86017 2.77487 9.41057 2.63072 10.0265 2.63072C10.6424 2.63072 11.1928 2.77487 11.6777 3.06318C12.1757 3.33837 12.5622 3.73151 12.8374 4.2426C13.1126 4.74058 13.2502 5.30408 13.2502 5.9331C13.2502 6.88974 12.9488 7.67602 12.346 8.29194C11.7432 8.89476 10.97 9.19617 10.0265 9.19617ZM14.8228 15.5061C15.1111 15.5061 15.3339 15.4405 15.4911 15.3095C15.6615 15.1653 15.7467 14.9688 15.7467 14.7198C15.7467 14.615 15.727 14.5036 15.6877 14.3856C15.4911 13.7828 15.1111 13.2455 14.5476 12.7737C13.9972 12.302 13.3223 11.935 12.5229 11.6729C11.7235 11.4109 10.8783 11.2798 9.98717 11.2798C9.09606 11.2798 8.25736 11.4109 7.47108 11.6729C6.6848 11.935 6.01646 12.302 5.46606 12.7737C4.92877 13.2455 4.56184 13.7763 4.36527 14.366C4.32595 14.497 4.3063 14.6215 4.3063 14.7394C4.3063 14.9753 4.38492 15.1653 4.54218 15.3095C4.71254 15.4405 4.94187 15.5061 5.23018 15.5061H14.8228ZM5.03361 16.8821C4.36527 16.8821 3.84108 16.7117 3.46105 16.371C3.08101 16.0303 2.89099 15.565 2.89099 14.9753C2.89099 14.6477 2.94996 14.307 3.0679 13.9532C3.31689 13.18 3.78211 12.4854 4.46355 11.8695C5.145 11.2536 5.96404 10.7753 6.92068 10.4346C7.89043 10.0938 8.91259 9.92348 9.98717 9.92348C11.0749 9.92348 12.1036 10.1004 13.0733 10.4542C14.0431 10.7949 14.8687 11.2733 15.5501 11.8892C16.2316 12.5051 16.7033 13.1996 16.9654 13.9728C17.0834 14.3266 17.1423 14.6608 17.1423 14.9753C17.1423 15.5519 16.9523 16.0172 16.5723 16.371C16.1922 16.7117 15.6746 16.8821 15.0194 16.8821H5.03361Z" fill="currentColor"/>
</svg>
