<svg width="20" height="20" viewBox="0 0 20 20" fill="none" xmlns="http://www.w3.org/2000/svg">
<path fill-rule="evenodd" clip-rule="evenodd" d="M10.0265 9.19617C9.09606 9.19617 8.32943 8.89476 7.72662 8.29194C7.1238 7.67602 6.8224 6.88974 6.8224 5.9331C6.8224 5.30408 6.95999 4.74058 7.23519 4.2426C7.51039 3.73151 7.89043 3.33837 8.3753 3.06318C8.86017 2.77487 9.41057 2.63072 10.0265 2.63072C10.6424 2.63072 11.1928 2.77487 11.6777 3.06318C12.1757 3.33837 12.5622 3.73151 12.8374 4.2426C13.1126 4.74058 13.2502 5.30408 13.2502 5.9331C13.2502 6.88974 12.9488 7.67602 12.346 8.29194C11.7432 8.89476 10.97 9.19617 10.0265 9.19617ZM10.0265 7.83983C10.5638 7.83983 11.0028 7.66292 11.3435 7.30909C11.6973 6.95527 11.8742 6.4966 11.8742 5.9331C11.8742 5.3696 11.6973 4.90438 11.3435 4.53745C11.0028 4.17052 10.5638 3.98706 10.0265 3.98706C9.4892 3.98706 9.04364 4.17052 8.68981 4.53745C8.34909 4.90438 8.17873 5.3696 8.17873 5.9331C8.17873 6.4966 8.34909 6.95527 8.68981 7.30909C9.04364 7.66292 9.4892 7.83983 10.0265 7.83983Z" fill="currentcolor"/>
<path d="M10.0604 15.5061C10.1354 15.9859 10.2806 16.4459 10.4975 16.8821H5.03361C4.36527 16.8821 3.84108 16.7117 3.46105 16.371C3.08101 16.0303 2.89099 15.565 2.89099 14.9753C2.89099 14.6477 2.94996 14.307 3.0679 13.9532C3.31689 13.18 3.78211 12.4854 4.46355 11.8695C5.145 11.2536 5.96404 10.7753 6.92068 10.4346C7.89043 10.0938 8.91259 9.92348 9.98717 9.92348C10.988 9.92348 11.9389 10.0733 12.8399 10.3728C12.6678 10.4452 12.4991 10.5282 12.3341 10.622L12.3255 10.6269C11.9606 10.8391 11.6338 11.0932 11.3464 11.3871C10.9059 11.3156 10.4528 11.2798 9.98717 11.2798C9.09606 11.2798 8.25736 11.4109 7.47108 11.6729C6.6848 11.935 6.01646 12.302 5.46606 12.7737C4.92877 13.2455 4.56184 13.7763 4.36527 14.366C4.32595 14.497 4.3063 14.6215 4.3063 14.7394C4.3063 14.9753 4.38492 15.1653 4.54218 15.3095C4.71254 15.4405 4.94187 15.5061 5.23018 15.5061H10.0604Z" fill="currentcolor"/>
<path fill-rule="evenodd" clip-rule="evenodd" d="M12.091 17.3827C11.5999 16.8916 11.2709 16.3217 11.1042 15.6731C10.9374 15.0429 10.9374 14.4128 11.1041 13.7827C11.2802 13.1433 11.6138 12.5781 12.1049 12.087C12.5868 11.6051 13.1428 11.2808 13.7729 11.114C14.4123 10.9379 15.047 10.9333 15.6771 11.1001C16.3165 11.2761 16.8818 11.6097 17.3729 12.1009C17.8547 12.5827 18.1791 13.1387 18.3458 13.7688C18.5219 14.4082 18.5219 15.0476 18.3458 15.687C18.1791 16.3171 17.8547 16.8731 17.3729 17.3549C16.8818 17.846 16.3165 18.1796 15.6771 18.3557C15.047 18.5225 14.4123 18.5178 13.7729 18.3418C13.1335 18.1843 12.5729 17.8646 12.091 17.3827ZM15.3852 14.7279L16.4138 13.6993C16.5065 13.6066 16.5528 13.4955 16.5528 13.3657C16.5621 13.2453 16.5204 13.1387 16.4277 13.046C16.335 12.9534 16.2238 12.907 16.0941 12.907C15.9736 12.9163 15.8671 12.9673 15.7744 13.0599L14.7458 14.0885L13.7173 13.0599C13.6246 12.9673 13.5134 12.9209 13.3837 12.9209C13.2725 12.9209 13.1706 12.9673 13.0779 13.0599C12.9852 13.1526 12.9343 13.2592 12.925 13.3796C12.925 13.5094 12.9713 13.6205 13.064 13.7132L14.0926 14.7418L13.0501 15.7843C12.9667 15.8677 12.9204 15.9696 12.9111 16.09C12.9111 16.2198 12.9574 16.331 13.0501 16.4236C13.1428 16.5163 13.2493 16.558 13.3698 16.5487C13.4995 16.5487 13.6061 16.507 13.6895 16.4236L14.7319 15.3812L15.7605 16.4097C15.8439 16.4931 15.9458 16.5302 16.0663 16.5209C16.196 16.5209 16.3072 16.4746 16.3999 16.3819C16.4926 16.2893 16.5343 16.1827 16.525 16.0622C16.5343 15.9418 16.4972 15.8399 16.4138 15.7565L15.3852 14.7279Z" fill="currentcolor"/>
</svg>
