<svg width="20" height="20" viewBox="0 0 20 20" fill="none" xmlns="http://www.w3.org/2000/svg">
<path fill-rule="evenodd" clip-rule="evenodd" d="M10.0265 9.19617C9.09606 9.19617 8.32943 8.89476 7.72662 8.29194C7.1238 7.67602 6.8224 6.88974 6.8224 5.9331C6.8224 5.30408 6.95999 4.74058 7.23519 4.2426C7.51039 3.73151 7.89043 3.33837 8.3753 3.06318C8.86017 2.77487 9.41057 2.63072 10.0265 2.63072C10.6424 2.63072 11.1928 2.77487 11.6777 3.06318C12.1757 3.33837 12.5622 3.73151 12.8374 4.2426C13.1126 4.74058 13.2502 5.30408 13.2502 5.9331C13.2502 6.88974 12.9488 7.67602 12.346 8.29194C11.7432 8.89476 10.97 9.19617 10.0265 9.19617ZM10.0265 7.83983C10.5638 7.83983 11.0028 7.66292 11.3435 7.30909C11.6973 6.95527 11.8742 6.4966 11.8742 5.9331C11.8742 5.3696 11.6973 4.90438 11.3435 4.53745C11.0028 4.17052 10.5638 3.98706 10.0265 3.98706C9.4892 3.98706 9.04364 4.17052 8.68981 4.53745C8.34909 4.90438 8.17873 5.3696 8.17873 5.9331C8.17873 6.4966 8.34909 6.95527 8.68981 7.30909C9.04364 7.66292 9.4892 7.83983 10.0265 7.83983Z" fill="currentcolor"/>
<path d="M10.0604 15.5061C10.1354 15.9859 10.2806 16.4459 10.4975 16.8821H5.03361C4.36527 16.8821 3.84108 16.7117 3.46105 16.371C3.08101 16.0303 2.89099 15.565 2.89099 14.9753C2.89099 14.6477 2.94996 14.307 3.0679 13.9532C3.31689 13.18 3.78211 12.4854 4.46355 11.8695C5.145 11.2536 5.96404 10.7753 6.92068 10.4346C7.89043 10.0938 8.91259 9.92348 9.98717 9.92348C10.988 9.92348 11.9389 10.0733 12.8399 10.3728C12.6678 10.4452 12.4991 10.5282 12.3341 10.622L12.3255 10.6269C11.9606 10.8391 11.6338 11.0932 11.3464 11.3871C10.9059 11.3156 10.4528 11.2798 9.98717 11.2798C9.09606 11.2798 8.25736 11.4109 7.47108 11.6729C6.6848 11.935 6.01646 12.302 5.46606 12.7737C4.92877 13.2455 4.56184 13.7763 4.36527 14.366C4.32595 14.497 4.3063 14.6215 4.3063 14.7394C4.3063 14.9753 4.38492 15.1653 4.54218 15.3095C4.71254 15.4405 4.94187 15.5061 5.23018 15.5061H10.0604Z" fill="currentcolor"/>
<path fill-rule="evenodd" clip-rule="evenodd" d="M14.7348 18.4697C14.0403 18.4697 13.4047 18.2993 12.8281 17.9586C12.2646 17.631 11.819 17.1854 11.4914 16.6219C11.1638 16.0453 11 15.4097 11 14.7152C11 14.0337 11.1638 13.4113 11.4914 12.8478C11.819 12.2712 12.2646 11.819 12.8281 11.4914C13.4047 11.1638 14.0403 11 14.7348 11C15.4163 11 16.0387 11.1638 16.6023 11.4914C17.1789 11.819 17.631 12.2712 17.9586 12.8478C18.2862 13.4113 18.45 14.0337 18.45 14.7152C18.45 15.4097 18.2862 16.0453 17.9586 16.6219C17.631 17.1854 17.1789 17.631 16.6023 17.9586C16.0387 18.2993 15.4163 18.4697 14.7348 18.4697ZM15.1869 14.2631V12.8084C15.1869 12.6774 15.1411 12.566 15.0493 12.4743C14.9707 12.3825 14.8659 12.3367 14.7348 12.3367C14.6038 12.3367 14.4924 12.3825 14.4007 12.4743C14.322 12.566 14.2827 12.6774 14.2827 12.8084V14.2631H12.8281C12.6971 14.2631 12.5857 14.3089 12.4939 14.4007C12.4153 14.4793 12.376 14.5841 12.376 14.7152C12.376 14.8462 12.4153 14.9576 12.4939 15.0493C12.5857 15.1411 12.6971 15.1869 12.8281 15.1869H14.2827V16.6612C14.2827 16.7792 14.322 16.884 14.4007 16.9757C14.4924 17.0675 14.6038 17.1133 14.7348 17.1133C14.8659 17.1133 14.9707 17.0675 15.0493 16.9757C15.1411 16.884 15.1869 16.7792 15.1869 16.6612V15.1869H16.6416C16.7595 15.1869 16.8578 15.1411 16.9364 15.0493C17.0282 14.9576 17.074 14.8462 17.074 14.7152C17.074 14.5841 17.0282 14.4793 16.9364 14.4007C16.8578 14.3089 16.7595 14.2631 16.6416 14.2631H15.1869Z" fill="currentcolor"/>
</svg>
