<svg width="20" height="20" viewBox="0 0 20 20" fill="none" xmlns="http://www.w3.org/2000/svg">
<path d="M9.98242 11.751C10.7046 11.7763 11.3984 11.8908 12.0625 12.0908C11.8499 12.306 11.6579 12.5432 11.4883 12.8008L11.4873 12.8027L11.3281 13.0625L11.3262 13.0654L11.2793 13.1514C10.8923 13.0678 10.4939 13.0144 10.085 12.9932L9.67188 12.9834C8.85926 12.9834 8.09396 13.1028 7.37695 13.3418C6.65987 13.5809 6.04976 13.9155 5.54785 14.3457L5.54688 14.3467C5.25707 14.6013 5.02355 14.8758 4.84277 15.168L4.79785 15.2402L4.8623 15.2959C6.15999 16.4185 7.84915 17.0996 9.69922 17.0996H9.70117L10.0137 17.0928H10.0156C10.1734 17.0859 10.3303 17.0744 10.4854 17.0576L10.9453 16.9932L11.0234 17.21C11.0788 17.3526 11.1412 17.493 11.2109 17.6309L11.3213 17.8369L11.3232 17.8408L11.3281 17.8486L11.4883 18.1055L11.4902 18.1084C11.1653 18.1776 10.8334 18.2289 10.4961 18.2607L10.1562 18.2861L9.69727 18.2979C8.56915 18.2976 7.49306 18.0771 6.50586 17.6816L6.39062 17.6357L6.38965 17.6387C6.34475 17.6197 6.29965 17.5998 6.25488 17.5801L6.25 17.5781L6.23438 17.5703L5.92578 17.4277L5.9248 17.4268L5.91016 17.4189C5.19211 17.0658 4.5311 16.6151 3.94336 16.085L3.69629 15.8535L3.45508 15.6113L3.45117 15.6074L3.45312 15.6045L3.39941 15.5498C3.3764 15.5262 3.35836 15.5075 3.34082 15.4883L3.33984 15.4873C3.3431 15.4768 3.34737 15.4665 3.35059 15.4551C3.35292 15.4467 3.35581 15.4345 3.36035 15.4209C3.58754 14.716 4.01259 14.083 4.63379 13.5215C5.25528 12.9598 6.00245 12.5237 6.875 12.2129C7.75914 11.9023 8.69125 11.7462 9.6709 11.7461L9.98242 11.751Z" fill="currentcolor"/>
<path d="M2.86035 12.5312C2.95969 12.7708 3.07203 13.0042 3.19531 13.2305L3.32227 13.4541C3.03792 13.8038 2.8021 14.1797 2.61914 14.5811L2.37207 14.2031C2.21376 13.9465 2.06872 13.6808 1.9375 13.4072L1.75195 12.9912L2.30664 12.7617L2.86035 12.5312Z" fill="currentcolor"/>
<path fill-rule="evenodd" clip-rule="evenodd" d="M9.91602 5.09961C10.3931 5.12831 10.8255 5.25727 11.2119 5.48633L11.2139 5.48828C11.6674 5.73902 12.0206 6.0991 12.2715 6.56445C12.491 6.96192 12.6152 7.40544 12.6426 7.89453L12.6484 8.10645C12.6484 8.86973 12.4382 9.51451 12.0176 10.04L11.8242 10.2578C11.4029 10.6789 10.8905 10.9393 10.2881 11.0381L10.0234 11.0703L9.70605 11.082C8.85831 11.0816 8.16075 10.8072 7.61133 10.2578C7.06166 9.69606 6.78523 8.97874 6.78516 8.10645L6.79102 7.89453C6.81837 7.40532 6.94258 6.9609 7.16211 6.56348C7.38133 6.15676 7.67372 5.83156 8.03809 5.58887L8.20508 5.48633L8.2041 5.48535C8.64509 5.22385 9.14619 5.09408 9.70605 5.09375L9.91602 5.09961ZM9.70801 6.33105C9.21807 6.3311 8.81185 6.49866 8.48926 6.83301L8.48828 6.83398C8.17831 7.16845 8.02246 7.59299 8.02246 8.10645V8.11035L8.03027 8.29004V8.29395C8.06434 8.72347 8.2178 9.07937 8.48926 9.36133L8.49121 9.3623C8.8137 9.68416 9.21858 9.84566 9.70801 9.8457L9.8877 9.83887C10.2896 9.804 10.6241 9.64798 10.8936 9.375L10.8984 9.37305L10.9092 9.36133C11.2319 9.03863 11.3935 8.6203 11.3936 8.10645V8.10254L11.3857 7.92285V7.91895L11.3672 7.75977C11.3174 7.44953 11.1972 7.17854 11.0088 6.94629L10.9092 6.83301C10.6374 6.54046 10.2968 6.37564 9.8877 6.33887L9.70801 6.33105Z" fill="currentcolor"/>
<path d="M1.7666 8.6543L2.36133 8.73242C2.32016 9.0483 2.29883 9.37121 2.29883 9.69922C2.29883 10.0272 2.32016 10.3501 2.36133 10.666L1.7666 10.7441L1.1709 10.8203C1.12309 10.4533 1.09961 10.079 1.09961 9.69922C1.09961 9.31916 1.12302 8.94443 1.1709 8.57715L1.7666 8.6543Z" fill="currentcolor"/>
<path d="M18.2266 8.57715C18.2744 8.94443 18.2988 9.31916 18.2988 9.69922C18.2988 10.079 18.2744 10.4532 18.2266 10.8203L17.6318 10.7441L17.0371 10.666C17.0783 10.3501 17.0996 10.0272 17.0996 9.69922C17.0996 9.45321 17.0871 9.21015 17.0635 8.9707L17.0371 8.73242L17.6318 8.6543L18.2266 8.57715Z" fill="currentcolor"/>
<path d="M3.35156 4.8291L3.82812 5.19434L3.68457 5.3877C3.40332 5.77953 3.15931 6.20011 2.95801 6.64355L2.86035 6.86719L2.30664 6.63672L1.75195 6.40723C2.00573 5.79532 2.32774 5.21837 2.70898 4.6875L2.87598 4.46289L3.35156 4.8291Z" fill="currentcolor"/>
<path d="M16.5225 4.46289C16.977 5.05439 17.3565 5.70797 17.6465 6.40723L17.0918 6.63672L16.5381 6.86719C16.32 6.34124 16.042 5.84482 15.7139 5.3877L15.5703 5.19434L16.0469 4.8291L16.5225 4.46289Z" fill="currentcolor"/>
<path d="M6.63672 2.30664L6.86719 2.86035L6.64355 2.95801C6.12626 3.19283 5.64 3.48567 5.19434 3.82812L4.8291 3.35156L4.46289 2.87598C4.98058 2.47817 5.54576 2.13751 6.14746 1.86426L6.40723 1.75195L6.63672 2.30664Z" fill="currentcolor"/>
<path d="M12.9912 1.75195C13.6905 2.04196 14.344 2.42145 14.9355 2.87598L14.5693 3.35156L14.2041 3.82812C13.7584 3.48567 13.2722 3.19283 12.7549 2.95801L12.5312 2.86035L12.7617 2.30664L12.9912 1.75195Z" fill="currentcolor"/>
<path d="M9.69922 1.09961C10.079 1.09961 10.4533 1.12309 10.8203 1.1709L10.7441 1.7666L10.666 2.36133C10.3501 2.32016 10.0272 2.29883 9.69922 2.29883C9.45321 2.29883 9.21015 2.31137 8.9707 2.33496L8.73242 2.36133L8.57617 1.1709L8.57715 1.17188C8.94443 1.124 9.31916 1.09961 9.69922 1.09961Z" fill="currentcolor"/>
<path fill-rule="evenodd" clip-rule="evenodd" d="M15.4341 19.1906C14.7395 19.1906 14.1039 19.0203 13.5273 18.6795C12.9638 18.3519 12.5183 17.9064 12.1906 17.3429C11.863 16.7662 11.6992 16.1307 11.6992 15.4361C11.6992 14.7547 11.863 14.1322 12.1906 13.5687C12.5183 12.9921 12.9638 12.54 13.5273 12.2124C14.1039 11.8848 14.7395 11.7209 15.4341 11.7209C16.1155 11.7209 16.738 11.8848 17.3015 12.2124C17.8781 12.54 18.3302 12.9921 18.6578 13.5687C18.9854 14.1322 19.1492 14.7547 19.1492 15.4361C19.1492 16.1307 18.9854 16.7662 18.6578 17.3429C18.3302 17.9064 17.8781 18.3519 17.3015 18.6795C16.738 19.0203 16.1155 19.1906 15.4341 19.1906ZM15.8862 14.984V13.5294C15.8862 13.3983 15.8403 13.287 15.7486 13.1952C15.6699 13.1035 15.5651 13.0576 15.4341 13.0576C15.303 13.0576 15.1916 13.1035 15.0999 13.1952C15.0213 13.287 14.9819 13.3983 14.9819 13.5294V14.984H13.5273C13.3963 14.984 13.2849 15.0299 13.1932 15.1216C13.1145 15.2002 13.0752 15.3051 13.0752 15.4361C13.0752 15.5672 13.1145 15.6786 13.1932 15.7703C13.2849 15.862 13.3963 15.9079 13.5273 15.9079H14.9819V17.3822C14.9819 17.5001 15.0213 17.6049 15.0999 17.6967C15.1916 17.7884 15.303 17.8343 15.4341 17.8343C15.5651 17.8343 15.6699 17.7884 15.7486 17.6967C15.8403 17.6049 15.8862 17.5001 15.8862 17.3822V15.9079H17.3408C17.4587 15.9079 17.557 15.862 17.6356 15.7703C17.7274 15.6786 17.7732 15.5672 17.7732 15.4361C17.7732 15.3051 17.7274 15.2002 17.6356 15.1216C17.557 15.0299 17.4587 14.984 17.3408 14.984H15.8862Z" fill="currentcolor"/>
</svg>
