<svg width="20" height="20" viewBox="0 0 20 20" fill="none" xmlns="http://www.w3.org/2000/svg">
<path d="M12.5 12.15C12.5 11.791 12.791 11.5 13.15 11.5H17.3167C17.6757 11.5 17.9667 11.791 17.9667 12.15C17.9667 12.509 17.6757 12.8 17.3167 12.8H13.15C12.791 12.8 12.5 12.509 12.5 12.15Z" fill="currentColor"/>
<path d="M12.5 14.2333C12.5 13.8744 12.791 13.5833 13.15 13.5833H17.3167C17.6757 13.5833 17.9667 13.8744 17.9667 14.2333C17.9667 14.5923 17.6757 14.8833 17.3167 14.8833H13.15C12.791 14.8833 12.5 14.5923 12.5 14.2333Z" fill="currentColor"/>
<path d="M13.15 15.6667C12.791 15.6667 12.5 15.9577 12.5 16.3167C12.5 16.6756 12.791 16.9667 13.15 16.9667H15.65C16.009 16.9667 16.3 16.6756 16.3 16.3167C16.3 15.9577 16.009 15.6667 15.65 15.6667H13.15Z" fill="currentColor"/>
<path fill-rule="evenodd" clip-rule="evenodd" d="M7.72662 8.29194C8.32943 8.89476 9.09606 9.19617 10.0265 9.19617C10.97 9.19617 11.7432 8.89476 12.346 8.29194C12.9488 7.67602 13.2502 6.88974 13.2502 5.9331C13.2502 5.30408 13.1126 4.74058 12.8374 4.2426C12.5622 3.73151 12.1757 3.33837 11.6777 3.06318C11.1928 2.77487 10.6424 2.63072 10.0265 2.63072C9.41057 2.63072 8.86017 2.77487 8.3753 3.06318C7.89043 3.33837 7.51039 3.73151 7.23519 4.2426C6.95999 4.74058 6.8224 5.30408 6.8224 5.9331C6.8224 6.88974 7.1238 7.67602 7.72662 8.29194ZM11.3435 7.30909C11.0028 7.66292 10.5638 7.83983 10.0265 7.83983C9.4892 7.83983 9.04364 7.66292 8.68981 7.30909C8.34909 6.95527 8.17873 6.4966 8.17873 5.9331C8.17873 5.3696 8.34909 4.90438 8.68981 4.53745C9.04364 4.17052 9.4892 3.98706 10.0265 3.98706C10.5638 3.98706 11.0028 4.17052 11.3435 4.53745C11.6973 4.90438 11.8742 5.3696 11.8742 5.9331C11.8742 6.4966 11.6973 6.95527 11.3435 7.30909Z" fill="currentColor"/>
<path d="M11.6582 11.4442C11.1203 11.3346 10.5633 11.2798 9.98717 11.2798C9.09606 11.2798 8.25736 11.4109 7.47108 11.6729C6.6848 11.935 6.01646 12.302 5.46606 12.7737C4.92877 13.2455 4.56184 13.7763 4.36527 14.366C4.32595 14.497 4.3063 14.6215 4.3063 14.7394C4.3063 14.9753 4.38492 15.1653 4.54218 15.3095C4.71254 15.4405 4.94187 15.5061 5.23018 15.5061H11.7125C11.5772 15.7455 11.5 16.0221 11.5 16.3167C11.5 16.5153 11.5351 16.7057 11.5994 16.8821H5.03361C4.36527 16.8821 3.84108 16.7117 3.46105 16.371C3.08101 16.0303 2.89099 15.565 2.89099 14.9753C2.89099 14.6477 2.94996 14.307 3.0679 13.9532C3.31689 13.18 3.78211 12.4854 4.46355 11.8695C5.145 11.2536 5.96404 10.7753 6.92068 10.4346C7.89043 10.0938 8.91259 9.92348 9.98717 9.92348C11.0749 9.92348 12.1036 10.1004 13.0733 10.4542C13.116 10.4692 13.2005 10.5 13.2005 10.5C12.5418 10.5 11.9227 10.886 11.6582 11.4442Z" fill="currentColor"/>
</svg>
