<svg width="32" height="20" viewBox="0 0 32 20" fill="none" xmlns="http://www.w3.org/2000/svg">
<path d="M11.2331 17.0079H20.9509C22.1657 17.0079 22.599 16.6598 22.599 15.9789C22.599 13.9827 20.0999 11.2283 16.0921 11.2283C12.0765 11.2283 9.57741 13.9827 9.57741 15.9789C9.57741 16.6598 10.0107 17.0079 11.2331 17.0079ZM16.0921 9.84336C17.7555 9.84336 19.1869 8.35781 19.1869 6.42352C19.1869 4.51245 17.7478 3.09656 16.0921 3.09656C14.4441 3.09656 12.9972 4.5434 13.005 6.439C13.005 8.35781 14.4363 9.84336 16.0921 9.84336Z" fill="currentcolor"/>
<path d="M2.86173 17.0079H8.7342C7.92955 15.8396 8.9122 13.4875 10.5834 12.2032C9.71682 11.6306 8.6104 11.2051 7.17131 11.2051C3.68187 11.2051 1.5 13.7815 1.5 15.9247C1.5 16.6211 1.87912 17.0079 2.86173 17.0079ZM7.17131 10.0213C8.61813 10.0213 9.86386 8.72145 9.86386 7.04249C9.86386 5.37901 8.6104 4.1488 7.17131 4.1488C5.73995 4.1488 4.47106 5.40995 4.4788 7.05796C4.4788 8.72145 5.73221 10.0213 7.17131 10.0213ZM29.3073 17.0079C30.2899 17.0079 30.669 16.6211 30.669 15.9247C30.669 13.7815 28.4871 11.2051 24.9976 11.2051C23.5508 11.2051 22.4444 11.6306 21.5856 12.2032C23.2491 13.4875 24.2317 15.8396 23.427 17.0079H29.3073ZM24.9899 10.0213C26.4368 10.0213 27.6902 8.72145 27.6902 7.05796C27.6902 5.40995 26.429 4.1488 24.9899 4.1488C23.5586 4.1488 22.2974 5.37901 22.2974 7.04249C22.2974 8.72145 23.5508 10.0213 24.9899 10.0213Z" fill="currentcolor"/>
</svg>
