<svg width="20" height="20" viewBox="0 0 20 20" fill="none" xmlns="http://www.w3.org/2000/svg">
<path d="M17.221 13.619L12.4836 9.37308C12.4312 9.32066 12.3722 9.29445 12.3067 9.29445C12.2543 9.29445 12.2019 9.32066 12.1494 9.37308L9.61369 12.0661C9.31228 12.3937 8.95845 12.5575 8.55221 12.5575C8.2508 12.5575 7.95595 12.4461 7.66764 12.2233L6.25234 11.0439C6.21302 11.0046 6.15405 10.985 6.07542 10.985C6.02301 10.985 5.96403 11.0046 5.89851 11.0439L2.7927 13.678L2.77304 12.0268L5.1712 9.96279C5.43329 9.74001 5.72815 9.62862 6.05577 9.62862C6.35717 9.62862 6.64548 9.73345 6.92068 9.94313L8.35564 11.1422C8.42116 11.1815 8.47358 11.2012 8.51289 11.2012C8.57842 11.2012 8.63739 11.175 8.68981 11.1226L11.4614 8.19366C11.6842 7.93156 11.9594 7.80051 12.287 7.80051C12.6016 7.80051 12.8702 7.9119 13.093 8.13468L17.2013 11.9481L17.221 13.619ZM6.07542 8.39023C5.78712 8.39023 5.55124 8.29849 5.36777 8.11503C5.19741 7.93156 5.11223 7.70223 5.11223 7.42703C5.11223 7.15183 5.19741 6.92905 5.36777 6.75869C5.55124 6.57523 5.78712 6.48349 6.07542 6.48349C6.35062 6.48349 6.5734 6.57523 6.74376 6.75869C6.91412 6.92905 6.9993 7.15183 6.9993 7.42703C6.9993 7.70223 6.91412 7.93156 6.74376 8.11503C6.5734 8.29849 6.35062 8.39023 6.07542 8.39023ZM4.40458 16.4889C3.68382 16.4889 3.10066 16.2727 2.6551 15.8402C2.20954 15.3947 1.99332 14.8181 2.00642 14.1104V5.77584C2.00642 5.05508 2.22265 4.47848 2.6551 4.04602C3.08756 3.60046 3.65761 3.37769 4.36526 3.37769H15.6287C16.3495 3.37769 16.9261 3.59391 17.3586 4.02637C17.8041 4.45882 18.0269 5.02887 18.0269 5.73653V14.0908C18.0269 14.8115 17.8041 15.3947 17.3586 15.8402C16.9261 16.2727 16.3626 16.4889 15.668 16.4889H4.40458ZM3.36276 13.9925C3.36276 14.3201 3.46759 14.5887 3.67727 14.7984C3.88694 15.0081 4.16214 15.1129 4.50286 15.1129H15.5304C15.8712 15.1129 16.1464 15.0081 16.356 14.7984C16.5657 14.5887 16.6706 14.3201 16.6706 13.9925V5.87413C16.6706 5.53341 16.5657 5.25821 16.356 5.04853C16.1464 4.83886 15.8712 4.73402 15.5304 4.73402H4.50286C4.17525 4.73402 3.90005 4.83886 3.67727 5.04853C3.46759 5.25821 3.36276 5.53341 3.36276 5.87413V13.9925Z" fill="currentColor"/>
</svg>
