<svg width="20" height="20" viewBox="0 0 20 20" fill="none" xmlns="http://www.w3.org/2000/svg">
<path fill-rule="evenodd" clip-rule="evenodd" d="M8.51532 3.11556C8.52091 2.16343 9.55894 1.57778 10.3768 2.06534L16.1256 5.49247C16.9434 5.98004 16.9219 7.17171 16.087 7.62943C15.3343 8.04207 14.5026 8.28797 13.6482 8.3515C13.6157 8.35392 13.5864 8.37202 13.5697 8.40002L12.8496 9.60791C12.7318 9.80555 12.7171 10.048 12.8101 10.2585L13.2408 11.2331C13.6114 12.0715 13.6934 13.0092 13.4739 13.8992C13.1953 15.029 11.9043 15.5683 10.9048 14.9725L8.39444 13.4759C8.37166 13.4623 8.34442 13.4584 8.31871 13.4649C8.293 13.4714 8.27092 13.4878 8.25734 13.5106L6.18937 16.9795C6.15195 17.0423 6.10619 17.0997 6.05333 17.1501L5.17344 17.9902C4.91574 18.2363 4.49763 17.987 4.59151 17.6433L4.91206 16.4697C4.93131 16.3993 4.96004 16.3317 4.99746 16.2689L7.06543 12.8001C7.09371 12.7526 7.07818 12.6912 7.03074 12.663L4.51904 11.1656C3.51811 10.5689 3.38388 9.17224 4.25284 8.39582C4.9086 7.80989 5.73499 7.44972 6.6106 7.36821L7.72525 7.26446C7.97446 7.24126 8.1976 7.10043 8.32576 6.88544L9.03461 5.69641C9.0513 5.66841 9.0533 5.63404 9.03997 5.6043C8.68953 4.82251 8.51028 3.97392 8.51532 3.11556ZM9.92372 3.2545C9.89219 3.2357 9.8529 3.23569 9.82136 3.25447C9.78982 3.27325 9.7711 3.3078 9.7726 3.34448C9.78171 3.56729 9.80649 3.78873 9.84658 4.00719C9.85574 4.05712 9.8657 4.10689 9.87646 4.1565C9.95784 4.53172 10.0847 4.89692 10.2552 5.2438L10.3049 5.34484C10.4172 5.57339 10.4063 5.84325 10.2759 6.06199L9.40239 7.52728C9.06925 8.08611 8.48921 8.4522 7.84142 8.51249L6.72677 8.61625C6.11817 8.6729 5.54377 8.92324 5.08798 9.3305C4.85002 9.54311 4.88678 9.92557 5.16088 10.089L11.5466 13.8958C11.823 14.0606 12.1799 13.9115 12.2569 13.5991C12.41 12.9784 12.3528 12.3245 12.0944 11.7398L11.6637 10.7652C11.4064 10.1832 11.4472 9.51263 11.773 8.96607L12.6578 7.48195C12.7882 7.2632 13.0204 7.12527 13.2749 7.11539L13.3874 7.11102C13.7736 7.09603 14.1552 7.03397 14.524 6.92711C14.5727 6.91299 14.6212 6.89808 14.6695 6.88239C14.8808 6.81376 15.0873 6.73025 15.2877 6.6323C15.3206 6.61617 15.3421 6.58328 15.3437 6.5466C15.3452 6.50992 15.3265 6.47536 15.2949 6.45657L9.92372 3.2545Z" fill="currentColor"/>
</svg>
