<svg width="20" height="20" viewBox="0 0 20 20" fill="none" xmlns="http://www.w3.org/2000/svg">
<path d="M8.51532 3.11556C8.52091 2.16343 9.55894 1.57778 10.3768 2.06534L16.1256 5.49247C16.9434 5.98004 16.9219 7.17171 16.087 7.62943C15.3343 8.04207 14.5026 8.28797 13.6482 8.3515C13.6157 8.35392 13.5864 8.37203 13.5697 8.40002L12.8496 9.60791C12.7318 9.80555 12.7171 10.048 12.8101 10.2585L13.2408 11.2331C13.6114 12.0715 13.6934 13.0092 13.4739 13.8992C13.1953 15.029 11.9043 15.5683 10.9048 14.9725L8.39444 13.4759C8.37166 13.4624 8.34442 13.4584 8.31871 13.4649C8.293 13.4714 8.27092 13.4878 8.25734 13.5106L6.18937 16.9795C6.15195 17.0423 6.10619 17.0997 6.05333 17.1501L5.17344 17.9902C4.91574 18.2363 4.49763 17.987 4.59151 17.6433L4.91206 16.4697C4.93131 16.3993 4.96004 16.3317 4.99746 16.2689L7.06543 12.8001C7.09371 12.7526 7.07818 12.6912 7.03074 12.663L4.51904 11.1656C3.51811 10.5689 3.38388 9.17224 4.25284 8.39582C4.9086 7.80989 5.73499 7.44972 6.6106 7.36822L7.72525 7.26446C7.97446 7.24126 8.1976 7.10043 8.32576 6.88545L9.03461 5.69641C9.0513 5.66841 9.0533 5.63404 9.03997 5.6043C8.68953 4.82251 8.51028 3.97392 8.51532 3.11556Z" fill="currentColor"/>
</svg>
