<svg width="20" height="20" viewBox="0 0 20 20" fill="none" xmlns="http://www.w3.org/2000/svg">
<path d="M14 16.3496C14.359 16.3496 14.6504 16.641 14.6504 17C14.6504 17.359 14.359 17.6504 14 17.6504H6C5.64101 17.6504 5.34961 17.359 5.34961 17C5.34961 16.641 5.64101 16.3496 6 16.3496H14ZM15.6289 3.37793C16.3495 3.37796 16.926 3.60047 17.3584 4.0459C17.8039 4.47829 18.0199 5.04835 18.0068 5.75586V12.6758C18.0068 13.3964 17.7843 13.9793 17.3389 14.4248C16.9064 14.8572 16.3365 15.0732 15.6289 15.0732H4.38477C3.66413 15.0732 3.08126 14.8572 2.63574 14.4248C2.20333 13.9793 1.98637 13.4029 1.98633 12.6953V5.77539C1.98642 5.05484 2.20338 4.47826 2.63574 4.0459C3.08127 3.60049 3.65771 3.37794 4.36523 3.37793H15.6289ZM4.4834 4.73438C4.15578 4.73438 3.88001 4.83915 3.65723 5.04883C3.4478 5.25844 3.34279 5.53354 3.34277 5.87402V12.5576C3.3428 12.885 3.44779 13.1601 3.65723 13.3828C3.88001 13.5925 4.15578 13.6973 4.4834 13.6973H15.5107C15.8514 13.6973 16.1263 13.5924 16.3359 13.3828C16.5456 13.1601 16.6513 12.8852 16.6514 12.5576V5.87402C16.6513 5.53335 16.5456 5.25848 16.3359 5.04883C16.1263 4.83921 15.8514 4.73438 15.5107 4.73438H4.4834ZM8.68945 6.54492C8.80736 6.54492 8.95177 6.59737 9.12207 6.70215L12.5225 8.80566C12.7583 8.96288 12.8769 9.13299 12.877 9.31641C12.877 9.49987 12.7519 9.66989 12.5029 9.82715L9.12207 11.9502C8.95171 12.055 8.81382 12.1074 8.70898 12.1074C8.44722 12.1072 8.31641 11.904 8.31641 11.498V7.13477C8.31641 6.9513 8.34952 6.80699 8.41504 6.70215C8.48049 6.59755 8.57176 6.54503 8.68945 6.54492Z" fill="currentcolor"/>
</svg>
