<svg width="20" height="20" viewBox="0 0 20 20" fill="none" xmlns="http://www.w3.org/2000/svg">
<path d="M4.17455 4.73827C4.11779 4.70988 4.06102 4.69569 4.00426 4.69569C3.92857 4.69569 3.86708 4.72408 3.81977 4.78084C3.78193 4.83761 3.76301 4.91329 3.76301 5.0079V13.5935C3.76301 13.726 3.80085 13.849 3.87654 13.9625C3.95222 14.076 4.05156 14.1565 4.17455 14.2038L7.33917 15.5661C7.47162 15.6229 7.6088 15.6513 7.75071 15.6513C7.91154 15.6513 8.07237 15.6181 8.23321 15.5519L11.8236 13.9199C11.956 13.8632 12.0979 13.8348 12.2493 13.8348C12.429 13.8348 12.5804 13.8679 12.7034 13.9341L15.8113 15.3816C15.868 15.41 15.9248 15.4242 15.9816 15.4242C16.0478 15.4242 16.0998 15.3958 16.1377 15.3391C16.185 15.2917 16.2086 15.2208 16.2086 15.1262V6.59731C16.2086 6.46486 16.1708 6.34187 16.0951 6.22834C16.0194 6.11481 15.9201 6.03439 15.7971 5.98709L12.675 4.65312C12.552 4.59636 12.4054 4.56797 12.2351 4.56797C12.0743 4.56797 11.9229 4.59636 11.781 4.65312L8.21902 6.14319C8.09603 6.19995 7.94939 6.22834 7.77909 6.22834C7.61826 6.22834 7.46689 6.19995 7.32498 6.14319L4.17455 4.73827ZM2.5 5.17819C2.5 4.61055 2.62299 4.17062 2.86897 3.85842C3.11495 3.54621 3.4508 3.39011 3.87654 3.39011C4.17928 3.39011 4.50095 3.46579 4.84153 3.61717L7.58042 4.82341C7.6561 4.8518 7.72706 4.86599 7.79328 4.86599C7.87843 4.86599 7.94939 4.8518 8.00615 4.82341L11.0572 3.54621C11.3978 3.4043 11.7857 3.33334 12.2209 3.33334C12.6845 3.33334 13.0866 3.40903 13.4272 3.5604L16.535 4.90856C16.8283 5.03155 17.0601 5.23023 17.2304 5.50459C17.4101 5.77895 17.5 6.0675 17.5 6.37025V14.9701C17.5 15.5283 17.3817 15.9635 17.1452 16.2757C16.9087 16.5879 16.5823 16.744 16.166 16.744C15.8822 16.744 15.5558 16.6636 15.1869 16.5027L12.2351 15.1546L8.97114 16.6446C8.60218 16.8055 8.20009 16.8859 7.7649 16.8859C7.32025 16.8859 6.94182 16.8102 6.62961 16.6588L3.47919 15.2681C3.1859 15.1356 2.94939 14.937 2.76963 14.6721C2.58988 14.3977 2.5 14.1044 2.5 13.7922V5.17819ZM7.19726 16.1763V5.58974H8.44607V16.1763H7.19726ZM11.6107 14.4166V3.98614H12.8169V14.4166H11.6107Z" fill="currentColor"/>
</svg>
