<svg width="20" height="20" viewBox="0 0 20 20" fill="none" xmlns="http://www.w3.org/2000/svg">
<path d="M14.75 10.25C17.0972 10.25 19 12.1528 19 14.5C19 16.8472 17.0972 18.75 14.75 18.75C12.4028 18.75 10.5 16.8472 10.5 14.5C10.5 12.1528 12.4028 10.25 14.75 10.25ZM16.8721 12.5537C16.6022 12.3544 16.2221 12.4111 16.0225 12.6807L14.1934 15.1553L13.1777 14.1631C12.9375 13.9285 12.552 13.9336 12.3174 14.1738C12.0831 14.4141 12.088 14.7987 12.3281 15.0332L13.834 16.5039C14.1023 16.7659 14.5406 16.7311 14.7637 16.4297L17 13.4043C17.1996 13.1342 17.1421 12.7533 16.8721 12.5537ZM14 3C15.3806 3.00008 16.5 4.11934 16.5 5.5V9.5498C16.0879 9.4041 15.6523 9.30891 15.2002 9.27051V6.5C15.2001 5.94786 14.7523 5.50011 14.2002 5.5L3.7998 5.50098C3.24767 5.50116 2.7998 5.94881 2.7998 6.50098V13.7002C2.79991 14.2523 3.24774 14.7 3.7998 14.7002H9.50488C9.52176 15.1504 9.59543 15.5857 9.71875 16H4C2.61936 15.9999 1.5 14.8807 1.5 13.5V5.5C1.5 4.11934 2.61936 3.00008 4 3H14ZM9.5 10.5C9.77614 10.5 10 10.7239 10 11C10 11.2761 9.77614 11.5 9.5 11.5H5.5C5.22386 11.5 5 11.2761 5 11C5 10.7239 5.22386 10.5 5.5 10.5H9.5ZM12.5 7.5C12.7761 7.5 13 7.72386 13 8C13 8.27614 12.7761 8.5 12.5 8.5H5.5C5.22386 8.5 5 8.27614 5 8C5 7.72386 5.22386 7.5 5.5 7.5H12.5Z" fill="currentcolor"/>
</svg>
