<svg xmlns="http://www.w3.org/2000/svg" width="20" height="20" viewBox="0 0 20 20" fill="none">
  <path d="M10.001 2.75049C14.0049 2.75066 17.251 5.99653 17.251 10.0005C17.2508 14.0043 14.0048 17.2503 10.001 17.2505C5.99702 17.2505 2.75115 14.0044 2.75098 10.0005C2.75098 5.99642 5.99691 2.75049 10.001 2.75049Z" stroke="currentcolor" stroke-width="1.33333"/>
  <path d="M8.27534 13.6226C8.4051 13.6339 8.53486 13.6001 8.66462 13.5211L13.4883 10.6776C13.6068 10.6043 13.6829 10.5112 13.7168 10.3984C13.7563 10.2799 13.7563 10.1642 13.7168 10.0514C13.6773 9.93293 13.6011 9.83984 13.4883 9.77214L8.66462 6.91178C8.54614 6.84408 8.4192 6.81587 8.2838 6.82716C8.15404 6.8328 8.04403 6.87511 7.95376 6.9541C7.86349 7.03308 7.81836 7.14027 7.81836 7.27567V13.1572C7.81836 13.2926 7.86067 13.4026 7.9453 13.4872C8.03557 13.5662 8.14558 13.6113 8.27534 13.6226Z" fill="currentcolor"/>
</svg>
