<svg width="20" height="20" viewBox="0 0 20 20" fill="none" xmlns="http://www.w3.org/2000/svg">
<path d="M13.4272 5.00922C13.4272 4.79955 13.3616 4.69471 13.2306 4.69471C13.1782 4.69471 13.0995 4.72747 12.9947 4.79299L6.37028 9.51068C6.19992 9.62862 6.11474 9.77277 6.11474 9.94313C6.11474 10.1004 6.19992 10.238 6.37028 10.3559L12.9947 15.1129C13.0995 15.1785 13.1782 15.2112 13.2306 15.2112C13.3616 15.2112 13.4272 15.1064 13.4272 14.8967V5.00922ZM5.36777 11.3191C4.80427 10.9129 4.52252 10.4542 4.52252 9.94313C4.52252 9.43205 4.81738 8.96028 5.40709 8.52783L12.287 3.59391C12.785 3.22698 13.2306 3.04352 13.6237 3.04352C13.9907 3.04352 14.2724 3.20733 14.469 3.53494C14.6786 3.84946 14.7835 4.30812 14.7835 4.91094V15.0343C14.7835 15.624 14.6786 16.0761 14.469 16.3906C14.2724 16.7051 13.9972 16.8624 13.6434 16.8624C13.2633 16.8624 12.8047 16.6724 12.2674 16.2923L5.36777 11.3191Z" fill="currentColor"/>
</svg>
