<svg width="20" height="20" viewBox="0 0 20 20" fill="none" xmlns="http://www.w3.org/2000/svg">
<path d="M6.56685 14.8967C6.56685 15.1064 6.63238 15.2112 6.76342 15.2112C6.81584 15.2112 6.89447 15.1785 6.99931 15.1129L13.6237 10.3559C13.8072 10.238 13.8989 10.1004 13.8989 9.94313C13.8989 9.77277 13.8072 9.62862 13.6237 9.51068L6.99931 4.79299C6.89447 4.72747 6.81584 4.69471 6.76342 4.69471C6.63238 4.69471 6.56685 4.79955 6.56685 5.00922V14.8967ZM7.72662 16.2923C7.18932 16.6724 6.73066 16.8624 6.35063 16.8624C5.9968 16.8624 5.71505 16.7051 5.50537 16.3906C5.3088 16.0761 5.21052 15.624 5.21052 15.0343V4.91094C5.21052 4.30812 5.3088 3.84946 5.50537 3.53494C5.71505 3.20733 6.00335 3.04352 6.37028 3.04352C6.76342 3.04352 7.20898 3.22698 7.70696 3.59391L14.5869 8.52783C15.1766 8.96028 15.4715 9.43205 15.4715 9.94313C15.4715 10.4542 15.1897 10.9129 14.6262 11.3191L7.72662 16.2923Z" fill="currentColor"/>
</svg>
