<svg width="20" height="20" viewBox="0 0 20 20" fill="none" xmlns="http://www.w3.org/2000/svg">
<path fill-rule="evenodd" clip-rule="evenodd" d="M9.98824 6.58752C9.35913 6.58752 8.7824 6.73599 8.25906 7.03334C7.73596 7.33056 7.31966 7.74096 7.01068 8.26384C6.71318 8.77555 6.56443 9.34103 6.56443 9.9586C6.56443 10.5877 6.71291 11.1644 7.01026 11.6878L7.01094 11.6889C7.31987 12.1999 7.7359 12.6099 8.25833 12.9186C8.78166 13.2159 9.35913 13.3648 9.98824 13.3648C10.6173 13.3648 11.1941 13.2164 11.7174 12.919C12.2517 12.6103 12.6685 12.1999 12.9659 11.6883C13.2751 11.1649 13.4296 10.588 13.4296 9.9586C13.4296 9.34088 13.2751 8.77563 12.9659 8.26396C12.6685 7.74076 12.2519 7.33034 11.7172 7.03322C11.1939 6.73595 10.6173 6.58752 9.98824 6.58752ZM9.17721 9.9586C9.17721 9.75017 9.25331 9.56963 9.40797 9.4147C9.57455 9.25948 9.76725 9.18272 9.98824 9.18272C10.2219 9.18272 10.4139 9.26007 10.5679 9.41409L10.5705 9.41651C10.7352 9.55922 10.8168 9.73868 10.8168 9.9586C10.8168 10.1911 10.7345 10.3828 10.5691 10.5371L10.5679 10.5383C10.4139 10.6923 10.2219 10.7696 9.98824 10.7696C9.76725 10.7696 9.57455 10.6929 9.40797 10.5377C9.25436 10.3837 9.17721 10.1919 9.17721 9.9586Z" fill="currentColor"/>
<path fill-rule="evenodd" clip-rule="evenodd" d="M9.98824 3.89902C8.91469 3.89902 7.83025 4.135 6.73525 4.60596C5.6521 5.0769 4.67475 5.72453 3.80372 6.54848C2.94437 7.3725 2.27849 8.29149 1.80712 9.30493L1.80603 9.30745C1.73312 9.48971 1.69702 9.68939 1.69702 9.90589C1.69702 10.1337 1.733 10.3393 1.80603 10.5219L1.80712 10.5244C2.27856 11.538 2.95016 12.4568 3.82129 13.2809C4.69223 14.1047 5.66926 14.7581 6.75223 15.2407C7.83561 15.7117 8.91468 15.9479 9.98824 15.9479C11.0618 15.9479 12.1404 15.7119 13.2238 15.2409C14.3185 14.7583 15.3017 14.1048 16.1728 13.2809C17.0439 12.4568 17.7155 11.538 18.1869 10.5244L18.188 10.5219C18.261 10.3393 18.297 10.1337 18.297 9.90589C18.297 9.68939 18.2609 9.48971 18.188 9.30745L18.1869 9.30493C17.7155 8.29134 17.0439 7.37251 16.1728 6.54848C15.3017 5.72453 14.3245 5.07697 13.2414 4.60604C12.1579 4.13497 11.0734 3.89902 9.98824 3.89902ZM7.30215 5.80476C8.21034 5.40888 9.10558 5.21148 9.98824 5.21148C10.8709 5.21148 11.7661 5.40888 12.6743 5.80476C13.5943 6.18905 14.4277 6.72502 15.1732 7.4123C15.9187 8.0879 16.4949 8.83882 16.9019 9.66442C16.9325 9.72581 16.9494 9.80569 16.9494 9.90589C16.9494 9.99246 16.9333 10.0795 16.9007 10.1672C16.4938 10.992 15.9182 11.7478 15.1733 12.4345C14.4277 13.1102 13.5948 13.646 12.6745 14.0421C11.7663 14.4379 10.8709 14.6354 9.98824 14.6354C9.10558 14.6354 8.21034 14.438 7.30215 14.0422C6.39353 13.6461 5.56643 13.1103 4.8207 12.4345C4.07579 11.7477 3.50024 10.9919 3.0933 10.1672C3.06069 10.0795 3.04463 9.99245 3.04463 9.90589C3.04463 9.80569 3.06137 9.72606 3.09206 9.66467C3.49905 8.83907 4.07504 8.08819 4.82053 7.41258C5.56615 6.72522 6.39386 6.18903 7.30215 5.80476Z" fill="currentColor"/>
</svg>
