<svg width="20" height="20" viewBox="0 0 20 20" fill="none" xmlns="http://www.w3.org/2000/svg">
<path d="M16.1384 3.03085C15.9596 3.03085 15.8008 3.10169 15.6637 3.23879L3.25755 15.8732L3.25494 15.8763C3.13259 16.0231 3.06763 16.1746 3.06763 16.3301C3.06763 16.4826 3.11842 16.6276 3.21749 16.7638L3.22146 16.7681C3.36884 16.9278 3.53362 17.0126 3.71507 17.0126C3.91622 17.0126 4.08227 16.9366 4.20901 16.7854L16.6134 4.17032L16.6159 4.16746C16.7492 4.00988 16.821 3.85238 16.821 3.69587C16.821 3.52811 16.7496 3.37567 16.6139 3.23962C16.4873 3.10082 16.3277 3.03085 16.1384 3.03085Z" fill="currentColor"/>
<path d="M9.95309 3.90945C8.82158 3.90945 7.71965 4.13931 6.64767 4.5987C5.57582 5.04632 4.61589 5.6824 3.76808 6.50667C2.9318 7.31939 2.27792 8.25596 1.80673 9.31612L1.80603 9.31788C1.73326 9.49981 1.69702 9.69357 1.69702 9.89875C1.69702 10.1497 1.73876 10.3627 1.82501 10.5355C2.08411 11.089 2.41358 11.6478 2.81324 12.212L2.81395 12.213C3.22557 12.7657 3.64369 13.2311 4.06844 13.6086L4.10403 13.6403L5.0355 12.6898L4.99552 12.655C4.63529 12.3412 4.28022 11.9572 3.93042 11.5024C3.58124 11.0485 3.30236 10.6069 3.09334 10.1777C3.06071 10.09 3.04463 10.0029 3.04463 9.91632C3.04463 9.81612 3.06172 9.73577 3.09242 9.67438C3.51137 8.80155 4.0816 8.0276 4.80339 7.35233C5.53719 6.6768 6.35222 6.15292 7.24864 5.78038C8.14484 5.40793 9.05793 5.22191 9.98824 5.22191C10.2897 5.22191 10.627 5.25094 10.9999 5.3092C11.3846 5.36749 11.7277 5.44314 12.0294 5.53599L12.0585 5.54494L13.0829 4.50158L13.0103 4.47483C12.562 4.30965 12.0496 4.17427 11.4734 4.06844C10.9089 3.9626 10.402 3.90945 9.95309 3.90945Z" fill="currentColor"/>
<path fill-rule="evenodd" clip-rule="evenodd" d="M15.8022 6.13582L15.7663 6.1045L14.8529 7.05593L14.8937 7.09031C15.2652 7.40375 15.632 7.79964 15.9934 8.27762C16.3549 8.744 16.6577 9.20997 16.9022 9.67551C16.9327 9.73685 16.9494 9.81634 16.9494 9.91632C16.9494 10.0029 16.9333 10.09 16.9007 10.1777C16.4819 11.0379 15.9059 11.8056 15.1729 12.4804C14.4509 13.1559 13.6356 13.6858 12.7273 14.07C11.8315 14.454 10.9188 14.6458 9.98896 14.6459C9.58155 14.6342 9.16841 14.5935 8.74908 14.5236C8.34093 14.4536 8.02976 14.3667 7.81315 14.2641L7.78068 14.2487L6.77723 15.29L6.83808 15.3205C7.21821 15.5105 7.70313 15.664 8.29153 15.7816C8.88014 15.8994 9.44574 15.9583 9.98824 15.9583C11.1196 15.9583 12.2217 15.7343 13.2937 15.2866C14.3772 14.8273 15.343 14.1854 16.1908 13.3611C17.0387 12.5368 17.7042 11.5946 18.1871 10.5345L18.188 10.5323C18.2608 10.3504 18.297 10.1566 18.297 9.95146C18.297 9.70042 18.2553 9.48731 18.1689 9.31448C17.898 8.74913 17.5508 8.17843 17.1276 7.60237C16.704 7.02589 16.2623 6.5369 15.8022 6.13582ZM16.9467 10.1975L16.9017 10.1756L16.9007 10.1777L16.8999 10.1799L16.9467 10.1975Z" fill="currentColor"/>
<path d="M9.98824 6.59795C9.3362 6.59795 8.74782 6.74619 8.2243 7.04356C7.70108 7.32903 7.28992 7.72863 6.9925 8.24019C6.7068 8.75207 6.56443 9.32876 6.56443 9.96903C6.56443 10.3356 6.60577 10.6459 6.69 10.8986L6.71583 10.9761L10.918 6.70143L10.8218 6.68641C10.4466 6.62778 10.1681 6.59795 9.98824 6.59795Z" fill="currentColor"/>
<path d="M13.2329 8.80858L13.2046 8.73673L8.84709 13.1843L8.91423 13.2131C9.16937 13.3224 9.52871 13.3753 9.98824 13.3753C10.6516 13.3753 11.2465 13.2326 11.7701 12.947C12.2932 12.6498 12.6981 12.2451 12.9839 11.7332C13.2813 11.2096 13.4296 10.6212 13.4296 9.96903C13.4296 9.53073 13.3645 9.14358 13.2329 8.80858Z" fill="currentColor"/>
</svg>
