<svg width="20" height="20" viewBox="0 0 20 20" fill="none" xmlns="http://www.w3.org/2000/svg">
<path d="M6.05577 15.0343H4.97464C4.26698 15.0343 3.69693 14.8181 3.26448 14.3856C2.83202 13.9401 2.6158 13.3569 2.6158 12.6361V7.44669C2.6158 6.72594 2.83202 6.14933 3.26448 5.71688C3.69693 5.27132 4.26698 5.04854 4.97464 5.04854H15.0194C15.727 5.04854 16.2971 5.27132 16.7295 5.71688C17.1751 6.14933 17.3979 6.72594 17.3979 7.44669V12.6361C17.3979 13.3569 17.1751 13.9401 16.7295 14.3856C16.2971 14.8181 15.727 15.0343 15.0194 15.0343H13.9579V13.678H14.9014C15.2422 13.678 15.5174 13.5731 15.727 13.3635C15.9367 13.1407 16.0415 12.8655 16.0415 12.5379V7.46635C16.0415 7.12563 15.9367 6.85043 15.727 6.64076C15.5174 6.43108 15.2422 6.32624 14.9014 6.32624H5.11224C4.78462 6.32624 4.50942 6.43108 4.28664 6.64076C4.07697 6.85043 3.97213 7.12563 3.97213 7.46635V12.5379C3.97213 12.8655 4.07697 13.1407 4.28664 13.3635C4.50942 13.5731 4.78462 13.678 5.11224 13.678H6.05577V15.0343ZM6.70446 15.8402C6.70446 15.9844 6.75687 16.1089 6.86171 16.2137C6.96655 16.3186 7.09104 16.371 7.23519 16.371H12.7981C12.9554 16.371 13.0799 16.3186 13.1716 16.2137C13.2765 16.1089 13.3289 15.9844 13.3289 15.8402V11.3388C13.3289 11.1815 13.2765 11.057 13.1716 10.9653C13.0799 10.8605 12.9554 10.808 12.7981 10.808H7.23519C7.09104 10.808 6.96655 10.8605 6.86171 10.9653C6.75687 11.057 6.70446 11.1815 6.70446 11.3388V15.8402ZM6.92068 17.4914C6.50133 17.4914 6.15406 17.3604 5.87886 17.0983C5.61677 16.8362 5.48572 16.4889 5.48572 16.0565V11.0439C5.48572 10.6246 5.61677 10.2839 5.87886 10.0218C6.14095 9.74656 6.48823 9.60897 6.92068 9.60897H13.1126C13.532 9.60897 13.8727 9.74001 14.1348 10.0021C14.41 10.2642 14.5476 10.6049 14.5476 11.0243V16.0565C14.5476 16.4758 14.4166 16.8165 14.1545 17.0786C13.8924 17.3538 13.5451 17.4914 13.1126 17.4914H6.92068ZM5.44641 5.69722V3.81015C5.44641 3.3908 5.57745 3.05007 5.83955 2.78798C6.10164 2.51278 6.44891 2.37518 6.88137 2.37518H13.1126C13.5451 2.37518 13.8924 2.50623 14.1545 2.76832C14.4166 3.03042 14.5476 3.37769 14.5476 3.81015V5.69722H13.2699V3.9674C13.2699 3.87567 13.2371 3.80359 13.1716 3.75117C13.1192 3.69876 13.0471 3.67255 12.9554 3.67255H7.05828C6.96655 3.67255 6.88792 3.69876 6.8224 3.75117C6.76998 3.80359 6.74377 3.87567 6.74377 3.9674V5.69722H5.44641ZM11.6973 12.5772C11.8284 12.5772 11.9332 12.623 12.0119 12.7148C12.0905 12.8065 12.1298 12.9179 12.1298 13.0489C12.1298 13.1669 12.0905 13.2717 12.0119 13.3635C11.9332 13.4421 11.8284 13.4814 11.6973 13.4814H8.17873C8.06079 13.4814 7.9625 13.4421 7.88388 13.3635C7.80525 13.2717 7.76593 13.1669 7.76593 13.0489C7.76593 12.9179 7.80525 12.8065 7.88388 12.7148C7.9625 12.623 8.06079 12.5772 8.17873 12.5772H11.6973ZM10.4393 14.307C10.5703 14.307 10.6752 14.3529 10.7538 14.4446C10.8455 14.5363 10.8914 14.6477 10.8914 14.7788C10.8914 14.8967 10.8455 15.0015 10.7538 15.0933C10.6752 15.185 10.5703 15.2309 10.4393 15.2309H8.17873C8.06079 15.2309 7.9625 15.185 7.88388 15.0933C7.80525 15.0015 7.76593 14.8967 7.76593 14.7788C7.76593 14.6477 7.80525 14.5363 7.88388 14.4446C7.9625 14.3529 8.06079 14.307 8.17873 14.307H10.4393Z" fill="currentColor"/>
</svg>
