<svg width="20" height="20" viewBox="0 0 20 20" fill="none" xmlns="http://www.w3.org/2000/svg">
<path fill-rule="evenodd" clip-rule="evenodd" d="M7.74433 7.7565L7.74438 8.80328C7.33623 8.87409 7.02585 9.22999 7.02585 9.65839V12.8821C7.02585 13.3614 7.41443 13.75 7.89376 13.75H12.1093C12.5887 13.75 12.9772 13.3614 12.9772 12.8821V9.65839C12.9772 9.22955 12.6662 8.87335 12.2574 8.80307L12.2574 7.75645C12.2574 6.51022 11.2471 5.49997 10.0009 5.49997C8.75463 5.49997 7.74433 6.51026 7.74433 7.7565ZM10.0009 6.54146C9.32982 6.54146 8.78584 7.08544 8.78582 7.75645L8.78587 8.79048H11.216L11.2159 7.75647C11.2159 7.08545 10.6719 6.54146 10.0009 6.54146Z" fill="currentColor"/>
<path fill-rule="evenodd" clip-rule="evenodd" d="M10.6166 3.01149C10.2179 2.86908 9.78215 2.86908 9.3834 3.01149L5.21674 4.49959C4.48708 4.76018 4.00002 5.45132 4.00002 6.22611V12.7016C4.00002 13.2937 4.28596 13.8493 4.76775 14.1934L8.93442 17.1696C9.57186 17.6249 10.4282 17.6249 11.0656 17.1696L15.2323 14.1934C15.7141 13.8493 16 13.2937 16 12.7016V6.22611C16 5.45132 15.513 4.76018 14.7833 4.49959L10.6166 3.01149ZM8.93496 1.75583C9.6237 1.50986 10.3763 1.50986 11.0651 1.75583L15.2318 3.24393C16.4921 3.69404 17.3334 4.88784 17.3334 6.22611V12.7016C17.3334 13.7243 16.8395 14.684 16.0073 15.2784L11.8406 18.2546C10.7396 19.0411 9.26048 19.0411 8.15943 18.2546L3.99277 15.2784C3.16058 14.684 2.66669 13.7243 2.66669 12.7016V6.22611C2.66669 4.88784 3.50798 3.69404 4.76829 3.24393L8.93496 1.75583Z" fill="currentColor"/>
</svg>
