<svg width="20" height="20" viewBox="0 0 20 20" fill="none" xmlns="http://www.w3.org/2000/svg">
<path d="M9.27952 14.8967C9.47609 15.0802 9.71853 15.1719 10.0068 15.1719C10.2689 15.1588 10.4983 15.0605 10.6948 14.8771C10.8914 14.6805 10.9897 14.4511 10.9897 14.1891C10.9897 13.9401 10.8914 13.7238 10.6948 13.5404C10.4983 13.3438 10.2689 13.2455 10.0068 13.2455C9.71853 13.2455 9.47609 13.3373 9.27952 13.5207C9.09606 13.7042 9.00432 13.927 9.00432 14.1891C9.00432 14.4643 9.09606 14.7001 9.27952 14.8967ZM9.45644 11.8892C9.60059 12.0202 9.7775 12.0858 9.98718 12.0858C10.1575 12.0858 10.3017 12.0202 10.4196 11.8892C10.5507 11.7581 10.6162 11.6009 10.6162 11.4174C10.6162 11.0767 10.7079 10.7818 10.8914 10.5329C11.088 10.2839 11.3828 9.98901 11.776 9.64828C12.1953 9.29446 12.5098 8.97339 12.7195 8.68509C12.9423 8.39679 13.0537 8.03641 13.0537 7.60395C13.0537 7.13219 12.9226 6.69973 12.6605 6.30659C12.3984 5.90035 12.0381 5.58583 11.5794 5.36305C11.1338 5.12717 10.6424 5.00923 10.1051 5.00923C9.41057 5.00923 8.76189 5.2189 8.15907 5.63825C7.55626 6.0576 7.16312 6.56869 6.97965 7.1715C6.94034 7.28944 6.92068 7.39428 6.92068 7.48601C6.92068 7.69569 6.9862 7.8726 7.11725 8.01675C7.2483 8.1478 7.41866 8.21332 7.62833 8.21332C7.78559 8.21332 7.92319 8.17401 8.04113 8.09538C8.15907 8.01675 8.24425 7.91191 8.29667 7.78087C8.3884 7.37462 8.59153 7.0339 8.90604 6.7587C9.23366 6.4835 9.58748 6.3459 9.96752 6.3459C10.4524 6.3459 10.8586 6.45729 11.1863 6.68007C11.527 6.90285 11.6973 7.18461 11.6973 7.52533C11.6973 7.7219 11.6253 7.91191 11.4811 8.09538C11.337 8.26574 11.1011 8.50818 10.7735 8.82269C10.2886 9.26825 9.9151 9.6876 9.65301 10.0807C9.39091 10.4608 9.25987 10.9063 9.25987 11.4174C9.25987 11.6009 9.32539 11.7581 9.45644 11.8892ZM13.8203 16.4693C12.654 17.1376 11.3697 17.4718 9.96752 17.4718C8.57842 17.4718 7.30727 17.1376 6.15406 16.4693C5.00085 15.8009 4.08352 14.8967 3.40207 13.7566C2.73374 12.6034 2.39957 11.3322 2.39957 9.94314C2.39957 8.54094 2.73374 7.26323 3.40207 6.11002C4.08352 4.9437 5.00085 4.02638 6.15406 3.35804C7.30727 2.6897 8.57842 2.35553 9.96752 2.35553C11.3697 2.35553 12.654 2.6897 13.8203 3.35804C14.9866 4.02638 15.9039 4.9437 16.5723 6.11002C17.2537 7.26323 17.5944 8.54094 17.5944 9.94314C17.5944 11.3322 17.2537 12.6034 16.5723 13.7566C15.9039 14.8967 14.9866 15.8009 13.8203 16.4693Z" fill="currentColor"/>
</svg>
