<svg width="20" height="20" viewBox="0 0 20 20" fill="none" xmlns="http://www.w3.org/2000/svg">
<path d="M10.0068 14.7788C9.71853 14.7788 9.47609 14.687 9.27952 14.5036C9.09606 14.3201 9.00432 14.0842 9.00432 13.7959C9.00432 13.5207 9.09606 13.2979 9.27952 13.1276C9.47609 12.9441 9.71853 12.8524 10.0068 12.8524C10.2951 12.8524 10.531 12.9441 10.7145 13.1276C10.898 13.2979 10.9897 13.5207 10.9897 13.7959C10.9897 14.0711 10.898 14.3004 10.7145 14.4839C10.531 14.6674 10.2951 14.7657 10.0068 14.7788ZM9.98718 11.9285C9.7775 11.9285 9.60059 11.8695 9.45644 11.7516C9.32539 11.6205 9.25987 11.4633 9.25987 11.2798C9.25987 10.7687 9.39091 10.3363 9.65301 9.98245C9.9151 9.62863 10.2886 9.25514 10.7735 8.862C11.1011 8.58681 11.337 8.37058 11.4811 8.21332C11.6253 8.04296 11.6973 7.8595 11.6973 7.66293C11.6973 7.3222 11.5335 7.04045 11.2059 6.81767C10.8914 6.59489 10.4786 6.4835 9.96752 6.4835C9.56127 6.4835 9.2009 6.6211 8.88638 6.8963C8.58498 7.1584 8.3884 7.49912 8.29667 7.91847C8.24425 8.06262 8.15907 8.17401 8.04113 8.25264C7.93629 8.33126 7.8118 8.37058 7.66765 8.37058C7.57592 8.37058 7.47108 8.35092 7.35314 8.31161C7.22209 8.25919 7.11725 8.17401 7.03862 8.05607C6.96 7.93812 6.92068 7.80053 6.92068 7.64327C6.92068 7.53843 6.94034 7.42704 6.97965 7.3091C7.17622 6.66697 7.56281 6.14933 8.13942 5.75619C8.72913 5.34995 9.38436 5.14683 10.1051 5.14683C10.97 5.14683 11.6777 5.38926 12.2281 5.87414C12.7785 6.35901 13.0537 6.98148 13.0537 7.74155C13.0537 8.17401 12.9423 8.52128 12.7195 8.78338C12.5098 9.04547 12.1953 9.32722 11.776 9.62863C11.3828 9.91693 11.088 10.1725 10.8914 10.3953C10.7079 10.618 10.6162 10.9063 10.6162 11.2602C10.6162 11.4567 10.5572 11.6205 10.4393 11.7516C10.3213 11.8695 10.1706 11.9285 9.98718 11.9285ZM9.96752 17.4718C8.57842 17.4718 7.30727 17.1376 6.15406 16.4693C5.00085 15.8009 4.08352 14.8967 3.40207 13.7566C2.73374 12.6034 2.39957 11.3322 2.39957 9.94314C2.39957 8.54094 2.73374 7.26323 3.40207 6.11002C4.08352 4.9437 5.00085 4.02638 6.15406 3.35804C7.30727 2.6897 8.57842 2.35553 9.96752 2.35553C11.3697 2.35553 12.654 2.6897 13.8203 3.35804C14.9866 4.02638 15.9039 4.9437 16.5723 6.11002C17.2537 7.26323 17.5944 8.54094 17.5944 9.94314C17.5944 11.3322 17.2537 12.6034 16.5723 13.7566C15.9039 14.8967 14.9866 15.8009 13.8203 16.4693C12.654 17.1376 11.3697 17.4718 9.96752 17.4718ZM9.96752 16.1154C11.1207 16.1154 12.1757 15.8468 13.1323 15.3095C14.0889 14.7591 14.8425 14.0121 15.3929 13.0686C15.9564 12.1251 16.2381 11.0832 16.2381 9.94314C16.2381 8.80303 15.9564 7.75466 15.3929 6.79802C14.8425 5.84138 14.0889 5.08786 13.1323 4.53746C12.1757 3.98706 11.1207 3.71186 9.96752 3.71186C8.82741 3.71186 7.78559 3.98706 6.84205 4.53746C5.89852 5.08786 5.15155 5.84138 4.60115 6.79802C4.05076 7.75466 3.77556 8.80303 3.77556 9.94314C3.77556 11.0832 4.05076 12.1251 4.60115 13.0686C5.15155 14.0121 5.89852 14.7591 6.84205 15.3095C7.78559 15.8468 8.82741 16.1154 9.96752 16.1154Z" fill="currentColor"/>
</svg>
