<svg width="20" height="20" viewBox="0 0 20 20" fill="none" xmlns="http://www.w3.org/2000/svg">
<path d="M14.0562 9.23548C14.2396 9.23548 14.3969 9.30756 14.5279 9.45171C14.6721 9.58275 14.7442 9.74001 14.7442 9.92348C14.7442 10.1069 14.6721 10.2642 14.5279 10.3952C14.3969 10.5263 14.2396 10.5918 14.0562 10.5918H10.2231C9.96097 10.5918 9.74474 10.5132 9.57438 10.3559C9.41712 10.1987 9.3385 9.98245 9.3385 9.70725V5.50065C9.3385 5.31718 9.40402 5.15337 9.53507 5.00922C9.66611 4.86507 9.82337 4.79299 10.0068 4.79299C10.1903 4.79299 10.3476 4.86507 10.4786 5.00922C10.6228 5.15337 10.6948 5.31718 10.6948 5.50065V9.1372C10.6948 9.20272 10.7276 9.23548 10.7931 9.23548H14.0562ZM9.96752 17.4718C8.57842 17.4718 7.30727 17.1376 6.15406 16.4693C5.00085 15.8009 4.08352 14.8967 3.40208 13.7566C2.73374 12.6034 2.39957 11.3322 2.39957 9.94313C2.39957 8.54093 2.73374 7.26323 3.40208 6.11001C4.08352 4.9437 5.00085 4.02637 6.15406 3.35803C7.30727 2.68969 8.57842 2.35552 9.96752 2.35552C11.3697 2.35552 12.654 2.68969 13.8203 3.35803C14.9866 4.02637 15.9039 4.9437 16.5723 6.11001C17.2537 7.26323 17.5944 8.54093 17.5944 9.94313C17.5944 11.3322 17.2537 12.6034 16.5723 13.7566C15.9039 14.8967 14.9866 15.8009 13.8203 16.4693C12.654 17.1376 11.3697 17.4718 9.96752 17.4718ZM9.96752 16.1154C11.1207 16.1154 12.1757 15.8468 13.1323 15.3095C14.0889 14.7591 14.8425 14.0121 15.3929 13.0686C15.9564 12.1251 16.2381 11.0832 16.2381 9.94313C16.2381 8.80303 15.9564 7.75465 15.3929 6.79801C14.8425 5.84137 14.0889 5.08785 13.1323 4.53745C12.1757 3.98706 11.1207 3.71186 9.96752 3.71186C8.82741 3.71186 7.78559 3.98706 6.84205 4.53745C5.89852 5.08785 5.15155 5.84137 4.60115 6.79801C4.05076 7.75465 3.77556 8.80303 3.77556 9.94313C3.77556 11.0832 4.05076 12.1251 4.60115 13.0686C5.15155 14.0121 5.89852 14.7591 6.84205 15.3095C7.78559 15.8468 8.82741 16.1154 9.96752 16.1154Z" fill="currentColor"/>
</svg>
