<svg width="20" height="20" viewBox="0 0 20 20" fill="none" xmlns="http://www.w3.org/2000/svg">
<path d="M16.415 8.11503L11.7563 4.30156C11.5466 4.14431 11.4418 3.95429 11.4418 3.73151C11.4418 3.57425 11.5073 3.417 11.6384 3.25974C11.7825 3.10248 11.9529 3.02386 12.1494 3.02386C12.3198 3.02386 12.4705 3.08283 12.6016 3.20077L17.3586 7.26977C17.6731 7.51876 17.8303 7.80707 17.8303 8.13468C17.8303 8.4623 17.6665 8.7506 17.3389 8.99959L12.6016 13.0686C12.4705 13.1865 12.3198 13.2455 12.1494 13.2455C11.9398 13.2455 11.7694 13.1603 11.6384 12.99C11.5204 12.8458 11.4615 12.6886 11.4615 12.5182C11.4615 12.2954 11.5597 12.1054 11.7563 11.9481L16.415 8.11503ZM7.21554 16.8821C6.24579 16.8821 5.37433 16.6855 4.60115 16.2923C3.84108 15.8861 3.24482 15.3292 2.81236 14.6215C2.37991 13.9138 2.16368 13.1079 2.16368 12.2037C2.16368 11.2864 2.37991 10.4739 2.81236 9.76621C3.24482 9.04546 3.84108 8.48196 4.60115 8.07571C5.37433 7.66947 6.24579 7.46634 7.21554 7.46634H13.4861L17.0047 7.52531V8.72439L13.5058 8.80302H7.21554C6.50788 8.80302 5.87231 8.94717 5.3088 9.23548C4.75841 9.52378 4.32595 9.93002 4.01144 10.4542C3.69693 10.9653 3.53967 11.5485 3.53967 12.2037C3.53967 12.8327 3.69693 13.4028 4.01144 13.9138C4.32595 14.4118 4.75841 14.805 5.3088 15.0933C5.87231 15.3816 6.50788 15.5257 7.21554 15.5257H7.64799C7.84456 15.5257 8.00182 15.5847 8.11976 15.7026C8.2508 15.8206 8.31633 15.9778 8.31633 16.1744C8.31633 16.3841 8.2508 16.5544 8.11976 16.6855C7.98871 16.8165 7.8249 16.8821 7.62833 16.8821H7.21554Z" fill="currentColor"/>
</svg>
