<svg width="20" height="20" viewBox="0 0 20 20" fill="none" xmlns="http://www.w3.org/2000/svg">
<path d="M16.474 14.5036C16.3954 14.687 16.2774 14.7788 16.1202 14.7788C16.0284 14.7788 15.9301 14.7394 15.8253 14.6608L12.7195 12.2233C12.5754 12.1185 12.5033 12.0071 12.5033 11.8892C12.5033 11.7581 12.6212 11.6664 12.8571 11.614L14.7442 11.2208C14.5083 9.9759 14.1152 8.88166 13.5648 7.93812C13.0144 6.98148 12.3329 6.24762 11.5204 5.73653C10.721 5.21235 9.84958 4.95025 8.90604 4.95025C8.17218 4.95025 7.47108 5.10096 6.80274 5.40236C6.14751 5.70377 5.59056 6.12312 5.13189 6.66041C4.67323 7.1846 4.35872 7.78086 4.18836 8.4492H2.73374C2.9041 7.51877 3.28413 6.68662 3.87384 5.95276C4.46356 5.20579 5.19742 4.62919 6.07543 4.22294C6.95344 3.80359 7.89698 3.59392 8.90604 3.59392C10.0593 3.59392 11.1273 3.90188 12.1101 4.5178C13.1061 5.13372 13.9448 5.99863 14.6262 7.11252C15.3208 8.21332 15.8057 9.49102 16.0809 10.9456L17.5748 10.6508C17.6403 10.6377 17.7058 10.6311 17.7714 10.6311C17.8631 10.6311 17.9352 10.6573 17.9876 10.7098C18.04 10.7491 18.0662 10.808 18.0662 10.8867C18.0662 10.9784 18.04 11.0767 17.9876 11.1815L16.474 14.5036ZM2.43888 12.302C2.30784 12.302 2.19645 12.2627 2.10471 12.184C2.02608 12.0923 1.98677 11.9809 1.98677 11.8499L2.00643 9.90382C2.00643 9.77277 2.04574 9.66794 2.12437 9.58931C2.2161 9.49758 2.32749 9.45171 2.45854 9.45171H4.38493C4.52908 9.45171 4.64047 9.49102 4.7191 9.56965C4.79772 9.64828 4.83704 9.75967 4.83704 9.90382V11.8499C4.83704 11.9809 4.79117 12.0923 4.69944 12.184C4.62081 12.2627 4.51597 12.302 4.38493 12.302H2.43888Z" fill="currentColor"/>
</svg>
