<svg width="20" height="20" viewBox="0 0 20 20" fill="none" xmlns="http://www.w3.org/2000/svg">
<path d="M17.2107 12.7781C17.1594 12.7544 17.1189 12.7117 17.098 12.6587L16.447 11.008C16.3788 10.8352 16.1798 10.7906 16.0441 10.8743C15.9969 10.9034 15.9574 10.9479 15.9338 11.008L15.2827 12.6587C15.2603 12.7156 15.2153 12.7606 15.1584 12.7831L13.5076 13.4341C13.2748 13.5259 13.2748 13.8555 13.5076 13.9473L15.1584 14.5983C15.2153 14.6208 15.2603 14.6658 15.2827 14.7227L15.9338 16.3734C15.9493 16.4128 15.9716 16.4455 15.9984 16.4715C16.1278 16.5973 16.3619 16.568 16.4426 16.3839C16.4441 16.3804 16.4456 16.377 16.447 16.3734L17.098 14.7227C17.1204 14.6658 17.1655 14.6208 17.2223 14.5983L18.8731 13.9473C19.1059 13.8555 19.1059 13.5259 18.8731 13.4341L17.2223 12.7831C17.2184 12.7815 17.2145 12.7799 17.2107 12.7781Z" fill="#1F2326"/>
<path d="M12.2871 7.90039C12.5747 7.90051 12.8186 8.00222 13.0225 8.20605L13.0254 8.20801L15.1621 10.1914C15.0912 10.272 15.0274 10.3626 14.9746 10.4639L14.9111 10.6045L14.6748 11.2021L12.5508 9.29883C12.4832 9.23309 12.4001 9.19446 12.3066 9.19434C12.2408 9.19444 12.181 9.2198 12.1289 9.25879L12.0791 9.30273L12.0762 9.30469L9.54102 11.998L9.43164 12.1074C9.1733 12.3431 8.88 12.4579 8.55176 12.458C8.27809 12.4578 8.00473 12.3568 7.73145 12.1465L6.31641 10.9678C6.25249 10.9083 6.16574 10.8848 6.0752 10.8848C5.99845 10.8849 5.92082 10.9136 5.84668 10.958L5.83398 10.9678L3.29785 13.1182C3.27567 13.1371 3.26281 13.1652 3.2627 13.1943V13.9932C3.26284 14.3438 3.37634 14.6389 3.60645 14.8691L3.69629 14.9502C3.91392 15.1266 4.18551 15.2128 4.50293 15.2129H13.7188L14.3994 15.4814L14.7578 16.3896H4.4043C3.79272 16.3895 3.28961 16.2286 2.88965 15.9131L2.72461 15.7686C2.30169 15.3449 2.09384 14.7956 2.10645 14.1123V10.5996H3.2627V11.5195C3.26281 11.5584 3.28601 11.594 3.32129 11.6104C3.35646 11.6262 3.39832 11.6207 3.42773 11.5957L5.23633 10.0391L5.3291 9.96582C5.54926 9.80699 5.79115 9.7286 6.05566 9.72852C6.3304 9.72862 6.59742 9.82332 6.85645 10.0195L8.29199 11.2188C8.29567 11.2219 8.2996 11.226 8.30371 11.2285C8.3723 11.2696 8.44527 11.3016 8.5127 11.3018C8.60805 11.3016 8.69239 11.2616 8.76074 11.1934L8.7627 11.1914L11.5342 8.2627L11.5381 8.25879C11.7428 8.01801 11.9907 7.90048 12.2871 7.90039ZM17.9268 11.7617L17.4707 10.6045C17.3289 10.2452 17.0711 9.99643 16.7705 9.85938V7.59961H17.9268V11.7617ZM3.2627 9H2.10645V7.59961H3.2627V9ZM6.0752 6.58398C6.32536 6.58408 6.52156 6.66641 6.6709 6.82715L6.67285 6.83008C6.82145 6.97892 6.89941 7.17522 6.89941 7.42773C6.89929 7.6486 6.83985 7.83272 6.72363 7.98438L6.6709 8.04688C6.52156 8.20762 6.32536 8.28994 6.0752 8.29004C5.81179 8.28992 5.60251 8.20768 5.44043 8.04688C5.28926 7.88399 5.21206 7.68 5.21191 7.42773C5.21191 7.17518 5.28983 6.97893 5.43848 6.83008C5.60089 6.66771 5.8105 6.5841 6.0752 6.58398ZM5 4.63379H4.50293C4.19587 4.63385 3.92694 4.72089 3.70215 4.89551L3.6084 4.97559L3.60645 4.97852C3.37556 5.20964 3.26277 5.51146 3.2627 5.87402V6H2.10645V5.77637C2.10645 5.07725 2.31546 4.52753 2.72559 4.11719L2.72656 4.11621C3.13741 3.69296 3.68071 3.47762 4.36523 3.47754H5V4.63379ZM15.6289 3.47754C16.3279 3.47766 16.8778 3.6875 17.2881 4.09766L17.2891 4.09863C17.712 4.50941 17.9267 5.0521 17.9268 5.73633V6H16.7705V5.87402C16.7704 5.55682 16.684 5.28591 16.5078 5.06836L16.4268 4.97852C16.1956 4.74746 15.8929 4.63388 15.5303 4.63379H15V3.47754H15.6289ZM9 4.63379H7V3.47754H9V4.63379ZM13 4.63379H11V3.47754H13V4.63379Z" fill="currentcolor"/>
</svg>
