<svg width="20" height="20" viewBox="0 0 20 20" fill="none" xmlns="http://www.w3.org/2000/svg">
<path d="M5.42676 15.8402L2.96963 17.1966C2.91721 17.2228 2.8779 17.2359 2.85169 17.2359C2.78617 17.2359 2.73375 17.2162 2.69443 17.1769C2.6027 17.0852 2.58959 16.9869 2.65512 16.882L3.9918 14.4053L12.9947 5.38269L14.4297 6.83731L5.42676 15.8402ZM15.3929 3.0042C15.5501 2.84694 15.727 2.76831 15.9236 2.76831C16.1202 2.76831 16.2971 2.84694 16.4543 3.0042L16.8278 3.37768C16.9851 3.53493 17.0637 3.71185 17.0637 3.90842C17.0637 4.11809 16.9851 4.30156 16.8278 4.45881L15.216 6.07069L13.781 4.63573L15.3929 3.0042Z" fill="currentColor"/>
</svg>
