<svg width="20" height="20" viewBox="0 0 20 20" fill="none" xmlns="http://www.w3.org/2000/svg">
<path d="M6.66667 2.58337C6.25246 2.58337 5.91667 2.91916 5.91667 3.33337C5.91667 3.74759 6.25246 4.08337 6.66667 4.08337H7.16667V15.9167H6.66667C6.25246 15.9167 5.91667 16.2525 5.91667 16.6667C5.91667 17.0809 6.25246 17.4167 6.66667 17.4167H9.16667C9.58088 17.4167 9.91667 17.0809 9.91667 16.6667C9.91667 16.2525 9.58088 15.9167 9.16667 15.9167H8.66667V4.08337H9.16667C9.58088 4.08337 9.91667 3.74759 9.91667 3.33337C9.91667 2.91916 9.58088 2.58337 9.16667 2.58337H6.66667Z" fill="currentcolor"/>
<path d="M2.55081 5.71412C2.55081 5.34683 2.84597 5.04984 3.20915 5.04984H5.95016V6.37841H3.20915C2.84597 6.37841 2.55081 6.08141 2.55081 5.71412Z" fill="currentcolor"/>
<path d="M2.55081 9.99984C2.55081 9.63255 2.84597 9.33555 3.20915 9.33555H5.95016V10.6641H3.20915C2.84597 10.6641 2.55081 10.3671 2.55081 9.99984Z" fill="currentcolor"/>
<path d="M2.55081 14.2856C2.55081 13.9183 2.84597 13.6213 3.20915 13.6213H5.95016V14.9498H3.20915C2.84597 14.9498 2.55081 14.6528 2.55081 14.2856Z" fill="currentcolor"/>
<path d="M15.9341 11.008C16.0259 10.7752 16.3555 10.7752 16.4473 11.008L17.0983 12.6588C17.1208 12.7156 17.1658 12.7607 17.2227 12.7831L18.8734 13.4341C19.1063 13.526 19.1063 13.8555 18.8734 13.9473L17.2227 14.5984C17.1658 14.6208 17.1208 14.6658 17.0983 14.7227L16.4473 16.3734C16.3555 16.6063 16.0259 16.6063 15.9341 16.3734L15.283 14.7227C15.2606 14.6658 15.2156 14.6208 15.1587 14.5984L13.508 13.9473C13.2751 13.8555 13.2751 13.526 13.508 13.4341L15.1587 12.7831C15.2156 12.7607 15.2606 12.7156 15.283 12.6588L15.9341 11.008Z" fill="currentcolor"/>
<path d="M9.88317 4.92514V6.07514L14.9998 6.07511C15.1425 6.07511 15.2582 6.19078 15.2582 6.33344V7.66666C15.2582 7.69427 15.2358 7.71666 15.2082 7.71666L11.2518 7.71666L11.2496 7.71665L11.2473 7.71666L9.88317 7.71666V8.94999L15.2082 8.94999C15.2214 8.94999 15.2341 8.95526 15.2435 8.96463C15.2529 8.97401 15.2582 8.98673 15.2582 8.99999V10.417C15.5317 10.041 15.9896 9.89258 16.4081 9.96994V6.33344C16.4081 5.55564 15.7776 4.92511 14.9998 4.92511L9.88317 4.92514Z" fill="currentcolor"/>
<path d="M9.88317 14.0085V15.1585L14.1712 15.1584L13.1839 14.769C12.8136 14.623 12.5829 14.333 12.493 14.0085L9.88317 14.0085Z" fill="currentcolor"/>
</svg>
