<svg xmlns="http://www.w3.org/2000/svg" width="20" height="20" viewBox="0 0 20 20" fill="none">
  <path d="M15.544 13.0723C15.6159 12.9594 15.7032 12.8721 15.8058 12.8105C15.9085 12.7489 16.0214 12.7181 16.1446 12.7181C16.2986 12.7181 16.4424 12.7643 16.5758 12.8567C16.6785 12.9183 16.7555 13.0004 16.8068 13.1031C16.8582 13.1955 16.8838 13.2982 16.8838 13.4111C16.8838 13.524 16.853 13.637 16.7914 13.7499C16.3808 14.4788 15.8264 15.1256 15.1282 15.6903C14.4301 16.2652 13.655 16.7118 12.8028 17.0301C11.9507 17.3586 11.1037 17.5229 10.2618 17.5229C9.1941 17.5229 8.1777 17.3124 7.21263 16.8915C6.24756 16.4808 5.4211 15.9059 4.73323 15.1667C4.05563 14.4172 3.57823 13.5702 3.30103 12.6257C3.17783 12.1124 3.10596 11.5631 3.08543 10.9779L2.00743 12.7181C1.87396 12.944 1.68916 13.0569 1.45303 13.0569C1.29903 13.0569 1.15016 13.0056 1.00643 12.9029C0.831896 12.7797 0.744629 12.6103 0.744629 12.3947C0.744629 12.2612 0.785696 12.138 0.867829 12.0251L2.62343 9.45331C2.83903 9.12478 3.1265 8.96051 3.48583 8.96051C3.7117 8.96051 3.93243 9.03751 4.14803 9.19151L6.68903 10.8085C6.90463 10.942 7.01243 11.1319 7.01243 11.3783C7.01243 11.5118 6.96623 11.6504 6.87383 11.7941C6.74036 11.9686 6.57096 12.0559 6.36563 12.0559C6.2219 12.0559 6.07816 12.0097 5.93443 11.9173L4.22503 10.6545C4.34823 11.2397 4.4663 11.7428 4.57923 12.1637C4.78456 12.9337 5.1593 13.6216 5.70343 14.2273C6.25783 14.8228 6.9303 15.2899 7.72083 15.6287C8.52163 15.9675 9.36863 16.1369 10.2618 16.1369C10.9394 16.1369 11.6222 16.0034 12.31 15.7365C12.9979 15.4798 13.6242 15.1205 14.1888 14.6585C14.7535 14.1965 15.2052 13.6678 15.544 13.0723ZM4.47143 7.05091C4.31743 7.31785 4.1121 7.45131 3.85543 7.45131C3.70143 7.45131 3.55256 7.40511 3.40883 7.31271C3.22403 7.18951 3.13163 7.00984 3.13163 6.77371C3.13163 6.65051 3.16243 6.52731 3.22403 6.40411C3.64496 5.64438 4.2045 4.96678 4.90263 4.37131C5.61103 3.77585 6.3913 3.31385 7.24343 2.98531C8.10583 2.64651 8.96823 2.47711 9.83063 2.47711C10.8676 2.47711 11.8532 2.68758 12.7874 3.10851C13.732 3.52944 14.543 4.11978 15.2206 4.87951C15.8982 5.62898 16.3756 6.48625 16.6528 7.45131C16.7863 7.91331 16.8787 8.46771 16.93 9.11451L18.008 7.34351C18.1312 7.13818 18.3109 7.03551 18.547 7.03551C18.6908 7.03551 18.8294 7.07144 18.9628 7.14331C19.1579 7.27678 19.2554 7.44618 19.2554 7.65151C19.2554 7.80551 19.2041 7.94925 19.1014 8.08271L17.4074 10.6237C17.1713 10.942 16.8736 11.1011 16.5142 11.1011C16.2884 11.1011 16.0779 11.0344 15.8828 10.9009L13.3572 9.28391C13.1314 9.11965 13.0184 8.92458 13.0184 8.69871C13.0184 8.53444 13.0698 8.39585 13.1724 8.28291C13.2956 8.11865 13.4548 8.03651 13.6498 8.03651C13.8141 8.03651 13.963 8.08785 14.0964 8.19051L15.8058 9.43791C15.7237 8.71924 15.5697 8.20078 15.3438 7.88251C15.0872 7.10225 14.6765 6.40925 14.1118 5.80351C13.5574 5.18751 12.9004 4.71011 12.1406 4.37131C11.3809 4.02225 10.5852 3.84771 9.75363 3.84771C9.06576 3.84771 8.3779 3.98631 7.69003 4.26351C7.00216 4.53044 6.3759 4.91031 5.81123 5.40311C5.24656 5.88565 4.79996 6.43491 4.47143 7.05091Z" fill="currentcolor"/>
</svg>