<svg width="20" height="20" viewBox="0 0 20 20" fill="none" xmlns="http://www.w3.org/2000/svg">
<path d="M9.98719 3.90841C11.3239 3.90841 12.5098 4.20327 13.5451 4.79298C14.5935 5.36959 15.406 6.18208 15.9826 7.23045C16.5723 8.26572 16.8671 9.44514 16.8671 10.7687C16.8671 12.0792 16.5723 13.2521 15.9826 14.2873C15.406 15.3226 14.5935 16.1351 13.5451 16.7248C12.5098 17.3014 11.3239 17.5897 9.98719 17.5897C8.66362 17.5897 7.48419 17.3014 6.44893 16.7248C5.41366 16.1351 4.60116 15.3226 4.01145 14.2873C3.43485 13.2521 3.14655 12.0792 3.14655 10.7687C3.14655 10.559 3.20552 10.3887 3.32346 10.2576C3.45451 10.1266 3.61831 10.0611 3.81488 10.0611C4.01145 10.0611 4.17526 10.1266 4.30631 10.2576C4.43736 10.3887 4.50288 10.559 4.50288 10.7687C4.50288 11.8171 4.73221 12.7606 5.19088 13.5993C5.66264 14.4249 6.31788 15.0736 7.15658 15.5454C7.99528 16.004 8.93881 16.2334 9.98719 16.2334C11.0487 16.2334 11.9988 16.004 12.8375 15.5454C13.6762 15.0736 14.3314 14.4249 14.8032 13.5993C15.2749 12.7606 15.5108 11.8171 15.5108 10.7687C15.5108 9.69413 15.2749 8.74404 14.8032 7.91845C14.3314 7.07975 13.6762 6.42451 12.8375 5.95274C12.0119 5.48098 11.0618 5.24509 9.98719 5.24509L6.97966 5.02886V4.08533L9.98719 3.90841ZM6.64549 5.5596C6.27856 5.2713 6.0951 4.95679 6.0951 4.61607C6.0951 4.26224 6.27856 3.93462 6.64549 3.63322L9.31885 1.52991C9.48921 1.39887 9.66612 1.33334 9.84959 1.33334C10.0331 1.33334 10.1838 1.39231 10.3017 1.51026C10.4459 1.68062 10.5179 1.84443 10.5179 2.00168C10.5179 2.22446 10.4065 2.41448 10.1838 2.57174L7.5104 4.57675L10.1051 6.5228C10.2755 6.65384 10.3607 6.8242 10.3607 7.03388C10.3607 7.17803 10.3148 7.31563 10.2231 7.44668C10.0789 7.63014 9.90201 7.72188 9.69233 7.72188C9.53508 7.72188 9.38437 7.66946 9.24022 7.56462L6.64549 5.5596Z" fill="currentColor"/>
</svg>
