<svg width="20" height="20" viewBox="0 0 20 20" fill="none" xmlns="http://www.w3.org/2000/svg">
<path d="M9.32252 7.5L8.43904 6.61652C8.17218 6.34966 7.73952 6.34966 7.47266 6.61652C7.2058 6.88338 7.2058 7.31604 7.47266 7.5829L9.52217 9.63241C9.52382 9.63407 9.52548 9.63571 9.52714 9.63734C9.64998 9.75795 9.81818 9.8325 10.0038 9.83304L10.0058 9.83305L10.0079 9.83304C10.0998 9.83277 10.1874 9.81436 10.2674 9.78119C10.3462 9.74861 10.4201 9.70066 10.4846 9.63734C10.4862 9.63571 10.4879 9.63407 10.4895 9.63241L12.539 7.5829C12.8059 7.31604 12.8059 6.88338 12.539 6.61652C12.2722 6.34966 11.8395 6.34966 11.5727 6.61652L10.6892 7.5V2.77707C10.6892 2.39967 10.3832 2.09373 10.0058 2.09373C9.62846 2.09373 9.32252 2.39967 9.32252 2.77707V7.5Z" fill="currentColor"/>
<path fill-rule="evenodd" clip-rule="evenodd" d="M5.13764 3.74702C5.26579 3.61887 5.4396 3.54688 5.62083 3.54688H6.9875C7.36489 3.54688 7.67083 3.24094 7.67083 2.86354C7.67083 2.48615 7.36489 2.18021 6.9875 2.18021H5.62083C5.07714 2.18021 4.55571 2.39619 4.17126 2.78064C3.78681 3.16509 3.57083 3.68652 3.57083 4.23021V15.5906C3.57083 16.1343 3.78681 16.6557 4.17126 17.0402C4.55571 17.4246 5.07714 17.6406 5.62083 17.6406H14.3406C14.8843 17.6406 15.4057 17.4246 15.7902 17.0402C16.1746 16.6557 16.3906 16.1343 16.3906 15.5906V6.14014C16.3906 5.95891 16.3186 5.7851 16.1905 5.65695L14.1405 3.60695C13.8736 3.3401 13.441 3.3401 13.1741 3.60695C12.9072 3.87381 12.9072 4.30648 13.1741 4.57333L15.024 6.42319V15.5906C15.024 15.7719 14.952 15.9457 14.8238 16.0738C14.6957 16.202 14.5219 16.274 14.3406 16.274H13.6573V13.5406C13.6573 13.1632 13.3514 12.8573 12.974 12.8573H6.9875C6.6101 12.8573 6.30416 13.1632 6.30416 13.5406V16.274H5.62083C5.4396 16.274 5.26579 16.202 5.13764 16.0738C5.00949 15.9457 4.9375 15.7719 4.9375 15.5906V4.23021C4.9375 4.04898 5.00949 3.87517 5.13764 3.74702ZM12.2906 16.274V14.224H7.67083V16.274H12.2906Z" fill="currentColor"/>
</svg>
