<svg xmlns="http://www.w3.org/2000/svg" width="20" height="21" viewBox="0 0 20 21" fill="none">
  <path d="M5.23483 18.8564C4.54029 18.8564 3.90471 18.6861 3.3281 18.3454C2.7646 18.0177 2.31904 17.5722 1.99143 17.0087C1.66381 16.4321 1.5 15.7965 1.5 15.1019C1.5 14.4205 1.66381 13.798 1.99143 13.2345C2.31904 12.6579 2.7646 12.2058 3.3281 11.8782C3.90471 11.5506 4.54029 11.3868 5.23483 11.3868C5.91628 11.3868 6.53875 11.5506 7.10225 11.8782C7.67886 12.2058 8.13097 12.6579 8.45858 13.2345C8.7862 13.798 8.95001 14.4205 8.95001 15.1019C8.95001 15.7965 8.7862 16.4321 8.45858 17.0087C8.13097 17.5722 7.67886 18.0177 7.10225 18.3454C6.53875 18.6861 5.91628 18.8564 5.23483 18.8564ZM5.68695 14.6498V13.1952C5.68695 13.0642 5.64108 12.9528 5.54935 12.861C5.47072 12.7693 5.36588 12.7234 5.23483 12.7234C5.10379 12.7234 4.9924 12.7693 4.90066 12.861C4.82204 12.9528 4.78272 13.0642 4.78272 13.1952V14.6498H3.3281C3.19706 14.6498 3.08567 14.6957 2.99393 14.7874C2.91531 14.8661 2.87599 14.9709 2.87599 15.1019C2.87599 15.233 2.91531 15.3444 2.99393 15.4361C3.08567 15.5278 3.19706 15.5737 3.3281 15.5737H4.78272V17.048C4.78272 17.1659 4.82204 17.2708 4.90066 17.3625C4.9924 17.4542 5.10379 17.5001 5.23483 17.5001C5.36588 17.5001 5.47072 17.4542 5.54935 17.3625C5.64108 17.2708 5.68695 17.1659 5.68695 17.048V15.5737H7.14156C7.25951 15.5737 7.35779 15.5278 7.43642 15.4361C7.52815 15.3444 7.57402 15.233 7.57402 15.1019C7.57402 14.9709 7.52815 14.8661 7.43642 14.7874C7.35779 14.6957 7.25951 14.6498 7.14156 14.6498H5.68695ZM8.96967 18.1684C9.29728 17.7753 9.53972 17.3166 9.69698 16.7924H14.9257C15.2665 16.7924 15.5417 16.6876 15.7513 16.4779C15.961 16.2552 16.0659 15.98 16.0659 15.6523L16.0855 9.20484H12.6848C12.1869 9.20484 11.7806 9.05414 11.4661 8.75273C11.1647 8.43822 11.014 8.03197 11.014 7.53399V4.03504H7.12191C6.79429 4.03504 6.51909 4.14643 6.29631 4.36921C6.08664 4.57889 5.9818 4.85409 5.9818 5.19481V10.3646C5.64108 10.3122 5.38554 10.286 5.21518 10.286C5.0055 10.286 4.80238 10.3056 4.60581 10.3449V5.07687C4.60581 4.35611 4.82204 3.7795 5.25449 3.34705C5.70005 2.90149 6.27666 2.67871 6.98431 2.67871H11.702C11.9117 2.67871 12.1279 2.73113 12.3507 2.83597C12.5866 2.9277 12.7766 3.04564 12.9207 3.18979L16.9504 7.27845C17.0946 7.43571 17.2125 7.63228 17.3042 7.86816C17.396 8.09094 17.4418 8.30717 17.4418 8.51684V15.7703C17.4418 16.491 17.2191 17.0676 16.7735 17.5001C16.3411 17.9457 15.771 18.1684 15.0633 18.1684H8.96967ZM12.3114 7.31777C12.3114 7.48813 12.3703 7.63228 12.4883 7.75022C12.6062 7.85506 12.7504 7.90748 12.9207 7.90748H15.7513L12.3114 4.4675V7.31777Z" fill="currentcolor"/>
</svg>
