<svg width="20" height="20" viewBox="0 0 20 20" fill="none" xmlns="http://www.w3.org/2000/svg">
<path d="M9.98718 12.9703C10.839 12.9703 11.6187 12.7672 12.3264 12.3609C13.0471 11.9547 13.6172 11.3978 14.0365 10.6901C14.4559 9.98245 14.6655 9.20272 14.6655 8.35091C14.6655 7.49911 14.4559 6.71938 14.0365 6.01173C13.6172 5.30408 13.0471 4.74057 12.3264 4.32122C11.6187 3.90187 10.839 3.6922 9.98718 3.6922C9.13537 3.6922 8.35565 3.90187 7.64799 4.32122C6.94034 4.74057 6.37684 5.30408 5.95749 6.01173C5.55124 6.71938 5.34812 7.49911 5.34812 8.35091C5.34812 9.20272 5.55124 9.98245 5.95749 10.6901C6.37684 11.3978 6.94034 11.9547 7.64799 12.3609C8.35565 12.7672 9.13537 12.9703 9.98718 12.9703ZM9.98718 14.3463C8.89949 14.3463 7.89698 14.0842 6.97965 13.56C6.06233 13.0227 5.33502 12.2954 4.79772 11.3781C4.26043 10.4608 3.99179 9.45171 3.99179 8.35091C3.99179 7.25012 4.26043 6.24106 4.79772 5.32373C5.33502 4.4064 6.06233 3.68565 6.97965 3.16146C7.89698 2.62417 8.89949 2.35552 9.98718 2.35552C11.088 2.35552 12.097 2.62417 13.0144 3.16146C13.9448 3.68565 14.6787 4.4064 15.2159 5.32373C15.7532 6.24106 16.0219 7.25012 16.0219 8.35091C16.0219 9.45171 15.7532 10.4608 15.2159 11.3781C14.6787 12.2954 13.9448 13.0227 13.0144 13.56C12.097 14.0842 11.088 14.3463 9.98718 14.3463ZM13.6434 12.3806L16.9261 16.2727C17.0309 16.4168 17.0834 16.561 17.0834 16.7051C17.0834 16.9148 17.0047 17.0852 16.8475 17.2162C16.7164 17.3342 16.5657 17.3931 16.3954 17.3931C16.1726 17.3931 15.9957 17.308 15.8646 17.1376L12.5819 13.2455L13.6434 12.3806Z" fill="currentColor"/>
</svg>
