<svg width="20" height="20" viewBox="0 0 20 20" fill="none" xmlns="http://www.w3.org/2000/svg">
<path d="M11.8444 9.90382C11.8444 9.44516 11.6806 9.05857 11.3529 8.74406C11.0384 8.42955 10.6518 8.27229 10.1932 8.27229C9.72142 8.27229 9.32172 8.42955 8.99411 8.74406C8.67959 9.05857 8.52234 9.44516 8.52234 9.90382C8.52234 10.3625 8.67959 10.7556 8.99411 11.0832C9.32172 11.3978 9.72142 11.555 10.1932 11.555C10.6518 11.555 11.0384 11.3978 11.3529 11.0832C11.6806 10.7556 11.8444 10.3625 11.8444 9.90382ZM13.2204 9.90382C13.2204 10.4542 13.0828 10.9653 12.8076 11.4371C12.5455 11.8957 12.1785 12.2627 11.7068 12.5379C11.2481 12.8 10.7436 12.931 10.1932 12.931C9.62968 12.931 9.11205 12.8 8.64028 12.5379C8.18162 12.2627 7.81468 11.8957 7.53949 11.4371C7.27739 10.9653 7.14635 10.4542 7.14635 9.90382C7.14635 9.35343 7.27739 8.8489 7.53949 8.39023C7.81468 7.93157 8.18162 7.57119 8.64028 7.3091C9.11205 7.0339 9.62968 6.8963 10.1932 6.8963C10.7436 6.8963 11.2481 7.0339 11.7068 7.3091C12.1785 7.57119 12.5455 7.93157 12.8076 8.39023C13.0828 8.8489 13.2204 9.35343 13.2204 9.90382ZM3.2346 11.7712C3.02492 11.7319 2.85456 11.6402 2.72352 11.496C2.59247 11.3388 2.52695 11.1553 2.52695 10.9456L2.5466 8.82269C2.5466 8.61301 2.61213 8.42955 2.74317 8.27229C2.87422 8.11503 3.04458 8.01675 3.25426 7.97744L4.64991 7.72189L4.76785 7.4467L3.94225 6.28693C3.82431 6.12968 3.76534 5.96587 3.76534 5.79551C3.76534 5.57273 3.85052 5.37616 4.02088 5.2058L5.53447 3.69221C5.70483 3.52184 5.90795 3.43666 6.14384 3.43666C6.3142 3.43666 6.47146 3.48908 6.61561 3.59392L7.79503 4.41952L8.03091 4.32123L8.28645 2.90593C8.32577 2.69625 8.42405 2.52589 8.58131 2.39484C8.73857 2.2638 8.92203 2.19827 9.13171 2.19827H11.235C11.4447 2.19827 11.6281 2.2638 11.7854 2.39484C11.9427 2.52589 12.0409 2.69625 12.0803 2.90593L12.3161 4.28192L12.67 4.43917L13.7904 3.59392C13.9477 3.47598 14.1115 3.41701 14.2818 3.41701C14.5177 3.41701 14.7143 3.50874 14.8716 3.69221L16.3655 5.2058C16.5358 5.37616 16.621 5.57273 16.621 5.79551C16.621 5.96587 16.5621 6.12968 16.4441 6.28693L15.6382 7.36807L15.7954 7.76121L17.1125 7.95778C17.3221 7.99709 17.4925 8.09538 17.6235 8.25263C17.7546 8.39679 17.8201 8.5737 17.8201 8.78337V10.9063C17.8201 11.1291 17.7546 11.3191 17.6235 11.4764C17.4925 11.6205 17.3221 11.7123 17.1125 11.7516L15.7954 11.9875L15.6578 12.3216L16.4441 13.4028C16.549 13.5731 16.6014 13.7435 16.6014 13.9139C16.6014 14.1366 16.5227 14.3267 16.3655 14.4839L14.8716 16.0172C14.7012 16.1875 14.4981 16.2727 14.2622 16.2727C14.0656 16.2727 13.9084 16.2203 13.7904 16.1154L12.67 15.3292L12.3161 15.4864L12.0803 16.8231C12.0409 17.0328 11.9427 17.2031 11.7854 17.3342C11.6413 17.4652 11.4643 17.5307 11.2547 17.5307H9.15136C8.94169 17.5307 8.75822 17.4652 8.60097 17.3342C8.44371 17.2031 8.34543 17.0328 8.30611 16.8231L8.05057 15.4274L7.75571 15.3095L6.59595 16.1351C6.42559 16.2399 6.25523 16.2924 6.08487 16.2924C5.86209 16.2924 5.67207 16.2072 5.51481 16.0368L4.04054 14.5232C3.87018 14.3267 3.785 14.1235 3.785 13.9139C3.785 13.7435 3.84397 13.5797 3.96191 13.4224L4.74819 12.2627L4.64991 11.9875L3.2346 11.7712ZM3.82431 10.4346C3.82431 10.5001 3.86362 10.546 3.94225 10.5722L5.59344 10.808L6.20281 12.4592L5.27893 13.7763C5.23962 13.8418 5.24617 13.9008 5.29859 13.9532L6.08487 14.7788C6.15039 14.8181 6.20936 14.8246 6.26178 14.7984L7.59846 13.8549L9.19068 14.5232L9.48553 16.1351C9.51174 16.2006 9.55761 16.2334 9.62313 16.2334H10.7632C10.8419 16.2334 10.8812 16.1941 10.8812 16.1154L11.1564 14.5429L12.8272 13.8745L14.1246 14.7788C14.1377 14.7919 14.1574 14.7984 14.1836 14.7984C14.2229 14.7984 14.2556 14.7853 14.2818 14.7591L15.0878 13.9335C15.1533 13.8942 15.1599 13.8352 15.1074 13.7566L14.2032 12.5182L14.8519 10.8474L16.4245 10.5722C16.49 10.546 16.5227 10.5001 16.5227 10.4346V9.29446C16.5227 9.22893 16.49 9.18307 16.4245 9.15686L14.8519 8.90132L14.1836 7.1715L15.1074 5.93311C15.1599 5.85448 15.1533 5.79551 15.0878 5.75619L14.3212 4.95025C14.2687 4.91094 14.2098 4.91094 14.1442 4.95025L12.8469 5.89379L11.1564 5.22545L10.8812 3.61358C10.8812 3.53495 10.8419 3.49564 10.7632 3.49564H9.60347C9.53795 3.49564 9.49208 3.5284 9.46588 3.59392L9.17102 5.22545L7.63777 5.91345L6.28144 4.9306C6.20281 4.87818 6.14384 4.88473 6.10452 4.95025L5.27893 5.75619C5.23962 5.80861 5.23962 5.86758 5.27893 5.93311L6.22247 7.25013L5.59344 8.862L3.94225 9.15686C3.87673 9.18307 3.84397 9.22893 3.84397 9.29446L3.82431 10.4346Z" fill="currentColor"/>
</svg>
