<svg width="20" height="20" viewBox="0 0 20 20" fill="none" xmlns="http://www.w3.org/2000/svg">
<path d="M8.31633 7.72189L11.8349 5.50064L12.6409 6.60143L9.10261 8.82268L8.31633 7.72189ZM13.8989 6.0707C14.2396 6.0707 14.5214 5.95931 14.7442 5.73653C14.967 5.51375 15.0783 5.232 15.0783 4.89127C15.0783 4.55055 14.967 4.2688 14.7442 4.04602C14.5214 3.82324 14.2396 3.71185 13.8989 3.71185C13.5582 3.71185 13.2699 3.82324 13.034 4.04602C12.8112 4.2688 12.6998 4.55055 12.6998 4.89127C12.6998 5.232 12.8112 5.51375 13.034 5.73653C13.2699 5.95931 13.5582 6.0707 13.8989 6.0707ZM13.8989 7.28943C13.2044 7.28943 12.6278 7.06665 12.1691 6.62109C11.7104 6.16243 11.4811 5.58582 11.4811 4.89127C11.4811 4.19673 11.7104 3.62667 12.1691 3.18111C12.6278 2.72245 13.2044 2.49312 13.8989 2.49312C14.5935 2.49312 15.1635 2.72245 15.6091 3.18111C16.0677 3.62667 16.2971 4.19673 16.2971 4.89127C16.2971 5.57272 16.0677 6.14277 15.6091 6.60143C15.1635 7.0601 14.5935 7.28943 13.8989 7.28943ZM6.6848 11.5747C7.14346 11.5747 7.5235 11.424 7.8249 11.1226C8.13942 10.8211 8.29667 10.4411 8.29667 9.98244C8.29667 9.51067 8.13942 9.12409 7.8249 8.82268C7.5235 8.52127 7.14346 8.37057 6.6848 8.37057C6.21303 8.37057 5.82644 8.52127 5.52503 8.82268C5.22363 9.12409 5.07292 9.51067 5.07292 9.98244C5.07292 10.4411 5.22363 10.8211 5.52503 11.1226C5.82644 11.424 6.21303 11.5747 6.6848 11.5747ZM6.6848 12.9507C5.83299 12.9507 5.12534 12.6689 4.56184 12.1054C3.99834 11.5419 3.71659 10.8342 3.71659 9.98244C3.71659 9.11753 3.99834 8.40333 4.56184 7.83983C5.12534 7.27633 5.83299 6.99458 6.6848 6.99458C7.5366 6.99458 8.24425 7.27633 8.80776 7.83983C9.37126 8.40333 9.65301 9.11753 9.65301 9.98244C9.65301 10.8342 9.37126 11.5419 8.80776 12.1054C8.24425 12.6689 7.5366 12.9507 6.6848 12.9507ZM13.8989 16.0958C14.2396 16.0958 14.5214 15.9844 14.7442 15.7616C14.967 15.5257 15.0783 15.244 15.0783 14.9164C15.0783 14.5756 14.967 14.2939 14.7442 14.0711C14.5214 13.8483 14.2396 13.7369 13.8989 13.7369C13.5582 13.7369 13.2699 13.8483 13.034 14.0711C12.8112 14.2939 12.6998 14.5756 12.6998 14.9164C12.6998 15.2571 12.8112 15.5388 13.034 15.7616C13.2699 15.9844 13.5582 16.0958 13.8989 16.0958ZM13.8989 17.3145C13.2044 17.3145 12.6278 17.0917 12.1691 16.6462C11.7104 16.1875 11.4811 15.6109 11.4811 14.9164C11.4811 14.2218 11.7104 13.6518 12.1691 13.2062C12.6278 12.7475 13.2044 12.5182 13.8989 12.5182C14.5935 12.5182 15.1635 12.7475 15.6091 13.2062C16.0677 13.6518 16.2971 14.2218 16.2971 14.9164C16.2971 15.5978 16.0677 16.1679 15.6091 16.6265C15.1635 17.0852 14.5935 17.3145 13.8989 17.3145ZM11.6973 14.3463L8.29667 12.1644L9.12227 11.0636L12.5229 13.2455L11.6973 14.3463Z" fill="currentColor"/>
</svg>
