<svg width="20" height="20" viewBox="0 0 20 20" fill="none" xmlns="http://www.w3.org/2000/svg">
<path d="M10.7931 10.3166C10.5703 10.4477 10.3017 10.5132 9.98717 10.5132C9.69887 10.5132 9.43678 10.4542 9.20089 10.3363L3.87384 7.5843C3.17929 7.23047 2.83202 6.84389 2.83202 6.42454C2.83202 5.97898 3.16619 5.59239 3.83453 5.26477L9.20089 2.51279C9.43678 2.39485 9.70542 2.33588 10.0068 2.33588C10.2951 2.33588 10.5572 2.39485 10.7931 2.51279L16.1202 5.26477C16.8147 5.6186 17.162 6.00519 17.162 6.42454C17.162 6.85699 16.8213 7.24358 16.1398 7.5843L10.7931 10.3166ZM9.53506 8.96029C9.69232 9.02582 9.84958 9.05858 10.0068 9.05858C10.151 9.05858 10.3017 9.02582 10.4589 8.96029L15.2159 6.58179C15.3077 6.52937 15.3535 6.47695 15.3535 6.42454C15.3535 6.35901 15.3077 6.30659 15.2159 6.26728L10.4589 3.86912C10.3017 3.8036 10.151 3.77084 10.0068 3.77084C9.84958 3.77084 9.69232 3.8036 9.53506 3.86912L4.77806 6.26728C4.68633 6.30659 4.64047 6.35901 4.64047 6.42454C4.64047 6.46385 4.68633 6.51627 4.77806 6.58179L9.53506 8.96029ZM3.10722 10.5329C2.85823 10.4149 2.73373 10.2249 2.73373 9.9628C2.73373 9.81865 2.77305 9.68105 2.85168 9.55C3.00893 9.35343 3.1924 9.25515 3.40207 9.25515C3.52001 9.25515 3.6314 9.28791 3.73624 9.35343L9.55472 12.4789C9.71198 12.5444 9.86268 12.5772 10.0068 12.5772C10.1641 12.5772 10.3082 12.5444 10.4393 12.4789L16.2578 9.35343C16.3626 9.28791 16.474 9.25515 16.5919 9.25515C16.8147 9.25515 16.9851 9.33378 17.103 9.49103C17.2079 9.63518 17.2603 9.79244 17.2603 9.9628C17.2603 10.2118 17.1358 10.4018 16.8868 10.5329L10.7931 13.8352C10.531 13.9663 10.2689 14.0318 10.0068 14.0318C9.74474 14.0318 9.48264 13.9663 9.22055 13.8352L3.10722 10.5329ZM3.10722 13.9925C2.98928 13.9401 2.89754 13.8614 2.83202 13.7566C2.7665 13.6518 2.73373 13.5469 2.73373 13.4421C2.73373 13.2848 2.78615 13.1341 2.89099 12.99C3.00893 12.8065 3.17274 12.7148 3.38242 12.7148C3.48725 12.7148 3.6052 12.7475 3.73624 12.8131L9.55472 15.9385C9.71198 16.0041 9.86268 16.0368 10.0068 16.0368C10.1641 16.0368 10.3082 16.0041 10.4393 15.9385L16.2578 12.8131C16.3626 12.7475 16.4871 12.7148 16.6312 12.7148C16.854 12.7148 17.0244 12.8131 17.1423 13.0096C17.221 13.1407 17.2603 13.2783 17.2603 13.4224C17.2603 13.6714 17.1358 13.8614 16.8868 13.9925L10.7931 17.2949C10.531 17.4259 10.2689 17.4914 10.0068 17.4914C9.74474 17.4914 9.48264 17.4259 9.22055 17.2949L3.10722 13.9925Z" fill="currentColor"/>
</svg>
