<svg width="20" height="20" viewBox="0 0 20 20" fill="none" xmlns="http://www.w3.org/2000/svg">
<path d="M4.83161 16.8983C4.19883 16.8983 3.61328 16.7425 3.07495 16.4308C2.54606 16.1192 2.1305 15.6942 1.82828 15.1558C1.51661 14.627 1.36078 14.0461 1.36078 13.4133C1.36078 12.7806 1.51661 12.1997 1.82828 11.6708C2.1305 11.142 2.54606 10.7264 3.07495 10.4242C3.61328 10.1125 4.19883 9.95668 4.83161 9.95668C5.46439 9.95668 6.04522 10.1125 6.57411 10.4242C7.103 10.7264 7.51856 11.142 7.82078 11.6708C8.13245 12.1997 8.28828 12.7806 8.28828 13.4133C8.28828 14.0556 8.13245 14.6411 7.82078 15.17C7.51856 15.6989 7.103 16.1192 6.57411 16.4308C6.04522 16.7425 5.46439 16.8983 4.83161 16.8983ZM5.22828 13.0167V11.6C5.22828 11.4772 5.1905 11.3781 5.11495 11.3025C5.03939 11.227 4.94495 11.1892 4.83161 11.1892C4.71828 11.1892 4.62383 11.227 4.54828 11.3025C4.47272 11.3781 4.43495 11.4772 4.43495 11.6V13.0167H3.01828C2.90495 13.0167 2.8105 13.0545 2.73495 13.13C2.65939 13.2056 2.62161 13.3 2.62161 13.4133C2.62161 13.5267 2.65939 13.6258 2.73495 13.7108C2.8105 13.7864 2.90495 13.8242 3.01828 13.8242H4.43495V15.255C4.43495 15.3683 4.47272 15.4628 4.54828 15.5383C4.62383 15.6139 4.71828 15.6517 4.83161 15.6517C4.9355 15.6517 5.02522 15.6139 5.10078 15.5383C5.18578 15.4628 5.22828 15.3683 5.22828 15.255V13.8242H6.64495C6.74883 13.8242 6.83856 13.7864 6.91411 13.7108C6.98967 13.6258 7.02745 13.5267 7.02745 13.4133C7.02745 13.3 6.98967 13.2056 6.91411 13.13C6.83856 13.0545 6.74883 13.0167 6.64495 13.0167H5.22828ZM11.4333 10.2683C11.2161 10.3911 10.9563 10.4525 10.6541 10.4525C10.3802 10.4525 10.1299 10.3958 9.90328 10.2825L5.17161 7.83168C4.49161 7.47279 4.15161 7.08085 4.15161 6.65585C4.15161 6.24973 4.47745 5.87668 5.12911 5.53668L9.88911 3.07168C10.1252 2.9489 10.3849 2.88751 10.6683 2.88751C10.9422 2.88751 11.1924 2.94418 11.4191 3.05751L16.1649 5.52251C16.4955 5.69251 16.7458 5.87668 16.9158 6.07501C17.0858 6.27335 17.1708 6.4764 17.1708 6.68418C17.1708 7.09973 16.8449 7.47751 16.1933 7.81751L11.4333 10.2683ZM10.2433 9.05001C10.3944 9.11612 10.5361 9.14918 10.6683 9.14918C10.7911 9.14918 10.928 9.11612 11.0791 9.05001L15.4424 6.82585C15.5369 6.78807 15.5841 6.73612 15.5841 6.67001C15.5841 6.61335 15.5369 6.56612 15.4424 6.52835L11.0791 4.29001C10.9469 4.21446 10.8052 4.17668 10.6541 4.17668C10.5313 4.17668 10.3944 4.20973 10.2433 4.27585L5.87995 6.52835C5.7855 6.57557 5.73828 6.62279 5.73828 6.67001C5.73828 6.70779 5.7855 6.75973 5.87995 6.82585L10.2433 9.05001ZM9.52078 13.2717C9.53967 13.0639 9.50661 12.8089 9.42161 12.5067C9.34606 12.195 9.228 11.907 9.06745 11.6425L10.2433 12.2658C10.3944 12.332 10.5313 12.365 10.6541 12.365C10.8052 12.365 10.9469 12.3272 11.0791 12.2517L16.3916 9.34751C16.4955 9.29084 16.5947 9.26251 16.6891 9.26251C16.9063 9.26251 17.0811 9.3664 17.2133 9.57418C17.2888 9.69696 17.3266 9.81501 17.3266 9.92835C17.3266 10.0417 17.2936 10.1503 17.2274 10.2542C17.1613 10.3486 17.0716 10.4289 16.9583 10.495L11.4333 13.4842C11.2161 13.607 10.9611 13.6683 10.6683 13.6683C10.3755 13.6683 10.1205 13.607 9.90328 13.4842L9.52078 13.2717ZM8.72745 16.1333C8.84078 15.9822 8.94939 15.8028 9.05328 15.595C9.15717 15.3872 9.23745 15.1983 9.29411 15.0283L10.2291 15.4675C10.3424 15.5242 10.4747 15.5525 10.6258 15.5525C10.7769 15.5525 10.928 15.5147 11.0791 15.4392L16.3916 12.535C16.4955 12.4783 16.6041 12.45 16.7174 12.45C16.8213 12.45 16.9158 12.4783 17.0008 12.535C17.0952 12.5917 17.1708 12.672 17.2274 12.7758C17.2936 12.8797 17.3266 12.9931 17.3266 13.1158C17.3266 13.2292 17.2936 13.3378 17.2274 13.4417C17.1708 13.5361 17.0811 13.6164 16.9583 13.6825L11.4333 16.6717C11.1877 16.8039 10.9138 16.87 10.6116 16.87C10.3566 16.87 10.1158 16.8181 9.88911 16.7142L8.72745 16.1333Z" fill="currentColor"/>
</svg>
