<svg xmlns="http://www.w3.org/2000/svg" width="20" height="20" fill="none" viewBox="0 0 20 20"><path fill="currentColor" d="M10.578 14.016a.58.58 0 0 1-.453-.18.7.7 0 0 1-.164-.477V8.33h-.016l-.883.663a.52.52 0 0 1-.312.117.42.42 0 0 1-.32-.132.45.45 0 0 1-.125-.32q0-.165.078-.282a1 1 0 0 1 .203-.219l1.008-.742q.21-.165.414-.266.211-.1.476-.101.33 0 .516.18.195.18.195.515v5.617a.7.7 0 0 1-.164.477q-.164.18-.453.18M3 15.625V5.109q0-.257.18-.437a.6.6 0 0 1 .445-.188q.266 0 .445.188.188.18.188.437v10.516q0 .258-.188.445a.6.6 0 0 1-.445.188.6.6 0 0 1-.445-.188.62.62 0 0 1-.18-.445m13.125 0V5.109q0-.257.188-.437a.6.6 0 0 1 .445-.188q.258 0 .437.188.188.18.188.437v10.516q0 .258-.188.445a.58.58 0 0 1-.437.188.6.6 0 0 1-.445-.188.6.6 0 0 1-.188-.445"/></svg>