<svg width="20" height="20" viewBox="0 0 20 20" fill="none" xmlns="http://www.w3.org/2000/svg">
<path d="M12.9947 14.5035C12.9947 15.2112 12.7719 15.7878 12.3263 16.2334C11.8939 16.6658 11.3173 16.882 10.5965 16.882H5.34811C4.64045 16.882 4.06385 16.6658 3.61829 16.2334C3.17273 15.7878 2.94995 15.2112 2.94995 14.5035V5.14681C2.94995 4.43915 3.17273 3.8691 3.61829 3.43665C4.06385 3.00419 4.64045 2.78796 5.34811 2.78796H10.5965C11.3173 2.78796 11.8939 3.00419 12.3263 3.43665C12.7719 3.8691 12.9947 4.43915 12.9947 5.14681V8.03639H11.6384V5.28441C11.6384 4.94368 11.5335 4.66849 11.3238 4.45881C11.1142 4.24914 10.839 4.1443 10.4982 4.1443H5.46605C5.13843 4.1443 4.86323 4.24914 4.64046 4.45881C4.43078 4.66849 4.32594 4.94368 4.32594 5.28441V14.3659C4.32594 14.6936 4.43078 14.9688 4.64046 15.1915C4.86323 15.4012 5.13843 15.5061 5.46605 15.5061H10.4982C10.839 15.5061 11.1142 15.4012 11.3238 15.1915C11.5335 14.9688 11.6384 14.6936 11.6384 14.3659V11.614H12.9947V14.5035ZM17.3782 8.88164C17.6272 9.14373 17.7517 9.45825 17.7517 9.82518C17.7517 10.2052 17.6272 10.5263 17.3782 10.7884L15.157 13.1669C15.0128 13.311 14.8621 13.3831 14.7048 13.3831C14.5345 13.3831 14.3772 13.3045 14.2331 13.1472C14.0758 12.99 13.9972 12.813 13.9972 12.6165C13.9972 12.4461 14.0693 12.2889 14.2134 12.1447L15.9039 10.4345L14.6262 10.5132H7.94283C7.74626 10.5132 7.58246 10.4542 7.45141 10.3363C7.33347 10.2052 7.2745 10.0349 7.2745 9.82518C7.2745 9.6155 7.33347 9.45169 7.45141 9.33375C7.58246 9.2027 7.74626 9.13718 7.94283 9.13718H14.6262L15.8843 9.21581L14.2134 7.46634C14.0693 7.29597 13.9972 7.13217 13.9972 6.97491C13.9972 6.79144 14.0824 6.61453 14.2527 6.44417C14.4231 6.30002 14.5804 6.22794 14.7245 6.22794C14.908 6.22794 15.0587 6.30002 15.1766 6.44417L17.3782 8.88164Z" fill="currentColor"/>
</svg>
