<svg width="20" height="20" viewBox="0 0 20 20" fill="none" xmlns="http://www.w3.org/2000/svg">
<path d="M5.66212 11.9827C5.66212 12.8545 4.95751 13.5591 4.0857 13.5591C3.21389 13.5591 2.50928 12.8545 2.50928 11.9827C2.50928 11.1109 3.21389 10.4062 4.0857 10.4062H5.66212V11.9827ZM6.45033 11.9827C6.45033 11.1109 7.15495 10.4062 8.02675 10.4062C8.89856 10.4062 9.60318 11.1109 9.60318 11.9827V15.9237C9.60318 16.7955 8.89856 17.5001 8.02675 17.5001C7.15495 17.5001 6.45033 16.7955 6.45033 15.9237V11.9827Z" fill="#E01E5A"/>
<path d="M8.02673 5.65284C7.15492 5.65284 6.45031 4.94823 6.45031 4.07642C6.45031 3.20461 7.15492 2.5 8.02673 2.5C8.89854 2.5 9.60316 3.20461 9.60316 4.07642V5.65284H8.02673ZM8.02673 6.453C8.89854 6.453 9.60316 7.15761 9.60316 8.02942C9.60316 8.90123 8.89854 9.60584 8.02673 9.60584H4.07374C3.20193 9.60584 2.49731 8.90123 2.49731 8.02942C2.49731 7.15761 3.20193 6.453 4.07374 6.453H8.02673Z" fill="#36C5F0"/>
<path d="M14.3444 8.02942C14.3444 7.15761 15.049 6.453 15.9208 6.453C16.7926 6.453 17.4972 7.15761 17.4972 8.02942C17.4972 8.90123 16.7926 9.60584 15.9208 9.60584H14.3444V8.02942ZM13.5562 8.02942C13.5562 8.90123 12.8516 9.60584 11.9797 9.60584C11.1079 9.60584 10.4033 8.90123 10.4033 8.02942V4.07642C10.4033 3.20461 11.1079 2.5 11.9797 2.5C12.8516 2.5 13.5562 3.20461 13.5562 4.07642V8.02942Z" fill="#2EB67D"/>
<path d="M11.9797 14.3473C12.8516 14.3473 13.5562 15.0519 13.5562 15.9237C13.5562 16.7955 12.8516 17.5001 11.9797 17.5001C11.1079 17.5001 10.4033 16.7955 10.4033 15.9237V14.3473H11.9797ZM11.9797 13.5591C11.1079 13.5591 10.4033 12.8545 10.4033 11.9827C10.4033 11.1109 11.1079 10.4062 11.9797 10.4062H15.9327C16.8045 10.4062 17.5092 11.1109 17.5092 11.9827C17.5092 12.8545 16.8045 13.5591 15.9327 13.5591H11.9797Z" fill="#ECB22E"/>
</svg>
