<svg xmlns="http://www.w3.org/2000/svg" width="20" height="20" viewBox="0 0 20 20" fill="none">
  <path d="M16.4004 7.60632L10.6709 10.9725V16.7059L16.2158 13.3485L16.293 13.2841C16.3607 13.211 16.4003 13.1146 16.4004 13.0126V7.60632ZM9.96484 3.25671L9.86621 3.29773L4.20215 6.5575L10.0674 9.93542L15.8154 6.5575L10.2686 3.29871C10.1758 3.24427 10.0662 3.23026 9.96484 3.25671ZM3.59961 13.0126C3.5997 13.1486 3.66977 13.275 3.78418 13.3485L9.4707 16.7919V10.9755L3.59961 7.59558V13.0126ZM17.5996 13.0126C17.5995 13.4888 17.388 13.9365 17.0283 14.2382L16.8652 14.3583C16.8607 14.3612 16.8561 14.3643 16.8516 14.3671L10.8516 18.0009L10.8506 17.9999C10.3301 18.3269 9.66883 18.3272 9.14844 17.9999L3.14844 14.3671C3.14386 14.3643 3.13927 14.3612 3.13477 14.3583C2.67689 14.0639 2.40048 13.5569 2.40039 13.0126V6.55847C2.40039 6.34393 2.51431 6.14507 2.7002 6.03796L9.26758 2.25769L9.45996 2.16296C9.9182 1.97539 10.4431 2.00961 10.877 2.26453L17.3037 6.04089C17.4871 6.14866 17.5996 6.34574 17.5996 6.55847V13.0126Z" fill="currentcolor"/>
</svg>
