<svg width="20" height="20" viewBox="0 0 20 20" fill="none" xmlns="http://www.w3.org/2000/svg">
<path d="M2.71409 9.33378C2.58304 9.24204 2.4782 9.11755 2.39958 8.96029C2.33405 8.78993 2.30129 8.61302 2.30129 8.42955C2.30129 8.2854 2.32095 8.1478 2.36026 8.01676C2.43889 7.80708 2.57649 7.64327 2.77306 7.52533C2.96963 7.39428 3.18586 7.32876 3.42174 7.32876H7.54972L8.86673 3.43667C8.95847 3.20079 9.10917 3.01077 9.31885 2.86662C9.52852 2.72247 9.76441 2.65039 10.0265 2.65039C10.2755 2.65039 10.4983 2.72247 10.6948 2.86662C10.9045 3.01077 11.0487 3.20079 11.1273 3.43667L11.8153 5.52031L10.7145 6.54248L9.98719 4.32124L8.72914 8.21333C8.68982 8.34437 8.61119 8.45576 8.49325 8.5475C8.38841 8.63923 8.26392 8.68509 8.11977 8.68509H4.05077L6.50789 10.5525L5.52504 11.496L2.71409 9.33378ZM3.18586 17.2359C3.0286 17.3669 2.87134 17.4325 2.71409 17.4325C2.53062 17.4325 2.36681 17.3604 2.22266 17.2162C2.09162 17.0852 2.02609 16.9279 2.02609 16.7445C2.02609 16.5348 2.09817 16.371 2.24232 16.253L16.2185 2.88627C16.3495 2.75523 16.5002 2.6897 16.6706 2.6897C16.8671 2.6897 17.031 2.76178 17.162 2.90593C17.293 3.03698 17.3586 3.19423 17.3586 3.3777C17.3586 3.58737 17.2865 3.75118 17.1423 3.86913L3.18586 17.2359ZM16.6706 7.32876C16.8671 7.32876 17.0506 7.38773 17.221 7.50567C17.4044 7.61051 17.5289 7.74811 17.5945 7.91847C17.6469 8.03641 17.6731 8.18712 17.6731 8.37058C17.6731 8.55405 17.6338 8.73096 17.5551 8.90132C17.4765 9.07168 17.3717 9.21583 17.2406 9.33378L13.9972 11.8695L15.4912 15.8992C15.5436 16.0172 15.5698 16.1613 15.5698 16.3317C15.5698 16.6724 15.4518 16.9345 15.216 17.118C15.0325 17.2621 14.7966 17.3342 14.5083 17.3342C14.1807 17.3342 13.8989 17.2425 13.663 17.059L9.96753 14.5036L6.31132 17.059C6.04923 17.2425 5.75437 17.3342 5.42676 17.3342C5.17777 17.3342 4.9812 17.2818 4.83705 17.1769L4.75842 17.0983L5.83955 16.1744L6.03612 16.0172L9.6137 13.0883C9.71854 12.9965 9.84959 12.9507 10.0068 12.9507C10.151 12.9507 10.2689 12.99 10.3607 13.0686L13.9186 15.6437L12.5033 11.8302C12.4771 11.7254 12.464 11.6468 12.464 11.5943C12.464 11.3716 12.5492 11.2012 12.7195 11.0833L15.9629 8.68509H13.8203L15.2553 7.32876H16.6706Z" fill="currentColor"/>
</svg>
