<svg width="20" height="20" viewBox="0 0 20 20" fill="none" xmlns="http://www.w3.org/2000/svg">
<path d="M16.8082 7.32876C17.0178 7.32876 17.2013 7.40084 17.3586 7.54499C17.5289 7.68914 17.6141 7.86605 17.6141 8.07573C17.6141 8.20677 17.5748 8.35092 17.4962 8.50818C17.4175 8.66544 17.3127 8.80959 17.1816 8.94064L13.9972 11.8695L15.4911 16.0368C15.5305 16.1548 15.5501 16.2727 15.5501 16.3906C15.5501 16.6921 15.4387 16.9345 15.2159 17.118C15.098 17.2228 14.9145 17.2752 14.6656 17.2752C14.3904 17.2752 14.1545 17.2031 13.9579 17.059L9.96752 14.366L6.03612 17.059C5.80023 17.2162 5.5578 17.2949 5.30881 17.2949C5.13845 17.2949 4.98119 17.2556 4.83704 17.1769C4.56184 17.0197 4.42424 16.7641 4.42424 16.4103C4.42424 16.2793 4.4439 16.1548 4.48321 16.0368L5.9968 11.8695L2.7534 8.94064C2.50441 8.71786 2.37991 8.44266 2.37991 8.11504C2.37991 7.89226 2.46509 7.7088 2.63545 7.56464C2.81892 7.40739 3.03515 7.32876 3.28414 7.32876H7.54971L9.16159 3.29907C9.25332 3.1025 9.37781 2.94525 9.53507 2.8273C9.69232 2.70936 9.85613 2.65039 10.0265 2.65039C10.1969 2.65039 10.3541 2.70936 10.4983 2.8273C10.6424 2.94525 10.7538 3.1025 10.8324 3.29907L12.4247 7.32876H16.8082Z" fill="currentColor"/>
</svg>
