<svg width="20" height="20" viewBox="0 0 20 20" fill="none" xmlns="http://www.w3.org/2000/svg">
<path d="M11.8743 8.68509C11.7432 8.68509 11.6187 8.64578 11.5008 8.56715C11.3828 8.47542 11.2976 8.35748 11.2452 8.21333L9.98718 4.32124L8.72913 8.21333C8.68982 8.34437 8.61119 8.45576 8.49325 8.5475C8.38841 8.63923 8.26391 8.68509 8.11976 8.68509H4.05076L7.27451 11.1619C7.43177 11.2798 7.5104 11.4436 7.5104 11.6533C7.5104 11.7057 7.49729 11.7844 7.47108 11.8892L6.05578 15.624L9.59404 13.0686C9.71198 12.99 9.84303 12.9507 9.98718 12.9507C10.1444 12.9507 10.2689 12.99 10.3607 13.0686L13.9186 15.6437L12.5033 11.8302C12.4771 11.7254 12.464 11.6468 12.464 11.5943C12.464 11.3716 12.5491 11.2012 12.7195 11.0833L15.9629 8.68509H11.8743ZM16.6706 7.32876C16.8671 7.32876 17.0506 7.38773 17.221 7.50567C17.4044 7.61051 17.5289 7.74811 17.5944 7.91847C17.6469 8.03641 17.6731 8.18712 17.6731 8.37058C17.6731 8.75062 17.5289 9.07168 17.2406 9.33378L13.9972 11.8695L15.4911 15.8992C15.5436 16.0172 15.5698 16.1613 15.5698 16.3317C15.5698 16.6724 15.4518 16.9345 15.2159 17.118C15.0325 17.2621 14.7966 17.3342 14.5083 17.3342C14.1807 17.3342 13.8989 17.2425 13.663 17.059L9.96752 14.5036L6.31132 17.059C6.04922 17.2425 5.76092 17.3342 5.44641 17.3342C5.22363 17.3342 5.02051 17.2818 4.83704 17.1769C4.54874 16.9935 4.40459 16.7117 4.40459 16.3317C4.40459 16.1875 4.4308 16.0434 4.48321 15.8992L5.9968 11.8695L2.71408 9.33378C2.43888 9.13721 2.30128 8.82925 2.30128 8.4099C2.30128 8.10849 2.41267 7.85295 2.63545 7.64327C2.85823 7.4336 3.12033 7.32876 3.42173 7.32876H7.54971L8.86673 3.43667C8.95846 3.20079 9.10917 3.01077 9.31884 2.86662C9.52851 2.72247 9.7644 2.65039 10.0265 2.65039C10.2755 2.65039 10.4983 2.72247 10.6948 2.86662C10.9045 3.01077 11.0487 3.20079 11.1273 3.43667L12.4247 7.32876H16.6706Z" fill="currentColor"/>
</svg>
