<svg xmlns="http://www.w3.org/2000/svg" width="20" height="20" viewBox="0 0 20 20" fill="none">
  <path d="M10.3711 16.0483C11.398 16.0483 12.3427 15.8378 13.2053 15.4168C14.0782 14.9957 14.8022 14.4155 15.3773 13.6762C15.9523 12.9265 16.3271 12.0793 16.5017 11.1345C16.1628 11.1859 15.8445 11.2116 15.5467 11.2116C14.7046 11.2116 13.8677 11.0575 13.0359 10.7495C12.2041 10.4311 11.475 9.98954 10.8486 9.42474C10.2632 8.8702 9.80626 8.19758 9.47764 7.40685C9.1593 6.61613 9.00013 5.80487 9.00013 4.97307C9.00013 4.59312 9.04121 4.19776 9.12336 3.78699C8.14779 3.98211 7.28005 4.37233 6.52014 4.95767C5.77049 5.53274 5.18515 6.25158 4.76412 7.11419C4.34309 7.96652 4.13257 8.89588 4.13257 9.90225C4.13257 11.0627 4.39957 12.1101 4.93356 13.0446C5.47782 13.9791 6.22233 14.7133 7.16709 15.2473C8.12212 15.7813 9.19011 16.0483 10.3711 16.0483ZM10.3711 17.45C8.92311 17.45 7.61893 17.1214 6.45852 16.4642C5.29811 15.8173 4.38416 14.9187 3.71667 13.7686C3.05945 12.6184 2.73083 11.3297 2.73083 9.90225C2.73083 8.557 3.02864 7.33497 3.62425 6.23618C4.21986 5.12711 5.04652 4.2337 6.10424 3.55594C7.16196 2.87818 8.36344 2.47768 9.7087 2.35445C10.0065 2.33391 10.3094 2.38526 10.6175 2.50849C10.9359 2.63172 11.1977 2.80116 11.4031 3.01681L17.2719 8.97803C17.4773 9.18341 17.6416 9.44527 17.7648 9.76362C17.888 10.0717 17.9497 10.3798 17.9497 10.6878C17.847 11.992 17.4567 13.1576 16.779 14.1845C16.1115 15.2114 15.2181 16.0124 14.0987 16.5874C12.9897 17.1625 11.7471 17.45 10.3711 17.45ZM10.4327 3.91022C10.3608 4.29018 10.3248 4.62393 10.3248 4.91146C10.3248 5.58922 10.4532 6.24644 10.7099 6.88313C10.9667 7.50955 11.3261 8.03327 11.7882 8.45431C12.2811 8.91641 12.8562 9.27583 13.5134 9.53256C14.1809 9.78929 14.8433 9.91765 15.5005 9.91765C15.7777 9.91765 16.0242 9.89712 16.2399 9.85604L10.4327 3.91022Z" fill="currentcolor"/>
</svg>