<svg width="20" height="20" viewBox="0 0 20 20" fill="none" xmlns="http://www.w3.org/2000/svg">
<path d="M2.75001 9.99998C2.75001 5.99592 5.99595 2.74998 10 2.74998C14.0041 2.74998 17.25 5.99592 17.25 9.99998C17.25 14.004 14.0041 17.25 10 17.25C5.99595 17.25 2.75001 14.004 2.75001 9.99998Z" stroke="currentColor" stroke-width="1.33333"/>
<path d="M7.48435 7.46865C7.2862 7.66679 7.18713 7.9357 7.18713 8.27537V11.6721C7.18713 11.9976 7.2862 12.2665 7.48435 12.4788C7.69664 12.6769 7.97262 12.776 8.31229 12.776H11.6878C12.0274 12.776 12.2963 12.6769 12.4945 12.4788C12.7068 12.2665 12.8129 11.9905 12.8129 11.6508V8.25414C12.8129 7.92862 12.7068 7.66679 12.4945 7.46865C12.2963 7.25635 12.0274 7.15021 11.6878 7.15021H8.29106C7.95139 7.15021 7.68249 7.25635 7.48435 7.46865Z" fill="currentColor"/>
</svg>
