<svg width="20" height="20" viewBox="0 0 20 20" fill="none" xmlns="http://www.w3.org/2000/svg">
<path d="M10.5572 8.29195C10.4524 8.29195 10.3672 8.32471 10.3017 8.39023C10.2362 8.44265 10.2034 8.52128 10.2034 8.62611V11.1815C10.2034 11.2864 10.2362 11.3715 10.3017 11.4371C10.3672 11.5026 10.4524 11.5354 10.5572 11.5354H16.1595C16.2643 11.5354 16.3429 11.5026 16.3954 11.4371C16.4609 11.3715 16.4937 11.2864 16.4937 11.1815V8.62611C16.4937 8.52128 16.4609 8.44265 16.3954 8.39023C16.3429 8.32471 16.2643 8.29195 16.1595 8.29195H10.5572ZM8.84707 8.50817C8.84707 8.0364 8.99122 7.65637 9.27953 7.36807C9.56783 7.07976 9.94787 6.93561 10.4196 6.93561H16.2971C16.7688 6.93561 17.1489 7.07976 17.4372 7.36807C17.7255 7.64326 17.8696 8.01675 17.8696 8.48851V11.3191C17.8696 11.7909 17.7255 12.1709 17.4372 12.4592C17.1489 12.7475 16.7688 12.8917 16.2971 12.8917H10.4196C9.94787 12.8917 9.56783 12.7475 9.27953 12.4592C8.99122 12.1709 8.84707 11.7909 8.84707 11.3191V8.50817ZM2.14403 3.45632C2.14403 3.28596 2.2161 3.14836 2.36026 3.04352C2.50441 2.92558 2.68787 2.86661 2.91065 2.86661C3.82798 2.86661 4.57495 3.12215 5.15155 3.63323C5.72816 4.14431 6.01646 4.79955 6.01646 5.59893V7.72189C6.01646 7.97088 6.10819 8.21332 6.29166 8.4492C6.48823 8.67198 6.73722 8.84234 7.03863 8.96028C7.22209 9.02581 7.3728 9.1503 7.49074 9.33377C7.62178 9.50413 7.68731 9.69415 7.68731 9.90382C7.68731 10.1004 7.62178 10.2904 7.49074 10.4739C7.3728 10.6442 7.21554 10.7753 7.01897 10.867C6.73067 10.985 6.48823 11.1684 6.29166 11.4174C6.10819 11.6664 6.01646 11.9219 6.01646 12.184V14.4249C6.01646 15.185 5.72816 15.8075 5.15155 16.2924C4.57495 16.7641 3.82798 17 2.91065 17C2.68787 17 2.50441 16.941 2.36026 16.8231C2.2161 16.692 2.14403 16.5282 2.14403 16.3317C2.14403 16.1482 2.20955 16.004 2.3406 15.8992C2.48475 15.7813 2.66822 15.7223 2.89099 15.7223C3.40208 15.7223 3.82143 15.5913 4.14904 15.3292C4.48977 15.0671 4.66013 14.7394 4.66013 14.3463V12.1054C4.66013 11.5812 4.81738 11.1226 5.13189 10.7294C5.45951 10.3232 5.85921 10.0676 6.33097 9.96279V9.84485C5.85921 9.74001 5.45951 9.48447 5.13189 9.07823C4.81738 8.65888 4.66013 8.18056 4.66013 7.64326V5.63825C4.66013 5.19269 4.49632 4.82576 4.1687 4.53746C3.84108 4.24915 3.41518 4.105 2.89099 4.105C2.66822 4.105 2.48475 4.04603 2.3406 3.92809C2.20955 3.81015 2.14403 3.65289 2.14403 3.45632Z" fill="currentColor"/>
</svg>
