<svg xmlns="http://www.w3.org/2000/svg" width="20" height="20" viewBox="0 0 20 20" fill="none">
  <path d="M10.1453 4.45435C10.356 4.45435 10.5369 4.37744 10.6879 4.22363C10.8388 4.06982 10.9143 3.89038 10.9143 3.6853V2.01904C10.9143 1.81396 10.8388 1.63452 10.6879 1.48071C10.5369 1.3269 10.356 1.25 10.1453 1.25C9.94019 1.25 9.76217 1.3269 9.61121 1.48071C9.46025 1.63452 9.38477 1.81396 9.38477 2.01904V3.6853C9.38477 3.89038 9.46025 4.06982 9.61121 4.22363C9.76217 4.37744 9.94019 4.45435 10.1453 4.45435ZM14.7168 6.35986C14.9333 6.35986 15.1156 6.28581 15.2637 6.1377L16.4514 4.9585C16.5938 4.81038 16.665 4.62809 16.665 4.41162C16.665 4.19515 16.591 4.01286 16.4429 3.86475C16.3005 3.71663 16.121 3.644 15.9045 3.64685C15.6881 3.6497 15.5086 3.72518 15.3662 3.87329L14.1699 5.06104C14.0275 5.20915 13.9563 5.38859 13.9563 5.59937C13.9563 5.81014 14.0275 5.99243 14.1699 6.14624C14.318 6.28866 14.5003 6.35986 14.7168 6.35986ZM5.56946 6.35986C5.78308 6.35986 5.96395 6.28866 6.11206 6.14624C6.26017 5.99813 6.33423 5.81584 6.33423 5.59937C6.33423 5.38289 6.26302 5.20345 6.12061 5.06104L4.94141 3.87329C4.79899 3.73088 4.61812 3.65682 4.3988 3.65112C4.17948 3.64543 4.00146 3.71663 3.86475 3.86475C3.71094 4.01286 3.63403 4.19515 3.63403 4.41162C3.63403 4.62809 3.70524 4.80754 3.84766 4.94995L5.0354 6.1377C5.17782 6.28581 5.35583 6.35986 5.56946 6.35986ZM10.1453 14.3665C10.7149 14.3665 11.2533 14.2554 11.7603 14.0332C12.2673 13.811 12.713 13.5077 13.0975 13.1232C13.4821 12.7386 13.7854 12.2929 14.0076 11.7859C14.2297 11.2789 14.3408 10.7377 14.3408 10.1624C14.3408 9.587 14.2297 9.04582 14.0076 8.53882C13.7854 8.03182 13.4821 7.58606 13.0975 7.20154C12.713 6.81702 12.2673 6.5151 11.7603 6.29578C11.2533 6.07646 10.7149 5.9668 10.1453 5.9668C9.56991 5.9668 9.03015 6.07646 8.526 6.29578C8.02185 6.5151 7.57609 6.81702 7.18872 7.20154C6.80135 7.58606 6.49801 8.03182 6.27869 8.53882C6.05937 9.04582 5.94971 9.587 5.94971 10.1624C5.94971 10.7377 6.05937 11.2789 6.27869 11.7859C6.49801 12.2929 6.80135 12.7386 7.18872 13.1232C7.57609 13.5077 8.02185 13.811 8.526 14.0332C9.03015 14.2554 9.56991 14.3665 10.1453 14.3665ZM18.28 10.9314C18.4851 10.9314 18.6631 10.8559 18.8141 10.705C18.965 10.554 19.0405 10.3731 19.0405 10.1624C19.0405 9.95728 18.965 9.77926 18.8141 9.6283C18.6631 9.47734 18.4851 9.40186 18.28 9.40186H16.6138C16.403 9.40186 16.2221 9.47734 16.0712 9.6283C15.9202 9.77926 15.8447 9.95728 15.8447 10.1624C15.8447 10.3731 15.9202 10.554 16.0712 10.705C16.2221 10.8559 16.403 10.9314 16.6138 10.9314H18.28ZM3.6853 10.9314C3.89038 10.9314 4.0684 10.8559 4.21936 10.705C4.37032 10.554 4.4458 10.3731 4.4458 10.1624C4.4458 9.95728 4.37032 9.77926 4.21936 9.6283C4.0684 9.47734 3.89038 9.40186 3.6853 9.40186H2.01904C1.80827 9.40186 1.6274 9.47734 1.47644 9.6283C1.32548 9.77926 1.25 9.95728 1.25 10.1624C1.25 10.3731 1.32548 10.554 1.47644 10.705C1.6274 10.8559 1.80827 10.9314 2.01904 10.9314H3.6853ZM15.9088 16.6821C16.1224 16.6821 16.3033 16.6081 16.4514 16.46C16.5938 16.3118 16.665 16.131 16.665 15.9174C16.665 15.7037 16.5938 15.5257 16.4514 15.3833L15.2551 14.1956C15.107 14.0531 14.9261 13.9819 14.7125 13.9819C14.4989 13.9819 14.318 14.0531 14.1699 14.1956C14.0275 14.3437 13.9563 14.5245 13.9563 14.7382C13.9563 14.9518 14.0275 15.1326 14.1699 15.2808L15.3748 16.4685C15.5172 16.6109 15.6952 16.6821 15.9088 16.6821ZM4.37744 16.6779C4.59391 16.6807 4.7762 16.6081 4.92432 16.46L6.11206 15.2808C6.26017 15.1326 6.33423 14.9518 6.33423 14.7382C6.33423 14.5245 6.26302 14.3465 6.12061 14.2041C5.97249 14.056 5.7902 13.9819 5.57373 13.9819C5.35726 13.9819 5.17782 14.0531 5.0354 14.1956L3.83911 15.3748C3.6967 15.5172 3.62406 15.6952 3.62122 15.9088C3.61837 16.1224 3.691 16.3033 3.83911 16.4514C3.98153 16.5995 4.16097 16.675 4.37744 16.6779ZM10.1453 19.0833C10.356 19.0833 10.5369 19.0063 10.6879 18.8525C10.8388 18.6987 10.9143 18.5164 10.9143 18.3057V16.6479C10.9143 16.4372 10.8388 16.2563 10.6879 16.1053C10.5369 15.9544 10.356 15.8789 10.1453 15.8789C9.94019 15.8789 9.76217 15.9544 9.61121 16.1053C9.46025 16.2563 9.38477 16.4372 9.38477 16.6479V18.3057C9.38477 18.5164 9.46025 18.6987 9.61121 18.8525C9.76217 19.0063 9.94019 19.0833 10.1453 19.0833Z" fill="currentcolor" />
</svg>