<svg xmlns="http://www.w3.org/2000/svg" width="20" height="20" viewBox="0 0 20 20" fill="none">
<path d="M10.1382 3.78638C10.6857 3.78638 11.1379 3.33411 11.1379 2.79456C11.1379 2.24707 10.6857 1.80273 10.1382 1.80273C9.5907 1.80273 9.14636 2.23914 9.14636 2.79456C9.14636 3.33411 9.60657 3.78638 10.1382 3.78638ZM15.8669 5.57959C16.2637 5.1908 16.2637 4.56396 15.8669 4.17517C15.4702 3.77844 14.8593 3.77844 14.4625 4.17517C14.0817 4.55603 14.0817 5.19873 14.4625 5.57959C14.8434 5.96045 15.4861 5.96045 15.8669 5.57959ZM5.81384 5.58752C6.21057 5.18286 6.21057 4.57983 5.81384 4.18311C5.42505 3.78638 4.79822 3.78638 4.40942 4.18311C4.02856 4.56396 4.02856 5.19873 4.40942 5.58752C4.79028 5.96838 5.43298 5.96838 5.81384 5.58752ZM10.1382 14.0696C12.4154 14.0696 14.2959 12.1891 14.2959 9.91187C14.2959 7.64258 12.4154 5.76208 10.1382 5.76208C7.8689 5.76208 5.9884 7.64258 5.9884 9.91187C5.9884 12.1891 7.8689 14.0696 10.1382 14.0696ZM10.1382 12.5858C8.68616 12.5858 7.47217 11.3718 7.47217 9.91187C7.47217 8.46777 8.68616 7.24585 10.1382 7.24585C11.5981 7.24585 12.8121 8.45984 12.8121 9.91187C12.8121 11.3718 11.5981 12.5858 10.1382 12.5858ZM3.03674 10.9037C3.57629 10.9037 4.02856 10.4435 4.02856 9.91187C4.02856 9.35645 3.59216 8.91211 3.03674 8.91211C2.48926 8.91211 2.04492 9.36438 2.04492 9.91187C2.04492 10.4514 2.49719 10.9037 3.03674 10.9037ZM17.2476 10.9434C17.803 10.9434 18.2394 10.507 18.2394 9.95154C18.2394 9.41992 17.7871 8.95972 17.2476 8.95972C16.7001 8.95972 16.2557 9.41199 16.2557 9.95154C16.2557 10.499 16.7001 10.9434 17.2476 10.9434ZM5.82178 15.6248C6.20264 15.2439 6.20264 14.6091 5.82178 14.2203C5.44092 13.8395 4.79822 13.8395 4.41736 14.2203C4.02063 14.6171 4.02063 15.236 4.41736 15.6248C4.80615 16.0215 5.43298 16.0215 5.82178 15.6248ZM15.8352 15.6644C16.2161 15.2836 16.2161 14.6409 15.8352 14.26C15.4385 13.8712 14.8116 13.8712 14.4229 14.26C14.0341 14.6488 14.0341 15.2756 14.4229 15.6644C14.8275 16.0532 15.4305 16.0532 15.8352 15.6644ZM10.1382 17.9972C10.6857 17.9972 11.1379 17.5529 11.1379 17.0054C11.1379 16.4658 10.6857 16.0135 10.1382 16.0135C9.60657 16.0135 9.14636 16.4658 9.14636 17.0054C9.14636 17.5608 9.5907 17.9972 10.1382 17.9972Z" fill="currentcolor" />
</svg>