<svg width="20" height="20" viewBox="0 0 20 20" fill="none" xmlns="http://www.w3.org/2000/svg">
<path d="M12.8305 4.18488C13.1038 3.91188 13.5464 3.91181 13.8197 4.18488L16.9184 7.28254C17.4431 7.80731 17.0706 8.70539 16.3285 8.70539H3.35C2.96346 8.70539 2.64991 8.39171 2.6498 8.0052C2.6498 7.6186 2.9634 7.305 3.35 7.305H14.9604L12.8305 5.17512C12.5571 4.90175 12.5571 4.45825 12.8305 4.18488Z" fill="currentcolor"/>
<path d="M7.16953 15.8151C6.8962 16.0881 6.45356 16.0882 6.18027 15.8151L3.08164 12.7175C2.55687 12.1927 2.92937 11.2946 3.67148 11.2946H16.65C17.0365 11.2946 17.3501 11.6083 17.3502 11.9948C17.3502 12.3814 17.0366 12.695 16.65 12.695H5.03965L7.16953 14.8249C7.4429 15.0982 7.4429 15.5417 7.16953 15.8151Z" fill="currentcolor"/>
</svg>
