<svg width="20" height="20" viewBox="0 0 20 20" fill="none" xmlns="http://www.w3.org/2000/svg">
<path d="M13.7667 6.88711C13.4756 6.67189 13.0651 6.73344 12.8499 7.02458L9.37379 11.7269L7.26297 9.66572C7.00393 9.41277 6.58888 9.41771 6.33593 9.67675C6.08299 9.93579 6.08792 10.3508 6.34696 10.6038L8.98724 13.182L8.99152 13.1861C9.2804 13.4634 9.74833 13.4252 9.9877 13.1021L13.9042 7.80396C14.1194 7.51282 14.0579 7.10233 13.7667 6.88711Z" fill="currentColor"/>
<path fill-rule="evenodd" clip-rule="evenodd" d="M4.91156 2.7C3.69015 2.7 2.7 3.69015 2.7 4.91156V15.0884C2.7 16.3098 3.69013 17.3 4.91156 17.3H15.0884C16.3098 17.3 17.3 16.3098 17.3 15.0884V4.91156C17.3 3.69013 16.3098 2.7 15.0884 2.7H4.91156ZM4.7593 4.07374L15.2962 4.07374C15.6433 4.07374 15.9247 4.35514 15.9247 4.70223L15.9247 15.3029C15.9247 15.65 15.6432 15.9314 15.2962 15.9314H4.7593C4.41221 15.9314 4.13081 15.65 4.13081 15.3029L4.13081 4.70223C4.13081 4.35512 4.4122 4.07374 4.7593 4.07374Z" fill="currentColor"/>
</svg>
