<svg width="20" height="20" viewBox="0 0 20 20" fill="currentColor" xmlns="http://www.w3.org/2000/svg">
<path d="M15.9946 4.67236C16.1835 4.67236 16.3393 4.73375 16.4621 4.85653C16.5943 4.97931 16.6604 5.13042 16.6604 5.30986C16.6604 5.48931 16.5943 5.64514 16.4621 5.77736C16.3299 5.90014 16.174 5.96153 15.9946 5.96153H3.99542C3.81597 5.96153 3.66014 5.90014 3.52792 5.77736C3.40514 5.65459 3.34375 5.50347 3.34375 5.32403C3.34375 5.14459 3.40514 4.99347 3.52792 4.8707C3.66014 4.73847 3.81597 4.67236 3.99542 4.67236H15.9946ZM15.9946 9.26236C16.174 9.25292 16.3299 9.31431 16.4621 9.44653C16.5943 9.56931 16.6604 9.72042 16.6604 9.89986C16.6604 10.0793 16.5943 10.2351 16.4621 10.3674C16.3393 10.4901 16.1835 10.5515 15.9946 10.5515L3.99542 10.5374C3.81597 10.5374 3.66014 10.476 3.52792 10.3532C3.40514 10.221 3.34375 10.0651 3.34375 9.8857C3.34375 9.70625 3.40514 9.55514 3.52792 9.43236C3.66014 9.30014 3.81597 9.23403 3.99542 9.23403L15.9946 9.26236ZM9.99458 13.824C10.174 13.824 10.3299 13.8901 10.4621 14.0224C10.5943 14.1451 10.6604 14.2963 10.6604 14.4757C10.6604 14.6551 10.5943 14.8063 10.4621 14.929C10.3393 15.0518 10.1835 15.1132 9.99458 15.1132H3.99542C3.81597 15.1132 3.66014 15.0518 3.52792 14.929C3.40514 14.8063 3.34375 14.6551 3.34375 14.4757C3.34375 14.2963 3.40514 14.1451 3.52792 14.0224C3.66014 13.8901 3.81597 13.824 3.99542 13.824H9.99458Z" fill="currentColor"/>
</svg>