<svg width="20" height="20" viewBox="0 0 20 20" fill="none" xmlns="http://www.w3.org/2000/svg">
<path fill-rule="evenodd" clip-rule="evenodd" d="M15.5691 3.24084C15.4351 3.24084 15.3081 3.28024 15.1896 3.35564L14.9144 3.67593L8.96488 14.6967C8.88758 14.8338 8.81522 14.8717 8.75494 14.8717C8.69893 14.8717 8.62442 14.8408 8.53004 14.747L4.99181 10.7984C4.85093 10.626 4.66752 10.5367 4.44827 10.5367C4.25186 10.5367 4.07722 10.6084 3.92798 10.7466C3.75877 10.8951 3.66827 11.0769 3.66827 11.2883C3.66827 11.479 3.74758 11.6491 3.89402 11.7963L7.51943 15.8183C7.92804 16.2658 8.36847 16.5025 8.83994 16.5025C9.11867 16.5025 9.37992 16.4092 9.62165 16.2281C9.87267 16.0471 10.0895 15.7836 10.2739 15.4439L16.2238 4.35171C16.2872 4.23531 16.3208 4.11522 16.3208 3.99251C16.3208 3.74036 16.208 3.5357 15.9944 3.38613C15.8585 3.29209 15.7163 3.24084 15.5691 3.24084Z" fill="currentColor"/>
</svg>
