<svg width="20" height="20" viewBox="0 0 20 20" fill="none" xmlns="http://www.w3.org/2000/svg">
<path d="M2.05518 8.936C2.05518 8.46 2.19518 8.07733 2.47518 7.788C2.76451 7.49866 3.14251 7.35399 3.60918 7.35399H7.75318C8.22918 7.35399 8.61184 7.49866 8.90118 7.788C9.19051 8.068 9.33518 8.44133 9.33518 8.90799V9.52399H10.7072C10.8192 9.29066 10.9872 9.12733 11.2112 9.034V6.40199C11.2112 6.24333 11.2625 6.11733 11.3652 6.02399C11.4678 5.92133 11.5985 5.87 11.7572 5.87C11.9158 5.87 12.0418 5.92133 12.1352 6.02399C12.2378 6.11733 12.2892 6.24333 12.2892 6.40199V9.034C12.5132 9.146 12.6812 9.30933 12.7932 9.52399H14.1792C14.2818 9.33733 14.4218 9.19266 14.5992 9.08999C14.7765 8.97799 14.9818 8.92199 15.2152 8.92199C15.4578 8.92199 15.6678 8.97799 15.8452 9.08999C16.0318 9.19266 16.1718 9.33733 16.2652 9.52399H17.3712C17.5392 9.52399 17.6745 9.58 17.7772 9.692C17.8892 9.79466 17.9452 9.93 17.9452 10.098C17.9452 10.266 17.8892 10.406 17.7772 10.518C17.6745 10.6207 17.5392 10.672 17.3712 10.672H16.2652C16.1532 10.8773 15.9898 11.0313 15.7752 11.134V13.598C15.7752 13.7567 15.7238 13.8873 15.6212 13.99C15.5278 14.0833 15.4018 14.13 15.2432 14.13C15.0845 14.13 14.9538 14.0833 14.8512 13.99C14.7578 13.8873 14.7112 13.7567 14.7112 13.598V11.162C14.4778 11.0593 14.3052 10.896 14.1932 10.672H12.7792C12.6858 10.8587 12.5458 11.0033 12.3592 11.106C12.1818 11.2087 11.9765 11.26 11.7432 11.26C11.5098 11.26 11.3045 11.2087 11.1272 11.106C10.9498 11.0033 10.8098 10.8587 10.7072 10.672H9.33518V11.302C9.33518 11.7687 9.19051 12.1467 8.90118 12.436C8.62118 12.7253 8.24784 12.87 7.78118 12.87H3.63718C3.16118 12.87 2.77851 12.73 2.48918 12.45C2.19984 12.1607 2.05518 11.7827 2.05518 11.316V8.936ZM3.80518 8.614C3.64651 8.614 3.52051 8.66066 3.42718 8.754C3.34318 8.838 3.30118 8.95466 3.30118 9.10399V11.12C3.30118 11.2693 3.34784 11.3907 3.44118 11.484C3.53451 11.5773 3.65584 11.624 3.80518 11.624H7.58518C7.74384 11.624 7.86518 11.5773 7.94918 11.484C8.04251 11.3907 8.08918 11.2693 8.08918 11.12V9.10399C8.08918 8.95466 8.04251 8.838 7.94918 8.754C7.85584 8.66066 7.73451 8.614 7.58518 8.614H3.80518Z" fill="currentcolor"/>
</svg>
