<svg width="20" height="20" viewBox="0 0 20 20" fill="none" xmlns="http://www.w3.org/2000/svg">
<path fill-rule="evenodd" clip-rule="evenodd" d="M4.75553 4.33145C4.75553 3.80357 4.91482 3.37716 5.23048 3.04758C5.56046 2.7178 5.97966 2.55212 6.49228 2.55212H13.5395C14.067 2.55212 14.4856 2.71822 14.8009 3.04721L14.8025 3.04874C15.1314 3.36402 15.2975 3.78268 15.2975 4.31016V6.77987C15.2975 7.30733 15.1314 7.7336 14.8017 8.06336C14.4863 8.37877 14.0743 8.53791 13.5608 8.53791H10.6349V9.92024L10.6634 9.93451C10.9068 10.0562 11.0829 10.2519 11.1921 10.5249L11.2051 10.5574H14.3485C14.5216 10.5574 14.6567 10.6102 14.7591 10.7126C14.8615 10.815 14.9143 10.9501 14.9143 11.1232C14.9143 11.2962 14.8615 11.4313 14.7591 11.5337C14.6567 11.6361 14.5216 11.6889 14.3485 11.6889H11.2082L11.1939 11.7175C11.0707 11.9638 10.8937 12.1473 10.6624 12.2698L10.6349 12.2843V13.7083L10.6612 13.7231C11.0979 13.9687 11.3162 14.3553 11.3162 14.8916C11.3162 15.1528 11.2544 15.3847 11.1319 15.5889L11.1314 15.5898C11.0229 15.7796 10.867 15.9291 10.6622 16.0383L10.6349 16.0529V17.2974C10.6349 17.484 10.5754 17.6335 10.4583 17.7505L10.4565 17.7526C10.339 17.8831 10.19 17.9484 10.0052 17.9484C9.82038 17.9484 9.66315 17.883 9.53079 17.7506C9.41375 17.6336 9.35431 17.484 9.35431 17.2974V16.0535L9.32773 16.0387C9.0803 15.9012 8.91176 15.7246 8.81771 15.5096L8.80417 15.4787H5.87485C5.70251 15.4787 5.56776 15.4263 5.4655 15.3247C5.37686 15.2227 5.33038 15.0871 5.33038 14.9129C5.33038 14.7387 5.37686 14.6031 5.4655 14.5011C5.56776 14.3995 5.70251 14.3471 5.87485 14.3471H8.78407L8.79706 14.3147C8.90627 14.0416 9.08242 13.8459 9.32575 13.7242L9.35431 13.71V12.2844L9.32696 12.2698C9.12293 12.161 8.95964 12.0049 8.83664 11.8003C8.72794 11.596 8.67301 11.3636 8.67301 11.1019C8.67301 10.8402 8.72794 10.6078 8.83664 10.4035C8.95964 10.1989 9.12293 10.0427 9.32696 9.93389L9.35431 9.9193V8.53791H6.51357C5.98569 8.53791 5.55929 8.37863 5.2297 8.06298C4.90059 7.73365 4.74167 7.3081 4.75553 6.78123V4.33145ZM6.72648 3.89656C6.54402 3.89656 6.39459 3.95783 6.28421 4.08323C6.17486 4.19322 6.12126 4.33423 6.12126 4.50178V6.58826C6.12126 6.75643 6.17508 6.90356 6.28299 7.02688L6.28542 7.02931C6.39646 7.14035 6.54555 7.19348 6.72648 7.19348H13.3266C13.4947 7.19348 13.6362 7.13948 13.7463 7.02931C13.8693 6.90638 13.9318 6.75852 13.9318 6.58826V4.50178C13.9318 4.33252 13.8699 4.19118 13.7464 4.08194C13.6372 3.95846 13.4958 3.89656 13.3266 3.89656H6.72648Z" fill="currentColor"/>
</svg>
