<svg width="24" height="24" viewBox="0 0 24 24" fill="none" xmlns="http://www.w3.org/2000/svg">
<path d="M15.7667 8.88707C15.4755 8.67185 15.065 8.73339 14.8498 9.02453L11.3737 13.7269L9.26292 11.6657C9.00388 11.4127 8.58884 11.4177 8.33589 11.6767C8.08294 11.9357 8.08788 12.3508 8.34692 12.6037L10.9872 15.1819L10.9915 15.1861C11.2804 15.4634 11.7483 15.4252 11.9877 15.102L15.9041 9.80391C16.1194 9.51277 16.0578 9.10228 15.7667 8.88707Z" fill="currentcolor"/>
<path fill-rule="evenodd" clip-rule="evenodd" d="M6.91152 4.69995C5.6901 4.69995 4.69995 5.69011 4.69995 6.91152V17.0884C4.69995 18.3097 5.69009 19.3 6.91152 19.3H17.0884C18.3098 19.3 19.3 18.3097 19.3 17.0884V6.91152C19.3 5.69009 18.3097 4.69995 17.0884 4.69995H6.91152ZM6.75925 6.07369L17.2961 6.07369C17.6432 6.07369 17.9246 6.35509 17.9246 6.70218L17.9246 17.3029C17.9246 17.65 17.6432 17.9314 17.2961 17.9314H6.75925C6.41217 17.9314 6.13076 17.65 6.13076 17.3029L6.13076 6.70218C6.13076 6.35508 6.41215 6.07369 6.75925 6.07369Z" fill="currentcolor"/>
</svg>
