<svg xmlns="http://www.w3.org/2000/svg" width="20" height="20" fill="none" viewBox="0 0 20 20"><path stroke="currentColor" stroke-linecap="round" stroke-width="1.4" d="M6 6.5h8"/><path fill="currentColor" fill-rule="evenodd" d="M15.63 3.378q1.06 0 1.71.668.667.648.667 1.73v8.334q0 1.062-.668 1.73-.649.649-1.73.65H4.366q-1.062-.001-1.73-.65-.65-.669-.65-1.75V5.757q-.019-1.062.63-1.71.668-.669 1.75-.668zM4.483 4.734q-.491 0-.825.315-.315.314-.315.825v8.099q0 .491.315.826.335.315.825.314H15.51q.512 0 .827-.314a1.16 1.16 0 0 0 .314-.826V5.874q0-.51-.314-.825-.315-.315-.827-.315z" clip-rule="evenodd"/></svg>