<svg xmlns="http://www.w3.org/2000/svg" width="20" height="20" fill="none" viewBox="0 0 20 20"><path fill="currentColor" d="M5.173 13.349c.163-.061.361-.021.54.086l1.451.88c.309.186.32.662.002.857l-.001.001-1.453.865c-.177.105-.374.138-.536.077-.17-.066-.276-.226-.276-.449v-1.86c0-.227.1-.392.273-.457m12.158.618a.76.76 0 0 1 .769.76.76.76 0 0 1-.769.754h-7.1c-.43 0-.76-.33-.76-.753 0-.43.33-.76.76-.76zM1.872 8.407c.162-.063.361-.026.541.082l1.451.88c.309.186.32.662.002.857l-1.454.866c-.177.104-.374.138-.536.076-.17-.065-.275-.225-.275-.447V8.86c0-.224.1-.387.271-.453m15.458.631c.42 0 .77.328.77.753 0 .424-.35.761-.77.761H6.786a.753.753 0 0 1-.76-.76c0-.424.33-.754.76-.754zM1.872 3.48c.164-.063.363-.023.542.089l1.452.88a.508.508 0 0 1 0 .857v.001l-1.454.865c-.177.104-.374.137-.536.075-.17-.065-.275-.225-.275-.447V3.94c0-.227.1-.394.271-.46m15.459.62a.76.76 0 0 1 .769.762.76.76 0 0 1-.769.753h-10.4a.746.746 0 0 1-.76-.753c0-.431.33-.761.76-.761z"/></svg>