<svg width="20" height="20" viewBox="0 0 20 20" fill="none" xmlns="http://www.w3.org/2000/svg">
<path d="M9.00434 10.926H10.8718C11.1994 10.926 11.468 10.8211 11.6777 10.6115C11.9005 10.4018 12.0119 10.1331 12.0119 9.80553L12.0315 6.56212C12.0315 6.2214 11.9267 5.9462 11.717 5.73652C11.5073 5.52685 11.2321 5.42201 10.8914 5.42201H4.36528C4.03766 5.42201 3.76247 5.52685 3.53969 5.73652C3.33001 5.9462 3.22517 6.2214 3.22517 6.56212L3.20552 9.80553C3.20552 10.1331 3.31035 10.4018 3.52003 10.6115C3.74281 10.8211 4.01801 10.926 4.34562 10.926H5.42676V12.2233H4.20802C3.50037 12.2233 2.93032 12.0071 2.49786 11.5747C2.06541 11.1291 1.84918 10.5459 1.84918 9.82518L1.86884 6.50315C1.86884 5.7955 2.08507 5.22544 2.51752 4.79299C2.96308 4.34743 3.54624 4.12465 4.267 4.12465H10.9897C11.7105 4.12465 12.2871 4.34743 12.7195 4.79299C13.1651 5.22544 13.3879 5.7955 13.3879 6.50315L13.3682 9.8645C13.3682 10.5722 13.1454 11.1422 12.6999 11.5747C12.2674 12.0071 11.6908 12.2233 10.97 12.2233H9.00434V10.926ZM10.9111 8.9013H9.04365C8.71603 8.9013 8.44084 9.00614 8.21806 9.21582C8.00838 9.42549 7.90354 9.70069 7.90354 10.0414V13.3241C7.90354 13.6518 8.00838 13.9269 8.21806 14.1497C8.44084 14.3594 8.71603 14.4642 9.04365 14.4642H15.6288C15.9695 14.4642 16.2447 14.3594 16.4543 14.1497C16.664 13.9269 16.7689 13.6518 16.7689 13.3241L16.7885 10.0414C16.7885 9.70069 16.6837 9.42549 16.474 9.21582C16.2643 9.00614 15.9891 8.9013 15.6484 8.9013H14.469V7.60394H15.7467C16.4675 7.60394 17.0441 7.82672 17.4765 8.27228C17.9221 8.70473 18.1449 9.27479 18.1449 9.98244L18.1252 13.3831C18.1252 14.0908 17.9024 14.6674 17.4569 15.1129C17.0244 15.5454 16.4478 15.7616 15.727 15.7616H8.94537C8.22461 15.7616 7.64145 15.5454 7.19589 15.1129C6.76344 14.6674 6.54721 14.0908 6.54721 13.3831L6.52755 10.0021C6.52755 9.28134 6.74378 8.70473 7.17623 8.27228C7.62179 7.82672 8.1984 7.60394 8.90605 7.60394H10.9111V8.9013Z" fill="currentColor"/>
</svg>
