<svg width="20" height="20" viewBox="0 0 20 20" fill="none" xmlns="http://www.w3.org/2000/svg">
<path d="M8.35565 14.5036C8.36875 14.6477 8.32289 14.7722 8.21805 14.877C8.11321 14.9819 7.98872 15.0343 7.84457 15.0343C7.71352 15.0343 7.60213 14.9884 7.5104 14.8967C7.41866 14.805 7.36625 14.6936 7.35314 14.5625L7.01897 7.87914C7.00587 7.73498 7.05173 7.61049 7.15657 7.50565C7.26141 7.40082 7.37935 7.3484 7.5104 7.3484C7.64144 7.3484 7.75283 7.39426 7.84457 7.486C7.9494 7.57773 8.00837 7.68912 8.02148 7.82017L8.35565 14.5036ZM10.5179 14.5232C10.5179 14.6674 10.4655 14.7853 10.3607 14.877C10.2689 14.9688 10.151 15.0146 10.0068 15.0146C9.86269 15.0146 9.74474 14.9688 9.65301 14.877C9.56128 14.7853 9.51541 14.6674 9.51541 14.5232V7.85948C9.51541 7.71533 9.56128 7.59739 9.65301 7.50565C9.74474 7.40082 9.86269 7.3484 10.0068 7.3484C10.151 7.3484 10.2689 7.40082 10.3607 7.50565C10.4655 7.59739 10.5179 7.71533 10.5179 7.85948V14.5232ZM12.6802 14.5429C12.6802 14.6739 12.6343 14.7853 12.5426 14.877C12.4509 14.9688 12.3329 15.0146 12.1888 15.0146C12.0446 15.0146 11.9201 14.9688 11.8153 14.877C11.7236 14.7722 11.6842 14.6477 11.6973 14.5036L12.0119 7.83982C12.0119 7.69567 12.0577 7.57773 12.1495 7.486C12.2543 7.39426 12.3722 7.3484 12.5033 7.3484C12.6474 7.3484 12.7654 7.40082 12.8571 7.50565C12.9619 7.61049 13.0078 7.73498 12.9947 7.87914L12.6802 14.5429ZM16.7885 4.67504C16.9851 4.67504 17.1423 4.73401 17.2603 4.85195C17.3913 4.9699 17.4568 5.1206 17.4568 5.30407C17.4568 5.48753 17.3913 5.64479 17.2603 5.77583C17.1423 5.89378 16.9851 5.95275 16.7885 5.95275H3.18585C3.00239 5.95275 2.84513 5.89378 2.71408 5.77583C2.59614 5.64479 2.53717 5.48753 2.53717 5.30407C2.53717 5.1206 2.59614 4.9699 2.71408 4.85195C2.84513 4.73401 3.00239 4.67504 3.18585 4.67504H16.7885ZM12.0119 5.14681V3.75116C12.0119 3.64632 11.9791 3.56114 11.9136 3.49562C11.848 3.4301 11.7694 3.39734 11.6777 3.39734H8.31633C8.2246 3.39734 8.14597 3.4301 8.08045 3.49562C8.01493 3.56114 7.98217 3.64632 7.98217 3.75116L8.00182 5.12715L6.66514 5.16647L6.62583 3.77082C6.61273 3.29905 6.75032 2.91901 7.03863 2.63071C7.32693 2.34241 7.70041 2.19826 8.15908 2.19826H11.8153C12.2871 2.19826 12.6671 2.34241 12.9554 2.63071C13.2437 2.90591 13.3878 3.27939 13.3878 3.75116V5.14681H12.0119ZM6.11475 15.1522C6.14096 15.493 6.26545 15.7682 6.48823 15.9778C6.71101 16.1875 6.98621 16.2923 7.31383 16.2923H12.6802C13.0078 16.2923 13.283 16.1875 13.5058 15.9778C13.7417 15.7682 13.8727 15.493 13.8989 15.1522L14.528 5.95275H5.46607L6.11475 15.1522ZM15.9039 4.95024L15.1963 15.2505C15.157 15.9713 14.9014 16.5544 14.4297 17C13.9579 17.4324 13.3682 17.6487 12.6605 17.6487H7.35314C6.64549 17.6487 6.05578 17.4324 5.58401 17C5.12534 16.5544 4.86325 15.9778 4.79773 15.2702L4.10973 4.95024H15.9039Z" fill="currentColor"/>
</svg>
