<svg width="20" height="20" viewBox="0 0 20 20" fill="none" xmlns="http://www.w3.org/2000/svg">
<path d="M13.1126 4.67504H13.1913L11.8349 5.95275H5.46606L5.8592 11.6336L4.64047 12.7737L4.1687 5.95275H3.12688C2.94341 5.95275 2.79271 5.89378 2.67477 5.77583C2.55682 5.64479 2.49785 5.48753 2.49785 5.30407C2.49785 5.1206 2.55682 4.9699 2.67477 4.85196C2.80581 4.73401 2.95652 4.67504 3.12688 4.67504H6.64548L6.62583 3.73151C6.61272 3.27284 6.74377 2.89936 7.01897 2.61105C7.30727 2.32275 7.68075 2.18515 8.13942 2.19826H11.8349C12.2936 2.19826 12.6671 2.34241 12.9554 2.63071C13.2437 2.90591 13.3878 3.27284 13.3878 3.73151V4.43916L13.1126 4.67504ZM9.51541 7.46634C9.51541 7.32219 9.56128 7.20425 9.65301 7.11251C9.74474 7.00767 9.86268 6.95526 10.0068 6.95526C10.1117 6.95526 10.2165 7.02078 10.3213 7.15183L10.1641 7.56462L9.51541 8.2133V7.46634ZM3.18585 17.5307C3.02859 17.6618 2.87134 17.7273 2.71408 17.7273C2.53061 17.7273 2.36681 17.6552 2.22266 17.5111C2.09161 17.38 2.02608 17.2228 2.02608 17.0393C2.02608 16.8296 2.09816 16.6658 2.24231 16.5479L17.1423 2.39483C17.2734 2.26378 17.4241 2.19826 17.5944 2.19826C17.7779 2.19826 17.9352 2.27033 18.0662 2.41448C18.2104 2.54553 18.2824 2.70279 18.2824 2.88625C18.2824 3.09593 18.2104 3.25974 18.0662 3.37768L3.18585 17.5307ZM6.44891 15.8402C6.52754 15.9713 6.64548 16.0892 6.80274 16.1941C6.96 16.2989 7.1107 16.3513 7.25485 16.3513H12.6802C13.0209 16.3513 13.3027 16.2465 13.5254 16.0368C13.7613 15.8271 13.8858 15.5585 13.8989 15.2309L14.3707 8.37056L15.7663 7.01423L15.1963 15.2505C15.1439 15.9713 14.8818 16.5544 14.41 17C13.9513 17.4324 13.3682 17.6487 12.6605 17.6487H7.31382C6.98621 17.6487 6.64548 17.57 6.29166 17.4128C5.93783 17.2555 5.66263 17.059 5.46606 16.8231L6.44891 15.8402ZM12.6802 14.995C12.6802 15.1391 12.6343 15.2571 12.5426 15.3488C12.4509 15.4274 12.3329 15.4667 12.1888 15.4667C12.0315 15.4667 11.907 15.4209 11.8153 15.3291C11.7235 15.2243 11.6842 15.0998 11.6973 14.9557L11.8743 10.7097L12.9161 9.74655L12.6802 14.995ZM10.5179 14.9753C10.5179 15.1195 10.4655 15.2374 10.3607 15.3291C10.2689 15.4209 10.151 15.4667 10.0068 15.4667C9.86268 15.4667 9.74474 15.4209 9.65301 15.3291C9.56128 15.2374 9.51541 15.1195 9.51541 14.9753V12.9506L10.5179 11.9875V14.9753ZM8.35565 14.936C8.36875 15.0933 8.32944 15.2243 8.2377 15.3291C8.14597 15.4209 8.01492 15.4667 7.84456 15.4667C7.6611 15.4667 7.55626 15.4012 7.53005 15.2702L7.51039 14.8574L8.33599 14.0514L8.35565 14.936ZM7.01897 7.486C7.00586 7.32874 7.04518 7.20425 7.13691 7.11251C7.22864 7.00767 7.35314 6.95526 7.51039 6.95526C7.65454 6.95526 7.77249 7.00112 7.86422 7.09286C7.95595 7.18459 8.00837 7.29598 8.02148 7.42702L8.1001 9.39273L7.15657 10.4345L7.01897 7.486ZM8.00182 4.67504H12.0119V3.75116C12.0119 3.64632 11.9791 3.56114 11.9136 3.49562C11.848 3.4301 11.7694 3.39734 11.6777 3.39734H8.31633C8.2246 3.39734 8.14597 3.4301 8.08045 3.49562C8.01492 3.56114 7.98216 3.64632 7.98216 3.75116L8.00182 4.67504Z" fill="currentColor"/>
</svg>
