<svg width="20" height="20" viewBox="0 0 20 20" fill="none" xmlns="http://www.w3.org/2000/svg">
<path fill-rule="evenodd" clip-rule="evenodd" d="M17.2603 4.85195C17.1423 4.73401 16.9851 4.67504 16.7885 4.67504H13.3878V3.75116C13.3878 3.27939 13.2437 2.90591 12.9554 2.63071C12.6671 2.34241 12.2871 2.19826 11.8153 2.19826H8.15908C7.70041 2.19826 7.32693 2.34241 7.03863 2.63071C6.75032 2.91901 6.61273 3.29905 6.62583 3.77082L6.6513 4.67504H3.18585C3.00239 4.67504 2.84513 4.73401 2.71408 4.85195C2.59614 4.9699 2.53717 5.1206 2.53717 5.30407C2.53717 5.48753 2.59614 5.64479 2.71408 5.77583C2.84513 5.89378 3.00239 5.95275 3.18585 5.95275H4.17657L4.79773 15.2702C4.86325 15.9778 5.12534 16.5544 5.58401 17C6.05578 17.4324 6.64549 17.6487 7.35314 17.6487H12.6605C13.3682 17.6487 13.9579 17.4324 14.4297 17C14.9014 16.5544 15.157 15.9713 15.1963 15.2505L15.8351 5.95275H16.7885C16.9851 5.95275 17.1423 5.89378 17.2603 5.77583C17.3913 5.64479 17.4568 5.48753 17.4568 5.30407C17.4568 5.1206 17.3913 4.9699 17.2603 4.85195ZM12.0119 4.67504V3.75116C12.0119 3.64632 11.9791 3.56114 11.9136 3.49562C11.848 3.4301 11.7694 3.39734 11.6777 3.39734H8.31633C8.2246 3.39734 8.14597 3.4301 8.08045 3.49562C8.01493 3.56114 7.98217 3.64632 7.98217 3.75116L7.99536 4.67504H12.0119ZM8.21805 14.877C8.32289 14.7722 8.36875 14.6477 8.35565 14.5035L8.02148 7.82016C8.00837 7.68911 7.9494 7.57772 7.84457 7.48599C7.75283 7.39425 7.64144 7.34839 7.5104 7.34839C7.37935 7.34839 7.26141 7.40081 7.15657 7.50564C7.05173 7.61048 7.00587 7.73498 7.01897 7.87913L7.35314 14.5625C7.36625 14.6936 7.41866 14.805 7.5104 14.8967C7.60213 14.9884 7.71352 15.0343 7.84457 15.0343C7.98872 15.0343 8.11321 14.9819 8.21805 14.877ZM10.3607 14.877C10.4655 14.7853 10.5179 14.6674 10.5179 14.5232V7.85947C10.5179 7.71532 10.4655 7.59738 10.3607 7.50564C10.2689 7.40081 10.151 7.34839 10.0068 7.34839C9.86269 7.34839 9.74474 7.40081 9.65301 7.50564C9.56128 7.59738 9.51541 7.71532 9.51541 7.85947V14.5232C9.51541 14.6674 9.56128 14.7853 9.65301 14.877C9.74474 14.9688 9.86269 15.0146 10.0068 15.0146C10.151 15.0146 10.2689 14.9688 10.3607 14.877ZM12.6802 14.5429C12.6802 14.6739 12.6343 14.7853 12.5426 14.877C12.4509 14.9688 12.3329 15.0146 12.1888 15.0146C12.0446 15.0146 11.9201 14.9688 11.8153 14.877C11.7236 14.7722 11.6842 14.6477 11.6973 14.5035L12.0119 7.83981C12.0119 7.69566 12.0577 7.57772 12.1495 7.48599C12.2543 7.39425 12.3722 7.34839 12.5033 7.34839C12.6474 7.34839 12.7654 7.40081 12.8571 7.50564C12.9619 7.61048 13.0078 7.73498 12.9947 7.87913L12.6802 14.5429Z" fill="currentcolor"/>
</svg>
