<svg width="20" height="20" viewBox="0 0 20 20" fill="none" xmlns="http://www.w3.org/2000/svg">
<path d="M11.6973 8.5868C11.8284 8.48197 11.9725 8.42955 12.1298 8.42955C12.3002 8.42955 12.4443 8.48852 12.5623 8.60646C12.6802 8.7244 12.7392 8.86855 12.7392 9.03892C12.7392 9.22238 12.6736 9.36653 12.5426 9.47137L10.8914 11.0439L12.6212 12.6951C12.7523 12.8262 12.8178 12.9703 12.8178 13.1276C12.8178 13.2979 12.7588 13.4421 12.6409 13.56C12.5229 13.678 12.3788 13.7369 12.2084 13.7369C12.0381 13.7369 11.9005 13.6845 11.7956 13.5797L10.0068 11.8892L8.21805 13.5797C8.087 13.6845 7.94285 13.7369 7.78559 13.7369C7.61523 13.7369 7.47108 13.678 7.35314 13.56C7.2352 13.4421 7.17623 13.2979 7.17623 13.1276C7.17623 12.9703 7.24175 12.8262 7.3728 12.6951L9.12227 11.0439L7.47108 9.47137C7.34003 9.36653 7.27451 9.22238 7.27451 9.03892C7.27451 8.86855 7.33348 8.7244 7.45143 8.60646C7.56937 8.48852 7.71352 8.42955 7.88388 8.42955C8.05424 8.42955 8.19184 8.48197 8.29668 8.5868L10.0068 10.1987L11.6973 8.5868ZM16.7885 4.67506C16.9851 4.67506 17.1423 4.73403 17.2603 4.85197C17.3913 4.96991 17.4568 5.12062 17.4568 5.30408C17.4568 5.48755 17.3913 5.6448 17.2603 5.77585C17.1423 5.89379 16.9851 5.95276 16.7885 5.95276H15.8253L15.1963 15.2505C15.1439 15.9713 14.8818 16.5544 14.41 17C13.9513 17.4325 13.3682 17.6487 12.6605 17.6487H7.35314C6.63238 17.6487 6.03612 17.4325 5.56435 17C5.10569 16.5544 4.85015 15.9778 4.79773 15.2702L4.1687 5.95276H3.18585C3.00239 5.95276 2.84513 5.89379 2.71408 5.77585C2.59614 5.6448 2.53717 5.48755 2.53717 5.30408C2.53717 5.12062 2.59614 4.96991 2.71408 4.85197C2.84513 4.73403 3.00239 4.67506 3.18585 4.67506H6.64549L6.62583 3.73152C6.61273 3.27286 6.74377 2.89937 7.01897 2.61107C7.30727 2.32277 7.68076 2.18517 8.13942 2.19827H11.8349C12.2936 2.19827 12.6671 2.34242 12.9554 2.63073C13.2437 2.90593 13.3878 3.27286 13.3878 3.73152V4.67506H16.7885ZM6.09509 15.1522C6.1213 15.493 6.24579 15.7682 6.46857 15.9778C6.70446 16.1875 6.98621 16.2924 7.31383 16.2924H12.6802C13.0209 16.2924 13.3027 16.1875 13.5254 15.9778C13.7613 15.7551 13.8858 15.4799 13.8989 15.1522L14.528 5.95276H5.46607L6.09509 15.1522ZM8.00182 4.67506H12.0119V3.75118C12.0119 3.64634 11.9791 3.56116 11.9136 3.49564C11.848 3.43011 11.7694 3.39735 11.6777 3.39735H8.31633C8.2246 3.39735 8.14597 3.43011 8.08045 3.49564C8.01493 3.56116 7.98217 3.64634 7.98217 3.75118L8.00182 4.67506Z" fill="currentColor"/>
</svg>
