<svg width="20" height="20" viewBox="0 0 20 20" fill="none" xmlns="http://www.w3.org/2000/svg">
<path d="M7.08076 4.84097C6.93142 4.84097 6.81009 4.88764 6.71676 4.98097C6.62342 5.06497 6.57676 5.1863 6.57676 5.34497V7.34697C6.57676 7.4963 6.62342 7.61764 6.71676 7.71097C6.81009 7.8043 6.93142 7.85097 7.08076 7.85097H12.9748C13.1334 7.85097 13.2548 7.8043 13.3388 7.71097C13.4321 7.61764 13.4788 7.4963 13.4788 7.34697V5.34497C13.4788 5.1863 13.4321 5.06497 13.3388 4.98097C13.2548 4.88764 13.1334 4.84097 12.9748 4.84097H7.08076ZM5.34476 5.17697C5.34476 4.70097 5.48476 4.3183 5.76476 4.02897C6.05409 3.73964 6.43209 3.59497 6.89876 3.59497H13.1428C13.6094 3.59497 13.9874 3.73964 14.2768 4.02897C14.5754 4.30897 14.7248 4.6823 14.7248 5.14897V7.51497C14.7248 7.98164 14.5801 8.3643 14.2908 8.66297C14.0014 8.9523 13.6234 9.09697 13.1568 9.09697H10.6088V9.61497C10.6088 10.007 10.7254 10.329 10.9588 10.581C11.2014 10.833 11.5094 10.959 11.8828 10.959H14.1788C14.3654 10.959 14.5194 11.015 14.6408 11.127C14.7621 11.239 14.8228 11.3836 14.8228 11.561C14.8228 11.7383 14.7621 11.8876 14.6408 12.009C14.5194 12.1303 14.3654 12.191 14.1788 12.191H12.2468C11.9201 12.191 11.6121 12.1256 11.3228 11.995C11.0428 11.855 10.8048 11.659 10.6088 11.407V14.081C10.6088 14.4076 10.7068 14.669 10.9028 14.865C11.0988 15.061 11.3601 15.159 11.6868 15.159H14.1788C14.3654 15.159 14.5148 15.215 14.6268 15.327C14.7481 15.439 14.8088 15.5836 14.8088 15.761C14.8088 15.9476 14.7481 16.1016 14.6268 16.223C14.5148 16.3443 14.3654 16.405 14.1788 16.405H11.6448C10.9728 16.405 10.4268 16.1996 10.0068 15.789C9.59609 15.3876 9.39076 14.851 9.39076 14.179V13.241C9.17609 13.521 8.91009 13.7356 8.59276 13.885C8.28476 14.0343 7.94409 14.109 7.57076 14.109H5.83476C5.63876 14.109 5.48009 14.053 5.35876 13.941C5.23742 13.829 5.17676 13.6843 5.17676 13.507C5.17676 13.3203 5.23742 13.171 5.35876 13.059C5.48009 12.9376 5.63876 12.877 5.83476 12.877H8.06076C8.45276 12.877 8.77009 12.751 9.01276 12.499C9.26476 12.2376 9.39076 11.9063 9.39076 11.505V9.09697H6.91276C6.44609 9.09697 6.06809 8.9523 5.77876 8.66297C5.48942 8.37364 5.34476 7.99564 5.34476 7.52897V5.17697Z" fill="currentcolor"/>
</svg>
