<svg width="20" height="20" viewBox="0 0 20 20" fill="none" xmlns="http://www.w3.org/2000/svg">
<path fill-rule="evenodd" clip-rule="evenodd" d="M10.9185 3.25173C10.5001 2.56259 9.50001 2.56259 9.0816 3.25173L1.85777 15.1498C1.42302 15.8659 1.93853 16.7819 2.77624 16.7819H17.2239C18.0616 16.7819 18.5771 15.8659 18.1424 15.1498L10.9185 3.25173ZM9.32307 7.83137C9.32307 7.45751 9.62614 7.15443 10 7.15443C10.3739 7.15443 10.6769 7.45751 10.6769 7.83137V10.9904C10.6769 11.3643 10.3739 11.6673 10 11.6673C9.62614 11.6673 9.32307 11.3643 9.32307 10.9904V7.83137ZM10.8123 13.3822C10.8123 13.8309 10.4486 14.1945 9.99994 14.1945C9.55131 14.1945 9.18762 13.8309 9.18762 13.3822C9.18762 12.9336 9.55131 12.5699 9.99994 12.5699C10.4486 12.5699 10.8123 12.9336 10.8123 13.3822Z" fill="currentColor"/>
</svg>
