<svg width="20" height="20" viewBox="0 0 20 20" fill="none" xmlns="http://www.w3.org/2000/svg">
<path d="M15.0354 17.2918C15.251 17.2918 15.4255 17.3534 15.559 17.4766C15.7027 17.6101 15.7746 17.7795 15.7746 17.9848C15.7746 18.1902 15.7027 18.3596 15.559 18.493C15.4255 18.6265 15.251 18.6932 15.0354 18.6932H4.93301C4.72768 18.6932 4.55828 18.6265 4.42481 18.493C4.29134 18.3596 4.22461 18.1902 4.22461 17.9848C4.22461 17.7795 4.29134 17.6101 4.42481 17.4766C4.55828 17.3534 4.72768 17.2918 4.93301 17.2918H15.0354ZM9.99961 15.6748C8.95241 15.6748 8.01814 15.4746 7.19681 15.0742C6.37548 14.6738 5.73381 14.1194 5.27181 13.411C4.82008 12.6924 4.59421 11.8762 4.59421 10.9624V1.99964C4.59421 1.79431 4.66094 1.63004 4.79441 1.50684C4.93814 1.37337 5.11781 1.30664 5.33341 1.30664C5.52848 1.30664 5.68761 1.37337 5.81081 1.50684C5.93401 1.63004 5.99561 1.79431 5.99561 1.99964V10.8238C5.99561 11.4912 6.15988 12.0866 6.48841 12.6102C6.82721 13.1338 7.29434 13.5445 7.88981 13.8422C8.48528 14.1297 9.16288 14.2734 9.92261 14.2734C10.6823 14.2734 11.3599 14.1348 11.9554 13.8576C12.5509 13.5702 13.018 13.1698 13.3568 12.6564C13.6956 12.1431 13.865 11.5579 13.865 10.9008V1.99964C13.865 1.79431 13.9317 1.63004 14.0652 1.50684C14.1987 1.37337 14.3629 1.30664 14.558 1.30664C14.7633 1.30664 14.9327 1.37337 15.0662 1.50684C15.1997 1.63004 15.2664 1.79431 15.2664 1.99964V10.8854C15.2664 11.8094 15.0405 12.6359 14.5888 13.3648C14.1473 14.0938 13.5262 14.6584 12.7254 15.0588C11.9246 15.4695 11.016 15.6748 9.99961 15.6748Z" fill="currentColor"/>
</svg>
