<svg width="20" height="20" viewBox="0 0 20 20" fill="none" xmlns="http://www.w3.org/2000/svg">
<path d="M8.2377 11.9481C8.43427 12.1054 8.53256 12.2954 8.53256 12.5182C8.53256 12.6886 8.47359 12.8458 8.35564 12.99C8.2246 13.1603 8.05423 13.2455 7.84456 13.2455C7.6873 13.2455 7.5366 13.1865 7.39245 13.0686L2.65511 8.99959C2.32749 8.7506 2.16368 8.4623 2.16368 8.13468C2.16368 7.80707 2.32094 7.51876 2.63545 7.26977L7.39245 3.20077C7.5366 3.08283 7.6873 3.02386 7.84456 3.02386C8.05423 3.02386 8.2246 3.10248 8.35564 3.25974C8.48669 3.417 8.55221 3.57425 8.55221 3.73151C8.55221 3.95429 8.44737 4.14431 8.2377 4.30156L3.57899 8.11503L8.2377 11.9481ZM12.3657 16.8821C12.1691 16.8821 12.0053 16.8165 11.8742 16.6855C11.7432 16.5544 11.6777 16.3841 11.6777 16.1744C11.6777 15.9778 11.7367 15.8206 11.8546 15.7026C11.9856 15.5847 12.1494 15.5257 12.346 15.5257H12.7785C13.4861 15.5257 14.1151 15.3816 14.6655 15.0933C15.229 14.805 15.6681 14.4118 15.9826 13.9138C16.2971 13.4028 16.4543 12.8327 16.4543 12.2037C16.4543 11.5485 16.2971 10.9653 15.9826 10.4542C15.6681 9.93002 15.229 9.52378 14.6655 9.23548C14.1151 8.94717 13.4861 8.80302 12.7785 8.80302H6.5472L2.98928 8.72439V7.52531L6.52754 7.46634H12.7785C13.7482 7.46634 14.6131 7.66947 15.3732 8.07571C16.1464 8.48196 16.7492 9.04546 17.1816 9.76621C17.6141 10.4739 17.8303 11.2864 17.8303 12.2037C17.8303 13.1079 17.6141 13.9138 17.1816 14.6215C16.7492 15.3292 16.1464 15.8861 15.3732 16.2923C14.6131 16.6855 13.7482 16.8821 12.7785 16.8821H12.3657Z" fill="currentColor"/>
</svg>
