<svg width="20" height="20" viewBox="0 0 20 20" fill="none" xmlns="http://www.w3.org/2000/svg">
<path d="M8.58594 3.5614C11.3955 3.13867 13.869 3.81706 15.6494 4.91589C16.5384 5.46457 17.2655 6.12484 17.7754 6.81824C18.28 7.50465 18.5996 8.26347 18.5996 8.99988C18.5996 9.69133 18.4597 10.2758 18.1855 10.7577C17.9101 11.2416 17.5204 11.5855 17.082 11.827C16.2328 12.2948 15.1707 12.3908 14.293 12.4247C14.2208 12.4275 14.1687 12.4365 14.1328 12.4462C14.1647 12.4966 14.2239 12.5706 14.333 12.6503C15.0258 13.1561 15.8741 14.0016 15.5811 15.1483C15.4097 15.8188 14.9154 16.2986 14.335 16.6278C13.7534 16.9576 13.0262 17.1723 12.2578 17.2977C10.7202 17.5487 8.87907 17.4633 7.35352 17.0819C5.25604 16.5574 3.75729 15.624 2.78418 14.4286C1.81056 13.2323 1.40044 11.8184 1.40039 10.4012C1.40046 7.43273 3.74388 4.28998 8.58594 3.5614ZM15.0195 5.9364C13.4688 4.97927 11.2798 4.36953 8.76465 4.74792C4.40128 5.40448 2.59968 8.12997 2.59961 10.4012C2.59966 11.5824 2.93923 12.7177 3.71484 13.6708C4.49154 14.6249 5.74372 15.4423 7.64551 15.9178C9.01753 16.2608 10.6932 16.337 12.0645 16.1132C12.7506 16.0011 13.3275 15.8196 13.7432 15.5839C14.1596 15.3476 14.3571 15.0932 14.4189 14.8514C14.5058 14.5113 14.3009 14.1118 13.626 13.619C13.1721 13.2876 12.8064 12.7619 12.9229 12.1757C13.0513 11.5295 13.6587 11.2482 14.2471 11.2255C15.1216 11.1917 15.9253 11.0944 16.5029 10.7762C16.7778 10.6248 16.9926 10.4276 17.1426 10.1639C17.2938 9.89805 17.4004 9.5276 17.4004 8.99988C17.4004 8.6026 17.2199 8.08874 16.8086 7.52917C16.4021 6.97633 15.7961 6.41569 15.0195 5.9364ZM14.5273 7.40222C15.0795 7.40242 15.5273 7.85006 15.5273 8.40222C15.5273 8.9543 15.0794 9.40202 14.5273 9.40222C13.9751 9.40222 13.5274 8.95443 13.5273 8.40222C13.5273 7.84994 13.9751 7.40222 14.5273 7.40222ZM7.49707 6.99988C8.04933 6.99988 8.49703 7.44763 8.49707 7.99988C8.49707 8.55216 8.04936 8.99988 7.49707 8.99988C6.9448 8.99986 6.49707 8.55215 6.49707 7.99988C6.49711 7.44764 6.94483 6.9999 7.49707 6.99988ZM11 6.49988C11.5523 6.49988 12 6.94762 12 7.49988C12 8.05216 11.5523 8.49988 11 8.49988C10.4477 8.49986 10 8.05215 10 7.49988C10 6.94763 10.4478 6.49989 11 6.49988Z" fill="currentColor"/>
</svg>
