<svg width="20" height="20" viewBox="0 0 20 20" fill="none" xmlns="http://www.w3.org/2000/svg">
<path d="M5.0658 6.3183C2.86635 6.3183 1.08334 8.1013 1.08334 10.3008C1.08334 12.5002 2.86635 14.2832 5.0658 14.2832C6.08485 14.2832 7.06731 13.9034 7.82135 13.2179L9.75877 11.4566L8.72857 10.5201L6.88904 12.1924C6.39013 12.6459 5.74007 12.8972 5.0658 12.8972C3.6318 12.8972 2.46931 11.7348 2.46931 10.3008C2.46931 8.86675 3.6318 7.70426 5.0658 7.70426C5.74007 7.70426 6.39013 7.95558 6.88904 8.40914L12.1886 13.2269C12.9413 13.9067 13.9196 14.2832 14.9342 14.2832C17.1337 14.2832 18.9167 12.5002 18.9167 10.3008C18.9167 8.1013 17.1337 6.3183 14.9342 6.3183C13.9152 6.3183 12.9327 6.69813 12.1787 7.38361L10.2413 9.1449L11.2715 10.0814L13.111 8.40914C13.6099 7.95558 14.26 7.70426 14.9342 7.70426C16.3682 7.70426 17.5307 8.86675 17.5307 10.3008C17.5307 11.7348 16.3682 12.8972 14.9342 12.8972C14.265 12.8972 13.6196 12.6497 13.1222 12.2025L13.1188 12.1994L13.111 12.1924L7.82135 7.38361C7.06731 6.69813 6.08485 6.3183 5.0658 6.3183Z" fill="currentColor"/>
</svg>
