<svg width="20" height="20" viewBox="0 0 20 20" fill="none" xmlns="http://www.w3.org/2000/svg">
<path d="M13.5648 12.302C13.6958 12.433 13.7613 12.5903 13.7613 12.7737C13.7613 12.9441 13.6958 13.0948 13.5648 13.2259C13.4468 13.3569 13.2961 13.4224 13.1127 13.4224C12.9554 13.4224 12.8047 13.3635 12.6605 13.2455L9.55473 10.238V5.87413C9.55473 5.69067 9.62026 5.53996 9.7513 5.42202C9.88235 5.29097 10.0331 5.22545 10.2034 5.22545C10.3869 5.22545 10.5376 5.29097 10.6555 5.42202C10.7866 5.53996 10.8521 5.69067 10.8521 5.87413V9.68759L13.5648 12.302ZM4.9943 13.1865C5.28261 13.7238 5.70196 14.2218 6.25235 14.6805C6.81585 15.126 7.44488 15.4799 8.13943 15.742C8.83398 15.9909 9.52197 16.1154 10.2034 16.1154C11.3566 16.1154 12.4116 15.8402 13.3682 15.2898C14.3248 14.7394 15.0784 13.9925 15.6288 13.0489C16.1923 12.1054 16.474 11.0636 16.474 9.92348C16.474 8.78337 16.1923 7.74155 15.6288 6.79801C15.0784 5.85447 14.3248 5.10751 13.3682 4.55711C12.4116 4.00672 11.3566 3.73152 10.2034 3.73152C9.24677 3.73152 8.35565 3.92153 7.53006 4.30157C6.71757 4.68161 6.02957 5.21235 5.46607 5.89379C4.91568 6.56213 4.5553 7.3222 4.38494 8.174H5.62333C5.78059 8.174 5.85921 8.22642 5.85921 8.33126C5.85921 8.38368 5.83956 8.44265 5.80024 8.50817L3.83454 11.3978C3.78212 11.4895 3.71005 11.5354 3.61831 11.5354C3.53968 11.5354 3.46106 11.4895 3.38243 11.3978L1.35776 8.48852C1.30534 8.40989 1.27913 8.35092 1.27913 8.3116C1.27913 8.21987 1.35776 8.174 1.51501 8.174H3.04826C3.21862 7.07321 3.63797 6.08381 4.30631 5.20579C4.97465 4.32778 5.8199 3.63978 6.84206 3.14181C7.87733 2.63072 8.99778 2.37518 10.2034 2.37518C11.6056 2.37518 12.8899 2.70935 14.0562 3.37769C15.2356 4.04603 16.1595 4.9568 16.8278 6.11002C17.5093 7.26323 17.85 8.53438 17.85 9.92348C17.85 11.3126 17.5093 12.5837 16.8278 13.7369C16.1595 14.8902 15.2356 15.8009 14.0562 16.4693C12.8899 17.1376 11.6056 17.4718 10.2034 17.4718C9.37782 17.4718 8.53912 17.3145 7.68732 17C6.83551 16.6724 6.06234 16.2268 5.36779 15.6633C4.67324 15.0998 4.14905 14.4839 3.79523 13.8156C3.74281 13.7238 3.7166 13.6256 3.7166 13.5207C3.7166 13.2717 3.82799 13.0752 4.05077 12.931C4.1425 12.8786 4.25389 12.8524 4.38494 12.8524C4.64703 12.8524 4.85015 12.9638 4.9943 13.1865Z" fill="currentColor"/>
</svg>
