<svg width="20" height="20" viewBox="0 0 20 20" fill="none" xmlns="http://www.w3.org/2000/svg">
<path fill-rule="evenodd" clip-rule="evenodd" d="M9.96752 17.4718C8.57842 17.4718 7.30727 17.1376 6.15406 16.4693C5.00085 15.8009 4.08352 14.8967 3.40207 13.7566C2.73374 12.6034 2.39957 11.3322 2.39957 9.94314C2.39957 8.54094 2.73374 7.26323 3.40207 6.11002C4.08352 4.9437 5.00085 4.02638 6.15406 3.35804C7.30727 2.6897 8.57842 2.35553 9.96752 2.35553C11.3697 2.35553 12.654 2.6897 13.8203 3.35804C14.9866 4.02638 15.9039 4.9437 16.5723 6.11002C17.2537 7.26323 17.5944 8.54094 17.5944 9.94314C17.5944 11.3322 17.2537 12.6034 16.5723 13.7566C15.9039 14.8967 14.9866 15.8009 13.8203 16.4693C12.654 17.1376 11.3697 17.4718 9.96752 17.4718ZM9.51541 11.0832C9.38436 10.9522 9.31884 10.7949 9.31884 10.6115V6.22797C9.31884 6.0445 9.38436 5.88724 9.51541 5.7562C9.64646 5.62515 9.80371 5.55963 9.98718 5.55963C10.1706 5.55963 10.3279 5.62515 10.4589 5.7562C10.6031 5.88724 10.6752 6.0445 10.6752 6.22797V10.6115C10.6752 10.7949 10.6097 10.9522 10.4786 11.0832C10.3476 11.2274 10.1837 11.2995 9.98718 11.2995C9.80371 11.2995 9.64646 11.2274 9.51541 11.0832ZM9.27953 12.6951C9.46299 12.5117 9.68577 12.4199 9.94787 12.4199C10.2362 12.4199 10.4721 12.5117 10.6555 12.6951C10.8521 12.8786 10.9504 13.1145 10.9504 13.4028C10.9504 13.6649 10.8586 13.8876 10.6752 14.0711C10.4917 14.2546 10.2624 14.3463 9.98718 14.3463C9.72509 14.3463 9.49575 14.2546 9.29918 14.0711C9.11572 13.8876 9.02399 13.6649 9.02399 13.4028C9.02399 13.1276 9.10917 12.8917 9.27953 12.6951Z" fill="currentColor"/>
</svg>
