<svg width="24" height="24" viewBox="0 0 24 24" fill="none" xmlns="http://www.w3.org/2000/svg">
<path d="M9.38332 14.1762C9.29671 14.22 9.19899 14.2453 9.09519 14.2453C8.85527 14.2453 8.64662 14.1131 8.53712 13.9179L8.49514 13.8258L6.74745 9.991C6.7286 9.94912 6.7168 9.90214 6.7168 9.85633C6.7168 9.67952 6.86007 9.53612 7.03688 9.53612C7.10869 9.53612 7.1749 9.55987 7.22847 9.59969L9.29064 11.0679C9.44142 11.1667 9.62133 11.2244 9.81482 11.2244C9.93055 11.2244 10.0405 11.2029 10.1433 11.1655L19.8419 6.84884C18.1037 4.80005 15.2404 3.46094 12.0003 3.46094C6.6983 3.46094 2.40039 7.04258 2.40039 11.4608C2.40039 13.8716 3.69357 16.0413 5.71743 17.5078C5.8799 17.6236 5.98607 17.814 5.98607 18.029C5.98607 18.0999 5.97081 18.1652 5.95244 18.2329C5.79078 18.836 5.53192 19.8013 5.51986 19.8466C5.49971 19.9222 5.46809 20.0013 5.46809 20.0805C5.46809 20.2572 5.61149 20.4005 5.7883 20.4005C5.85796 20.4005 5.9145 20.3747 5.9732 20.3409L8.07486 19.1277C8.23292 19.0363 8.40031 18.9799 8.58462 18.9799C8.68269 18.9799 8.77752 18.995 8.86689 19.0223C9.84727 19.3043 10.9051 19.461 12.0003 19.461C17.3021 19.461 21.6004 15.8793 21.6004 11.4609C21.6004 10.1228 21.2039 8.86236 20.5069 7.75386L9.45333 14.1357L9.38332 14.1762Z" fill="#00C800"/>
</svg>
