<svg width="20" height="20" viewBox="0 0 20 20" fill="none" xmlns="http://www.w3.org/2000/svg">
<path d="M14.5 3C15.8807 3 17 4.11929 17 5.5V10.8203C16.6535 10.4795 16.1413 10.3847 15.7002 10.5322V6.5C15.7001 5.94781 15.2524 5.50002 14.7002 5.5L4.2998 5.50098C3.74767 5.50116 3.2998 5.94881 3.2998 6.50098V13.7002C3.29991 14.2523 3.74774 14.7 4.2998 14.7002H12.4141C12.5313 15.0128 12.7716 15.2852 13.1396 15.4277L14.4209 15.9365L14.4463 16H4.5C3.11936 15.9999 2 14.8807 2 13.5V5.5C2 4.11934 3.11936 3.00008 4.5 3H14.5ZM10 10.5C10.2761 10.5 10.5 10.7239 10.5 11C10.5 11.2761 10.2761 11.5 10 11.5H6C5.72393 11.4999 5.5 11.2761 5.5 11C5.5 10.7239 5.72393 10.5001 6 10.5H10ZM13 7.5C13.2761 7.5 13.5 7.72386 13.5 8C13.5 8.27614 13.2761 8.5 13 8.5H6C5.72393 8.49992 5.5 8.27609 5.5 8C5.5 7.72391 5.72393 7.50008 6 7.5H13Z" fill="currentcolor"/>
<path d="M15.8636 11.634C15.9517 11.4062 16.2751 11.4062 16.3633 11.634L16.9989 13.2397C17.021 13.2948 17.0651 13.3389 17.1202 13.3609L18.7259 13.9966C18.9537 14.0848 18.9537 14.4081 18.7259 14.4963L17.1202 15.132C17.0651 15.154 17.021 15.1981 16.9989 15.2532L16.3633 16.8589C16.2751 17.0868 15.9517 17.0868 15.8636 16.8589L15.2279 15.2532C15.2058 15.1981 15.1618 15.154 15.1066 15.132L13.5009 14.4963C13.2731 14.4081 13.2731 14.0848 13.5009 13.9966L15.1066 13.3609C15.1618 13.3389 15.2058 13.2948 15.2279 13.2397L15.8636 11.634Z" fill="currentcolor"/>
</svg>
