<svg width="20" height="20" viewBox="0 0 20 20" fill="none" xmlns="http://www.w3.org/2000/svg">
<path d="M8.85251 12.5348C8.33595 12.5348 8.03339 12.2413 8.03339 11.7145V11.105C5.86387 10.9545 3.70169 10.503 1.45834 9.63766V8.39603C4.21825 9.63011 6.98552 10.0666 9.99635 10.0666C13.0145 10.0666 15.7818 9.63011 18.5417 8.39603V9.63766C16.2983 10.503 14.1362 10.9545 11.9666 11.105V11.7145C11.9666 12.2413 11.6641 12.5348 11.1475 12.5348H8.85251ZM3.73858 17.5388H16.2615C17.789 17.5388 18.5417 16.7863 18.5417 15.2437V7.92195C18.5417 6.37935 17.789 5.62685 16.2615 5.62685H3.73858C2.21842 5.62685 1.45834 6.37935 1.45834 7.92195V15.2437C1.45834 16.7863 2.21842 17.5388 3.73858 17.5388ZM6.25496 6.28152H7.39879V4.94961C7.39879 4.37772 7.73086 4.05414 8.30644 4.05414H11.6936C12.2692 4.05414 12.5939 4.37772 12.5939 4.94961V6.26648H13.7377V5.03238C13.7377 3.6177 13.0071 2.95551 11.6714 2.95551H8.32122C7.05931 2.95551 6.25496 3.6177 6.25496 5.03238V6.28152Z" fill="currentcolor"/>
</svg>
