<svg xmlns="http://www.w3.org/2000/svg" width="20" height="20" viewBox="0 0 20 20" fill="none">
  <path d="M10.0062 16.8883C8.72751 16.8883 7.55617 16.5803 6.49217 15.9643C5.43751 15.3576 4.60217 14.527 3.98617 13.4723C3.37951 12.4176 3.07617 11.2603 3.07617 10.0003C3.07617 8.73097 3.37951 7.57364 3.98617 6.52831C4.60217 5.47364 5.43751 4.64297 6.49217 4.03631C7.55617 3.42031 8.72751 3.1123 10.0062 3.1123C11.2755 3.1123 12.4375 3.42031 13.4922 4.03631C14.5468 4.64297 15.3822 5.47364 15.9982 6.52831C16.6142 7.57364 16.9222 8.73097 16.9222 10.0003C16.9222 11.2603 16.6142 12.4176 15.9982 13.4723C15.3822 14.527 14.5468 15.3576 13.4922 15.9643C12.4375 16.5803 11.2755 16.8883 10.0062 16.8883ZM10.0062 10.8683L12.2882 13.1503C12.4188 13.281 12.5728 13.3463 12.7502 13.3463C12.9182 13.3463 13.0628 13.2856 13.1842 13.1643C13.2775 13.071 13.3242 12.945 13.3242 12.7863C13.3242 12.5996 13.2588 12.441 13.1282 12.3103L10.8462 10.0003L13.1702 7.71831C13.3008 7.59697 13.3662 7.44764 13.3662 7.27031C13.3662 7.09297 13.3008 6.94364 13.1702 6.82231C13.0582 6.7103 12.9275 6.6543 12.7782 6.6543C12.6008 6.6543 12.4422 6.72431 12.3022 6.86431L10.0062 9.16031L7.71017 6.86431C7.57951 6.74297 7.42084 6.68231 7.23417 6.68231C7.10351 6.68231 6.98684 6.72431 6.88417 6.80831C6.72551 6.93897 6.64617 7.09764 6.64617 7.28431C6.64617 7.44297 6.71151 7.58764 6.84217 7.71831L9.15217 10.0003L6.82817 12.3103C6.70684 12.4316 6.64617 12.581 6.64617 12.7583C6.64617 12.9263 6.70217 13.0663 6.81417 13.1783C6.92617 13.2996 7.06617 13.3603 7.23417 13.3603C7.41151 13.3603 7.56551 13.295 7.69617 13.1643L10.0062 10.8683Z" fill="currentcolor"/>
</svg>
