<svg width="20" height="20" viewBox="0 0 20 20" fill="none" xmlns="http://www.w3.org/2000/svg">
<path d="M9.99269 11.8666C10.8763 11.8666 11.5927 11.1503 11.5927 10.2666C11.5927 9.38299 10.8763 8.66665 9.99269 8.66665C9.10903 8.66665 8.39269 9.38299 8.39269 10.2666C8.39269 11.1503 9.10903 11.8666 9.99269 11.8666Z" fill="currentcolor"/>
<path d="M10.1602 2.30723H10.167C11.1721 2.345 12.1057 2.78324 12.8096 3.46544L12.7266 3.46934C12.2886 3.49683 11.8498 3.5861 11.4258 3.73399C11.0801 3.60764 10.7097 3.54225 10.3301 3.55626L10.1494 3.56895C10.1443 3.56939 10.1395 3.56945 10.1357 3.56993C10.1308 3.57053 10.126 3.57043 10.123 3.5709C8.73029 3.68068 7.57987 4.88693 7.50684 6.25254V6.54063L7.50781 6.55235C7.51071 6.58928 7.51268 6.61913 7.5127 6.64415C7.51264 7.01324 7.31491 7.33515 7.02539 7.50743L7.02441 7.5084C6.89123 7.58877 6.73556 7.63523 6.56934 7.64024H6.54004C6.0934 7.6401 5.71049 7.33015 5.59766 6.90098V6.89903L5.57324 6.77598C5.56807 6.73579 5.56478 6.69377 5.56445 6.65098C5.56715 6.60684 5.57057 6.5612 5.57324 6.51622L5.57715 6.45958L5.57812 6.44883C5.60116 6.15909 5.65093 5.87534 5.72754 5.60411L5.72852 5.60313C5.7986 5.35187 5.89063 5.11036 6.00195 4.87657C6.60866 3.59639 7.78989 2.63408 9.15723 2.37071L9.1582 2.37169C9.48183 2.31011 9.81779 2.28676 10.1602 2.30723Z" fill="currentcolor"/>
<path d="M4.50391 5.64065C4.40296 6.03638 4.35028 6.44538 4.34766 6.86233C4.06002 7.21782 3.8481 7.63868 3.74609 8.10549C3.71599 8.22494 3.69298 8.34586 3.67969 8.46975C3.5242 9.82322 4.37222 11.2103 5.66602 11.5762C5.66765 11.5767 5.6702 11.5777 5.67188 11.5781L5.68262 11.5821L5.69238 11.584C5.69865 11.5859 5.70648 11.5897 5.71582 11.5918L5.80371 11.6162C6.15093 11.7322 6.39239 12.0253 6.45801 12.3682L6.45898 12.374C6.49235 12.5311 6.48395 12.7033 6.42969 12.875C6.29257 13.306 5.89998 13.5714 5.4873 13.5625H5.48145C5.43792 13.5625 5.39228 13.5587 5.3457 13.5508L5.20312 13.5147C5.18937 13.5095 5.17455 13.5035 5.15625 13.4961L5.08008 13.4668L5.04199 13.4502L4.85059 13.3633C4.67262 13.2773 4.50229 13.1803 4.34082 13.0723L4.33887 13.0703C4.10725 12.918 3.89141 12.7428 3.69629 12.5508L3.53125 12.3809C2.78338 11.5681 2.33364 10.4896 2.30176 9.38284V9.14456C2.31258 8.66329 2.40281 8.17979 2.58301 7.71389L2.58594 7.70706C2.94119 6.71398 3.66736 5.92705 4.55176 5.46096C4.53476 5.52039 4.51873 5.58042 4.50391 5.64065Z" fill="currentcolor"/>
<path d="M3.98926 14.2725C4.31978 14.4889 4.6784 14.6636 5.05566 14.794C5.29512 15.1624 5.61233 15.4817 6.00391 15.7168C6.09976 15.7777 6.20027 15.8352 6.30762 15.8848C7.53194 16.4668 9.0967 16.0712 9.84082 14.9346C9.85327 14.9198 9.86298 14.9076 9.86816 14.8994C9.87245 14.8926 9.87517 14.8859 9.87793 14.8809L9.87891 14.8819C9.89156 14.86 9.90616 14.836 9.92773 14.8037C10.1611 14.4828 10.5461 14.346 10.9014 14.419C11.032 14.4456 11.1631 14.5016 11.2822 14.5889L11.4082 14.6992C11.6753 14.9776 11.7584 15.3951 11.6201 15.7569L11.6182 15.7617C11.5913 15.8356 11.5523 15.9095 11.5029 15.9795C11.4869 16.0007 11.4703 16.0193 11.4551 16.0381L11.376 16.1328C11.198 16.3444 11.0037 16.5343 10.7949 16.7031L10.793 16.7041C10.5854 16.8747 10.3638 17.0217 10.1299 17.1485L10.1289 17.1494C8.99282 17.7703 7.61912 17.8787 6.42285 17.4112C6.01768 17.252 5.63394 17.0287 5.28613 16.7373L5.28027 16.7324C4.46906 16.0846 3.96143 15.1426 3.79688 14.1436C3.85975 14.1883 3.92424 14.2309 3.98926 14.2725Z" fill="currentcolor"/>
<path d="M14.3955 10.4186C14.7741 10.138 15.2872 10.1767 15.6211 10.4889L15.6221 10.4899C15.6661 10.5306 15.7088 10.5783 15.749 10.6334L15.8164 10.7399C15.8229 10.7512 15.8293 10.7622 15.834 10.7701C15.8403 10.7808 15.8452 10.7884 15.8486 10.7945L15.8525 10.8014C16.0088 11.0623 16.1354 11.3365 16.2324 11.6178C16.3133 11.8485 16.3741 12.0851 16.416 12.3248C16.6699 13.7635 16.2402 15.2943 15.2275 16.3317C15.019 16.5456 14.7876 16.7371 14.5312 16.9039L14.5254 16.9078C13.7 17.4747 12.7062 17.6798 11.7559 17.5582C11.8053 17.5197 11.8553 17.482 11.9033 17.442L11.9053 17.4401C12.2346 17.1607 12.5277 16.8376 12.7812 16.4762C13.1581 16.3525 13.5119 16.1542 13.8193 15.8766L13.8203 15.8776C13.8255 15.873 13.836 15.8622 13.8496 15.8492L13.8516 15.8512C14.9055 14.9309 15.1386 13.2744 14.4111 12.1276L14.2529 11.9059C14.2511 11.9035 14.2476 11.8991 14.2451 11.8961L14.2432 11.8932L14.2295 11.8795L14.1865 11.8229L14.1816 11.8151L14.1025 11.6852C13.9435 11.3713 13.9614 10.9977 14.1367 10.7047L14.1377 10.7037C14.2008 10.5973 14.2876 10.4993 14.3955 10.4186Z" fill="currentcolor"/>
<path d="M13.6709 15.6451L13.6543 15.6276V15.6256L13.6709 15.6451Z" fill="currentcolor"/>
<path d="M13.1708 4.70202C13.4023 4.69654 13.6336 4.71115 13.8622 4.74402C15.3525 4.95229 16.7066 5.92221 17.3251 7.33874C17.4153 7.54465 17.4904 7.76236 17.5467 7.98523L17.6044 8.21179C17.8004 9.1023 17.6844 10.0225 17.327 10.829L17.3026 10.7626C17.1344 10.3298 16.906 9.91686 16.6171 9.53796C16.6168 9.19146 16.56 8.84424 16.4354 8.51062C16.4174 8.45936 16.3964 8.40959 16.3798 8.36999C15.8445 7.00054 14.2699 6.23096 12.9237 6.67663L12.7938 6.72351C12.7816 6.72826 12.772 6.73307 12.7674 6.73523C12.7329 6.74857 12.712 6.75682 12.6883 6.76452L12.6874 6.7655C12.3196 6.88743 11.9345 6.77589 11.6854 6.50867L11.6835 6.50671L11.6131 6.42468C11.5475 6.3379 11.4949 6.23825 11.4598 6.12781C11.3131 5.66328 11.5142 5.17258 11.909 4.94617L11.9159 4.94226C11.9625 4.91375 12.0168 4.88829 12.0809 4.86609C12.1018 4.86062 12.1225 4.85639 12.1405 4.85144C12.1567 4.84699 12.1713 4.84249 12.1854 4.83874C12.2177 4.83258 12.2496 4.82382 12.2674 4.81921C12.5653 4.74676 12.8677 4.70892 13.1708 4.70202Z" fill="currentcolor"/>
</svg>
