<svg width="20" height="20" viewBox="0 0 20 20" fill="none" xmlns="http://www.w3.org/2000/svg">
<path d="M3.40285 13.1717C3.61804 13.3766 3.85117 13.5634 4.10011 13.7225C4.43067 13.9389 4.79118 14.1104 5.17238 14.2322C5.39041 14.5948 5.68829 14.9065 6.06105 15.1287C6.14683 15.1832 6.23277 15.2317 6.32277 15.2732C7.40158 15.7877 8.78402 15.4264 9.41847 14.4275C9.42269 14.4247 9.42542 14.4186 9.42824 14.4129C9.44652 14.3813 9.46768 14.3497 9.48878 14.3182C9.78411 13.9069 10.278 13.7286 10.7378 13.823C10.9065 13.8574 11.0727 13.9286 11.2232 14.0389C11.6888 14.3814 11.8526 14.9966 11.6528 15.5184C11.6163 15.6187 11.5642 15.7162 11.4995 15.8064C11.4714 15.8437 11.4426 15.879 11.4116 15.9148C11.3976 15.9335 11.3808 15.9523 11.3667 15.9695L11.3657 15.9685C11.1801 16.1892 10.9773 16.387 10.7593 16.5633C10.5414 16.7423 10.3092 16.8953 10.0659 17.0271C8.88577 17.6721 7.45608 17.7874 6.20558 17.2986C5.78239 17.1324 5.38029 16.8987 5.01613 16.5935C3.96959 15.7579 3.41129 14.4631 3.40285 13.1717Z" fill="url(#paint0_linear_3884_10654)"/>
<path d="M13.9116 9.97245C14.3969 9.61278 15.0538 9.66484 15.48 10.0633C15.5403 10.1191 15.5955 10.1817 15.646 10.2517C15.6727 10.2904 15.6983 10.3308 15.7222 10.3709C15.7334 10.391 15.7461 10.4114 15.7573 10.4314C15.9205 10.7037 16.0526 10.9892 16.1538 11.283L16.2114 11.4627C16.2669 11.6448 16.3106 11.8294 16.3433 12.0164C16.6063 13.5056 16.1637 15.0939 15.106 16.1775C14.888 16.401 14.646 16.6014 14.3775 16.7762C13.3028 17.5143 11.9636 17.6677 10.7778 17.3123C11.0211 17.1747 11.2518 17.0114 11.4683 16.8309C11.7959 16.5529 12.0869 16.2304 12.3316 15.865C12.6973 15.759 13.04 15.5755 13.3325 15.3103C13.3421 15.302 13.3503 15.2947 13.3599 15.285H13.3628C14.346 14.4264 14.5063 12.8296 13.7173 11.8406C13.7145 11.8378 13.712 11.8318 13.7066 11.8289C13.6841 11.8003 13.6602 11.7715 13.6392 11.74C13.3353 11.3143 13.3293 10.7595 13.5825 10.3367C13.6641 10.1991 13.7752 10.0742 13.9116 9.97245Z" fill="url(#paint1_linear_3884_10654)"/>
<path d="M4.99367 4.84159C4.88115 5.0924 4.79122 5.35341 4.72511 5.62284C4.62383 6.01987 4.57257 6.4299 4.5796 6.84843C4.29135 7.17948 4.08246 7.57954 3.98683 8.02519C3.96013 8.13114 3.94047 8.23564 3.92921 8.34159C3.79137 9.54127 4.55479 10.7594 5.67726 11.0633C5.68148 11.0647 5.68726 11.0682 5.69289 11.0682C5.72794 11.0767 5.76428 11.087 5.79933 11.0984C6.24383 11.2461 6.55032 11.6202 6.63332 12.0545C6.67687 12.2594 6.66565 12.4787 6.59816 12.6922C6.42506 13.2367 5.92568 13.5777 5.39406 13.5662C5.27462 13.5662 5.15217 13.5443 5.03273 13.5057C4.98932 13.4899 4.94724 13.4716 4.90382 13.4559C4.88273 13.4473 4.86144 13.4385 4.84035 13.4285C4.58575 13.3196 4.34471 13.1894 4.11964 13.0389C3.87781 12.8798 3.65263 12.6975 3.44875 12.4969C2.51212 11.5796 1.96776 10.2797 2.00148 8.95976C2.01273 8.45826 2.10706 7.95377 2.29542 7.46659C2.75117 6.19237 3.78818 5.24722 4.99367 4.84159Z" fill="url(#paint2_linear_3884_10654)"/>
<path d="M9.79347 8.4998C10.6548 8.50003 11.353 9.19891 11.353 10.0603C11.353 10.9217 10.6548 11.6197 9.79347 11.6199C8.93192 11.6199 8.23296 10.9219 8.23292 10.0603C8.23292 9.19877 8.9319 8.4998 9.79347 8.4998Z" fill="url(#paint3_linear_3884_10654)"/>
<path d="M12.8843 4.34257C13.1262 4.33684 13.3688 4.35114 13.6079 4.38554C15.1566 4.60201 16.5648 5.60953 17.2105 7.08866C17.3046 7.30351 17.3828 7.53001 17.4419 7.76347H17.4439C17.7941 9.01332 17.5376 10.3369 16.8638 11.3689C16.8103 11.1238 16.7394 10.8838 16.648 10.6502C16.482 10.2232 16.2539 9.81778 15.9614 9.45097C15.9741 9.11139 15.9216 8.77037 15.7993 8.44511C15.7853 8.40498 15.7684 8.36415 15.7515 8.32402C15.2703 7.08151 13.8114 6.41193 12.6314 6.87773C12.6271 6.87917 12.6213 6.88269 12.6157 6.88554C12.5822 6.89836 12.5471 6.91222 12.5122 6.92362C12.041 7.07986 11.5469 6.93663 11.229 6.5955C11.1026 6.4623 11.0039 6.2992 10.9448 6.11308C10.7606 5.52972 11.0111 4.90847 11.5161 4.61894C11.5864 4.57598 11.6626 4.54361 11.7427 4.5164C11.7877 4.50493 11.8315 4.49173 11.8765 4.48027C11.8987 4.476 11.9197 4.47032 11.9419 4.46464C12.254 4.38871 12.5694 4.34976 12.8843 4.34257Z" fill="url(#paint4_linear_3884_10654)"/>
<path d="M9.97414 2.00761C11.2711 2.05634 12.4463 2.73567 13.2017 3.73612C12.9625 3.71319 12.72 3.70962 12.478 3.72538C12.0421 3.75263 11.6042 3.84411 11.1851 4.00175C10.8069 3.84708 10.3951 3.77815 9.97609 3.82109C9.96771 3.82109 9.95908 3.82398 9.9507 3.82402C8.73475 3.9154 7.72599 4.97418 7.66164 6.16093V6.41679C7.66444 6.45248 7.66748 6.49099 7.6675 6.52812C7.6675 6.99382 7.41868 7.40253 7.05031 7.62187C6.86754 7.73217 6.6536 7.79368 6.42726 7.79374C5.85213 7.79374 5.36833 7.39439 5.22609 6.85429C5.19796 6.75112 5.18313 6.64034 5.18312 6.52714C5.18593 6.48127 5.1891 6.43381 5.19191 6.38652C5.19331 6.36227 5.19498 6.33947 5.19777 6.31523C5.22167 6.01435 5.2739 5.71904 5.35402 5.43534C5.42716 5.17305 5.52285 4.92172 5.6382 4.67948C6.26699 3.35232 7.49342 2.35018 8.92531 2.07499C9.26413 2.01055 9.61564 1.98615 9.97414 2.00761Z" fill="url(#paint5_linear_3884_10654)"/>
<defs>
<linearGradient id="paint0_linear_3884_10654" x1="8.10776" y1="3.3888" x2="14.7246" y2="12.7812" gradientUnits="userSpaceOnUse">
<stop stop-color="#B553F9"/>
<stop offset="0.515625" stop-color="#864CFF"/>
<stop offset="1" stop-color="#8969EF"/>
</linearGradient>
<linearGradient id="paint1_linear_3884_10654" x1="8.10776" y1="3.3888" x2="14.7246" y2="12.7812" gradientUnits="userSpaceOnUse">
<stop stop-color="#B553F9"/>
<stop offset="0.515625" stop-color="#864CFF"/>
<stop offset="1" stop-color="#8969EF"/>
</linearGradient>
<linearGradient id="paint2_linear_3884_10654" x1="8.10776" y1="3.3888" x2="14.7246" y2="12.7812" gradientUnits="userSpaceOnUse">
<stop stop-color="#B553F9"/>
<stop offset="0.515625" stop-color="#864CFF"/>
<stop offset="1" stop-color="#8969EF"/>
</linearGradient>
<linearGradient id="paint3_linear_3884_10654" x1="8.10776" y1="3.3888" x2="14.7246" y2="12.7812" gradientUnits="userSpaceOnUse">
<stop stop-color="#B553F9"/>
<stop offset="0.515625" stop-color="#864CFF"/>
<stop offset="1" stop-color="#8969EF"/>
</linearGradient>
<linearGradient id="paint4_linear_3884_10654" x1="8.10776" y1="3.3888" x2="14.7246" y2="12.7812" gradientUnits="userSpaceOnUse">
<stop stop-color="#B553F9"/>
<stop offset="0.515625" stop-color="#864CFF"/>
<stop offset="1" stop-color="#8969EF"/>
</linearGradient>
<linearGradient id="paint5_linear_3884_10654" x1="8.10776" y1="3.3888" x2="14.7246" y2="12.7812" gradientUnits="userSpaceOnUse">
<stop stop-color="#B553F9"/>
<stop offset="0.515625" stop-color="#864CFF"/>
<stop offset="1" stop-color="#8969EF"/>
</linearGradient>
</defs>
</svg>
