<svg width="20" height="20" viewBox="0 0 20 20" fill="none" xmlns="http://www.w3.org/2000/svg">
<path d="M3.60221 13.3712C3.81742 13.5761 4.05147 13.7628 4.30045 13.9219C4.63084 14.1382 4.99077 14.3099 5.37174 14.4317C5.58977 14.7943 5.88863 15.106 6.26139 15.3282C6.34707 15.3826 6.4332 15.4312 6.52311 15.4727C7.60194 15.987 8.98449 15.6259 9.61881 14.627C9.62294 14.6241 9.6258 14.618 9.62857 14.6124C9.64677 14.581 9.66815 14.55 9.68912 14.5186C9.98451 14.1073 10.4782 13.9279 10.9381 14.0225C11.1069 14.0569 11.273 14.128 11.4235 14.2383C11.8891 14.5809 12.0519 15.1961 11.8522 15.7178C11.8156 15.8182 11.7636 15.9156 11.6989 16.0059C11.6708 16.0432 11.6429 16.0795 11.612 16.1153C11.598 16.1338 11.581 16.152 11.567 16.169L11.5651 16.168C11.3796 16.3886 11.1775 16.5866 10.9596 16.7628C10.7416 16.9419 10.5086 17.0957 10.2653 17.2276C9.08523 17.8723 7.65623 17.9868 6.40592 17.4981C5.98252 17.3318 5.57981 17.0983 5.21549 16.793C4.16905 15.9574 3.61065 14.6625 3.60221 13.3712Z" fill="currentcolor"/>
<path d="M14.111 10.1719C14.5963 9.81218 15.2541 9.8643 15.6803 10.2628C15.7407 10.3186 15.7948 10.3821 15.8454 10.4522C15.872 10.4908 15.8977 10.5304 15.9215 10.5704C15.9328 10.5904 15.9455 10.6109 15.9567 10.6309C16.1199 10.9032 16.2519 11.1887 16.3532 11.4825L16.4118 11.6622C16.4672 11.8443 16.5109 12.0289 16.5436 12.2159C16.8067 13.7051 16.3631 15.2934 15.3053 16.377C15.0873 16.6006 14.8454 16.8018 14.5768 16.9766C13.5022 17.7146 12.1629 17.8682 10.9772 17.5128C11.2206 17.3752 11.452 17.2109 11.6686 17.0303C11.9962 16.7524 12.2873 16.4298 12.5319 16.0645C12.8976 15.9584 13.2393 15.775 13.5319 15.5098C13.5417 15.5013 13.5504 15.4944 13.5602 15.4844H13.5631C14.5463 14.6259 14.7065 13.0291 13.9176 12.0401C13.9148 12.0372 13.9115 12.0312 13.9059 12.0284C13.8834 11.9998 13.8596 11.971 13.8385 11.9395C13.5348 11.5138 13.5287 10.959 13.7819 10.5362C13.8635 10.3986 13.9746 10.2737 14.111 10.1719Z" fill="currentcolor"/>
<path d="M5.19303 5.04108C5.08052 5.29187 4.99058 5.55291 4.92447 5.82233C4.8232 6.21933 4.77292 6.62942 4.77994 7.04791C4.4916 7.37899 4.28185 7.77895 4.18619 8.22467C4.1595 8.33059 4.13983 8.43517 4.12857 8.54108C3.99073 9.74067 4.75428 10.9597 5.87662 11.2637C5.88078 11.2651 5.8867 11.2676 5.89225 11.2676C5.92741 11.2762 5.9645 11.2864 5.99967 11.2979C6.44401 11.4456 6.75068 11.8198 6.83365 12.254C6.87722 12.4589 6.86599 12.6782 6.7985 12.8917C6.62549 13.4363 6.12606 13.7771 5.59439 13.7657C5.47495 13.7657 5.35251 13.7447 5.23307 13.7061C5.18946 13.6904 5.14679 13.6711 5.10318 13.6553C5.08217 13.6468 5.06072 13.638 5.03971 13.628C4.78527 13.5191 4.54491 13.3888 4.31998 13.2383C4.07804 13.0792 3.85304 12.897 3.64908 12.6964C2.71232 11.779 2.16806 10.4793 2.20182 9.15924C2.21307 8.65766 2.30732 8.15334 2.49576 7.66608C2.95148 6.39194 3.98764 5.44675 5.19303 5.04108Z" fill="currentcolor"/>
<path d="M9.99283 8.70026C10.8544 8.70026 11.5523 9.39831 11.5524 10.2598C11.5524 11.1214 10.8544 11.8204 9.99283 11.8204C9.13128 11.8204 8.43326 11.1214 8.43326 10.2598C8.43332 9.39832 9.13132 8.70028 9.99283 8.70026Z" fill="currentcolor"/>
<path d="M13.0846 4.54206C13.3264 4.53633 13.5683 4.55066 13.8073 4.58502C15.3559 4.80144 16.7641 5.80915 17.4098 7.28815C17.5041 7.50315 17.5832 7.7303 17.6422 7.96393C17.9924 9.21369 17.7378 10.5365 17.0641 11.5684C17.0107 11.3234 16.9387 11.0842 16.8473 10.8506C16.6813 10.4235 16.4534 10.0174 16.1608 9.65045C16.1734 9.31081 16.121 8.96991 15.9987 8.64459C15.9847 8.60454 15.9677 8.56453 15.9508 8.52448C15.4698 7.28183 14.0118 6.61246 12.8317 7.07819C12.8275 7.07961 12.8217 7.08217 12.8161 7.08502C12.7823 7.09792 12.7467 7.11262 12.7116 7.12409C12.2405 7.28013 11.7472 7.13603 11.4294 6.79499C11.3028 6.66175 11.2043 6.49877 11.1452 6.31256C10.9609 5.72926 11.2106 5.10799 11.7155 4.81842C11.7857 4.77549 11.862 4.74309 11.942 4.71588C11.987 4.70443 12.0309 4.69121 12.0758 4.67975C12.0983 4.67545 12.1197 4.66986 12.1422 4.66413C12.4545 4.58817 12.7696 4.54922 13.0846 4.54206Z" fill="currentcolor"/>
<path d="M10.1745 2.20709C11.4712 2.25588 12.6457 2.93537 13.401 3.93561C13.162 3.91269 12.9202 3.90913 12.6784 3.92487C12.2423 3.9521 11.8046 4.04357 11.3854 4.20124C11.007 4.04644 10.5946 3.97757 10.1754 4.02057C10.1671 4.02062 10.1584 4.0235 10.1501 4.0235C8.93432 4.11503 7.92643 5.17384 7.86197 6.36041V6.61627C7.86479 6.65211 7.86783 6.69131 7.86783 6.72858C7.86768 7.19422 7.61807 7.60212 7.24967 7.82135C7.0668 7.93172 6.85309 7.9942 6.62662 7.9942V7.99225C6.05144 7.9922 5.56759 7.59398 5.42545 7.05377C5.39732 6.95058 5.38346 6.83986 5.38346 6.72663C5.38627 6.68079 5.38846 6.63326 5.39127 6.586C5.39267 6.56177 5.39434 6.53895 5.39713 6.51471C5.42103 6.21382 5.47325 5.91853 5.55338 5.63483C5.62652 5.37253 5.72221 5.1212 5.83756 4.87897C6.46632 3.55184 7.69284 2.54971 9.12467 2.27448C9.46367 2.20998 9.81578 2.18559 10.1745 2.20709Z" fill="currentcolor"/>
</svg>
