<svg width="20" height="20" viewBox="0 0 20 20" fill="none" xmlns="http://www.w3.org/2000/svg">
<path d="M14.628 1.66666H5.37199C3.3256 1.66666 1.66666 3.32559 1.66666 5.37199V14.628C1.66666 16.6744 3.3256 18.3333 5.37199 18.3333H14.628C16.6744 18.3333 18.3333 16.6744 18.3333 14.628V5.37199C18.3333 3.32559 16.6744 1.66666 14.628 1.66666Z" fill="url(#paint0_linear_143_2592)"/>
<path d="M5.90289 8.10339C8.95394 8.47686 11.1308 11.2375 10.7757 14.2789C10.7757 14.2887 10.7757 14.3009 10.7733 14.3107C10.7733 14.3204 10.7733 14.3278 10.7684 14.3375C10.7047 14.8404 10.575 15.3188 10.3913 15.7655C9.17677 15.6166 8.1018 15.0918 7.26925 14.318C7.33047 14.1691 7.38434 14.0153 7.43086 13.8591C7.52391 13.5564 7.59003 13.2391 7.63165 12.9145C7.68063 12.519 7.68552 12.1285 7.65124 11.7477C7.52881 10.3515 6.87991 9.07732 5.88575 8.15465C5.89065 8.13757 5.89799 8.12292 5.90534 8.10583L5.90289 8.10339Z" fill="url(#paint1_linear_143_2592)"/>
<path d="M14.15 11.8966C11.099 11.5231 8.9221 8.76245 9.27715 5.72105C9.27715 5.71129 9.27715 5.69909 9.2796 5.68932C9.2796 5.67956 9.2796 5.67224 9.2845 5.66247C9.34817 5.15964 9.47795 4.68122 9.6616 4.23453C10.8761 4.38342 11.9511 4.90822 12.7837 5.682C12.7224 5.8309 12.6686 5.98467 12.622 6.14089C12.529 6.44357 12.4629 6.76089 12.4212 7.08553C12.3723 7.48096 12.3674 7.87151 12.4017 8.2523C12.5241 9.64851 13.173 10.9227 14.1672 11.8453C14.1623 11.8624 14.1549 11.8771 14.1476 11.8942L14.15 11.8966Z" fill="url(#paint2_linear_143_2592)"/>
<path d="M14.15 11.8966C11.099 11.5231 8.9221 8.76244 9.27715 5.72104C9.95544 6.90001 11.0573 7.82024 12.4017 8.25472C12.7371 8.36456 13.0897 8.44267 13.4521 8.48661C13.7827 8.52567 14.1108 8.53787 14.4316 8.52078C14.6495 8.50858 14.8626 8.48417 15.0756 8.45C15.6339 9.4459 15.891 10.62 15.7441 11.8404C15.7441 11.8502 15.7441 11.8575 15.7392 11.8673C15.2519 11.9478 14.7475 11.9625 14.2333 11.9088C14.199 11.9039 14.172 11.9015 14.15 11.899V11.8966Z" fill="white"/>
<path d="M5.90288 8.10339C8.95393 8.47685 11.1308 11.2375 10.7757 14.2789C10.0975 13.1 8.99556 12.1797 7.65124 11.7453C7.31577 11.6354 6.96316 11.5573 6.60076 11.5134C6.27019 11.4743 5.94206 11.4621 5.62129 11.4792C5.40336 11.4914 5.19032 11.5158 4.97729 11.55C4.41899 10.5541 4.16188 9.37999 4.3088 8.15953C4.3088 8.14976 4.3088 8.14244 4.3137 8.13268C4.80098 8.05213 5.30541 8.03748 5.81963 8.09118C5.84901 8.09362 5.8735 8.09606 5.90288 8.10095V8.10339Z" fill="white"/>
<defs>
<linearGradient id="paint0_linear_143_2592" x1="18.5945" y1="0.936817" x2="3.73657" y2="16.6027" gradientUnits="userSpaceOnUse">
<stop offset="0.01" stop-color="#E9913E"/>
<stop offset="1" stop-color="#F20000"/>
</linearGradient>
<linearGradient id="paint1_linear_143_2592" x1="5.87106" y1="16.1902" x2="9.44801" y2="9.45603" gradientUnits="userSpaceOnUse">
<stop offset="0.19" stop-color="white"/>
<stop offset="0.4" stop-color="#FDFCFC" stop-opacity="0.99"/>
<stop offset="0.51" stop-color="#F9F4F5" stop-opacity="0.97"/>
<stop offset="0.6" stop-color="#F3E7E9" stop-opacity="0.93"/>
<stop offset="0.67" stop-color="#E9D4D7" stop-opacity="0.88"/>
<stop offset="0.74" stop-color="#DDBBC0" stop-opacity="0.81"/>
<stop offset="0.81" stop-color="#CE9CA4" stop-opacity="0.73"/>
<stop offset="0.87" stop-color="#BC7883" stop-opacity="0.63"/>
<stop offset="0.92" stop-color="#A84E5C" stop-opacity="0.51"/>
<stop offset="0.97" stop-color="#911F31" stop-opacity="0.38"/>
<stop offset="1" stop-color="#830317" stop-opacity="0.3"/>
</linearGradient>
<linearGradient id="paint2_linear_143_2592" x1="15.3939" y1="-1.09402" x2="10.005" y2="13.1455" gradientUnits="userSpaceOnUse">
<stop offset="0.19" stop-color="white"/>
<stop offset="0.4" stop-color="#FDFCFC" stop-opacity="0.99"/>
<stop offset="0.51" stop-color="#F9F4F5" stop-opacity="0.97"/>
<stop offset="0.6" stop-color="#F3E7E9" stop-opacity="0.93"/>
<stop offset="0.67" stop-color="#E9D4D7" stop-opacity="0.88"/>
<stop offset="0.74" stop-color="#DDBBC0" stop-opacity="0.81"/>
<stop offset="0.81" stop-color="#CE9CA4" stop-opacity="0.73"/>
<stop offset="0.87" stop-color="#BC7883" stop-opacity="0.63"/>
<stop offset="0.92" stop-color="#A84E5C" stop-opacity="0.51"/>
<stop offset="0.97" stop-color="#911F31" stop-opacity="0.38"/>
<stop offset="1" stop-color="#830317" stop-opacity="0.3"/>
</linearGradient>
</defs>
</svg>
