<svg xmlns="http://www.w3.org/2000/svg" width="20" height="20" viewBox="0 0 20 20" fill="none">
  <path fill-rule="evenodd" clip-rule="evenodd" d="M15.6285 3.37793C16.3492 3.37793 16.9265 3.59391 17.359 4.02637C17.8044 4.45877 18.0269 5.02884 18.0269 5.73633V14.0908C18.0269 14.8114 17.8043 15.3943 17.359 15.8398C16.9266 16.2722 16.3629 16.4892 15.6685 16.4893H4.40486C3.6841 16.4893 3.10042 16.2723 2.65486 15.8398C2.20956 15.3943 1.99332 14.8178 2.00642 14.1104V5.77539C2.00651 5.05492 2.22258 4.47825 2.65486 4.0459C3.08731 3.60034 3.65814 3.37793 4.3658 3.37793H15.6285ZM10.7008 6.5C10.7008 7.43875 9.93925 8.19997 9.00056 8.2002H3.36287V13.9922C3.36287 14.3198 3.46764 14.5892 3.67732 14.7988C3.88697 15.0084 4.16286 15.1133 4.50349 15.1133H15.5308C15.8713 15.1132 16.1464 15.0083 16.356 14.7988C16.5657 14.5892 16.6705 14.3198 16.6705 13.9922V5.87402C16.6705 5.53339 16.5656 5.25847 16.356 5.04883C16.1464 4.8392 15.8714 4.73442 15.5308 4.73438H10.7008V6.5ZM4.50349 4.73438C4.17587 4.73438 3.9001 4.83915 3.67732 5.04883C3.4678 5.25846 3.36289 5.53346 3.36287 5.87402V6.7998H9.00056C9.16606 6.79958 9.30037 6.66555 9.30037 6.5V4.73438H4.50349Z" fill="currentcolor"/>
</svg>