<svg width="20" height="20" viewBox="0 0 20 20" fill="none" xmlns="http://www.w3.org/2000/svg">
<path d="M10.5399 4.54499C10.5399 4.3561 10.6013 4.20027 10.7241 4.07749C10.8469 3.94527 11.0027 3.87916 11.1916 3.87916C11.3899 3.87916 11.5505 3.94527 11.6733 4.07749C11.8055 4.20027 11.8669 4.3561 11.8574 4.54499L11.7158 7.59082L12.6083 6.61332L15.8383 3.46832C15.9894 3.3361 16.1405 3.26999 16.2916 3.26999C16.4805 3.26999 16.6363 3.34082 16.7591 3.48249C16.8819 3.60527 16.9433 3.75166 16.9433 3.92166C16.9433 4.1011 16.8724 4.26166 16.7308 4.40332L13.5008 7.49166L12.4949 8.34166L15.6258 8.21416C15.8335 8.20471 15.9988 8.2661 16.1216 8.39832C16.2538 8.5211 16.3199 8.68166 16.3199 8.87999C16.3199 9.06888 16.2538 9.22471 16.1216 9.34749C15.9988 9.47027 15.8335 9.53166 15.6258 9.53166H11.8291C11.4513 9.53166 11.1397 9.40888 10.8941 9.16332C10.658 8.91777 10.5399 8.6061 10.5399 8.22832V4.54499ZM9.46327 15.2408C9.46327 15.4297 9.40188 15.5855 9.2791 15.7083C9.15633 15.8405 9.00049 15.9067 8.8116 15.9067C8.61327 15.9067 8.44799 15.8405 8.31577 15.7083C8.19299 15.5855 8.13633 15.4297 8.14577 15.2408L8.28744 12.195L7.39494 13.1725L4.16494 16.3175C4.01383 16.4497 3.86271 16.5158 3.7116 16.5158C3.53216 16.5158 3.37633 16.445 3.2441 16.3033C3.12133 16.1805 3.05994 16.0342 3.05994 15.8642C3.05994 15.6847 3.13077 15.5242 3.27244 15.3825L6.50244 12.2942L7.50827 11.4442L4.37744 11.5717C4.16966 11.5811 3.99966 11.5244 3.86744 11.4017C3.74466 11.2694 3.68327 11.1042 3.68327 10.9058C3.68327 10.7169 3.74466 10.5611 3.86744 10.4383C3.99966 10.3155 4.16966 10.2542 4.37744 10.2542H8.1741C8.55188 10.2542 8.85883 10.3769 9.09494 10.6225C9.34049 10.868 9.46327 11.1797 9.46327 11.5575V15.2408Z" fill="currentColor"/>
</svg>
