<svg width="20" height="20" viewBox="0 0 20 20" fill="none" xmlns="http://www.w3.org/2000/svg">
<path d="M16.9291 8.10083C16.9291 8.28972 16.8677 8.45028 16.7449 8.5825C16.6222 8.70528 16.4663 8.76667 16.2774 8.76667C16.0791 8.76667 15.9138 8.70528 15.7816 8.5825C15.6588 8.45028 15.6022 8.28972 15.6116 8.10083L15.7533 5.055L14.8608 6.0325L11.6308 9.1775C11.4797 9.30972 11.3285 9.37583 11.1774 9.37583C10.998 9.37583 10.8422 9.305 10.7099 9.16333C10.5872 9.04056 10.5258 8.89417 10.5258 8.72417C10.5258 8.54472 10.5966 8.38417 10.7383 8.2425L13.9683 5.15417L14.9741 4.30417L11.8433 4.43167C11.6355 4.44111 11.4655 4.38444 11.3333 4.26167C11.2105 4.12944 11.1491 3.96417 11.1491 3.76583C11.1491 3.57694 11.2105 3.42111 11.3333 3.29833C11.4655 3.17556 11.6355 3.11417 11.8433 3.11417H15.6399C16.0177 3.11417 16.3247 3.23694 16.5608 3.4825C16.8063 3.72806 16.9291 4.03972 16.9291 4.4175V8.10083ZM3.13077 11.6283C3.13077 11.4394 3.19216 11.2836 3.31494 11.1608C3.43772 11.0286 3.59355 10.9625 3.78244 10.9625C3.98077 10.9625 4.14133 11.0286 4.26411 11.1608C4.39633 11.2836 4.45772 11.4394 4.44827 11.6283L4.30661 14.6742L5.1991 13.6967L8.4291 10.5517C8.58022 10.4194 8.73133 10.3533 8.88244 10.3533C9.07133 10.3533 9.22716 10.4242 9.34994 10.5658C9.47272 10.6886 9.5341 10.835 9.5341 11.005C9.5341 11.1844 9.46327 11.345 9.32161 11.4867L6.0916 14.575L5.08577 15.425L8.2166 15.2975C8.42438 15.2881 8.58966 15.3447 8.71244 15.4675C8.84466 15.5997 8.91077 15.765 8.91077 15.9633C8.91077 16.1522 8.84466 16.3081 8.71244 16.4308C8.58966 16.5536 8.42438 16.615 8.2166 16.615H4.41994C4.04216 16.615 3.73049 16.4922 3.48494 16.2467C3.24883 16.0011 3.13077 15.6894 3.13077 15.3117V11.6283Z" fill="currentColor"/>
</svg>
